<svg xmlns="http://www.w3.org/2000/svg" xmlns:xlink="http://www.w3.org/1999/xlink" width="99" height="99" viewBox="0 0 99 99">
  <defs>
    <clipPath id="clip-path">
      <rect id="Rectangle_401273" data-name="Rectangle 401273" width="15.047" height="15.048" fill="#f6f8de"/>
    </clipPath>
    <clipPath id="clip-path-2">
      <path id="Path_873519" data-name="Path 873519" d="M15.047,7.524A7.524,7.524,0,1,1,7.524,0a7.524,7.524,0,0,1,7.524,7.524" fill="#f6f8de"/>
    </clipPath>
  </defs>
  <g id="Group_1120615" data-name="Group 1120615" transform="translate(-1190.711 -1154)">
    <rect id="Rectangle_409539" data-name="Rectangle 409539" width="99" height="99" rx="49.5" transform="translate(1190.711 1154)" fill="#f3f9ff"/>
    <g id="Group_1119772" data-name="Group 1119772" transform="translate(243.084 -7981.033)">
      <g id="Group_1099855" data-name="Group 1099855" transform="translate(948.664 9139)">
        <g id="Group_1099808" data-name="Group 1099808">
          <g id="Group_1101062" data-name="Group 1101062" transform="translate(-307.943 -6779.151)">
            <g id="Group_1101056" data-name="Group 1101056" transform="translate(330.953 6828.445) rotate(90)" opacity="0.998" style="isolation: isolate">
              <g id="Group_1099844" data-name="Group 1099844" transform="translate(0 0)">
                <g id="Group_1099843" data-name="Group 1099843" transform="translate(0 0)" clip-path="url(#clip-path)">
                  <g id="Group_1099842" data-name="Group 1099842" transform="translate(0 0)">
                    <g id="Group_1099841" data-name="Group 1099841" clip-path="url(#clip-path-2)">
                      <rect id="Rectangle_401272" data-name="Rectangle 401272" width="19.128" height="19.128" transform="translate(-4.634 13.451) rotate(-70.991)" fill="#f6f8de"/>
                    </g>
                  </g>
                </g>
              </g>
            </g>
            <g id="Group_1101057" data-name="Group 1101057" transform="translate(330.953 6843.492) rotate(90)" opacity="0.998" style="isolation: isolate">
              <g id="Group_1099844-2" data-name="Group 1099844" transform="translate(0 0)">
                <g id="Group_1099843-2" data-name="Group 1099843" transform="translate(0 0)" clip-path="url(#clip-path)">
                  <g id="Group_1099842-2" data-name="Group 1099842" transform="translate(0 0)">
                    <g id="Group_1099841-2" data-name="Group 1099841" clip-path="url(#clip-path-2)">
                      <rect id="Rectangle_401272-2" data-name="Rectangle 401272" width="19.128" height="19.128" transform="translate(-4.634 13.451) rotate(-70.991)" fill="#f6f8de"/>
                    </g>
                  </g>
                </g>
              </g>
            </g>
            <g id="Group_1101058" data-name="Group 1101058" transform="translate(330.953 6858.54) rotate(90)" opacity="0.998" style="isolation: isolate">
              <g id="Group_1099844-3" data-name="Group 1099844" transform="translate(0 0)">
                <g id="Group_1099843-3" data-name="Group 1099843" transform="translate(0 0)" clip-path="url(#clip-path)">
                  <g id="Group_1099842-3" data-name="Group 1099842" transform="translate(0 0)">
                    <g id="Group_1099841-3" data-name="Group 1099841" clip-path="url(#clip-path-2)">
                      <rect id="Rectangle_401272-3" data-name="Rectangle 401272" width="19.128" height="19.128" transform="translate(-4.634 13.451) rotate(-70.991)" fill="#f6f8de"/>
                    </g>
                  </g>
                </g>
              </g>
            </g>
            <g id="Group_1101059" data-name="Group 1101059" transform="translate(346 6858.676) rotate(90)" opacity="0.998" style="isolation: isolate">
              <g id="Group_1099844-4" data-name="Group 1099844" transform="translate(0 0)">
                <g id="Group_1099843-4" data-name="Group 1099843" transform="translate(0 0)" clip-path="url(#clip-path)">
                  <g id="Group_1099842-4" data-name="Group 1099842" transform="translate(0 0)">
                    <g id="Group_1099841-4" data-name="Group 1099841" clip-path="url(#clip-path-2)">
                      <rect id="Rectangle_401272-4" data-name="Rectangle 401272" width="19.128" height="19.128" transform="translate(-4.634 13.451) rotate(-70.991)" fill="#f6f8de"/>
                    </g>
                  </g>
                </g>
              </g>
            </g>
            <g id="Group_1101060" data-name="Group 1101060" transform="translate(346 6843.492) rotate(90)" opacity="0.998" style="isolation: isolate">
              <g id="Group_1099844-5" data-name="Group 1099844" transform="translate(0 0)">
                <g id="Group_1099843-5" data-name="Group 1099843" transform="translate(0 0)" clip-path="url(#clip-path)">
                  <g id="Group_1099842-5" data-name="Group 1099842" transform="translate(0 0)">
                    <g id="Group_1099841-5" data-name="Group 1099841" clip-path="url(#clip-path-2)">
                      <rect id="Rectangle_401272-5" data-name="Rectangle 401272" width="19.128" height="19.128" transform="translate(-4.634 13.451) rotate(-70.991)" fill="#f6f8de"/>
                    </g>
                  </g>
                </g>
              </g>
            </g>
            <g id="Group_1101061" data-name="Group 1101061" transform="translate(361.047 6858.676) rotate(90)" opacity="0.998" style="isolation: isolate">
              <g id="Group_1099844-6" data-name="Group 1099844" transform="translate(0 0)">
                <g id="Group_1099843-6" data-name="Group 1099843" transform="translate(0 0)" clip-path="url(#clip-path)">
                  <g id="Group_1099842-6" data-name="Group 1099842" transform="translate(0 0)">
                    <g id="Group_1099841-6" data-name="Group 1099841" clip-path="url(#clip-path-2)">
                      <rect id="Rectangle_401272-6" data-name="Rectangle 401272" width="19.128" height="19.128" transform="translate(-4.634 13.451) rotate(-70.991)" fill="#f6f8de"/>
                    </g>
                  </g>
                </g>
              </g>
            </g>
          </g>
          <g id="Group_1099776" data-name="Group 1099776" transform="translate(20.038 16.035)">
            <g id="Group_1099618" data-name="Group 1099618">
              <rect id="Rectangle_401104" data-name="Rectangle 401104" width="57.823" height="58.52" transform="translate(0)" fill="none"/>
            </g>
            <path id="Path_907123" data-name="Path 907123" d="M22.089,64.528a.795.795,0,1,1,.581-.222.795.795,0,0,1-.581.222Zm3.85,0a.795.795,0,1,1,.58-.222A.795.795,0,0,1,25.939,64.528Zm3.85,0a.795.795,0,1,1,.58-.222A.795.795,0,0,1,29.789,64.528Zm7.678,0a.795.795,0,0,1,0-1.589H60.286a.795.795,0,0,1,0,1.589Zm34.049,26.09a8.9,8.9,0,1,0,0,12.591A8.9,8.9,0,0,0,71.517,90.618ZM60.734,97.4a.793.793,0,0,1,1.08-1.161l2.306,2.148,4.481-4.6a.792.792,0,1,1,1.136,1.1l-5.01,5.145a.793.793,0,0,1-1.121.04L60.734,97.4ZM41.148,81.433v0a4.028,4.028,0,0,1,4.063,3.98h0a4.028,4.028,0,0,1-3.98,4.063v0a4.028,4.028,0,0,1-4.063-3.98h0a4.028,4.028,0,0,1,3.98-4.063Zm0,1.589a2.436,2.436,0,0,0-2.4,2.474h0a2.436,2.436,0,0,0,2.474,2.4v0a2.436,2.436,0,0,0,2.4-2.474h0a2.436,2.436,0,0,0-2.474-2.4v0Zm2.44-3.41Q43.3,79.5,43,79.4a.793.793,0,0,1-.585-.605l-.269-1.248-1.985.025-.224,1.178c-.1.636-.625.642-1.182.875q-.293.122-.555.263a.793.793,0,0,1-.847-.006l-1.076-.695-1.386,1.421.69,1.013a.793.793,0,0,1,.051.834,6.374,6.374,0,0,0-.489,1.173.793.793,0,0,1-.61.6l-1.248.269.025,1.985,1.179.224c.636.1.642.625.875,1.182q.122.293.263.555a.793.793,0,0,1-.006.848l-.695,1.077,1.421,1.386,1.013-.689a.793.793,0,0,1,.834-.052,6.366,6.366,0,0,0,1.173.489.793.793,0,0,1,.6.609l.269,1.248,1.985-.025.224-1.179c.1-.636.625-.642,1.182-.875q.293-.122.554-.263a.793.793,0,0,1,.848.006l1.077.695L47.487,90.3,46.8,89.288a.793.793,0,0,1-.052-.834,6.378,6.378,0,0,0,.489-1.173.793.793,0,0,1,.61-.6l1.248-.269-.025-1.985L47.89,84.2c-.636-.1-.642-.625-.875-1.182q-.122-.293-.263-.555a.793.793,0,0,1,.006-.847l.695-1.077-1.421-1.386-1.013.689a.793.793,0,0,1-.834.051,6.311,6.311,0,0,0-.6-.284Zm.28-1.59-.31-1.437h0a.792.792,0,0,0-.784-.627l-3.24.04a.793.793,0,0,0-.811.646l-.265,1.4-.629.264-1.239-.8a.793.793,0,0,0-1,.114l-2.269,2.326a.793.793,0,0,0-.109,1.022l.8,1.176-.258.63-1.437.31v0a.792.792,0,0,0-.627.784l.04,3.24a.793.793,0,0,0,.646.811l1.4.265.264.629-.8,1.239a.793.793,0,0,0,.115,1l2.326,2.269a.793.793,0,0,0,1.022.109l1.176-.8.63.258.31,1.437h0a.792.792,0,0,0,.784.627l3.24-.04a.793.793,0,0,0,.811-.646l.265-1.4.629-.264,1.239.8a.793.793,0,0,0,1-.114l2.27-2.326a.793.793,0,0,0,.109-1.022l-.8-1.176.258-.63,1.437-.31v0a.792.792,0,0,0,.627-.784l-.04-3.24A.793.793,0,0,0,50,82.989L48.6,82.724l-.264-.629.8-1.239a.793.793,0,0,0-.114-1L46.7,77.591a.793.793,0,0,0-1.022-.109l-1.176.8-.63-.259Zm12.866,25.061a10.493,10.493,0,1,0,9.641-16.6V60.507a2.323,2.323,0,0,0-2.318-2.318H18.318A2.323,2.323,0,0,0,16,60.507v40.259a2.323,2.323,0,0,0,2.318,2.318Zm8.052-33.909V86.43A10.495,10.495,0,0,0,55.779,101.5H18.318a.733.733,0,0,1-.729-.729V69.175Zm-47.2-1.589h47.2V60.507a.733.733,0,0,0-.729-.729H18.318a.733.733,0,0,0-.729.729ZM37.108,97.274a12.618,12.618,0,0,0,1.439.4.795.795,0,1,1-.334,1.554,14.226,14.226,0,0,1-1.621-.452.795.795,0,1,1,.516-1.5ZM32.13,94.068a12.548,12.548,0,0,0,1.092,1.019.795.795,0,1,1-1.01,1.227,14.11,14.11,0,0,1-1.231-1.148.795.795,0,1,1,1.149-1.1Zm-3.2-11.049a12.7,12.7,0,0,0-.2,1.48.795.795,0,1,1-1.585-.118,14.334,14.334,0,0,1,.226-1.667.795.795,0,0,1,1.56.3Zm.753,7.322a.795.795,0,0,1-1.46.628,13.445,13.445,0,0,1-.566-1.588.795.795,0,1,1,1.526-.445,12.6,12.6,0,0,0,.5,1.406Zm1.744-12.688a12.549,12.549,0,0,0-.862,1.22.795.795,0,1,1-1.351-.837,14.183,14.183,0,0,1,.97-1.374.795.795,0,1,1,1.243.991Zm14.97-2.537-.329-1.174a12.5,12.5,0,0,1-4.875,24.013.795.795,0,0,0,0,1.589,14.089,14.089,0,0,0,5.869-26.9l.858-.241a.793.793,0,0,0-.428-1.527l-2.881.807a.793.793,0,0,0-.549.978l.807,2.881a.793.793,0,1,0,1.527-.428Z" transform="translate(-16.786 -53.132)" fill="#474d41" fill-rule="evenodd"/>
          </g>
        </g>
      </g>
    </g>
  </g>
</svg>
