<svg xmlns="http://www.w3.org/2000/svg" xmlns:xlink="http://www.w3.org/1999/xlink" width="295.289" height="189" viewBox="0 0 295.289 189">
  <defs>
    <clipPath id="clip-path">
      <rect id="Rectangle_409741" data-name="Rectangle 409741" width="236.965" height="185.157" fill="none"/>
    </clipPath>
    <clipPath id="clip-path-3">
      <rect id="Rectangle_409721" data-name="Rectangle 409721" width="97.06" height="20.007" fill="none"/>
    </clipPath>
    <clipPath id="clip-path-4">
      <rect id="Rectangle_409722" data-name="Rectangle 409722" width="67.924" height="122.37" fill="none"/>
    </clipPath>
    <clipPath id="clip-path-5">
      <rect id="Rectangle_409725" data-name="Rectangle 409725" width="130.263" height="93.187" fill="none"/>
    </clipPath>
    <clipPath id="clip-path-6">
      <path id="Path_908112" data-name="Path 908112" d="M203.6,133.866a6.466,6.466,0,0,1,6.465-6.46H275.96a7.041,7.041,0,0,0-4.259,6.46v82.941a6.545,6.545,0,0,1-8.752,6.175L211.774,204.8a15.142,15.142,0,0,0-8.174-.557Zm6.465-6.745a6.749,6.749,0,0,0-6.75,6.745V204.6a14.9,14.9,0,0,1,8.364.471l51.175,18.178a6.828,6.828,0,0,0,9.131-6.444V133.866a6.745,6.745,0,0,1,6.75-6.745Z" transform="translate(-203.315 -127.121)" fill="none"/>
    </clipPath>
    <clipPath id="clip-path-7">
      <rect id="Rectangle_409727" data-name="Rectangle 409727" width="54.017" height="16.344" fill="none"/>
    </clipPath>
    <clipPath id="clip-path-9">
      <path id="Path_908118" data-name="Path 908118" d="M178.477,281.054l-11.36-3.995,14.34-11.042a14.633,14.633,0,0,1,14.322-2.6l50.741,18.024H180.679a6.549,6.549,0,0,1-2.2-.384m9.032-18.38a14.862,14.862,0,0,0-6.237,3.126l-14.746,11.354,11.856,4.169a6.841,6.841,0,0,0,2.3.4h68.67a6.843,6.843,0,0,1-2.3-.4l-51.175-18.178a14.895,14.895,0,0,0-8.364-.471" transform="translate(-166.526 -262.286)" fill="none"/>
    </clipPath>
    <clipPath id="clip-path-10">
      <rect id="Rectangle_409729" data-name="Rectangle 409729" width="83.545" height="19.437" fill="none"/>
    </clipPath>
    <clipPath id="clip-path-12">
      <path id="Path_908125" data-name="Path 908125" d="M324,133.854a7.141,7.141,0,0,1,1.721-4.709,6.3,6.3,0,0,1,4.744-1.739,6.4,6.4,0,0,1,4.566,1.894h0a6.42,6.42,0,0,1,1.893,4.567v12.415H324Zm-.285.012v12.7h13.495v-12.7a6.749,6.749,0,0,0-6.745-6.745c-7.027,0-6.75,6.745-6.75,6.745" transform="translate(-323.711 -127.121)" fill="none"/>
    </clipPath>
    <clipPath id="clip-path-13">
      <rect id="Rectangle_409731" data-name="Rectangle 409731" width="13.496" height="19.446" fill="none"/>
    </clipPath>
    <clipPath id="clip-path-15">
      <rect id="Rectangle_409732" data-name="Rectangle 409732" width="57.783" height="36.097" fill="none"/>
    </clipPath>
  </defs>
  <g id="Group_1120631" data-name="Group 1120631" transform="translate(-915.289 -1367)">
    <rect id="Rectangle_409117" data-name="Rectangle 409117" width="295.289" height="189" transform="translate(915.289 1367)" fill="none"/>
    <g id="Group_1120940" data-name="Group 1120940" transform="translate(941.613 1367.361)">
      <g id="Group_1120939" data-name="Group 1120939" clip-path="url(#clip-path)">
        <g id="Group_1120914" data-name="Group 1120914">
          <g id="Group_1120913" data-name="Group 1120913" clip-path="url(#clip-path)">
            <path id="Path_907930" data-name="Path 907930" d="M241.793,125.912S253.272,65.2,222,30.751C194.4.342,150.691-11.485,115.067,13.661c-12.693,8.96-21.932,26.353-36.76,31.73-16.626,6.028-38,8.181-53.44,34.017s-9.9,58.992,10.688,76.646,56.607.431,89.066-.861,100.15,45.644,117.172-29.28" transform="translate(-6.885 0)" fill="#b9bfe2"/>
            <path id="Path_907931" data-name="Path 907931" d="M249.884,60.006H213.665a2.925,2.925,0,0,0-2.924,2.924v4.452a2.924,2.924,0,0,0,2.924,2.924h36.219Z" transform="translate(-90.544 -25.781)" fill="#fff"/>
            <path id="Path_907932" data-name="Path 907932" d="M249.884,37.431H215.891a5.15,5.15,0,0,0,0,10.3h33.993Z" transform="translate(-90.544 -16.082)" fill="#fff"/>
            <rect id="Rectangle_409718" data-name="Rectangle 409718" width="12.361" height="34.508" transform="translate(162.431 9.503)" fill="#fff"/>
            <rect id="Rectangle_409719" data-name="Rectangle 409719" width="12.361" height="34.508" transform="translate(177.882 9.503)" fill="#fff"/>
            <rect id="Rectangle_409720" data-name="Rectangle 409720" width="12.361" height="34.508" transform="translate(193.333 9.503)" fill="#fff"/>
            <g id="Group_1120906" data-name="Group 1120906" transform="translate(116.096 44.931)" opacity="0.15">
              <g id="Group_1120905" data-name="Group 1120905">
                <g id="Group_1120904" data-name="Group 1120904" clip-path="url(#clip-path-3)">
                  <path id="Path_907933" data-name="Path 907933" d="M300.61,78.778H203.55V84.53h7.874V98.785h4.688V84.53H285.76V98.785h4.687V84.53H300.61Z" transform="translate(-203.55 -78.778)"/>
                </g>
              </g>
            </g>
            <g id="Group_1120909" data-name="Group 1120909" transform="translate(35.088 29.254)" opacity="0.15">
              <g id="Group_1120908" data-name="Group 1120908">
                <g id="Group_1120907" data-name="Group 1120907" clip-path="url(#clip-path-4)">
                  <path id="Path_907934" data-name="Path 907934" d="M123.635,84.081a30.961,30.961,0,0,0-3.242,1.258q.866-.64,1.708-1.31a82.494,82.494,0,0,0,7.343-6.645,79.045,79.045,0,0,1-8.695,7.3,18.734,18.734,0,0,0,1.111-2.277c.548-1.438.682-2.882-.692-3.655-1.689-.951-3.74.468-3.2,2.907a8.942,8.942,0,0,0,1.861,3.67,54.982,54.982,0,0,1-6.237,3.736c-.068.035-.137.068-.205.1a20.161,20.161,0,0,0,1.207-2.452c.548-1.437.682-2.882-.692-3.655-1.689-.95-3.739.469-3.2,2.907a8.926,8.926,0,0,0,1.829,3.631c-2.593,1.277-5.279,2.362-7.945,3.54-.13.057-.26.117-.39.176a17.2,17.2,0,0,0,1.45-1.777c.868-1.271,1.334-2.644.178-3.716-1.422-1.318-3.746-.415-3.785,2.082a8.935,8.935,0,0,0,.94,3.972,40.525,40.525,0,0,0-7.072,4.2c-.024.017-.047.036-.071.054a14.43,14.43,0,0,0,.817-1.466c.654-1.393.9-2.823-.417-3.7a2.142,2.142,0,0,0-3.227,1,1.951,1.951,0,0,0-.691-.656c-1.323-.765-2.622.062-3.736,1.231-.29.3-.565.631-.826.96a40.919,40.919,0,0,1,3.23-6.882,9.86,9.86,0,0,0,3.886.832c2.637-.006,3.748-2.2,2.455-3.56-1.051-1.109-2.532-.684-3.931.123a15.566,15.566,0,0,0-1.337.879,39.625,39.625,0,0,1,4.546-5.651,9.894,9.894,0,0,0,3.753,1.89c2.56.631,4.168-1.225,3.242-2.86-.752-1.33-2.292-1.276-3.845-.832a18.891,18.891,0,0,0-2.147.795c.7-.678,1.422-1.333,2.154-1.979q1.446-1.235,2.965-2.386a9.871,9.871,0,0,0,3.692,1.843c2.56.631,4.168-1.225,3.242-2.86-.752-1.331-2.292-1.276-3.844-.832-.363.1-.725.229-1.079.362,1.333-.954,2.691-1.881,4.05-2.81q.629-.43,1.258-.861a9.9,9.9,0,0,0,3.885,2c2.56.631,4.168-1.226,3.243-2.861-.752-1.33-2.292-1.276-3.845-.832a16.938,16.938,0,0,0-1.785.642h0q.389-.277.775-.559c.475-.344.948-.693,1.413-1.053.582-.434,1.124-.917,1.686-1.376.322-.257.631-.53.936-.805a9.926,9.926,0,0,0,3.909,2.019c2.56.631,4.168-1.226,3.242-2.861-.752-1.33-2.292-1.276-3.845-.832a21.553,21.553,0,0,0-2.519.952h0q1.571-1.454,3.014-3.035c.064-.071.125-.146.189-.218.412-.459.818-.921,1.211-1.4q.684-.827,1.327-1.688a32.8,32.8,0,0,0,4.3-7.509,32.7,32.7,0,0,1-4.443,7.4,46.627,46.627,0,0,1-5.932,6.269c-.077.07-.16.134-.238.2a22.269,22.269,0,0,0,1.317-2.652c.548-1.437.682-2.882-.692-3.655-1.689-.951-3.739.468-3.2,2.907a8.984,8.984,0,0,0,2.03,3.865c-.171.145-.339.294-.511.437-.2.167-.4.334-.607.5-.338.27-.682.532-1.027.793-.185.139-.368.282-.556.42q-.739.543-1.5,1.067c-.238.165-.479.326-.718.489q-.41.278-.82.553a21.2,21.2,0,0,0,1.26-2.547c.548-1.438.682-2.883-.692-3.655-1.689-.951-3.74.468-3.2,2.907a8.968,8.968,0,0,0,1.935,3.758l-.607.4-2.252,1.472-.44.288c-.42.276-.837.557-1.254.837-.181.122-.364.242-.545.364-.586.4-1.168.805-1.743,1.222a21.565,21.565,0,0,0,1.283-2.589c.548-1.437.682-2.882-.692-3.655-1.689-.95-3.739.469-3.2,2.907a8.981,8.981,0,0,0,1.976,3.8c-.982.721-1.949,1.462-2.893,2.235-.686.579-1.365,1.17-2.028,1.778a14.873,14.873,0,0,0,.772-1.649c.548-1.437.682-2.882-.692-3.655-1.689-.95-3.739.469-3.2,2.907a8.924,8.924,0,0,0,1.829,3.632,40.8,40.8,0,0,0-5.036,6.087,15.463,15.463,0,0,0,.383-1.918c.184-1.527-.035-2.962-1.555-3.38-1.869-.514-3.515,1.359-2.4,3.593A8.934,8.934,0,0,0,90,88.124a42.4,42.4,0,0,0-3.63,7.5,14.249,14.249,0,0,0-.163-1.633c-.256-1.517-.873-2.831-2.449-2.8-1.938.037-2.986,2.3-1.283,4.125a8.878,8.878,0,0,0,3.252,2.142,53.76,53.76,0,0,0-1.606,6.168c-.066.329-.12.659-.18.988a2.06,2.06,0,0,0-.2.2c-.072-.287-.151-.573-.243-.85-.486-1.46-1.3-2.662-2.851-2.39-1.91.335-2.6,2.731-.633,4.274a8.8,8.8,0,0,0,3.38,1.579c.022.055.045.109.07.164q-.317,2.354-.469,4.728c-.075,1.183-.117,2.368-.14,3.553-1.652,0-2.822,1.81-1.68,3.78a8.44,8.44,0,0,0,1.818,2.148q.208,3.34.653,6.657a1.819,1.819,0,0,0-1.768-.408,2.375,2.375,0,0,0-1.679,2.151,2.079,2.079,0,0,0-.549,1.424c-.775-1.152-1.507-2.334-2.215-3.533a9.869,9.869,0,0,0,2.637-3.077c1.244-2.325-.159-4.341-1.972-3.848-1.474.4-1.8,1.906-1.755,3.52a16.619,16.619,0,0,0,.173,1.826q-.382-.671-.76-1.344c-.636-1.136-1.182-2.311-1.78-3.467-.152-.281-.283-.571-.409-.864a9.859,9.859,0,0,0,3.162-2.525c1.658-2.05.658-4.294-1.215-4.15-1.523.117-2.127,1.534-2.384,3.128a18,18,0,0,0-.185,2.1l-.542-1.257a65.142,65.142,0,0,1-2.847-8.745,9.887,9.887,0,0,0,3.663-2.292c1.855-1.874,1.086-4.206-.792-4.251-1.528-.036-2.271,1.313-2.686,2.873a20.79,20.79,0,0,0-.46,2.542q-.6-2.567-1.036-5.173c-.2-1.079-.324-2.168-.462-3.256a9.891,9.891,0,0,0,4.083-1.831c2.082-1.618,1.621-4.03-.236-4.318-1.51-.234-2.422,1.008-3.035,2.5a24.658,24.658,0,0,0-.9,2.9c-.116-1.262-.248-2.523-.306-3.79a58.693,58.693,0,0,1,.031-7.848,58.748,58.748,0,0,0-.271,7.858c.018,1.209.1,2.414.178,3.621a19.5,19.5,0,0,0-1.142-2.388c-.789-1.321-1.84-2.321-3.3-1.721-1.793.737-1.949,3.225.3,4.31a8.979,8.979,0,0,0,4.227.805c.1,1.077.193,2.155.358,3.225q.342,2.551.853,5.081a16.872,16.872,0,0,0-1.229-1.858c-.953-1.207-2.124-2.064-3.493-1.281-1.683.963-1.516,3.451.855,4.235a8.948,8.948,0,0,0,4.156.277,65.869,65.869,0,0,0,2.6,8.868l.343.87a13.68,13.68,0,0,0-.988-1.164c-1.069-1.106-2.321-1.841-3.6-.924-1.577,1.126-1.162,3.585,1.276,4.128a8.936,8.936,0,0,0,4.075-.119c.117.3.241.594.384.88.569,1.191,1.093,2.411,1.7,3.58.173.334.35.666.525,1-.3-.259-.615-.513-.937-.74-1.258-.886-2.625-1.372-3.714-.232-1.338,1.4-.469,3.739,2.028,3.815a8.859,8.859,0,0,0,3.739-.769c.712,1.294,1.451,2.573,2.247,3.824q.446.719.913,1.426a15.088,15.088,0,0,0-1.434-1.181c-1.258-.886-2.625-1.372-3.714-.232-1.338,1.4-.469,3.739,2.028,3.815a8.966,8.966,0,0,0,4.116-.946q.619.873,1.283,1.718c-.93,1.079-.627,2.907,1.262,3.715a8.5,8.5,0,0,0,2.912.644c.117.093.235.184.359.271l.062.046c.435,1.642.916,3.272,1.417,4.895h-8.5v26.868h21.19V146.793H90.605c-.85-2.905-1.562-5.432-1.7-5.5l-.3-.138a9.719,9.719,0,0,0,3.054-1.731c2.007-1.71,1.438-4.1-.429-4.3-1.519-.166-2.374,1.116-2.92,2.636-.155.432-.283.882-.4,1.324-.108-.4-.218-.809-.321-1.215q-.459-1.8-.854-3.61a9.8,9.8,0,0,0,3.3-1.815c2.007-1.71,1.438-4.1-.429-4.3-1.519-.166-2.374,1.116-2.92,2.636-.158.439-.288.9-.4,1.347-.176-.879-.345-1.761-.5-2.645q-.167-.985-.311-1.972c-.038-.937-.053-1.874-.041-2.811.007-.516.025-1.032.047-1.549a9.744,9.744,0,0,0,3.508.447c2.632-.17,3.6-2.425,2.23-3.706-1.118-1.041-2.571-.525-3.917.366a18.3,18.3,0,0,0-1.727,1.335,42.256,42.256,0,0,1,.995-6.531,34.891,34.891,0,0,1,1.108-3.734,9.808,9.808,0,0,0,3.763.53c2.632-.17,3.6-2.425,2.23-3.705-1.118-1.041-2.571-.525-3.917.366a16.305,16.305,0,0,0-1.382,1.045,28.1,28.1,0,0,1,1.767-3.464,25.439,25.439,0,0,1,4.985-5.974,9.858,9.858,0,0,0,3.5,2.072c2.506.821,4.247-.91,3.447-2.61-.651-1.383-2.19-1.444-3.772-1.117a16.617,16.617,0,0,0-1.773.49l.037-.03a39.736,39.736,0,0,1,6.921-4.347,9.894,9.894,0,0,0,3.227,2.735c2.342,1.21,4.338-.221,3.82-2.027-.422-1.469-1.932-1.774-3.545-1.7a16.893,16.893,0,0,0-1.886.209c2.6-1.23,5.262-2.4,7.826-3.754l0,0,0-.007.055-.03a9.886,9.886,0,0,0,3.983,2.084c2.56.631,4.168-1.225,3.242-2.86-.752-1.33-2.292-1.276-3.845-.832-.433.124-.866.279-1.284.442a58.2,58.2,0,0,0,4.973-3.246c.083.091.135.141.135.141.009-.019.021-.042.031-.062a9.9,9.9,0,0,0,4.011,2.108c2.56.631,4.168-1.226,3.242-2.86-.752-1.331-2.292-1.276-3.844-.832M83.229,136.446c-.522-.613-1.021-1.25-1.509-1.9.12-.106.245-.223.374-.348a8.812,8.812,0,0,0,2.223.4c.007.041.011.08.019.121l.354-.071q.272,1.367.577,2.727a2.379,2.379,0,0,0-2.037-.928m1.886-21.757c-.177.679-.331,1.363-.472,2.05-.029-.042-.059-.082-.09-.121q-.027-2.109.065-4.216c.041-.982.112-1.963.2-2.944a9.48,9.48,0,0,0,1.563,1.3,36.279,36.279,0,0,0-1.263,3.931m2.37-6.472c.033-.257.061-.516.076-.771.007-.13.011-.258.013-.386.207-.065.417-.139.629-.223q-.377.681-.718,1.38m3.01-4.887a1.849,1.849,0,0,0-1.06-.991c-1.425-.553-2.581.465-3.5,1.792-.014.021-.027.043-.042.063-.031-.007-.06-.018-.093-.025a2.419,2.419,0,0,0-.293-.039c.014-.08.024-.16.039-.24a52.242,52.242,0,0,1,1.476-6.175,9.858,9.858,0,0,0,3.959-.3,3.4,3.4,0,0,0,1.938-1.344,9.064,9.064,0,0,0,1.426,3.245,26.682,26.682,0,0,0-3.849,4.019" transform="translate(-61.52 -51.291)"/>
                </g>
              </g>
            </g>
            <path id="Path_907935" data-name="Path 907935" d="M293.639,200.922H183.153V129.765a4.546,4.546,0,0,1,4.546-4.546H289.093a4.546,4.546,0,0,1,4.546,4.546Z" transform="translate(-78.691 -53.8)" fill="#4c5066"/>
            <path id="Path_907936" data-name="Path 907936" d="M293.424,200.993H182.938a.285.285,0,0,1-.285-.285V129.55a4.836,4.836,0,0,1,4.831-4.831H288.878a4.836,4.836,0,0,1,4.831,4.831v71.158a.285.285,0,0,1-.285.285m-110.2-.57H293.139V129.55a4.265,4.265,0,0,0-4.261-4.261H187.484a4.266,4.266,0,0,0-4.261,4.261Z" transform="translate(-78.476 -53.585)" fill="#263238"/>
            <path id="Path_907937" data-name="Path 907937" d="M297.728,291.415H154.1l16.573-33.466H281.155Z" transform="translate(-66.206 -110.826)" fill="#fff"/>
            <path id="Path_907938" data-name="Path 907938" d="M297.513,291.486H153.881a.285.285,0,0,1-.256-.412L170.2,257.608a.286.286,0,0,1,.256-.159H280.941a.285.285,0,0,1,.256.159l16.573,33.466a.285.285,0,0,1-.256.412m-143.172-.57H297.054l-16.291-32.9H170.631Z" transform="translate(-65.992 -110.611)" fill="#263238"/>
            <rect id="Rectangle_409723" data-name="Rectangle 409723" width="97.102" height="63.715" transform="translate(111.154 77.413)" fill="#d4e157"/>
            <path id="Path_907939" data-name="Path 907939" d="M291.773,199.514h-97.1a.285.285,0,0,1-.285-.285V135.513a.285.285,0,0,1,.285-.285h97.1a.285.285,0,0,1,.285.285v63.716a.285.285,0,0,1-.285.285m-96.817-.57h96.532V135.8H194.956Z" transform="translate(-83.517 -58.1)" fill="#263238"/>
            <path id="Path_907940" data-name="Path 907940" d="M267.385,273.451l.192-4.078h-5.838l-.387,4.078Z" transform="translate(-112.288 -115.734)" fill="#4c5066"/>
            <path id="Path_907941" data-name="Path 907941" d="M267.17,273.521h-6.033a.285.285,0,0,1-.284-.312l.387-4.078a.285.285,0,0,1,.284-.258h5.838a.285.285,0,0,1,.285.3l-.192,4.078a.284.284,0,0,1-.285.272m-5.72-.57H266.9l.165-3.508h-5.279Z" transform="translate(-112.073 -115.52)" fill="#fff"/>
            <path id="Path_907942" data-name="Path 907942" d="M288.538,273.451l-.2-4.078H282.5l0,4.078Z" transform="translate(-121.375 -115.734)" fill="#4c5066"/>
            <path id="Path_907943" data-name="Path 907943" d="M288.323,273.521H282.29a.285.285,0,0,1-.285-.285l0-4.078a.286.286,0,0,1,.084-.2.283.283,0,0,1,.2-.083h5.838a.285.285,0,0,1,.285.271l.2,4.079a.285.285,0,0,1-.285.3m-5.747-.57h5.448l-.171-3.508h-5.281Z" transform="translate(-121.16 -115.52)" fill="#fff"/>
            <path id="Path_907944" data-name="Path 907944" d="M347.231,280.883h6.242l-1.465-4.36h-6.033Z" transform="translate(-148.646 -118.806)" fill="#4c5066"/>
            <path id="Path_907945" data-name="Path 907945" d="M353.258,280.953h-6.242a.284.284,0,0,1-.274-.206l-1.257-4.36a.286.286,0,0,1,.274-.364h6.033a.285.285,0,0,1,.27.194l1.465,4.36a.284.284,0,0,1-.27.376m-6.027-.57h5.631l-1.274-3.79h-5.449Z" transform="translate(-148.431 -118.591)" fill="#fff"/>
            <path id="Path_907946" data-name="Path 907946" d="M256.807,273.451l.387-4.078h-5.838l-.582,4.078Z" transform="translate(-107.744 -115.734)" fill="#4c5066"/>
            <path id="Path_907947" data-name="Path 907947" d="M256.593,273.521H250.56a.285.285,0,0,1-.282-.325l.582-4.079a.285.285,0,0,1,.282-.245h5.838a.285.285,0,0,1,.284.311l-.387,4.079a.285.285,0,0,1-.284.258m-5.7-.57h5.445l.333-3.508h-5.277Z" transform="translate(-107.529 -115.52)" fill="#fff"/>
            <path id="Path_907948" data-name="Path 907948" d="M235.652,273.451l.777-4.078h-5.838l-.972,4.078Z" transform="translate(-98.654 -115.734)" fill="#4c5066"/>
            <path id="Path_907949" data-name="Path 907949" d="M235.437,273.521H229.4a.285.285,0,0,1-.277-.351l.972-4.079a.285.285,0,0,1,.277-.218h5.838a.286.286,0,0,1,.28.338l-.777,4.079a.286.286,0,0,1-.281.232m-5.672-.57H235.2l.668-3.508H230.6Z" transform="translate(-98.439 -115.52)" fill="#fff"/>
            <path id="Path_907950" data-name="Path 907950" d="M330.261,273.451l-.98-4.078h-5.838l.784,4.078Z" transform="translate(-138.966 -115.734)" fill="#4c5066"/>
            <path id="Path_907951" data-name="Path 907951" d="M330.046,273.521h-6.033a.286.286,0,0,1-.28-.231l-.784-4.079a.284.284,0,0,1,.28-.339h5.838a.285.285,0,0,1,.278.218l.979,4.079a.285.285,0,0,1-.277.352m-5.8-.57h5.436l-.842-3.508h-5.268Z" transform="translate(-138.751 -115.52)" fill="#fff"/>
            <path id="Path_907952" data-name="Path 907952" d="M340.692,273.451l-1.175-4.078h-5.838l.98,4.078Z" transform="translate(-143.363 -115.734)" fill="#4c5066"/>
            <path id="Path_907953" data-name="Path 907953" d="M340.477,273.521h-6.034a.285.285,0,0,1-.277-.218l-.98-4.078a.285.285,0,0,1,.278-.352H339.3a.285.285,0,0,1,.274.206l1.175,4.078a.285.285,0,0,1-.274.364m-5.809-.57h5.43l-1.011-3.508h-5.262Z" transform="translate(-143.148 -115.52)" fill="#fff"/>
            <path id="Path_907954" data-name="Path 907954" d="M225.074,273.451l.972-4.078h-5.838l-1.168,4.078Z" transform="translate(-94.11 -115.734)" fill="#4c5066"/>
            <path id="Path_907955" data-name="Path 907955" d="M224.859,273.521h-6.033a.286.286,0,0,1-.274-.364l1.167-4.078a.285.285,0,0,1,.274-.206h5.838a.284.284,0,0,1,.277.351l-.972,4.078a.284.284,0,0,1-.277.219m-5.655-.57h5.43l.836-3.508h-5.262Z" transform="translate(-93.895 -115.52)" fill="#fff"/>
            <path id="Path_907956" data-name="Path 907956" d="M298.969,273.451l-.394-4.078h-5.838l.2,4.078Z" transform="translate(-125.772 -115.734)" fill="#4c5066"/>
            <path id="Path_907957" data-name="Path 907957" d="M298.755,273.521h-6.034a.285.285,0,0,1-.285-.272l-.2-4.078a.285.285,0,0,1,.285-.3h5.838a.285.285,0,0,1,.284.258l.395,4.078a.286.286,0,0,1-.284.313m-5.762-.57h5.447l-.339-3.508h-5.279Z" transform="translate(-125.558 -115.52)" fill="#fff"/>
            <path id="Path_907958" data-name="Path 907958" d="M351.122,273.451l-1.37-4.078h-5.838l1.175,4.078Z" transform="translate(-147.761 -115.734)" fill="#4c5066"/>
            <path id="Path_907959" data-name="Path 907959" d="M350.907,273.521h-6.033a.284.284,0,0,1-.274-.206l-1.176-4.079a.285.285,0,0,1,.274-.364h5.838a.283.283,0,0,1,.27.194l1.371,4.079a.285.285,0,0,1-.27.376m-5.818-.57h5.422l-1.179-3.508h-5.254Z" transform="translate(-147.546 -115.52)" fill="#fff"/>
            <path id="Path_907960" data-name="Path 907960" d="M319.83,273.451l-.785-4.078h-5.838l.589,4.078Z" transform="translate(-134.568 -115.734)" fill="#4c5066"/>
            <path id="Path_907961" data-name="Path 907961" d="M319.616,273.521h-6.033a.286.286,0,0,1-.282-.245l-.589-4.078a.285.285,0,0,1,.282-.326h5.838a.286.286,0,0,1,.28.231l.784,4.078a.286.286,0,0,1-.28.339m-5.786-.57h5.441l-.675-3.508h-5.273Z" transform="translate(-134.353 -115.52)" fill="#fff"/>
            <path id="Path_907962" data-name="Path 907962" d="M309.4,273.451l-.589-4.078h-5.838l.394,4.078Z" transform="translate(-130.17 -115.734)" fill="#4c5066"/>
            <path id="Path_907963" data-name="Path 907963" d="M309.184,273.521h-6.033a.285.285,0,0,1-.284-.258l-.395-4.079a.286.286,0,0,1,.284-.312h5.839a.285.285,0,0,1,.282.244l.589,4.079a.285.285,0,0,1-.282.326m-5.774-.57h5.445l-.507-3.508H303.07Z" transform="translate(-129.955 -115.52)" fill="#fff"/>
            <path id="Path_907964" data-name="Path 907964" d="M277.963,273.451l0-4.078h-5.838l-.192,4.078Z" transform="translate(-116.833 -115.734)" fill="#4c5066"/>
            <path id="Path_907965" data-name="Path 907965" d="M277.749,273.521h-6.033a.285.285,0,0,1-.285-.3l.192-4.079a.284.284,0,0,1,.285-.271h5.838a.285.285,0,0,1,.285.285l0,4.078a.285.285,0,0,1-.285.285m-5.734-.57h5.449l0-3.508h-5.28Z" transform="translate(-116.618 -115.52)" fill="#fff"/>
            <path id="Path_907966" data-name="Path 907966" d="M202.664,276.523h-6.033l-1.665,4.36h6.241Z" transform="translate(-83.766 -118.806)" fill="#4c5066"/>
            <path id="Path_907967" data-name="Path 907967" d="M200.992,280.953H194.75a.285.285,0,0,1-.266-.387l1.665-4.36a.285.285,0,0,1,.266-.184h6.033a.286.286,0,0,1,.271.376l-1.458,4.36a.285.285,0,0,1-.27.2m-5.827-.57h5.622l1.267-3.79h-5.441Z" transform="translate(-83.551 -118.591)" fill="#fff"/>
            <path id="Path_907968" data-name="Path 907968" d="M205.282,269.373h-5.838l-1.558,4.078h6.033Z" transform="translate(-85.02 -115.734)" fill="#4c5066"/>
            <path id="Path_907969" data-name="Path 907969" d="M203.7,273.521H197.67a.285.285,0,0,1-.266-.387l1.558-4.078a.286.286,0,0,1,.266-.183h5.838a.286.286,0,0,1,.271.375l-1.363,4.078a.287.287,0,0,1-.27.2m-5.62-.57H203.5l1.173-3.508h-5.245Z" transform="translate(-84.805 -115.52)" fill="#fff"/>
            <path id="Path_907970" data-name="Path 907970" d="M214.5,273.451l1.168-4.078h-5.838l-1.363,4.078Z" transform="translate(-89.565 -115.734)" fill="#4c5066"/>
            <path id="Path_907971" data-name="Path 907971" d="M214.281,273.521h-6.033a.286.286,0,0,1-.271-.375l1.363-4.079a.285.285,0,0,1,.27-.194h5.838a.285.285,0,0,1,.274.363l-1.168,4.079a.284.284,0,0,1-.274.206m-5.637-.57h5.422l1-3.508h-5.254Z" transform="translate(-89.35 -115.52)" fill="#fff"/>
            <path id="Path_907972" data-name="Path 907972" d="M190.39,292.36l-1.918,5.02h6.706l1.678-5.02Z" transform="translate(-80.976 -125.611)" fill="#4c5066"/>
            <path id="Path_907973" data-name="Path 907973" d="M194.963,297.45h-6.706a.285.285,0,0,1-.266-.387l1.918-5.019a.286.286,0,0,1,.267-.184h6.466a.286.286,0,0,1,.27.375l-1.678,5.02a.285.285,0,0,1-.27.2m-6.292-.57h6.086l1.487-4.449h-5.873Z" transform="translate(-80.761 -125.396)" fill="#fff"/>
            <path id="Path_907974" data-name="Path 907974" d="M199.862,284.168H193.62l-1.786,4.673H198.3Z" transform="translate(-82.421 -122.091)" fill="#4c5066"/>
            <path id="Path_907975" data-name="Path 907975" d="M198.086,288.911H191.62a.285.285,0,0,1-.266-.387l1.785-4.673a.286.286,0,0,1,.266-.183h6.242a.286.286,0,0,1,.27.375l-1.562,4.673a.285.285,0,0,1-.27.2m-6.051-.57h5.846l1.371-4.1H193.6Z" transform="translate(-82.206 -121.876)" fill="#fff"/>
            <path id="Path_907976" data-name="Path 907976" d="M201.907,292.36l-1.678,5.02h6.706l1.437-5.02Z" transform="translate(-86.027 -125.611)" fill="#4c5066"/>
            <path id="Path_907977" data-name="Path 907977" d="M206.72,297.45h-6.706a.285.285,0,0,1-.27-.375l1.677-5.02a.285.285,0,0,1,.27-.2h6.466a.285.285,0,0,1,.274.364l-1.438,5.02a.284.284,0,0,1-.274.206m-6.31-.57H206.5l1.274-4.449H201.9Z" transform="translate(-85.812 -125.396)" fill="#fff"/>
            <path id="Path_907978" data-name="Path 907978" d="M246.23,273.451l.582-4.078h-5.838l-.777,4.078Z" transform="translate(-103.199 -115.734)" fill="#4c5066"/>
            <path id="Path_907979" data-name="Path 907979" d="M246.015,273.521h-6.033a.287.287,0,0,1-.281-.339l.777-4.078a.285.285,0,0,1,.28-.232H246.6a.285.285,0,0,1,.282.325l-.582,4.078a.285.285,0,0,1-.282.245m-5.689-.57h5.441l.5-3.508h-5.274Z" transform="translate(-102.984 -115.52)" fill="#fff"/>
            <path id="Path_907980" data-name="Path 907980" d="M244.981,280.883l.622-4.36h-6.033l-.831,4.36Z" transform="translate(-102.573 -118.806)" fill="#4c5066"/>
            <path id="Path_907981" data-name="Path 907981" d="M244.767,280.953h-6.242a.287.287,0,0,1-.281-.339l.831-4.36a.285.285,0,0,1,.281-.232h6.033a.285.285,0,0,1,.282.326l-.622,4.36a.285.285,0,0,1-.282.245m-5.9-.57h5.65l.541-3.79h-5.468Z" transform="translate(-102.358 -118.591)" fill="#fff"/>
            <path id="Path_907982" data-name="Path 907982" d="M234.038,280.883l.831-4.36h-6.033l-1.04,4.36Z" transform="translate(-97.871 -118.806)" fill="#4c5066"/>
            <path id="Path_907983" data-name="Path 907983" d="M233.823,280.953h-6.242a.285.285,0,0,1-.277-.351l1.039-4.36a.286.286,0,0,1,.277-.219h6.034a.287.287,0,0,1,.28.339l-.831,4.36a.285.285,0,0,1-.28.232m-5.881-.57h5.644l.723-3.79h-5.463Z" transform="translate(-97.657 -118.591)" fill="#fff"/>
            <path id="Path_907984" data-name="Path 907984" d="M255.925,280.883l.414-4.36h-6.033l-.622,4.36Z" transform="translate(-107.275 -118.806)" fill="#4c5066"/>
            <path id="Path_907985" data-name="Path 907985" d="M255.71,280.953h-6.241a.285.285,0,0,1-.282-.325l.622-4.36a.285.285,0,0,1,.282-.245h6.033a.286.286,0,0,1,.284.312l-.414,4.36a.285.285,0,0,1-.284.258m-5.913-.57h5.653l.359-3.79h-5.472Z" transform="translate(-107.06 -118.591)" fill="#fff"/>
            <path id="Path_907986" data-name="Path 907986" d="M213.4,276.523h-6.033l-1.457,4.36h6.242Z" transform="translate(-88.467 -118.806)" fill="#4c5066"/>
            <path id="Path_907987" data-name="Path 907987" d="M211.936,280.953h-6.242a.285.285,0,0,1-.27-.375l1.457-4.36a.286.286,0,0,1,.27-.2h6.033a.285.285,0,0,1,.274.364l-1.249,4.36a.284.284,0,0,1-.274.206m-5.846-.57h5.631l1.085-3.79h-5.449Z" transform="translate(-88.253 -118.591)" fill="#fff"/>
            <path id="Path_907988" data-name="Path 907988" d="M349.524,288.84h6.466l-1.57-4.673h-6.242Z" transform="translate(-149.592 -122.091)" fill="#4c5066"/>
            <path id="Path_907989" data-name="Path 907989" d="M355.774,288.911h-6.466a.284.284,0,0,1-.274-.206l-1.347-4.674a.285.285,0,0,1,.274-.364H354.2a.285.285,0,0,1,.27.194l1.57,4.673a.285.285,0,0,1-.27.376m-6.251-.57h5.855l-1.379-4.1h-5.658Z" transform="translate(-149.377 -121.876)" fill="#fff"/>
            <path id="Path_907990" data-name="Path 907990" d="M223.094,280.883l1.04-4.36H218.1l-1.249,4.36Z" transform="translate(-93.169 -118.806)" fill="#4c5066"/>
            <path id="Path_907991" data-name="Path 907991" d="M222.879,280.953h-6.241a.286.286,0,0,1-.274-.364l1.249-4.36a.285.285,0,0,1,.274-.207h6.033a.286.286,0,0,1,.277.352l-1.039,4.36a.286.286,0,0,1-.278.219m-5.863-.57h5.639l.9-3.79H218.1Z" transform="translate(-92.955 -118.591)" fill="#fff"/>
            <path id="Path_907992" data-name="Path 907992" d="M204.732,284.168l-1.562,4.673h6.466l1.338-4.673Z" transform="translate(-87.291 -122.091)" fill="#4c5066"/>
            <path id="Path_907993" data-name="Path 907993" d="M209.422,288.911h-6.466a.285.285,0,0,1-.27-.375l1.561-4.674a.285.285,0,0,1,.27-.194h6.243a.285.285,0,0,1,.274.363L209.7,288.7a.285.285,0,0,1-.274.206m-6.07-.57h5.855l1.175-4.1h-5.659Z" transform="translate(-87.076 -121.876)" fill="#fff"/>
            <path id="Path_907994" data-name="Path 907994" d="M321.113,280.883l-.839-4.36h-6.033l.63,4.36Z" transform="translate(-135.012 -118.806)" fill="#4c5066"/>
            <path id="Path_907995" data-name="Path 907995" d="M320.9,280.953h-6.243a.287.287,0,0,1-.282-.245l-.63-4.36a.286.286,0,0,1,.283-.326h6.033a.287.287,0,0,1,.28.232l.839,4.36a.285.285,0,0,1-.28.339m-5.995-.57h5.65l-.729-3.79h-5.468Z" transform="translate(-134.797 -118.591)" fill="#fff"/>
            <path id="Path_907996" data-name="Path 907996" d="M310.327,280.883l-.63-4.36h-6.033l.421,4.36Z" transform="translate(-130.467 -118.806)" fill="#4c5066"/>
            <path id="Path_907997" data-name="Path 907997" d="M310.112,280.953H303.87a.285.285,0,0,1-.284-.258l-.421-4.36a.286.286,0,0,1,.284-.313h6.033a.286.286,0,0,1,.282.245l.63,4.36a.285.285,0,0,1-.282.326m-5.983-.57h5.653l-.548-3.79h-5.473Z" transform="translate(-130.252 -118.591)" fill="#fff"/>
            <path id="Path_907998" data-name="Path 907998" d="M342.686,280.883l-1.256-4.36H335.4l1.048,4.36Z" transform="translate(-144.101 -118.806)" fill="#4c5066"/>
            <path id="Path_907999" data-name="Path 907999" d="M342.471,280.953h-6.242a.285.285,0,0,1-.277-.218l-1.048-4.36a.286.286,0,0,1,.278-.352h6.033a.285.285,0,0,1,.274.206l1.256,4.36a.285.285,0,0,1-.274.364m-6.017-.57h5.638L341,276.592h-5.457Z" transform="translate(-143.886 -118.591)" fill="#fff"/>
            <path id="Path_908000" data-name="Path 908000" d="M277.813,280.883l0-4.36h-6.033l-.2,4.36Z" transform="translate(-116.679 -118.806)" fill="#4c5066"/>
            <path id="Path_908001" data-name="Path 908001" d="M277.6,280.953h-6.241a.285.285,0,0,1-.285-.3l.2-4.36a.285.285,0,0,1,.285-.272h6.033a.285.285,0,0,1,.285.285l0,4.36a.285.285,0,0,1-.285.285m-5.943-.57h5.657l0-3.79h-5.475Z" transform="translate(-116.465 -118.591)" fill="#fff"/>
            <path id="Path_908002" data-name="Path 908002" d="M299.54,280.883l-.422-4.36h-6.033l.213,4.36Z" transform="translate(-125.922 -118.806)" fill="#4c5066"/>
            <path id="Path_908003" data-name="Path 908003" d="M299.326,280.953h-6.242a.285.285,0,0,1-.285-.271l-.213-4.36a.286.286,0,0,1,.285-.3H298.9a.286.286,0,0,1,.284.258l.422,4.36a.286.286,0,0,1-.284.313m-5.97-.57h5.656l-.367-3.79H293.17Z" transform="translate(-125.708 -118.591)" fill="#fff"/>
            <path id="Path_908004" data-name="Path 908004" d="M288.754,280.883l-.213-4.36h-6.033l0,4.36Z" transform="translate(-121.378 -118.806)" fill="#4c5066"/>
            <path id="Path_908005" data-name="Path 908005" d="M288.539,280.953H282.3a.285.285,0,0,1-.285-.285l0-4.36a.286.286,0,0,1,.084-.2.283.283,0,0,1,.2-.084h6.033a.284.284,0,0,1,.285.271l.213,4.36a.284.284,0,0,1-.285.3m-5.957-.57h5.657l-.185-3.79h-5.476Z" transform="translate(-121.163 -118.591)" fill="#fff"/>
            <path id="Path_908006" data-name="Path 908006" d="M266.869,280.883l.2-4.36h-6.033l-.414,4.36Z" transform="translate(-111.977 -118.806)" fill="#4c5066"/>
            <path id="Path_908007" data-name="Path 908007" d="M266.655,280.953h-6.243a.285.285,0,0,1-.284-.312l.414-4.36a.286.286,0,0,1,.284-.259h6.033a.287.287,0,0,1,.285.3l-.2,4.36a.285.285,0,0,1-.285.272m-5.929-.57h5.656l.178-3.79h-5.475Z" transform="translate(-111.762 -118.591)" fill="#fff"/>
            <path id="Path_908008" data-name="Path 908008" d="M304.4,284.168l.452,4.673h6.466l-.675-4.673Z" transform="translate(-130.785 -122.091)" fill="#4c5066"/>
            <path id="Path_908009" data-name="Path 908009" d="M311.105,288.911H304.64a.285.285,0,0,1-.284-.258l-.452-4.673a.286.286,0,0,1,.284-.312h6.241a.285.285,0,0,1,.282.244l.676,4.674a.288.288,0,0,1-.067.227.285.285,0,0,1-.216.1m-6.207-.57h5.878l-.593-4.1H304.5Z" transform="translate(-130.57 -121.876)" fill="#fff"/>
            <path id="Path_908010" data-name="Path 908010" d="M315.346,284.168l.675,4.673h6.466l-.9-4.673Z" transform="translate(-135.487 -122.091)" fill="#4c5066"/>
            <path id="Path_908011" data-name="Path 908011" d="M322.272,288.911h-6.466a.286.286,0,0,1-.282-.245l-.675-4.673a.285.285,0,0,1,.282-.326h6.242a.286.286,0,0,1,.28.231l.9,4.673a.286.286,0,0,1-.281.339m-6.219-.57h5.873l-.789-4.1H315.46Z" transform="translate(-135.272 -121.876)" fill="#fff"/>
            <path id="Path_908012" data-name="Path 908012" d="M215.844,284.168l-1.338,4.673h6.466l1.114-4.673Z" transform="translate(-92.161 -122.091)" fill="#4c5066"/>
            <path id="Path_908013" data-name="Path 908013" d="M220.758,288.911h-6.466a.286.286,0,0,1-.274-.364l1.338-4.673a.285.285,0,0,1,.274-.206h6.241a.284.284,0,0,1,.277.351l-1.114,4.673a.285.285,0,0,1-.277.219m-6.087-.57h5.862l.978-4.1h-5.665Z" transform="translate(-91.947 -121.876)" fill="#fff"/>
            <path id="Path_908014" data-name="Path 908014" d="M326.29,284.168l.9,4.673h6.466l-1.122-4.673Z" transform="translate(-140.188 -122.091)" fill="#4c5066"/>
            <path id="Path_908015" data-name="Path 908015" d="M333.44,288.911h-6.466a.286.286,0,0,1-.28-.231l-.9-4.674a.285.285,0,0,1,.28-.339h6.242a.284.284,0,0,1,.277.218l1.123,4.673a.285.285,0,0,1-.277.352m-6.23-.57h5.868l-.986-4.1h-5.672Z" transform="translate(-139.974 -121.876)" fill="#fff"/>
            <path id="Path_908016" data-name="Path 908016" d="M282.515,284.168l0,4.673h6.466l-.228-4.673Z" transform="translate(-121.381 -122.091)" fill="#4c5066"/>
            <path id="Path_908017" data-name="Path 908017" d="M288.77,288.911H282.3a.285.285,0,0,1-.285-.285l0-4.673a.286.286,0,0,1,.084-.2.282.282,0,0,1,.2-.083h6.243a.285.285,0,0,1,.285.271l.228,4.673a.285.285,0,0,1-.285.3m-6.18-.57h5.881l-.2-4.1h-5.685Z" transform="translate(-121.166 -121.876)" fill="#fff"/>
            <path id="Path_908018" data-name="Path 908018" d="M337.233,284.168l1.123,4.673h6.466l-1.347-4.673Z" transform="translate(-144.89 -122.091)" fill="#4c5066"/>
            <path id="Path_908019" data-name="Path 908019" d="M344.607,288.911h-6.466a.285.285,0,0,1-.277-.218l-1.123-4.673a.285.285,0,0,1,.278-.352h6.241a.285.285,0,0,1,.274.206l1.347,4.673a.285.285,0,0,1-.274.364m-6.24-.57h5.862l-1.182-4.1h-5.665Z" transform="translate(-144.676 -121.876)" fill="#fff"/>
            <path id="Path_908020" data-name="Path 908020" d="M293.459,284.168l.228,4.673h6.465l-.452-4.673Z" transform="translate(-126.083 -122.091)" fill="#4c5066"/>
            <path id="Path_908021" data-name="Path 908021" d="M299.937,288.911h-6.466a.285.285,0,0,1-.285-.272l-.228-4.673a.285.285,0,0,1,.285-.3h6.241a.285.285,0,0,1,.284.258l.452,4.673a.286.286,0,0,1-.284.313m-6.194-.57h5.88l-.4-4.1h-5.683Z" transform="translate(-125.868 -121.876)" fill="#fff"/>
            <path id="Path_908022" data-name="Path 908022" d="M238.069,284.168l-.89,4.673h6.466l.667-4.673Z" transform="translate(-101.902 -122.091)" fill="#4c5066"/>
            <path id="Path_908023" data-name="Path 908023" d="M243.429,288.911h-6.465a.287.287,0,0,1-.281-.339l.89-4.673a.285.285,0,0,1,.28-.232H244.1a.285.285,0,0,1,.283.325l-.667,4.673a.286.286,0,0,1-.283.245m-6.12-.57h5.874l.585-4.1H238.09Z" transform="translate(-101.687 -121.876)" fill="#fff"/>
            <path id="Path_908024" data-name="Path 908024" d="M226.957,284.168l-1.114,4.673h6.466l.89-4.673Z" transform="translate(-97.032 -122.091)" fill="#4c5066"/>
            <path id="Path_908025" data-name="Path 908025" d="M232.094,288.911h-6.466a.285.285,0,0,1-.277-.351l1.114-4.674a.286.286,0,0,1,.277-.218h6.242a.286.286,0,0,1,.28.338l-.89,4.673a.285.285,0,0,1-.28.232m-6.1-.57h5.868l.781-4.1h-5.672Z" transform="translate(-96.818 -121.876)" fill="#fff"/>
            <path id="Path_908026" data-name="Path 908026" d="M271.406,284.168l-.22,4.673h6.466l0-4.673Z" transform="translate(-116.513 -122.091)" fill="#4c5066"/>
            <path id="Path_908027" data-name="Path 908027" d="M277.438,288.911h-6.466a.285.285,0,0,1-.285-.3l.219-4.674a.285.285,0,0,1,.285-.271h6.242a.285.285,0,0,1,.285.285l0,4.673a.285.285,0,0,1-.285.285m-6.167-.57h5.882l0-4.1h-5.684Z" transform="translate(-116.299 -121.876)" fill="#fff"/>
            <path id="Path_908028" data-name="Path 908028" d="M260.294,284.168l-.443,4.673h6.466l.22-4.673Z" transform="translate(-111.643 -122.091)" fill="#4c5066"/>
            <path id="Path_908029" data-name="Path 908029" d="M266.1,288.911h-6.466a.285.285,0,0,1-.284-.312l.443-4.673a.285.285,0,0,1,.284-.258h6.242a.286.286,0,0,1,.285.3l-.22,4.673a.285.285,0,0,1-.285.272m-6.152-.57h5.88l.192-4.1h-5.683Z" transform="translate(-111.429 -121.876)" fill="#fff"/>
            <path id="Path_908030" data-name="Path 908030" d="M249.181,284.168l-.667,4.673h6.466l.443-4.673Z" transform="translate(-106.773 -122.091)" fill="#4c5066"/>
            <path id="Path_908031" data-name="Path 908031" d="M254.766,288.911H248.3a.285.285,0,0,1-.282-.325l.667-4.674a.285.285,0,0,1,.282-.245h6.241a.285.285,0,0,1,.284.312l-.443,4.673a.285.285,0,0,1-.284.258m-6.137-.57h5.878l.388-4.1h-5.681Z" transform="translate(-106.558 -121.876)" fill="#fff"/>
            <path id="Path_908032" data-name="Path 908032" d="M331.9,280.883l-1.048-4.36h-6.033l.839,4.36Z" transform="translate(-139.556 -118.806)" fill="#4c5066"/>
            <path id="Path_908033" data-name="Path 908033" d="M331.684,280.953h-6.241a.286.286,0,0,1-.28-.231l-.84-4.36a.285.285,0,0,1,.28-.339h6.033a.286.286,0,0,1,.278.218l1.048,4.36a.285.285,0,0,1-.278.352m-6.006-.57h5.644l-.911-3.79h-5.463Z" transform="translate(-139.341 -118.591)" fill="#fff"/>
            <path id="Path_908034" data-name="Path 908034" d="M206.455,266.229l1.395-4.174h-5.637l-1.595,4.174Z" transform="translate(-86.194 -112.59)" fill="#4c5066"/>
            <path id="Path_908035" data-name="Path 908035" d="M206.241,266.3H200.4a.285.285,0,0,1-.266-.387l1.595-4.173a.285.285,0,0,1,.266-.183h5.638a.286.286,0,0,1,.27.375l-1.4,4.173a.285.285,0,0,1-.27.2m-5.424-.57h5.218l1.2-3.6h-5.045Z" transform="translate(-85.979 -112.376)" fill="#fff"/>
            <path id="Path_908036" data-name="Path 908036" d="M195.249,269.373H189.86l-1.738,4.078h5.569Z" transform="translate(-80.825 -115.734)" fill="#4c5066"/>
            <path id="Path_908037" data-name="Path 908037" d="M193.475,273.521h-5.569a.286.286,0,0,1-.262-.4l1.738-4.079a.286.286,0,0,1,.262-.173h5.389a.285.285,0,0,1,.267.387l-1.558,4.079a.286.286,0,0,1-.267.183m-5.137-.57h4.941l1.34-3.508h-4.786Z" transform="translate(-80.61 -115.52)" fill="#fff"/>
            <path id="Path_908038" data-name="Path 908038" d="M198.153,262.055h-5.2l-1.779,4.174h5.389Z" transform="translate(-82.135 -112.59)" fill="#4c5066"/>
            <path id="Path_908039" data-name="Path 908039" d="M196.343,266.3h-5.389a.286.286,0,0,1-.262-.4l1.779-4.174a.285.285,0,0,1,.262-.173h5.2a.285.285,0,0,1,.267.387l-1.595,4.174a.286.286,0,0,1-.267.183m-4.957-.57h4.761l1.377-3.6h-4.6Z" transform="translate(-81.92 -112.376)" fill="#fff"/>
            <path id="Path_908040" data-name="Path 908040" d="M192.29,276.523h-5.569l-1.859,4.36h5.762Z" transform="translate(-79.425 -118.806)" fill="#4c5066"/>
            <path id="Path_908041" data-name="Path 908041" d="M190.41,280.953h-5.762a.285.285,0,0,1-.262-.4l1.859-4.36a.285.285,0,0,1,.262-.173h5.57a.286.286,0,0,1,.266.387l-1.665,4.36a.286.286,0,0,1-.267.183m-5.33-.57h5.134l1.448-3.79H186.7Z" transform="translate(-79.21 -118.591)" fill="#fff"/>
            <path id="Path_908042" data-name="Path 908042" d="M189.124,284.168h-5.762l-1.992,4.673h5.968Z" transform="translate(-77.925 -122.091)" fill="#4c5066"/>
            <path id="Path_908043" data-name="Path 908043" d="M187.124,288.911h-5.968a.286.286,0,0,1-.262-.4l1.992-4.674a.285.285,0,0,1,.262-.173h5.762a.285.285,0,0,1,.267.387l-1.786,4.673a.285.285,0,0,1-.266.183m-5.536-.57h5.34l1.567-4.1h-5.159Z" transform="translate(-77.71 -121.876)" fill="#fff"/>
            <path id="Path_908044" data-name="Path 908044" d="M185.727,292.36h-5.968l-2.14,5.02h6.19Z" transform="translate(-76.313 -125.611)" fill="#4c5066"/>
            <path id="Path_908045" data-name="Path 908045" d="M183.594,297.45H177.4a.286.286,0,0,1-.262-.4l2.14-5.02a.285.285,0,0,1,.262-.173h5.968a.285.285,0,0,1,.266.387l-1.918,5.02a.285.285,0,0,1-.266.183m-5.758-.57H183.4l1.7-4.449h-5.365Z" transform="translate(-76.098 -125.396)" fill="#fff"/>
            <path id="Path_908046" data-name="Path 908046" d="M367.13,276.523l1.674,4.36h5.522l-1.859-4.36Z" transform="translate(-157.735 -118.806)" fill="#4c5066"/>
            <path id="Path_908047" data-name="Path 908047" d="M374.111,280.953h-5.522a.286.286,0,0,1-.266-.183l-1.673-4.36a.285.285,0,0,1,.266-.387h5.337a.285.285,0,0,1,.262.173l1.859,4.36a.285.285,0,0,1-.262.4m-5.326-.57h4.894l-1.615-3.79H367.33Z" transform="translate(-157.52 -118.591)" fill="#fff"/>
            <path id="Path_908048" data-name="Path 908048" d="M371.859,288.84h5.72l-1.992-4.673h-5.522Z" transform="translate(-158.996 -122.091)" fill="#4c5066"/>
            <path id="Path_908049" data-name="Path 908049" d="M377.363,288.911h-5.72a.286.286,0,0,1-.266-.183l-1.794-4.673a.285.285,0,0,1,.266-.387h5.522a.285.285,0,0,1,.262.173l1.992,4.674a.286.286,0,0,1-.262.4m-5.523-.57h5.092l-1.748-4.1h-4.919Z" transform="translate(-158.781 -121.876)" fill="#fff"/>
            <path id="Path_908050" data-name="Path 908050" d="M375.137,297.38h5.932l-2.14-5.02h-5.72Z" transform="translate(-160.347 -125.611)" fill="#4c5066"/>
            <path id="Path_908051" data-name="Path 908051" d="M380.855,297.45h-5.932a.286.286,0,0,1-.266-.183l-1.927-5.02a.285.285,0,0,1,.266-.388h5.72a.285.285,0,0,1,.262.173l2.14,5.02a.286.286,0,0,1-.262.4m-5.736-.57h5.3l-1.9-4.449h-5.116Z" transform="translate(-160.133 -125.396)" fill="#fff"/>
            <path id="Path_908052" data-name="Path 908052" d="M288.336,266.229l-.2-4.174h-5.638l0,4.174Z" transform="translate(-121.372 -112.59)" fill="#4c5066"/>
            <path id="Path_908053" data-name="Path 908053" d="M288.121,266.3h-5.838a.285.285,0,0,1-.285-.285l0-4.173a.286.286,0,0,1,.084-.2.283.283,0,0,1,.2-.083h5.639a.285.285,0,0,1,.285.271l.2,4.174a.284.284,0,0,1-.285.3m-5.552-.57h5.253l-.176-3.6h-5.081Z" transform="translate(-121.157 -112.376)" fill="#fff"/>
            <path id="Path_908054" data-name="Path 908054" d="M365.951,273.451h5.337l-1.738-4.078h-5.165Z" transform="translate(-156.556 -115.734)" fill="#4c5066"/>
            <path id="Path_908055" data-name="Path 908055" d="M371.073,273.521h-5.337a.286.286,0,0,1-.266-.182L363.9,269.26a.285.285,0,0,1,.266-.387h5.165a.285.285,0,0,1,.262.173l1.738,4.079a.285.285,0,0,1-.262.4m-5.141-.57h4.709l-1.495-3.508h-4.561Z" transform="translate(-156.341 -115.52)" fill="#fff"/>
            <path id="Path_908056" data-name="Path 908056" d="M360.691,288.84h6.466l-1.794-4.673h-6.242Z" transform="translate(-154.294 -122.091)" fill="#4c5066"/>
            <path id="Path_908057" data-name="Path 908057" d="M366.943,288.911h-6.466a.285.285,0,0,1-.27-.195l-1.57-4.673a.284.284,0,0,1,.27-.376h6.241a.286.286,0,0,1,.266.182l1.794,4.673a.285.285,0,0,1-.266.388m-6.261-.57h5.846l-1.575-4.1H359.3Z" transform="translate(-154.08 -121.876)" fill="#fff"/>
            <path id="Path_908058" data-name="Path 908058" d="M216.691,266.229l1.195-4.174h-5.638l-1.395,4.174Z" transform="translate(-90.592 -112.59)" fill="#4c5066"/>
            <path id="Path_908059" data-name="Path 908059" d="M216.475,266.3h-5.838a.286.286,0,0,1-.271-.375l1.395-4.174a.286.286,0,0,1,.271-.194h5.639a.285.285,0,0,1,.274.363l-1.2,4.174a.284.284,0,0,1-.274.206m-5.442-.57h5.227l1.032-3.6h-5.055Z" transform="translate(-90.377 -112.376)" fill="#fff"/>
            <path id="Path_908060" data-name="Path 908060" d="M354.15,269.373l1.37,4.078h6.033l-1.565-4.078Z" transform="translate(-152.158 -115.734)" fill="#4c5066"/>
            <path id="Path_908061" data-name="Path 908061" d="M361.338,273.521H355.3a.285.285,0,0,1-.27-.194l-1.37-4.078a.284.284,0,0,1,.27-.376h5.838a.285.285,0,0,1,.266.182l1.566,4.078a.286.286,0,0,1-.266.388m-5.828-.57h5.413l-1.347-3.508h-5.245Z" transform="translate(-151.943 -115.52)" fill="#fff"/>
            <path id="Path_908062" data-name="Path 908062" d="M368.342,266.229l-1.779-4.174h-4.987l1.6,4.174Z" transform="translate(-155.349 -112.59)" fill="#4c5066"/>
            <path id="Path_908063" data-name="Path 908063" d="M368.128,266.3h-5.165a.287.287,0,0,1-.266-.183l-1.6-4.174a.285.285,0,0,1,.266-.387h4.988a.285.285,0,0,1,.262.173l1.779,4.174a.286.286,0,0,1-.262.4m-4.968-.57H367.7l-1.535-3.6h-4.385Z" transform="translate(-155.134 -112.376)" fill="#fff"/>
            <path id="Path_908064" data-name="Path 908064" d="M358.931,266.229l-1.6-4.174H351.69l1.4,4.174Z" transform="translate(-151.102 -112.59)" fill="#4c5066"/>
            <path id="Path_908065" data-name="Path 908065" d="M358.716,266.3h-5.838a.285.285,0,0,1-.27-.194l-1.4-4.173a.284.284,0,0,1,.27-.376h5.637a.286.286,0,0,1,.266.182l1.6,4.173a.286.286,0,0,1-.266.388m-5.633-.57H358.3l-1.383-3.6h-5.045Z" transform="translate(-150.887 -112.376)" fill="#fff"/>
            <path id="Path_908066" data-name="Path 908066" d="M327.866,292.36l.966,5.02h6.706l-1.206-5.02Z" transform="translate(-140.866 -125.611)" fill="#4c5066"/>
            <path id="Path_908067" data-name="Path 908067" d="M335.323,297.45h-6.706a.286.286,0,0,1-.28-.231l-.966-5.02a.286.286,0,0,1,.281-.339h6.465a.285.285,0,0,1,.278.218l1.206,5.02a.288.288,0,0,1-.054.244.284.284,0,0,1-.224.108m-6.47-.57h6.108l-1.069-4.449H328Z" transform="translate(-140.651 -125.396)" fill="#fff"/>
            <path id="Path_908068" data-name="Path 908068" d="M363.561,297.38h6.706l-1.928-5.02h-6.465Z" transform="translate(-155.477 -125.611)" fill="#4c5066"/>
            <path id="Path_908069" data-name="Path 908069" d="M370.052,297.45h-6.706a.285.285,0,0,1-.27-.195l-1.687-5.02a.284.284,0,0,1,.27-.376h6.466a.285.285,0,0,1,.266.183l1.927,5.019a.285.285,0,0,1-.266.388m-6.5-.57h6.086l-1.708-4.449h-5.873Z" transform="translate(-155.262 -125.396)" fill="#fff"/>
            <path id="Path_908070" data-name="Path 908070" d="M348.846,266.229l-1.4-4.174h-5.638l1.2,4.174Z" transform="translate(-146.855 -112.59)" fill="#4c5066"/>
            <path id="Path_908071" data-name="Path 908071" d="M348.63,266.3h-5.838a.284.284,0,0,1-.274-.206l-1.2-4.174a.285.285,0,0,1,.274-.364h5.638a.284.284,0,0,1,.27.194l1.4,4.174a.284.284,0,0,1-.27.376m-5.623-.57h5.227l-1.211-3.6h-5.055Z" transform="translate(-146.639 -112.376)" fill="#fff"/>
            <path id="Path_908072" data-name="Path 908072" d="M350.538,292.36l1.446,5.02h6.706L357,292.36Z" transform="translate(-150.607 -125.611)" fill="#4c5066"/>
            <path id="Path_908073" data-name="Path 908073" d="M358.475,297.45h-6.706a.284.284,0,0,1-.274-.206l-1.447-5.02a.285.285,0,0,1,.274-.364h6.466a.284.284,0,0,1,.27.194l1.687,5.02a.284.284,0,0,1-.27.376m-6.491-.57h6.095l-1.5-4.449H350.7Z" transform="translate(-150.391 -125.396)" fill="#fff"/>
            <path id="Path_908074" data-name="Path 908074" d="M339.2,292.36l1.206,5.02h6.706l-1.446-5.02Z" transform="translate(-145.736 -125.611)" fill="#4c5066"/>
            <path id="Path_908075" data-name="Path 908075" d="M346.9,297.45h-6.706a.285.285,0,0,1-.277-.218l-1.206-5.02a.286.286,0,0,1,.277-.352h6.466a.286.286,0,0,1,.274.206l1.446,5.019a.285.285,0,0,1-.274.364m-6.481-.57h6.1l-1.282-4.449H339.35Z" transform="translate(-145.521 -125.396)" fill="#fff"/>
            <path id="Path_908076" data-name="Path 908076" d="M358.017,280.883h6.242l-1.674-4.36h-6.033Z" transform="translate(-153.19 -118.806)" fill="#4c5066"/>
            <path id="Path_908077" data-name="Path 908077" d="M364.045,280.953H357.8a.285.285,0,0,1-.27-.194l-1.465-4.36a.285.285,0,0,1,.27-.376h6.033a.285.285,0,0,1,.266.184l1.674,4.36a.285.285,0,0,1-.266.387m-6.037-.57h5.621l-1.454-3.79h-5.441Z" transform="translate(-152.976 -118.591)" fill="#fff"/>
            <path id="Path_908078" data-name="Path 908078" d="M257.632,266.229l.4-4.174H252.39l-.6,4.174Z" transform="translate(-108.182 -112.59)" fill="#4c5066"/>
            <path id="Path_908079" data-name="Path 908079" d="M257.418,266.3H251.58a.285.285,0,0,1-.282-.325l.6-4.174a.285.285,0,0,1,.282-.245h5.638a.286.286,0,0,1,.211.093.29.29,0,0,1,.073.218l-.4,4.174a.285.285,0,0,1-.284.258m-5.509-.57h5.25l.342-3.6h-5.077Z" transform="translate(-107.967 -112.376)" fill="#fff"/>
            <path id="Path_908080" data-name="Path 908080" d="M338.761,266.229l-1.2-4.174H331.92l1,4.174Z" transform="translate(-142.608 -112.59)" fill="#4c5066"/>
            <path id="Path_908081" data-name="Path 908081" d="M338.546,266.3h-5.838a.285.285,0,0,1-.277-.218l-1-4.173a.285.285,0,0,1,.278-.352h5.637a.285.285,0,0,1,.274.206l1.2,4.173a.286.286,0,0,1-.274.364m-5.613-.57h5.234l-1.039-3.6h-5.061Z" transform="translate(-142.392 -112.376)" fill="#fff"/>
            <path id="Path_908082" data-name="Path 908082" d="M247.4,266.229l.6-4.174h-5.638l-.8,4.174Z" transform="translate(-103.785 -112.59)" fill="#4c5066"/>
            <path id="Path_908083" data-name="Path 908083" d="M247.182,266.3h-5.838a.287.287,0,0,1-.281-.339l.8-4.173a.285.285,0,0,1,.28-.232h5.638a.287.287,0,0,1,.216.1.29.29,0,0,1,.067.228l-.6,4.173a.285.285,0,0,1-.282.245m-5.494-.57h5.246l.514-3.6h-5.073Z" transform="translate(-103.569 -112.376)" fill="#fff"/>
            <path id="Path_908084" data-name="Path 908084" d="M278.1,266.229l0-4.174h-5.638l-.2,4.174Z" transform="translate(-116.978 -112.59)" fill="#4c5066"/>
            <path id="Path_908085" data-name="Path 908085" d="M277.889,266.3h-5.838a.285.285,0,0,1-.285-.3l.2-4.174a.285.285,0,0,1,.285-.271h5.638a.285.285,0,0,1,.285.285l0,4.173a.285.285,0,0,1-.285.285m-5.539-.57H277.6l0-3.6h-5.08Z" transform="translate(-116.763 -112.376)" fill="#fff"/>
            <path id="Path_908086" data-name="Path 908086" d="M237.161,266.229l.8-4.174h-5.639l-1,4.174Z" transform="translate(-99.387 -112.59)" fill="#4c5066"/>
            <path id="Path_908087" data-name="Path 908087" d="M236.947,266.3h-5.838a.285.285,0,0,1-.277-.351l1-4.174a.285.285,0,0,1,.277-.218h5.639a.284.284,0,0,1,.22.1.281.281,0,0,1,.06.235l-.8,4.174a.285.285,0,0,1-.28.232m-5.477-.57h5.24l.688-3.6h-5.069Z" transform="translate(-99.172 -112.376)" fill="#fff"/>
            <path id="Path_908088" data-name="Path 908088" d="M226.926,266.229l1-4.174h-5.638l-1.195,4.174Z" transform="translate(-94.989 -112.59)" fill="#4c5066"/>
            <path id="Path_908089" data-name="Path 908089" d="M226.711,266.3h-5.838a.286.286,0,0,1-.274-.364l1.2-4.173a.285.285,0,0,1,.274-.206h5.637a.285.285,0,0,1,.278.351l-1,4.173a.286.286,0,0,1-.278.219m-5.459-.57h5.235l.86-3.6h-5.062Z" transform="translate(-94.774 -112.376)" fill="#fff"/>
            <path id="Path_908090" data-name="Path 908090" d="M267.868,266.229l.2-4.174h-5.638l-.4,4.174Z" transform="translate(-112.58 -112.59)" fill="#4c5066"/>
            <path id="Path_908091" data-name="Path 908091" d="M267.653,266.3h-5.838a.285.285,0,0,1-.284-.312l.4-4.173a.285.285,0,0,1,.284-.258h5.638a.285.285,0,0,1,.285.3l-.2,4.173a.285.285,0,0,1-.285.272m-5.524-.57h5.252l.169-3.6h-5.08Z" transform="translate(-112.365 -112.376)" fill="#fff"/>
            <path id="Path_908092" data-name="Path 908092" d="M328.676,266.229l-1-4.174h-5.638l.8,4.174Z" transform="translate(-138.361 -112.59)" fill="#4c5066"/>
            <path id="Path_908093" data-name="Path 908093" d="M328.461,266.3h-5.838a.286.286,0,0,1-.28-.231l-.8-4.174a.285.285,0,0,1,.281-.339h5.637a.285.285,0,0,1,.278.218l1,4.174a.285.285,0,0,1-.278.352m-5.6-.57h5.24l-.866-3.6h-5.068Z" transform="translate(-138.146 -112.376)" fill="#fff"/>
            <path id="Path_908094" data-name="Path 908094" d="M318.591,266.229l-.8-4.174H312.15l.6,4.174Z" transform="translate(-134.113 -112.59)" fill="#4c5066"/>
            <path id="Path_908095" data-name="Path 908095" d="M318.377,266.3h-5.838a.286.286,0,0,1-.282-.245l-.6-4.173a.285.285,0,0,1,.282-.326h5.639a.286.286,0,0,1,.28.231l.8,4.173a.286.286,0,0,1-.06.236.282.282,0,0,1-.22.1m-5.591-.57h5.246l-.694-3.6h-5.073Z" transform="translate(-133.898 -112.376)" fill="#fff"/>
            <path id="Path_908096" data-name="Path 908096" d="M298.421,266.229l-.4-4.174H292.38l.2,4.174Z" transform="translate(-125.619 -112.59)" fill="#4c5066"/>
            <path id="Path_908097" data-name="Path 908097" d="M298.207,266.3h-5.838a.285.285,0,0,1-.285-.271l-.2-4.173a.285.285,0,0,1,.285-.3H297.8a.285.285,0,0,1,.284.258l.4,4.173a.286.286,0,0,1-.284.313m-5.566-.57h5.252l-.348-3.6h-5.08Z" transform="translate(-125.405 -112.376)" fill="#fff"/>
            <path id="Path_908098" data-name="Path 908098" d="M278.079,292.36H213.424l-1.437,5.02h67.058Z" transform="translate(-91.079 -125.611)" fill="#4c5066"/>
            <path id="Path_908099" data-name="Path 908099" d="M278.831,297.451H211.772a.286.286,0,0,1-.274-.364l1.438-5.02a.285.285,0,0,1,.274-.207h64.656a.286.286,0,0,1,.28.232l.966,5.02a.285.285,0,0,1-.28.339m-66.68-.57h66.335l-.856-4.45h-64.2Z" transform="translate(-90.864 -125.396)" fill="#fff"/>
            <path id="Path_908100" data-name="Path 908100" d="M308.506,266.229l-.6-4.174h-5.638l.4,4.174Z" transform="translate(-129.866 -112.59)" fill="#4c5066"/>
            <path id="Path_908101" data-name="Path 908101" d="M308.291,266.3h-5.838a.285.285,0,0,1-.284-.258l-.4-4.174a.286.286,0,0,1,.284-.312h5.638a.285.285,0,0,1,.282.244l.6,4.174a.285.285,0,0,1-.282.326m-5.579-.57h5.25l-.521-3.6h-5.077Z" transform="translate(-129.651 -112.376)" fill="#fff"/>
            <rect id="Rectangle_409724" data-name="Rectangle 409724" width="143.698" height="2.039" transform="translate(87.89 180.589)" fill="#4c5066"/>
            <path id="Path_908102" data-name="Path 908102" d="M297.578,318.734h-143.7a.285.285,0,0,1-.285-.285V316.41a.285.285,0,0,1,.285-.285h143.7a.285.285,0,0,1,.285.285v2.039a.285.285,0,0,1-.285.285m-143.412-.57H297.293V316.7H154.166Z" transform="translate(-65.992 -135.821)" fill="#263238"/>
            <g id="Group_1120912" data-name="Group 1120912" transform="translate(67.864 91.685)" opacity="0.15">
              <g id="Group_1120911" data-name="Group 1120911">
                <g id="Group_1120910" data-name="Group 1120910" clip-path="url(#clip-path-5)">
                  <path id="Path_908103" data-name="Path 908103" d="M249.248,161.015v54.8l-15.93,20.765-2.68,1-81.719,12.057v2.68l-29.934,1.612v-29.41H170.02V160.75Z" transform="translate(-118.985 -160.75)"/>
                </g>
              </g>
            </g>
            <path id="Path_908104" data-name="Path 908104" d="M49.727,262.223c-3.678.181-7.664,2.988-7.664,2.988L.5,297.515H68.079s42.683-32.209,43.96-33.132c2.022-1.464,6.037-2.2,6.037-2.2l-1.9.045Z" transform="translate(-0.215 -112.643)" fill="#fff"/>
            <path id="Path_908105" data-name="Path 908105" d="M67.864,297.585H.285a.285.285,0,0,1-.175-.51l41.563-32.3c.176-.125,4.107-2.864,7.826-3.047h66.463l1.892-.045a.285.285,0,0,1,.058.565c-.039.008-3.975.748-5.921,2.156-1.26.911-43.529,32.806-43.956,33.129a.283.283,0,0,1-.172.058m-66.747-.57H67.768c2.042-1.541,42.65-32.182,43.888-33.078a13.07,13.07,0,0,1,3.687-1.644H49.52c-3.55.179-7.469,2.908-7.508,2.936Z" transform="translate(0 -112.428)" fill="#263238"/>
            <path id="Path_908106" data-name="Path 908106" d="M291.107,161.375H200.646a.285.285,0,1,1,0-.57h90.461a.285.285,0,1,1,0,.57" transform="translate(-86.084 -69.089)" fill="#263238"/>
            <path id="Path_908107" data-name="Path 908107" d="M278.735,127.12a6.746,6.746,0,0,0-6.75,6.746v82.941a6.831,6.831,0,0,1-9.132,6.444l-51.174-18.179a14.9,14.9,0,0,0-8.364-.471V133.866a6.75,6.75,0,0,1,6.75-6.746Z" transform="translate(-87.353 -54.616)" fill="#fff"/>
            <path id="Path_908108" data-name="Path 908108" d="M264.94,223.72a7.148,7.148,0,0,1-2.4-.416l-51.174-18.178a14.584,14.584,0,0,0-8.2-.461.281.281,0,0,1-.242-.055.286.286,0,0,1-.108-.223V133.65a7.036,7.036,0,0,1,7.035-7.03h68.67a.285.285,0,0,1,0,.57,6.469,6.469,0,0,0-6.464,6.46v82.941a7.13,7.13,0,0,1-7.115,7.129m-58.458-20.009a15.154,15.154,0,0,1,5.077.877l51.175,18.178a6.545,6.545,0,0,0,8.752-6.175V133.65a7.041,7.041,0,0,1,4.259-6.46H209.85a6.465,6.465,0,0,0-6.464,6.46v70.381a15.194,15.194,0,0,1,3.1-.32" transform="translate(-87.138 -54.402)" fill="#263238"/>
          </g>
        </g>
        <g id="Group_1120919" data-name="Group 1120919" transform="translate(115.962 72.504)">
          <g id="Group_1120918" data-name="Group 1120918" clip-path="url(#clip-path-6)">
            <path id="Path_908109" data-name="Path 908109" d="M229.007,267.709l44.885,15.944a6.829,6.829,0,0,0,9.132-6.444v-9.5Z" transform="translate(-214.353 -187.524)" fill="#d4e157"/>
            <g id="Group_1120917" data-name="Group 1120917" transform="translate(14.654 80.185)" opacity="0.6">
              <g id="Group_1120916" data-name="Group 1120916">
                <g id="Group_1120915" data-name="Group 1120915" clip-path="url(#clip-path-7)">
                  <path id="Path_908110" data-name="Path 908110" d="M229.007,267.709l44.885,15.944a6.829,6.829,0,0,0,9.132-6.444v-9.5Z" transform="translate(-229.007 -267.709)" fill="#fff"/>
                </g>
              </g>
            </g>
            <path id="Path_908111" data-name="Path 908111" d="M229.007,286.864l44.885,15.944a6.83,6.83,0,0,0,9.132-6.444v-9.5Z" transform="translate(-214.353 -195.754)" fill="#d4e157"/>
          </g>
        </g>
        <g id="Group_1120921" data-name="Group 1120921">
          <g id="Group_1120920" data-name="Group 1120920" clip-path="url(#clip-path)">
            <line id="Line_3520" data-name="Line 3520" x1="2.912" transform="translate(115.962 149.58)" fill="#fff"/>
            <path id="Path_908113" data-name="Path 908113" d="M206.012,262.327H203.1a.285.285,0,1,1,0-.57h2.912a.285.285,0,1,1,0,.57" transform="translate(-87.138 -112.462)" fill="#263238"/>
            <path id="Path_908114" data-name="Path 908114" d="M249.349,281.724h-68.67a6.855,6.855,0,0,1-2.3-.4l-11.856-4.17L181.272,265.8a14.914,14.914,0,0,1,14.6-2.655l51.174,18.179a6.865,6.865,0,0,0,2.3.4" transform="translate(-71.547 -112.69)" fill="#fff"/>
            <path id="Path_908115" data-name="Path 908115" d="M249.134,281.793h-68.67a7.114,7.114,0,0,1-2.393-.417l-11.855-4.169a.285.285,0,0,1-.079-.5l14.746-11.355a15.2,15.2,0,0,1,14.87-2.7l51.175,18.178a6.589,6.589,0,0,0,2.207.383.285.285,0,1,1,0,.57m-82.233-4.95,11.36,4a6.561,6.561,0,0,0,2.2.384H246.3L195.562,263.2a14.633,14.633,0,0,0-14.322,2.6Z" transform="translate(-71.332 -112.474)" fill="#263238"/>
          </g>
        </g>
        <g id="Group_1120926" data-name="Group 1120926" transform="translate(94.979 149.596)">
          <g id="Group_1120925" data-name="Group 1120925" clip-path="url(#clip-path-9)">
            <path id="Path_908116" data-name="Path 908116" d="M248.805,281.724h-68.67a6.855,6.855,0,0,1-2.3-.4l-12.578-4.392L180.728,265.8a14.914,14.914,0,0,1,14.6-2.655L246.5,281.324a6.865,6.865,0,0,0,2.3.4" transform="translate(-165.982 -262.286)" fill="#d4e157"/>
            <g id="Group_1120924" data-name="Group 1120924" transform="translate(-0.722 0)" opacity="0.2">
              <g id="Group_1120923" data-name="Group 1120923">
                <g id="Group_1120922" data-name="Group 1120922" clip-path="url(#clip-path-10)">
                  <path id="Path_908117" data-name="Path 908117" d="M248.805,281.724h-68.67a6.855,6.855,0,0,1-2.3-.4l-12.578-4.392L180.728,265.8a14.914,14.914,0,0,1,14.6-2.655L246.5,281.324a6.865,6.865,0,0,0,2.3.4" transform="translate(-165.26 -262.286)"/>
                </g>
              </g>
            </g>
          </g>
        </g>
        <g id="Group_1120928" data-name="Group 1120928">
          <g id="Group_1120927" data-name="Group 1120927" clip-path="url(#clip-path)">
            <line id="Line_3521" data-name="Line 3521" x1="0.151" transform="translate(108.982 169.034)" fill="#fff"/>
            <path id="Path_908119" data-name="Path 908119" d="M191.012,296.435h-.151a.285.285,0,1,1,0-.57h.151a.285.285,0,1,1,0,.57" transform="translate(-81.88 -127.117)" fill="#263238"/>
            <line id="Line_3522" data-name="Line 3522" x1="0.132" transform="translate(177.802 169.034)" fill="#fff"/>
            <path id="Path_908120" data-name="Path 908120" d="M311.656,296.435h-.131a.285.285,0,1,1,0-.57h.131a.285.285,0,0,1,0,.57" transform="translate(-133.722 -127.117)" fill="#263238"/>
            <path id="Path_908121" data-name="Path 908121" d="M335.231,129.1a6.7,6.7,0,0,0-4.768-1.977c-7.027,0-6.75,6.745-6.75,6.745v12.7h13.495v-12.7a6.724,6.724,0,0,0-1.977-4.768" transform="translate(-139.081 -54.617)" fill="#fff"/>
            <path id="Path_908122" data-name="Path 908122" d="M336.992,146.636H323.5a.285.285,0,0,1-.285-.285v-12.7a7.588,7.588,0,0,1,1.876-5.112,6.844,6.844,0,0,1,5.159-1.918,7.035,7.035,0,0,1,7.03,7.03v12.7a.285.285,0,0,1-.285.285m-13.209-.57h12.924V133.65a6.418,6.418,0,0,0-1.893-4.566h0a6.4,6.4,0,0,0-4.566-1.894,6.3,6.3,0,0,0-4.744,1.739,7.14,7.14,0,0,0-1.721,4.709Z" transform="translate(-138.865 -54.402)" fill="#263238"/>
          </g>
        </g>
        <g id="Group_1120933" data-name="Group 1120933" transform="translate(184.631 72.504)">
          <g id="Group_1120932" data-name="Group 1120932" clip-path="url(#clip-path-12)">
            <path id="Path_908123" data-name="Path 908123" d="M335.231,129.1a6.7,6.7,0,0,0-4.768-1.977c-7.027,0-6.75,6.745-6.75,6.745v12.7h13.495v-12.7a6.724,6.724,0,0,0-1.977-4.768" transform="translate(-323.711 -127.121)" fill="#d4e157"/>
            <g id="Group_1120931" data-name="Group 1120931" transform="translate(0 -0.001)" opacity="0.2">
              <g id="Group_1120930" data-name="Group 1120930">
                <g id="Group_1120929" data-name="Group 1120929" clip-path="url(#clip-path-13)">
                  <path id="Path_908124" data-name="Path 908124" d="M335.231,129.1a6.7,6.7,0,0,0-4.768-1.977c-7.027,0-6.75,6.745-6.75,6.745v12.7h13.495v-12.7a6.724,6.724,0,0,0-1.977-4.768" transform="translate(-323.711 -127.12)"/>
                </g>
              </g>
            </g>
          </g>
        </g>
        <g id="Group_1120938" data-name="Group 1120938">
          <g id="Group_1120937" data-name="Group 1120937" clip-path="url(#clip-path)">
            <g id="Group_1120936" data-name="Group 1120936" transform="translate(122.266 81.132)" opacity="0.15">
              <g id="Group_1120935" data-name="Group 1120935">
                <g id="Group_1120934" data-name="Group 1120934" clip-path="url(#clip-path-15)">
                  <path id="Path_908126" data-name="Path 908126" d="M214.368,145.246v33.1h6.521v-36.1h-6.521Z" transform="translate(-214.368 -142.248)"/>
                  <path id="Path_908127" data-name="Path 908127" d="M270.745,142.248h-44.8v3.117h51.179v-3.117Z" transform="translate(-219.342 -142.248)"/>
                </g>
              </g>
            </g>
            <path id="Path_908128" data-name="Path 908128" d="M220.835,145.383h-6.522a.071.071,0,0,1-.071-.071v-3.117a.071.071,0,0,1,.071-.071h6.522a.071.071,0,0,1,.071.071v3.117a.071.071,0,0,1-.071.071m-6.451-.143h6.379v-2.974h-6.379Z" transform="translate(-92.048 -61.062)" fill="#263238"/>
            <path id="Path_908129" data-name="Path 908129" d="M220.835,150.639h-6.522a.071.071,0,0,1-.071-.071V147.45a.071.071,0,0,1,.071-.071h6.522a.071.071,0,0,1,.071.071v3.117a.071.071,0,0,1-.071.071m-6.451-.143h6.379v-2.974h-6.379Z" transform="translate(-92.048 -63.321)" fill="#263238"/>
            <path id="Path_908130" data-name="Path 908130" d="M220.835,155.9h-6.522a.071.071,0,0,1-.071-.071v-3.117a.071.071,0,0,1,.071-.071h6.522a.071.071,0,0,1,.071.071v3.117a.071.071,0,0,1-.071.071m-6.451-.143h6.379v-2.974h-6.379Z" transform="translate(-92.048 -65.579)" fill="#263238"/>
            <path id="Path_908131" data-name="Path 908131" d="M220.835,161.153h-6.522a.071.071,0,0,1-.071-.071v-3.117a.071.071,0,0,1,.071-.071h6.522a.071.071,0,0,1,.071.071v3.117a.071.071,0,0,1-.071.071m-6.451-.143h6.379v-2.974h-6.379Z" transform="translate(-92.048 -67.838)" fill="#263238"/>
            <path id="Path_908132" data-name="Path 908132" d="M220.835,166.409h-6.522a.071.071,0,0,1-.071-.071v-3.116a.071.071,0,0,1,.071-.071h6.522a.071.071,0,0,1,.071.071v3.116a.071.071,0,0,1-.071.071m-6.451-.143h6.379v-2.974h-6.379Z" transform="translate(-92.048 -70.096)" fill="#263238"/>
            <path id="Path_908133" data-name="Path 908133" d="M220.835,171.665h-6.522a.071.071,0,0,1-.071-.071v-3.118a.071.071,0,0,1,.071-.071h6.522a.071.071,0,0,1,.071.071v3.118a.071.071,0,0,1-.071.071m-6.451-.143h6.379v-2.975h-6.379Z" transform="translate(-92.048 -72.354)" fill="#263238"/>
            <path id="Path_908134" data-name="Path 908134" d="M220.835,176.922h-6.522a.071.071,0,0,1-.071-.071v-3.118a.071.071,0,0,1,.071-.071h6.522a.071.071,0,0,1,.071.071v3.118a.071.071,0,0,1-.071.071m-6.451-.143h6.379V173.8h-6.379Z" transform="translate(-92.048 -74.613)" fill="#263238"/>
            <path id="Path_908135" data-name="Path 908135" d="M220.835,182.179h-6.522a.071.071,0,0,1-.071-.071V178.99a.071.071,0,0,1,.071-.071h6.522a.071.071,0,0,1,.071.071v3.118a.071.071,0,0,1-.071.071m-6.451-.143h6.379v-2.975h-6.379Z" transform="translate(-92.048 -76.871)" fill="#263238"/>
            <path id="Path_908136" data-name="Path 908136" d="M220.835,187.436h-6.522a.071.071,0,0,1-.071-.071v-3.118a.071.071,0,0,1,.071-.071h6.522a.071.071,0,0,1,.071.071v3.118a.071.071,0,0,1-.071.071m-6.451-.143h6.379v-2.975h-6.379Z" transform="translate(-92.048 -79.13)" fill="#263238"/>
            <path id="Path_908137" data-name="Path 908137" d="M220.835,192.693h-6.522a.071.071,0,0,1-.071-.071V189.5a.071.071,0,0,1,.071-.071h6.522a.071.071,0,0,1,.071.071v3.118a.071.071,0,0,1-.071.071m-6.451-.143h6.379v-2.975h-6.379Z" transform="translate(-92.048 -81.389)" fill="#263238"/>
            <path id="Path_908138" data-name="Path 908138" d="M220.835,197.95h-6.522a.071.071,0,0,1-.071-.071v-3.117a.071.071,0,0,1,.071-.071h6.522a.071.071,0,0,1,.071.071v3.117a.071.071,0,0,1-.071.071m-6.451-.143h6.379v-2.974h-6.379Z" transform="translate(-92.048 -83.647)" fill="#263238"/>
            <path id="Path_908139" data-name="Path 908139" d="M220.835,203.206h-6.522a.071.071,0,0,1-.071-.071v-3.117a.071.071,0,0,1,.071-.071h6.522a.071.071,0,0,1,.071.071v3.117a.071.071,0,0,1-.071.071m-6.451-.143h6.379v-2.974h-6.379Z" transform="translate(-92.048 -85.906)" fill="#263238"/>
            <path id="Path_908140" data-name="Path 908140" d="M232.413,145.383h-6.521a.071.071,0,0,1-.071-.071v-3.117a.071.071,0,0,1,.071-.071h6.521a.071.071,0,0,1,.071.071v3.117a.071.071,0,0,1-.071.071m-6.45-.143h6.379v-2.974h-6.379Z" transform="translate(-97.022 -61.062)" fill="#263238"/>
            <path id="Path_908141" data-name="Path 908141" d="M243.6,145.383h-6.522a.071.071,0,0,1-.071-.071v-3.117a.071.071,0,0,1,.071-.071H243.6a.071.071,0,0,1,.071.071v3.117a.071.071,0,0,1-.071.071m-6.451-.143h6.379v-2.974h-6.379Z" transform="translate(-101.828 -61.062)" fill="#263238"/>
            <path id="Path_908142" data-name="Path 908142" d="M254.784,145.383h-6.521a.071.071,0,0,1-.071-.071v-3.117a.071.071,0,0,1,.071-.071h6.521a.071.071,0,0,1,.071.071v3.117a.071.071,0,0,1-.071.071m-6.45-.143h6.379v-2.974h-6.379Z" transform="translate(-106.634 -61.062)" fill="#263238"/>
            <path id="Path_908143" data-name="Path 908143" d="M265.969,145.383h-6.522a.071.071,0,0,1-.071-.071v-3.117a.071.071,0,0,1,.071-.071h6.522a.071.071,0,0,1,.071.071v3.117a.071.071,0,0,1-.071.071m-6.451-.143H265.9v-2.974h-6.379Z" transform="translate(-111.439 -61.062)" fill="#263238"/>
            <path id="Path_908144" data-name="Path 908144" d="M277.155,145.383h-6.521a.071.071,0,0,1-.071-.071v-3.117a.071.071,0,0,1,.071-.071h6.521a.071.071,0,0,1,.071.071v3.117a.071.071,0,0,1-.071.071m-6.45-.143h6.379v-2.974H270.7Z" transform="translate(-116.245 -61.062)" fill="#263238"/>
            <path id="Path_908145" data-name="Path 908145" d="M288.34,145.383h-6.522a.071.071,0,0,1-.071-.071v-3.117a.071.071,0,0,1,.071-.071h6.522a.071.071,0,0,1,.071.071v3.117a.071.071,0,0,1-.071.071m-6.451-.143h6.379v-2.974H281.89Z" transform="translate(-121.051 -61.062)" fill="#263238"/>
            <path id="Path_908146" data-name="Path 908146" d="M299.526,145.383H293a.071.071,0,0,1-.071-.071v-3.117a.071.071,0,0,1,.071-.071h6.521a.071.071,0,0,1,.071.071v3.117a.071.071,0,0,1-.071.071m-6.45-.143h6.379v-2.974h-6.379Z" transform="translate(-125.857 -61.062)" fill="#263238"/>
            <path id="Path_908147" data-name="Path 908147" d="M310.711,145.383h-6.522a.071.071,0,0,1-.071-.071v-3.117a.071.071,0,0,1,.071-.071h6.522a.071.071,0,0,1,.071.071v3.117a.071.071,0,0,1-.071.071m-6.451-.143h6.379v-2.974h-6.379Z" transform="translate(-130.663 -61.062)" fill="#263238"/>
            <path id="Path_908148" data-name="Path 908148" d="M277.008,180.707h-51.26a.071.071,0,0,1-.071-.071V147.659a.071.071,0,0,1,.071-.071h51.26a.071.071,0,0,1,.071.071v32.976a.071.071,0,0,1-.071.071m-51.188-.143h51.117V147.731H225.82Z" transform="translate(-96.961 -63.41)" fill="#263238"/>
            <path id="Path_908149" data-name="Path 908149" d="M237.175,180.7a.071.071,0,0,1-.071-.071V147.659a.071.071,0,1,1,.143,0V180.63a.071.071,0,0,1-.071.071" transform="translate(-101.87 -63.41)" fill="#263238"/>
            <path id="Path_908150" data-name="Path 908150" d="M248.363,180.7a.071.071,0,0,1-.071-.071V147.659a.071.071,0,1,1,.143,0V180.63a.071.071,0,0,1-.071.071" transform="translate(-106.677 -63.41)" fill="#263238"/>
            <path id="Path_908151" data-name="Path 908151" d="M259.552,180.7a.071.071,0,0,1-.071-.071V147.659a.071.071,0,1,1,.143,0V180.63a.071.071,0,0,1-.071.071" transform="translate(-111.484 -63.41)" fill="#263238"/>
            <path id="Path_908152" data-name="Path 908152" d="M270.74,180.7a.071.071,0,0,1-.071-.071V147.659a.071.071,0,1,1,.143,0V180.63a.071.071,0,0,1-.071.071" transform="translate(-116.291 -63.41)" fill="#263238"/>
            <path id="Path_908153" data-name="Path 908153" d="M281.929,180.7a.071.071,0,0,1-.071-.071V147.659a.071.071,0,1,1,.143,0V180.63a.071.071,0,0,1-.071.071" transform="translate(-121.099 -63.41)" fill="#263238"/>
            <path id="Path_908154" data-name="Path 908154" d="M293.117,180.7a.071.071,0,0,1-.071-.071V147.659a.071.071,0,1,1,.143,0V180.63a.071.071,0,0,1-.071.071" transform="translate(-125.905 -63.41)" fill="#263238"/>
            <path id="Path_908155" data-name="Path 908155" d="M304.306,180.7a.071.071,0,0,1-.071-.071V147.659a.071.071,0,1,1,.143,0V180.63a.071.071,0,0,1-.071.071" transform="translate(-130.713 -63.41)" fill="#263238"/>
            <path id="Path_908156" data-name="Path 908156" d="M276.971,152.987H225.748a.071.071,0,0,1,0-.143h51.223a.071.071,0,0,1,0,.143" transform="translate(-96.961 -65.669)" fill="#263238"/>
            <path id="Path_908157" data-name="Path 908157" d="M276.971,158.227H225.748a.071.071,0,1,1,0-.143h51.223a.071.071,0,1,1,0,.143" transform="translate(-96.961 -67.92)" fill="#263238"/>
            <path id="Path_908158" data-name="Path 908158" d="M276.971,163.466H225.748a.071.071,0,0,1,0-.143h51.223a.071.071,0,0,1,0,.143" transform="translate(-96.961 -70.171)" fill="#263238"/>
            <path id="Path_908159" data-name="Path 908159" d="M276.971,168.7H225.748a.071.071,0,0,1,0-.143h51.223a.071.071,0,0,1,0,.143" transform="translate(-96.961 -72.422)" fill="#263238"/>
            <path id="Path_908160" data-name="Path 908160" d="M276.971,173.943H225.748a.071.071,0,0,1,0-.143h51.223a.071.071,0,0,1,0,.143" transform="translate(-96.961 -74.672)" fill="#263238"/>
            <path id="Path_908161" data-name="Path 908161" d="M276.971,179.182H225.748a.071.071,0,0,1,0-.143h51.223a.071.071,0,0,1,0,.143" transform="translate(-96.961 -76.923)" fill="#263238"/>
            <path id="Path_908162" data-name="Path 908162" d="M276.971,184.422H225.748a.071.071,0,0,1,0-.143h51.223a.071.071,0,0,1,0,.143" transform="translate(-96.961 -79.174)" fill="#263238"/>
            <path id="Path_908163" data-name="Path 908163" d="M276.971,189.66H225.748a.071.071,0,0,1,0-.143h51.223a.071.071,0,0,1,0,.143" transform="translate(-96.961 -81.425)" fill="#263238"/>
            <path id="Path_908164" data-name="Path 908164" d="M276.971,194.9H225.748a.071.071,0,0,1,0-.143h51.223a.071.071,0,0,1,0,.143" transform="translate(-96.961 -83.676)" fill="#263238"/>
            <path id="Path_908165" data-name="Path 908165" d="M276.971,200.138H225.748a.071.071,0,0,1,0-.143h51.223a.071.071,0,0,1,0,.143" transform="translate(-96.961 -85.927)" fill="#263238"/>
            <path id="Path_908166" data-name="Path 908166" d="M127.114,274.174H72.161l3.794-2.882h54.953Z" transform="translate(-31.003 -116.559)" fill="#d4e157"/>
            <path id="Path_908167" data-name="Path 908167" d="M20.153,297.29H18.8l34.226-26h1.349Z" transform="translate(-8.079 -116.559)" fill="#d4e157"/>
            <path id="Path_908168" data-name="Path 908168" d="M105.886,290.018H50.933l4.295-3.216h54.953Z" transform="translate(-21.883 -123.223)" fill="#4c5066"/>
            <path id="Path_908169" data-name="Path 908169" d="M73.4,297.442H18.443a.071.071,0,0,1-.068-.048.073.073,0,0,1,.025-.08l34.4-26.131a.069.069,0,0,1,.043-.014H107.8a.071.071,0,0,1,.043.128l-34.4,26.132a.074.074,0,0,1-.043.014M18.655,297.3H73.372l34.214-25.989H52.869Z" transform="translate(-7.893 -116.506)" fill="#263238"/>
            <path id="Path_908170" data-name="Path 908170" d="M28.633,297.5a.071.071,0,0,1-.057-.029.072.072,0,0,1,.014-.1l34.252-26.017a.07.07,0,0,1,.1.014.071.071,0,0,1-.014.1L28.677,297.484a.073.073,0,0,1-.043.014" transform="translate(-12.272 -116.579)" fill="#263238"/>
            <path id="Path_908171" data-name="Path 908171" d="M38.31,297.5a.071.071,0,0,1-.057-.029.072.072,0,0,1,.014-.1l34.252-26.017a.07.07,0,0,1,.1.014.071.071,0,0,1-.014.1L38.354,297.484a.073.073,0,0,1-.043.014" transform="translate(-16.429 -116.579)" fill="#263238"/>
            <path id="Path_908172" data-name="Path 908172" d="M47.987,297.5a.071.071,0,0,1-.057-.029.072.072,0,0,1,.014-.1L82.2,271.353a.07.07,0,0,1,.1.014.071.071,0,0,1-.014.1L48.031,297.484a.073.073,0,0,1-.043.014" transform="translate(-20.587 -116.579)" fill="#263238"/>
            <path id="Path_908173" data-name="Path 908173" d="M57.663,297.5a.07.07,0,0,1-.056-.029.072.072,0,0,1,.013-.1l34.252-26.017a.069.069,0,0,1,.1.014.071.071,0,0,1-.014.1L57.707,297.484a.072.072,0,0,1-.043.014" transform="translate(-24.744 -116.579)" fill="#263238"/>
            <path id="Path_908174" data-name="Path 908174" d="M67.34,297.5a.071.071,0,0,1-.057-.029.072.072,0,0,1,.014-.1l34.252-26.017a.07.07,0,0,1,.1.014.071.071,0,0,1-.014.1L67.384,297.484a.073.073,0,0,1-.043.014" transform="translate(-28.902 -116.579)" fill="#263238"/>
            <path id="Path_908175" data-name="Path 908175" d="M77.017,297.5a.071.071,0,0,1-.057-.029.072.072,0,0,1,.014-.1l34.252-26.017a.07.07,0,0,1,.1.014.071.071,0,0,1-.014.1L77.061,297.484a.073.073,0,0,1-.043.014" transform="translate(-33.059 -116.579)" fill="#263238"/>
            <path id="Path_908176" data-name="Path 908176" d="M86.694,297.5a.071.071,0,0,1-.057-.029.072.072,0,0,1,.014-.1L120.9,271.353a.07.07,0,0,1,.1.014.071.071,0,0,1-.014.1L86.738,297.484a.073.073,0,0,1-.043.014" transform="translate(-37.217 -116.579)" fill="#263238"/>
            <path id="Path_908177" data-name="Path 908177" d="M96.371,297.5a.07.07,0,0,1-.056-.029.072.072,0,0,1,.014-.1l34.252-26.017a.07.07,0,0,1,.1.014.072.072,0,0,1-.014.1L96.414,297.484a.07.07,0,0,1-.043.014" transform="translate(-41.375 -116.579)" fill="#263238"/>
            <path id="Path_908178" data-name="Path 908178" d="M106.047,297.5a.071.071,0,0,1-.057-.029.072.072,0,0,1,.014-.1l34.252-26.017a.07.07,0,0,1,.1.014.071.071,0,0,1-.014.1l-34.251,26.017a.073.073,0,0,1-.043.014" transform="translate(-45.532 -116.579)" fill="#263238"/>
            <path id="Path_908179" data-name="Path 908179" d="M120.993,280.971H66.2a.071.071,0,0,1,0-.143h54.788a.071.071,0,1,1,0,.143" transform="translate(-28.414 -120.656)" fill="#263238"/>
            <path id="Path_908180" data-name="Path 908180" d="M113.322,286.8H58.533a.071.071,0,1,1,0-.143h54.788a.071.071,0,1,1,0,.143" transform="translate(-25.118 -123.16)" fill="#263238"/>
            <path id="Path_908181" data-name="Path 908181" d="M105.651,292.625H50.862a.071.071,0,1,1,0-.143h54.788a.071.071,0,0,1,0,.143" transform="translate(-21.822 -125.663)" fill="#263238"/>
            <path id="Path_908182" data-name="Path 908182" d="M97.98,298.452H43.191a.071.071,0,1,1,0-.143H97.98a.071.071,0,0,1,0,.143" transform="translate(-18.526 -128.167)" fill="#263238"/>
            <path id="Path_908183" data-name="Path 908183" d="M90.309,304.279H35.52a.071.071,0,1,1,0-.143H90.309a.071.071,0,1,1,0,.143" transform="translate(-15.23 -130.67)" fill="#263238"/>
            <path id="Path_908184" data-name="Path 908184" d="M82.638,310.1H27.849a.071.071,0,0,1,0-.143H82.638a.071.071,0,0,1,0,.143" transform="translate(-11.935 -133.173)" fill="#263238"/>
            <rect id="Rectangle_409733" data-name="Rectangle 409733" width="57.92" height="2.126" transform="translate(122.215 119.747)" fill="#d4e157"/>
            <rect id="Rectangle_409734" data-name="Rectangle 409734" width="1.422" height="27.402" transform="translate(122.215 119.747)" fill="#d4e157"/>
            <path id="Path_908185" data-name="Path 908185" d="M272.144,237.51H214.225a.071.071,0,0,1-.071-.071V209.9a.071.071,0,0,1,.071-.071h57.919a.071.071,0,0,1,.071.071v27.542a.071.071,0,0,1-.071.071m-57.848-.143h57.777v-27.4H214.3Z" transform="translate(-92.01 -90.15)" fill="#263238"/>
            <path id="Path_908186" data-name="Path 908186" d="M224.926,237.572a.071.071,0,0,1-.071-.071V210.079a.071.071,0,1,1,.143,0V237.5a.071.071,0,0,1-.071.071" transform="translate(-96.608 -90.229)" fill="#263238"/>
            <path id="Path_908187" data-name="Path 908187" d="M235.124,237.572a.071.071,0,0,1-.071-.071V210.079a.071.071,0,0,1,.143,0V237.5a.071.071,0,0,1-.071.071" transform="translate(-100.989 -90.229)" fill="#263238"/>
            <path id="Path_908188" data-name="Path 908188" d="M245.323,237.572a.071.071,0,0,1-.071-.071V210.079a.071.071,0,0,1,.143,0V237.5a.071.071,0,0,1-.071.071" transform="translate(-105.371 -90.229)" fill="#263238"/>
            <path id="Path_908189" data-name="Path 908189" d="M255.522,237.572a.071.071,0,0,1-.071-.071V210.079a.071.071,0,0,1,.143,0V237.5a.071.071,0,0,1-.071.071" transform="translate(-109.753 -90.229)" fill="#263238"/>
            <path id="Path_908190" data-name="Path 908190" d="M265.722,237.572a.071.071,0,0,1-.071-.071V210.079a.071.071,0,0,1,.143,0V237.5a.071.071,0,0,1-.071.071" transform="translate(-114.135 -90.229)" fill="#263238"/>
            <path id="Path_908191" data-name="Path 908191" d="M275.921,237.572a.071.071,0,0,1-.071-.071V210.079a.071.071,0,0,1,.143,0V237.5a.071.071,0,0,1-.071.071" transform="translate(-118.517 -90.229)" fill="#263238"/>
            <path id="Path_908192" data-name="Path 908192" d="M286.12,237.572a.071.071,0,0,1-.071-.071V210.079a.071.071,0,0,1,.143,0V237.5a.071.071,0,0,1-.071.071" transform="translate(-122.899 -90.229)" fill="#263238"/>
            <path id="Path_908193" data-name="Path 908193" d="M296.318,237.572a.071.071,0,0,1-.071-.071V210.079a.071.071,0,1,1,.143,0V237.5a.071.071,0,0,1-.071.071" transform="translate(-127.281 -90.229)" fill="#263238"/>
            <path id="Path_908194" data-name="Path 908194" d="M306.518,237.572a.071.071,0,0,1-.071-.071V210.079a.071.071,0,0,1,.143,0V237.5a.071.071,0,0,1-.071.071" transform="translate(-131.663 -90.229)" fill="#263238"/>
            <path id="Path_908195" data-name="Path 908195" d="M272.142,220.152H214.4a.071.071,0,1,1,0-.143h57.745a.071.071,0,1,1,0,.143" transform="translate(-92.084 -94.526)" fill="#263238"/>
            <path id="Path_908196" data-name="Path 908196" d="M272.142,226.294H214.4a.071.071,0,1,1,0-.143h57.745a.071.071,0,1,1,0,.143" transform="translate(-92.084 -97.164)" fill="#263238"/>
            <path id="Path_908197" data-name="Path 908197" d="M272.142,232.435H214.4a.071.071,0,1,1,0-.143h57.745a.071.071,0,1,1,0,.143" transform="translate(-92.084 -99.803)" fill="#263238"/>
            <path id="Path_908198" data-name="Path 908198" d="M272.142,238.576H214.4a.071.071,0,1,1,0-.143h57.745a.071.071,0,1,1,0,.143" transform="translate(-92.084 -102.441)" fill="#263238"/>
            <path id="Path_908199" data-name="Path 908199" d="M272.142,244.717H214.4a.071.071,0,1,1,0-.143h57.745a.071.071,0,1,1,0,.143" transform="translate(-92.084 -105.08)" fill="#263238"/>
            <path id="Path_908200" data-name="Path 908200" d="M272.142,250.859H214.4a.071.071,0,1,1,0-.143h57.745a.071.071,0,1,1,0,.143" transform="translate(-92.084 -107.719)" fill="#263238"/>
            <rect id="Rectangle_409735" data-name="Rectangle 409735" width="2.415" height="5.635" transform="translate(158.548 137.326)" fill="#4c5066"/>
            <path id="Path_908201" data-name="Path 908201" d="M280.431,246.444h-2.7v-5.92h2.7Zm-2.415-.285h2.13v-5.349h-2.13Z" transform="translate(-119.325 -103.34)" fill="#263238"/>
            <rect id="Rectangle_409736" data-name="Rectangle 409736" width="2.415" height="9.016" transform="translate(162.412 133.946)" fill="#d4e157"/>
            <path id="Path_908202" data-name="Path 908202" d="M287.205,243.9h-2.7v-9.3h2.7Zm-2.415-.285h2.13v-8.73h-2.13Z" transform="translate(-122.236 -100.793)" fill="#263238"/>
            <rect id="Rectangle_409737" data-name="Rectangle 409737" width="2.415" height="14.651" transform="translate(166.276 128.311)" fill="#4c5066"/>
            <path id="Path_908203" data-name="Path 908203" d="M293.98,239.652h-2.7V224.716h2.7Zm-2.415-.285h2.13V225h-2.13Z" transform="translate(-125.147 -96.548)" fill="#263238"/>
            <rect id="Rectangle_409738" data-name="Rectangle 409738" width="2.415" height="9.177" transform="translate(170.14 133.784)" fill="#d4e157"/>
            <path id="Path_908204" data-name="Path 908204" d="M300.754,243.776h-2.7v-9.462h2.7Zm-2.414-.285h2.129V234.6H298.34Z" transform="translate(-128.058 -100.672)" fill="#263238"/>
            <rect id="Rectangle_409739" data-name="Rectangle 409739" width="2.415" height="14.651" transform="translate(174.004 128.311)" fill="#4c5066"/>
            <path id="Path_908205" data-name="Path 908205" d="M307.529,239.652h-2.7V224.716h2.7Zm-2.415-.285h2.129V225h-2.129Z" transform="translate(-130.968 -96.548)" fill="#263238"/>
            <path id="Path_908206" data-name="Path 908206" d="M233.614,233.733v6.7a6.7,6.7,0,1,1,0-13.392Z" transform="translate(-97.494 -97.545)" fill="#d4e157"/>
            <path id="Path_908207" data-name="Path 908207" d="M233.648,240.464h-.143a6.839,6.839,0,0,1,0-13.677h.143Zm-.285-13.39a6.553,6.553,0,0,0,0,13.1Z" transform="translate(-97.386 -97.438)" fill="#263238"/>
            <path id="Path_908208" data-name="Path 908208" d="M238.658,237.218l6.367-2.069a6.7,6.7,0,0,1-4.3,8.437,6.364,6.364,0,0,1-2.069.328Z" transform="translate(-102.538 -101.03)" fill="#fff"/>
            <path id="Path_908209" data-name="Path 908209" d="M238.55,243.921h-.143V236.98l6.6-2.146.044.136a6.838,6.838,0,0,1-4.39,8.617,6.476,6.476,0,0,1-2.113.335m.143-6.735v6.448a6.205,6.205,0,0,0,1.883-.319,6.555,6.555,0,0,0,4.25-8.122Z" transform="translate(-102.43 -100.895)" fill="#263238"/>
            <path id="Path_908210" data-name="Path 908210" d="M238.658,233.733v-6.7a6.59,6.59,0,0,1,6.367,4.627Z" transform="translate(-102.538 -97.545)" fill="#4c5066"/>
            <path id="Path_908211" data-name="Path 908211" d="M238.407,233.822v-7.035h.143a6.735,6.735,0,0,1,6.5,4.725l.044.136Zm.285-6.748v6.356l6.045-1.965a6.448,6.448,0,0,0-6.045-4.391" transform="translate(-102.43 -97.438)" fill="#263238"/>
          </g>
        </g>
      </g>
    </g>
  </g>
</svg>
