<svg xmlns="http://www.w3.org/2000/svg" xmlns:xlink="http://www.w3.org/1999/xlink" width="120" height="120" viewBox="0 0 120 120">
  <defs>
    <clipPath id="clip-path">
      <rect id="Rectangle_400938" data-name="Rectangle 400938" width="113" height="113" fill="none"/>
    </clipPath>
    <clipPath id="clip-path-2">
      <rect id="Rectangle_401742" data-name="Rectangle 401742" width="120" height="120" fill="none"/>
    </clipPath>
    <clipPath id="clip-path-3">
      <rect id="Rectangle_401301" data-name="Rectangle 401301" width="64.317" height="193.113" fill="#d4e157"/>
    </clipPath>
    <clipPath id="clip-path-5">
      <rect id="Rectangle_401247" data-name="Rectangle 401247" width="15.921" height="15.92" fill="#d4e157"/>
    </clipPath>
    <clipPath id="clip-path-6">
      <path id="Path_873506" data-name="Path 873506" d="M15.921,7.96A7.96,7.96,0,1,1,7.96,0a7.961,7.961,0,0,1,7.961,7.96" fill="#d4e157"/>
    </clipPath>
    <clipPath id="clip-path-8">
      <path id="Path_873507" data-name="Path 873507" d="M15.921,7.96A7.96,7.96,0,1,1,7.96,0a7.96,7.96,0,0,1,7.961,7.96" fill="#d4e157"/>
    </clipPath>
    <clipPath id="clip-path-13">
      <rect id="Rectangle_401261" data-name="Rectangle 401261" width="15.92" height="15.92" fill="#d4e157"/>
    </clipPath>
    <clipPath id="clip-path-14">
      <path id="Path_873513" data-name="Path 873513" d="M15.92,7.96A7.96,7.96,0,1,1,7.96,0a7.96,7.96,0,0,1,7.96,7.96" fill="#d4e157"/>
    </clipPath>
    <clipPath id="clip-path-15">
      <rect id="Rectangle_401263" data-name="Rectangle 401263" width="15.921" height="15.921" fill="#d4e157"/>
    </clipPath>
    <clipPath id="clip-path-16">
      <path id="Path_873514" data-name="Path 873514" d="M15.921,7.961A7.96,7.96,0,1,1,7.96,0a7.961,7.961,0,0,1,7.961,7.961" fill="#d4e157"/>
    </clipPath>
    <clipPath id="clip-path-21">
      <rect id="Rectangle_401273" data-name="Rectangle 401273" width="15.92" height="15.921" fill="#d4e157"/>
    </clipPath>
    <clipPath id="clip-path-22">
      <path id="Path_873519" data-name="Path 873519" d="M15.92,7.961A7.96,7.96,0,1,1,7.96,0a7.96,7.96,0,0,1,7.96,7.961" fill="#d4e157"/>
    </clipPath>
    <clipPath id="clip-path-24">
      <path id="Path_873521" data-name="Path 873521" d="M15.921,7.96A7.96,7.96,0,1,1,7.961,0a7.96,7.96,0,0,1,7.96,7.96" fill="#d4e157"/>
    </clipPath>
    <clipPath id="clip-path-32">
      <path id="Path_873532" data-name="Path 873532" d="M15.921,7.961A7.96,7.96,0,1,1,7.961,0a7.96,7.96,0,0,1,7.96,7.961" fill="#d4e157"/>
    </clipPath>
  </defs>
  <g id="Group_1119770" data-name="Group 1119770" transform="translate(-810.711 -1630)">
    <g id="Group_1101088" data-name="Group 1101088" transform="translate(810.711 1630.434)">
      <g id="Group_1099379" data-name="Group 1099379" transform="translate(0 -0.434)">
        <rect id="Rectangle_401103" data-name="Rectangle 401103" width="120" height="120" transform="translate(0 0)" fill="none"/>
        <path id="Path_873425" data-name="Path 873425" d="M49.147,0C76.29,0,98.293,23.571,98.293,52.647s-22,52.647-49.147,52.647S0,81.723,0,52.647,22,0,49.147,0Z" transform="translate(15.677 12.583)" fill="#b9bfe2"/>
        <g id="Mask_Group_1100032" data-name="Mask Group 1100032" transform="translate(0 0)" clip-path="url(#clip-path-2)">
          <g id="Group_1101051" data-name="Group 1101051" transform="translate(148.45 -27.966) rotate(90)" style="isolation: isolate">
            <g id="Group_1099913" data-name="Group 1099913" clip-path="url(#clip-path-3)" style="isolation: isolate">
              <g id="Group_1099912" data-name="Group 1099912">
                <g id="Group_1099911" data-name="Group 1099911" clip-path="url(#clip-path-3)">
                  <g id="Group_1099780" data-name="Group 1099780" transform="translate(48.396 81.162)" style="isolation: isolate">
                    <g id="Group_1099779" data-name="Group 1099779">
                      <g id="Group_1099778" data-name="Group 1099778" transform="translate(0 0)" clip-path="url(#clip-path-5)">
                        <g id="Group_1099777" data-name="Group 1099777" transform="translate(0 0)">
                          <g id="Group_1099776" data-name="Group 1099776" clip-path="url(#clip-path-6)">
                            <path id="Path_875145" data-name="Path 875145" d="M0,0H20.238V20.238H0Z" transform="translate(-4.903 14.231) rotate(-70.991)" fill="#d4e157"/>
                          </g>
                        </g>
                      </g>
                    </g>
                  </g>
                  <g id="Group_1099785" data-name="Group 1099785" transform="translate(48.396 97.082)" style="isolation: isolate">
                    <g id="Group_1099784" data-name="Group 1099784">
                      <g id="Group_1099783" data-name="Group 1099783" clip-path="url(#clip-path-5)">
                        <g id="Group_1099782" data-name="Group 1099782" transform="translate(0)">
                          <g id="Group_1099781" data-name="Group 1099781" clip-path="url(#clip-path-8)">
                            <path id="Path_875146" data-name="Path 875146" d="M0,0H20.238V20.238H0Z" transform="translate(-4.903 14.231) rotate(-70.991)" fill="#d4e157"/>
                          </g>
                        </g>
                      </g>
                    </g>
                  </g>
                  <g id="Group_1099790" data-name="Group 1099790" transform="translate(48.396 113.052)" style="isolation: isolate">
                    <g id="Group_1099789" data-name="Group 1099789">
                      <g id="Group_1099788" data-name="Group 1099788" transform="translate(0 0)" clip-path="url(#clip-path-5)">
                        <g id="Group_1099787" data-name="Group 1099787" transform="translate(0 0)">
                          <g id="Group_1099786" data-name="Group 1099786" clip-path="url(#clip-path-6)">
                            <path id="Path_875147" data-name="Path 875147" d="M0,0H20.238V20.238H0Z" transform="translate(-4.903 14.231) rotate(-70.991)" fill="#d4e157"/>
                          </g>
                        </g>
                      </g>
                    </g>
                  </g>
                  <g id="Group_1099795" data-name="Group 1099795" transform="translate(48.396 128.972)" style="isolation: isolate">
                    <g id="Group_1099794" data-name="Group 1099794">
                      <g id="Group_1099793" data-name="Group 1099793" transform="translate(0 0)" clip-path="url(#clip-path-5)">
                        <g id="Group_1099792" data-name="Group 1099792" transform="translate(0 0)">
                          <g id="Group_1099791" data-name="Group 1099791" clip-path="url(#clip-path-8)">
                            <path id="Path_875148" data-name="Path 875148" d="M0,0H20.238V20.238H0Z" transform="translate(-4.903 14.231) rotate(-70.991)" fill="#d4e157"/>
                          </g>
                        </g>
                      </g>
                    </g>
                  </g>
                  <g id="Group_1099815" data-name="Group 1099815" transform="translate(32.476 81.162)" style="isolation: isolate">
                    <g id="Group_1099814" data-name="Group 1099814">
                      <g id="Group_1099813" data-name="Group 1099813" transform="translate(0 0)" clip-path="url(#clip-path-13)">
                        <g id="Group_1099812" data-name="Group 1099812" transform="translate(0 0)">
                          <g id="Group_1099811" data-name="Group 1099811" clip-path="url(#clip-path-14)">
                            <path id="Path_875149" data-name="Path 875149" d="M0,0H20.238V20.238H0Z" transform="translate(-4.903 14.231) rotate(-70.991)" fill="#d4e157"/>
                          </g>
                        </g>
                      </g>
                    </g>
                  </g>
                  <g id="Group_1099820" data-name="Group 1099820" transform="translate(48.396 64.723)" style="isolation: isolate">
                    <g id="Group_1099819" data-name="Group 1099819">
                      <g id="Group_1099818" data-name="Group 1099818" transform="translate(0 0)" clip-path="url(#clip-path-15)">
                        <g id="Group_1099817" data-name="Group 1099817" transform="translate(0 0)">
                          <g id="Group_1099816" data-name="Group 1099816" clip-path="url(#clip-path-16)">
                            <path id="Path_875150" data-name="Path 875150" d="M0,0H20.238V20.238H0Z" transform="matrix(0.326, -0.945, 0.945, 0.326, -4.903, 14.232)" fill="#d4e157"/>
                          </g>
                        </g>
                      </g>
                    </g>
                  </g>
                  <g id="Group_1099825" data-name="Group 1099825" transform="translate(48.396 48.715)" style="isolation: isolate">
                    <g id="Group_1099824" data-name="Group 1099824">
                      <g id="Group_1099823" data-name="Group 1099823" transform="translate(0 0)" clip-path="url(#clip-path-5)">
                        <g id="Group_1099822" data-name="Group 1099822" transform="translate(0 0)">
                          <g id="Group_1099821" data-name="Group 1099821" clip-path="url(#clip-path-6)">
                            <path id="Path_875151" data-name="Path 875151" d="M0,0H20.238V20.238H0Z" transform="translate(-4.903 14.231) rotate(-70.991)" fill="#d4e157"/>
                          </g>
                        </g>
                      </g>
                    </g>
                  </g>
                  <g id="Group_1099830" data-name="Group 1099830" transform="translate(48.396 32.501)" style="isolation: isolate">
                    <g id="Group_1099829" data-name="Group 1099829">
                      <g id="Group_1099828" data-name="Group 1099828" transform="translate(0 0)" clip-path="url(#clip-path-15)">
                        <g id="Group_1099827" data-name="Group 1099827" transform="translate(0 0)">
                          <g id="Group_1099826" data-name="Group 1099826" clip-path="url(#clip-path-16)">
                            <path id="Path_875152" data-name="Path 875152" d="M0,0H20.238V20.238H0Z" transform="translate(-4.903 14.232) rotate(-70.991)" fill="#d4e157"/>
                          </g>
                        </g>
                      </g>
                    </g>
                  </g>
                  <g id="Group_1099845" data-name="Group 1099845" transform="translate(32.476 64.723)" style="isolation: isolate">
                    <g id="Group_1099844" data-name="Group 1099844">
                      <g id="Group_1099843" data-name="Group 1099843" transform="translate(0 0)" clip-path="url(#clip-path-21)">
                        <g id="Group_1099842" data-name="Group 1099842" transform="translate(0 0)">
                          <g id="Group_1099841" data-name="Group 1099841" clip-path="url(#clip-path-22)">
                            <path id="Path_875153" data-name="Path 875153" d="M0,0H20.238V20.238H0Z" transform="translate(-4.903 14.232) rotate(-70.991)" fill="#d4e157"/>
                          </g>
                        </g>
                      </g>
                    </g>
                  </g>
                  <g id="Group_1099855" data-name="Group 1099855" transform="translate(32.11 97.082)" style="isolation: isolate">
                    <g id="Group_1099854" data-name="Group 1099854">
                      <g id="Group_1099853" data-name="Group 1099853" clip-path="url(#clip-path-5)">
                        <g id="Group_1099852" data-name="Group 1099852" transform="translate(0)">
                          <g id="Group_1099851" data-name="Group 1099851" clip-path="url(#clip-path-24)">
                            <path id="Path_875154" data-name="Path 875154" d="M0,0H20.238V20.238H0Z" transform="translate(-4.903 14.231) rotate(-70.991)" fill="#d4e157"/>
                          </g>
                        </g>
                      </g>
                    </g>
                  </g>
                  <g id="Group_1099870" data-name="Group 1099870" transform="translate(32.11 113.052)" style="isolation: isolate">
                    <g id="Group_1099869" data-name="Group 1099869">
                      <g id="Group_1099868" data-name="Group 1099868" transform="translate(0 0)" clip-path="url(#clip-path-5)">
                        <g id="Group_1099867" data-name="Group 1099867" transform="translate(0 0)">
                          <g id="Group_1099866" data-name="Group 1099866" clip-path="url(#clip-path-24)">
                            <path id="Path_875155" data-name="Path 875155" d="M0,0H20.238V20.238H0Z" transform="translate(-4.903 14.231) rotate(-70.991)" fill="#d4e157"/>
                          </g>
                        </g>
                      </g>
                    </g>
                  </g>
                  <g id="Group_1099885" data-name="Group 1099885" transform="translate(32.11 128.972)" style="isolation: isolate">
                    <g id="Group_1099884" data-name="Group 1099884">
                      <g id="Group_1099883" data-name="Group 1099883" transform="translate(0 0)" clip-path="url(#clip-path-5)">
                        <g id="Group_1099882" data-name="Group 1099882" transform="translate(0 0)">
                          <g id="Group_1099881" data-name="Group 1099881" clip-path="url(#clip-path-24)">
                            <path id="Path_875156" data-name="Path 875156" d="M0,0H20.238V20.238H0Z" transform="translate(-4.903 14.231) rotate(-70.991)" fill="#d4e157"/>
                          </g>
                        </g>
                      </g>
                    </g>
                  </g>
                  <g id="Group_1099900" data-name="Group 1099900" transform="translate(32.476 48.788)" style="isolation: isolate">
                    <g id="Group_1099899" data-name="Group 1099899">
                      <g id="Group_1099898" data-name="Group 1099898" transform="translate(0 0)" clip-path="url(#clip-path-21)">
                        <g id="Group_1099897" data-name="Group 1099897" transform="translate(0 0)">
                          <g id="Group_1099896" data-name="Group 1099896" clip-path="url(#clip-path-22)">
                            <path id="Path_875157" data-name="Path 875157" d="M0,0H20.238V20.238H0Z" transform="translate(-4.903 14.232) rotate(-70.991)" fill="#d4e157"/>
                          </g>
                        </g>
                      </g>
                    </g>
                  </g>
                  <g id="Group_1099910" data-name="Group 1099910" transform="translate(32.11 32.501)" style="isolation: isolate">
                    <g id="Group_1099909" data-name="Group 1099909">
                      <g id="Group_1099908" data-name="Group 1099908" transform="translate(0 0)" clip-path="url(#clip-path-15)">
                        <g id="Group_1099907" data-name="Group 1099907" transform="translate(0 0)">
                          <g id="Group_1099906" data-name="Group 1099906" clip-path="url(#clip-path-32)">
                            <path id="Path_875158" data-name="Path 875158" d="M0,0H20.238V20.238H0Z" transform="matrix(0.326, -0.945, 0.945, 0.326, -4.903, 14.232)" fill="#d4e157"/>
                          </g>
                        </g>
                      </g>
                    </g>
                  </g>
                </g>
              </g>
            </g>
          </g>
        </g>
        <circle id="Ellipse_11503" data-name="Ellipse 11503" cx="51.5" cy="51.5" r="51.5" transform="translate(8 9)" fill="#f3f9ff"/>
      </g>
    </g>
    <g id="Group_1101089" data-name="Group 1101089" transform="translate(837.504 1655.256)">
      <g id="Group_1099389" data-name="Group 1099389" transform="translate(0.293 -0.141)">
        <rect id="Rectangle_401104" data-name="Rectangle 401104" width="67" height="68" transform="translate(-0.086 -0.116)" fill="none"/>
      </g>
      <path id="Path_908215" data-name="Path 908215" d="M65.579,65.48h-3.8V47.7a.926.926,0,0,0-.926-.926H53.584a.926.926,0,0,0-.926.926V65.48H47.607V47.7a.926.926,0,0,0-.926-.926H39.413a.926.926,0,0,0-.926.926V65.48h-5.05V47.7a.926.926,0,0,0-.926-.926H25.243a.926.926,0,0,0-.926.926V65.48H19.267V47.7a.926.926,0,0,0-.926-.926H11.072a.926.926,0,0,0-.926.926V65.48h-3.8a.926.926,0,0,0-.926.926v3.314a.926.926,0,0,0,.926.926H65.579a.926.926,0,0,0,.926-.926V66.405a.926.926,0,0,0-.926-.926ZM54.509,48.628h5.417V65.48H54.509Zm-14.17,0h5.417V65.48H40.339Zm-14.17,0h5.417V65.48H26.168Zm-14.17,0h5.417V65.48H12ZM64.653,68.794H7.271V67.331H64.653ZM25.243,33.317a.926.926,0,0,0-.926.926v6.368a.926.926,0,0,0,.926.926h7.269a.926.926,0,0,0,.926-.926V34.243a.926.926,0,0,0-.926-.926Zm6.343,6.368H26.168V35.169h5.417Zm7.827-12.459a.926.926,0,0,0-.926.926V40.611a.926.926,0,0,0,.926.926h7.269a.926.926,0,0,0,.926-.926V28.152a.926.926,0,0,0-.926-.926Zm6.343,12.459H40.339V29.077h5.417Zm7.827-20.312a.926.926,0,0,0-.926.926V40.611a.926.926,0,0,0,.926.926h7.269a.926.926,0,0,0,.926-.926V20.3a.926.926,0,0,0-.926-.926H53.584Zm6.343,20.312H54.509V21.224h5.417Zm-45.22.332A5.114,5.114,0,1,0,9.593,34.9,5.12,5.12,0,0,0,14.707,40.018Zm0-8.377A3.263,3.263,0,1,1,11.444,34.9,3.266,3.266,0,0,1,14.707,31.641Zm14.17-.223A5.114,5.114,0,1,0,23.763,26.3,5.12,5.12,0,0,0,28.877,31.418Zm0-8.376A3.263,3.263,0,1,1,25.614,26.3,3.266,3.266,0,0,1,28.877,23.041Zm14.17-.224A5.114,5.114,0,1,0,37.933,17.7,5.12,5.12,0,0,0,43.047,22.817Zm0-8.376A3.263,3.263,0,1,1,39.785,17.7,3.266,3.266,0,0,1,43.047,14.441Zm14.17-.234a5.1,5.1,0,1,0-5.1-5.1,5.109,5.109,0,0,0,5.1,5.1Zm0-8.356A3.252,3.252,0,1,1,53.965,9.1a3.256,3.256,0,0,1,3.253-3.252ZM71.689,44.156a.926.926,0,0,1-.349.724l-3.6,2.869A.926.926,0,0,1,66.585,46.3l1.531-1.219H6.8a.926.926,0,0,1,0-1.851h61.32l-1.531-1.219a.926.926,0,1,1,1.153-1.448l3.6,2.869a.926.926,0,0,1,.349.724Z" transform="translate(-4.482 -3.579)" fill="#474d41"/>
    </g>
  </g>
</svg>
