<svg id="Group_1119903" data-name="Group 1119903" xmlns="http://www.w3.org/2000/svg" xmlns:xlink="http://www.w3.org/1999/xlink" width="125.332" height="136.883" viewBox="0 0 125.332 136.883">
  <defs>
    <clipPath id="clip-path">
      <rect id="Rectangle_409674" data-name="Rectangle 409674" width="125.332" height="136.883" fill="none"/>
    </clipPath>
    <clipPath id="clip-path-3">
      <path id="Path_907013" data-name="Path 907013" d="M44.129.209a7.225,7.225,0,0,0-2.013.884,7.3,7.3,0,0,0-1.668,1.449,6.262,6.262,0,0,0-1.106,1.875L.418,110.285A6.582,6.582,0,0,0,0,112.548H0c0,.036,0,.072,0,.107a5.353,5.353,0,0,0,.465,2.124,4.52,4.52,0,0,0,3.187,2.586L81.44,134.853a6.471,6.471,0,0,0,2.611.042,7.138,7.138,0,0,0,2.427-.941,7.459,7.459,0,0,0,1.97-1.76,7.259,7.259,0,0,0,1.242-2.411L123.947,13.545a4.763,4.763,0,0,0,.147-2.14,4.293,4.293,0,0,0-.773-1.834,4.673,4.673,0,0,0-1.547-1.338A5.77,5.77,0,0,0,119.6,7.58L46.269.029A5.531,5.531,0,0,0,45.7,0a6.19,6.19,0,0,0-1.573.209" transform="translate(0 0)" fill="none"/>
    </clipPath>
    <linearGradient id="linear-gradient" x1="0.127" y1="0.903" x2="0.13" y2="0.903" gradientUnits="objectBoundingBox">
      <stop offset="0" stop-color="#484952"/>
      <stop offset="1" stop-color="#303136"/>
    </linearGradient>
    <clipPath id="clip-path-4">
      <path id="Path_907014" data-name="Path 907014" d="M16.544,111.247l77.987,16.445L126.323,21.546,52.1,13.419Z" transform="translate(-16.544 -13.419)" fill="none"/>
    </clipPath>
    <linearGradient id="linear-gradient-2" x1="-0.073" y1="1.141" x2="-0.069" y2="1.141" gradientUnits="objectBoundingBox">
      <stop offset="0" stop-color="#f5f7ff"/>
      <stop offset="0.362" stop-color="#eef3fd"/>
      <stop offset="0.854" stop-color="#ddeaf8"/>
      <stop offset="1" stop-color="#d7e7f7"/>
    </linearGradient>
    <clipPath id="clip-path-6">
      <path id="Path_907075" data-name="Path 907075" d="M164.713,14.576a.673.673,0,0,0-.187.081.651.651,0,0,0-.152.133.553.553,0,0,0-.1.174.418.418,0,0,0-.02.18.351.351,0,0,0,.056.156.373.373,0,0,0,.123.114.449.449,0,0,0,.177.056.565.565,0,0,0,.2-.016.661.661,0,0,0,.188-.08.647.647,0,0,0,.152-.134.54.54,0,0,0,.1-.172.41.41,0,0,0,.02-.181.343.343,0,0,0-.056-.156.36.36,0,0,0-.123-.114.446.446,0,0,0-.177-.056l-.057,0a.576.576,0,0,0-.144.018" transform="translate(-164.254 -14.558)" fill="none"/>
    </clipPath>
    <linearGradient id="linear-gradient-3" x1="-77.658" y1="141.271" x2="-77.185" y2="141.271" gradientUnits="objectBoundingBox">
      <stop offset="0" stop-color="#3699f5"/>
      <stop offset="1" stop-color="#45fcff"/>
    </linearGradient>
    <clipPath id="clip-path-8">
      <rect id="Rectangle_409668" data-name="Rectangle 409668" width="91.338" height="92.503" fill="none"/>
    </clipPath>
    <clipPath id="clip-path-9">
      <rect id="Rectangle_409669" data-name="Rectangle 409669" width="20.554" height="20.851" fill="none"/>
    </clipPath>
    <clipPath id="clip-path-10">
      <path id="Path_907081" data-name="Path 907081" d="M19.632,13.787a2.017,2.017,0,0,0-.737.439,3.14,3.14,0,0,0-.87,2.229,5.493,5.493,0,0,0,.086,1.02c.055.275.055.275.842,3.591.4,1.675.925,3.9,1.547,6.522.637,2.686,1.487,6.266,2.125,8.951L32.873,79.745Q34.832,88,36.79,96.251c0,.012.006.028.01.039a26.26,26.26,0,0,0,1.409,3.628c.057.129.584,1.318,1.468,3.175.126.265.293.617.421.879.158.323.313.647.47.971a3.884,3.884,0,0,0,.194.382,1.161,1.161,0,0,0,.605.558.5.5,0,0,0,.274.013c.242-.059.531-.3.541-1.1-.029-1.963-.084-5.617-.3-8.033-.051-.568-.125-1.127-.166-1.342-.05-.252-.05-.252-.611-2.616-.33-1.395-.8-3.368-1.373-5.783l-2-8.425L35.307,68.37c-.858-3.612-1.751-7.382-2.65-11.17s-1.8-7.595-2.675-11.276-1.718-7.242-2.5-10.537-1.5-6.325-2.124-8.952-1.149-4.846-1.547-6.52c-.829-3.5-.829-3.5-.884-3.659a4.657,4.657,0,0,0-.843-1.6,2.577,2.577,0,0,0-1.642-.947,1.752,1.752,0,0,0-.213-.012,1.9,1.9,0,0,0-.6.093" transform="translate(-18.026 -13.694)" fill="none"/>
    </clipPath>
    <linearGradient id="linear-gradient-4" x1="0.022" y1="1.383" x2="0.033" y2="1.383" gradientUnits="objectBoundingBox">
      <stop offset="0" stop-color="#fff"/>
      <stop offset="1" stop-color="#ced2f7"/>
    </linearGradient>
    <clipPath id="clip-path-12">
      <rect id="Rectangle_409672" data-name="Rectangle 409672" width="21.841" height="72.804" fill="none"/>
    </clipPath>
  </defs>
  <g id="Group_1119902" data-name="Group 1119902" clip-path="url(#clip-path)">
    <g id="Group_1119878" data-name="Group 1119878">
      <g id="Group_1119877" data-name="Group 1119877" clip-path="url(#clip-path)">
        <path id="Path_907011" data-name="Path 907011" d="M127.151,25.327a4.221,4.221,0,0,0-.208-.695l-1.178-2.979a4.279,4.279,0,0,1,.21.7,4.42,4.42,0,0,1,.09.741,4.69,4.69,0,0,1-.036.774,5.12,5.12,0,0,1-.169.8L91.6,140.906a7.244,7.244,0,0,1-1.242,2.41,7.449,7.449,0,0,1-1.97,1.76,7.135,7.135,0,0,1-2.427.941,6.478,6.478,0,0,1-2.61-.043L5.566,128.487a4.85,4.85,0,0,1-.512-.144,4.62,4.62,0,0,1-.479-.194,4.555,4.555,0,0,1-.443-.24,4.333,4.333,0,0,1-.407-.283l2.467,1.928a4.28,4.28,0,0,0,.4.281,4.5,4.5,0,0,0,.44.239,4.549,4.549,0,0,0,.475.193,4.938,4.938,0,0,0,.508.144l77.1,17.44a6.41,6.41,0,0,0,2.584.045,7.04,7.04,0,0,0,2.4-.929,7.357,7.357,0,0,0,1.948-1.741,7.147,7.147,0,0,0,1.225-2.386l33.76-115.215a5.129,5.129,0,0,0,.166-.792,4.674,4.674,0,0,0,.035-.769,4.422,4.422,0,0,0-.091-.736" transform="translate(-1.913 -11.121)" fill="#28282b"/>
        <path id="Path_907012" data-name="Path 907012" d="M93.724,145.245,127.484,30.03a5.162,5.162,0,0,0,.123-.535L93.587,144.933a7.25,7.25,0,0,1-1.242,2.411,7.468,7.468,0,0,1-1.97,1.76,7.139,7.139,0,0,1-2.427.941,6.468,6.468,0,0,1-2.61-.043L7.587,132.523c.12.053.241.106.368.149a4.811,4.811,0,0,0,.508.144l77.1,17.44a6.427,6.427,0,0,0,2.584.045,7.055,7.055,0,0,0,2.4-.929,7.347,7.347,0,0,0,1.947-1.741,7.135,7.135,0,0,0,1.226-2.386" transform="translate(-3.897 -15.148)" fill="#717280"/>
      </g>
    </g>
    <g id="Group_1119880" data-name="Group 1119880" transform="translate(0 0)">
      <g id="Group_1119879" data-name="Group 1119879" clip-path="url(#clip-path-3)">
        <rect id="Rectangle_409664" data-name="Rectangle 409664" width="166.38" height="172.261" transform="translate(-47.681 19.71) rotate(-22.459)" fill="url(#linear-gradient)"/>
      </g>
    </g>
    <g id="Group_1119882" data-name="Group 1119882" transform="translate(8.047 6.527)">
      <g id="Group_1119881" data-name="Group 1119881" clip-path="url(#clip-path-4)">
        <rect id="Rectangle_409665" data-name="Rectangle 409665" width="109.779" height="114.273" fill="url(#linear-gradient-2)"/>
      </g>
    </g>
    <g id="Group_1119884" data-name="Group 1119884">
      <g id="Group_1119883" data-name="Group 1119883" clip-path="url(#clip-path)">
        <path id="Path_907015" data-name="Path 907015" d="M97.79,49.874c-4.973,4.414-8.505,8.811-10.913,14.753a23.043,23.043,0,0,0,.679,18.5Q99.276,75.474,111,67.822q-6.608-8.971-13.21-17.948" transform="translate(-43.79 -25.615)" fill="#ffd10d"/>
        <path id="Path_907016" data-name="Path 907016" d="M129.636,64q6.974-8.41,13.948-16.819a19.007,19.007,0,0,0-7.313-2.275,25.885,25.885,0,0,0-17.258,4.744q5.31,7.177,10.623,14.35" transform="translate(-61.124 -23.002)" fill="#6ed8ff"/>
        <path id="Path_907017" data-name="Path 907017" d="M125.8,112.653c9.636,1.147,19.351-3.291,25.711-10.429q-9.065-6.256-18.129-12.514-3.8,11.47-7.582,22.943" transform="translate(-64.61 -46.075)" fill="#ff425e"/>
        <path id="Path_907018" data-name="Path 907018" d="M116.7,106.635q2.647-7.976,5.3-15.949-7.421,4.842-14.84,9.686a14.6,14.6,0,0,0,9.544,6.263" transform="translate(-55.034 -46.576)" fill="#ff822e"/>
        <path id="Path_907019" data-name="Path 907019" d="M167.221,68.811c2.677-8.675.234-18.525-7.576-23.686q-8.326,10.058-16.656,20.111,9.578,6.577,19.158,13.15a29.611,29.611,0,0,0,5.075-9.575" transform="translate(-73.438 -23.176)" fill="#c859ff"/>
        <path id="Path_907020" data-name="Path 907020" d="M103.42,176.216q-26.947-5.266-53.9-10.523,4.351-12.246,8.713-24.488l.225.038q-4.318,12.122-8.623,24.248,26.83,5.231,53.661,10.461c-.032.106-.049.159-.08.265" transform="translate(-25.435 -72.522)" fill="#0dd0fc"/>
        <path id="Path_907021" data-name="Path 907021" d="M60.6,167.489l-.057-.011c.035-.1.053-.15.089-.25l.056.011c-.035.1-.052.15-.088.251m.176-.5-.057-.011c.035-.1.053-.15.088-.25l.057.011-.088.25m.175-.5-.057-.011c.035-.1.053-.151.088-.251l.057.012-.088.25m.175-.5-.057-.012.088-.25.057.011c-.035.1-.052.151-.088.251m.175-.5-.056-.01c.035-.1.052-.151.087-.251l.056.011c-.035.1-.052.15-.087.25m.175-.5-.057-.011c.035-.1.052-.15.088-.25l.057.011c-.035.1-.053.15-.088.251m.175-.5-.056-.011c.036-.1.052-.15.086-.25l.058.011-.088.25m.175-.5-.056-.011c.035-.1.051-.148.086-.248l.057.01c-.036.1-.053.149-.088.249m.174-.5-.057-.011.088-.25.057.011-.088.25m.175-.5-.057-.011c.035-.1.053-.149.087-.249l.056.012-.086.248m.173-.5-.057-.009c.035-.1.053-.15.088-.249l.057.01c-.035.1-.053.148-.088.248m.175-.5-.057-.012c.035-.1.053-.148.088-.248l.057.011-.087.249m.174-.5c-.023,0-.033-.007-.056-.011.035-.1.051-.149.086-.248l.058.009-.088.249m.173-.5-.056-.012c.035-.1.052-.149.087-.248l.057.011c-.035.1-.053.149-.088.249m.175-.5-.057-.011c.035-.1.052-.148.087-.247l.057.01c-.035.1-.052.148-.086.248m.173-.5-.057-.01.087-.247.056.01c-.035.1-.051.149-.086.248m.173-.494-.056-.011.086-.247.057.01-.087.248m.174-.494-.057-.011c.035-.1.052-.149.087-.247.023,0,.033.007.056.011-.035.1-.052.148-.086.247m.172-.494-.057-.01.088-.247.056.011-.086.245m.172-.493-.056-.01c.035-.1.053-.148.088-.247l.056.011c-.035.1-.052.147-.087.246m.174-.493-.057-.01c.035-.1.051-.148.086-.247l.056.01c-.035.1-.051.149-.085.247m.173-.492-.057-.011.086-.246.057.011-.086.246m.172-.491-.057-.01c.035-.1.052-.147.086-.246l.056.01-.085.246m.172-.491-.057-.011c.034-.1.052-.146.087-.245l.057.01c-.034.1-.053.147-.087.246m.173-.491-.057-.01c.035-.1.053-.148.087-.246l.056.01c-.034.1-.051.148-.086.246m.171-.491-.057-.01c.034-.1.052-.148.087-.246l.056.01c-.034.1-.052.147-.086.246m.173-.491-.057-.01.085-.245.057.011-.085.244m.17-.489-.056-.011c.034-.1.052-.146.087-.244l.057.011c-.034.1-.053.146-.087.244m.173-.488-.057-.011c.035-.1.052-.147.086-.245l.058.011c-.035.1-.053.147-.087.245m.171-.49-.057-.009.086-.245.056.01c-.035.1-.05.146-.085.243m.171-.487-.056-.011.085-.244.057.012-.086.243m.171-.489-.056-.01L66,151.9l.056.01c-.035.1-.051.146-.085.244m.17-.488-.057-.01c.034-.1.052-.145.086-.242l.056.01c-.035.1-.051.145-.085.242m.171-.485-.057-.01c.035-.1.052-.146.086-.244l.056.01-.086.244m.171-.487-.057-.009.086-.244.057.01c-.034.1-.052.145-.086.243m.171-.487-.056-.009.086-.242.056.01c-.034.1-.051.145-.085.242m.17-.484-.056-.01.086-.242.056.009c-.034.1-.051.146-.085.243m.17-.485-.056-.01c.034-.1.052-.145.086-.242l.056.011c-.034.1-.052.144-.086.241m.17-.484-.057-.009c.034-.1.053-.146.087-.243l.056.01c-.034.1-.052.145-.086.242m.171-.484-.057-.01c.034-.1.052-.144.087-.242l.056.011c-.034.1-.052.144-.085.241m.169-.484-.057-.01c.034-.1.052-.145.086-.242l.057.009c-.035.1-.052.146-.086.242m.17-.483-.057-.01c.035-.1.052-.145.085-.242l.057.01c-.034.1-.052.146-.086.243m.17-.483-.057-.009c.034-.1.05-.145.085-.242l.056.01c-.034.1-.05.144-.084.241m.169-.484-.057-.009c.035-.1.051-.145.085-.241l.056.009c-.034.1-.05.145-.084.241m.169-.481c-.022,0-.034-.008-.056-.011.034-.1.051-.144.085-.24l.056.009c-.034.1-.05.145-.084.242m.169-.482-.057-.011.085-.241.057.01-.085.242m.169-.482-.056-.011.084-.239.057.009c-.035.1-.051.143-.085.24m.168-.481-.057-.009c.034-.1.053-.144.086-.24l.056.009c-.034.1-.051.144-.085.24m.169-.48-.056-.01.085-.24.056.009c-.035.1-.05.145-.084.241" transform="translate(-31.093 -73.794)" fill="#0dd0fc"/>
        <path id="Path_907022" data-name="Path 907022" d="M71.193,169.38l-.057-.011c.035-.1.053-.151.088-.252l.057.011c-.035.1-.054.15-.089.251m.175-.5-.057-.012c.035-.1.052-.151.087-.251l.058.012-.087.252m.175-.5-.058-.013.087-.251.058.01c-.035.1-.053.153-.087.254m.173-.505-.057-.01c.035-.1.052-.151.087-.252l.058.011c-.035.1-.053.15-.087.251m.174-.5-.058-.011.086-.253.058.012-.086.252m.174-.5-.058-.011c.035-.1.052-.152.087-.252l.058.012-.087.252m.173-.5-.058-.011c.035-.1.053-.151.088-.251l.057.011c-.035.1-.053.151-.087.251m.173-.5-.057-.011c.035-.1.051-.149.086-.25l.057.011-.087.25m.174-.5-.058-.011.087-.25.057.011-.086.25m.173-.5-.057-.011c.035-.1.05-.15.085-.25l.059.011-.087.25m.172-.5-.058-.012c.035-.1.053-.148.087-.249l.057.01-.087.251m.173-.5-.057-.012.087-.248.058.01c-.035.1-.053.149-.087.25m.173-.5-.058-.011c.035-.1.053-.148.087-.249l.057.011c-.034.1-.051.149-.086.249m.173-.5-.058-.011c.034-.1.053-.15.087-.25l.057.011-.086.25m.172-.5-.058-.011c.035-.1.052-.15.086-.25l.058.011c-.034.1-.051.15-.085.25m.172-.5-.057-.009c.034-.1.051-.15.086-.25l.058.01c-.035.1-.053.149-.087.249m.172-.5-.058-.011c.034-.1.053-.149.087-.249l.057.012c-.034.1-.053.148-.087.248m.172-.5-.058-.01.087-.248.057.009c-.034.1-.052.15-.086.249m.171-.5-.058-.011c.034-.1.052-.148.087-.248l.057.01-.086.249m.172-.5-.058-.01c.034-.1.053-.149.087-.248l.057.01-.086.247m.172-.5c-.023,0-.035,0-.057-.01.034-.1.05-.148.084-.248l.059.01-.086.248m.17-.495-.057-.01.086-.248.058.011-.086.247m.171-.494-.057-.011c.034-.1.05-.149.084-.248l.058.011c-.035.1-.051.148-.086.248m.17-.5-.056-.011c.035-.1.051-.148.085-.247l.057.01c-.034.1-.051.149-.086.247m.172-.494-.058-.01c.034-.1.051-.149.085-.248l.058.01-.085.248m.171-.495-.057-.01c.035-.1.051-.148.085-.247l.057.01-.085.247m.17-.493-.057-.012c.034-.1.051-.146.085-.245l.058.01-.085.247m.17-.494-.057-.01c.034-.1.051-.147.085-.245l.058.009-.085.246m.17-.492-.057-.01c.035-.1.053-.148.087-.247l.056.011c-.034.1-.051.148-.086.246m.17-.492-.057-.01c.034-.1.05-.147.084-.246l.058.01c-.035.1-.052.148-.085.246m.17-.492-.058-.01c.034-.1.051-.148.084-.246l.058.011c-.035.1-.051.147-.085.245m.17-.491-.057-.01.084-.245.058.01-.085.245m.17-.49-.058-.01.085-.246.058.011-.085.245m.169-.49-.058-.011c.034-.1.053-.146.086-.244l.057.01-.085.245m.169-.49-.057-.01.084-.244.058.01-.086.245m.17-.49-.058-.01c.034-.1.051-.145.085-.243l.058.01c-.034.1-.051.146-.085.244m.168-.488-.058-.009c.034-.1.051-.148.085-.246l.058.01c-.034.1-.05.146-.084.244m.168-.489L77.479,151c.034-.1.051-.147.085-.244l.057.01c-.034.1-.051.146-.085.243m.17-.487-.058-.01c.034-.1.051-.146.085-.244l.057.01c-.035.1-.05.147-.084.244m.168-.487-.058-.01.085-.243.057.01c-.034.1-.05.146-.084.243m.168-.487-.057-.009.084-.244.058.01-.085.243m.168-.486-.057-.009c.033-.1.051-.147.084-.244l.057.01-.084.243m.169-.486-.057-.011.084-.242.057.009c-.033.1-.05.145-.083.243m.167-.486-.057-.01.083-.242.058.009c-.033.1-.05.145-.084.243m.167-.485-.057-.011.084-.241.058.009-.085.243m.169-.485-.057-.01c.033-.1.05-.146.083-.243l.057.01c-.034.1-.05.146-.084.243m.168-.486-.058-.008.084-.242.057.009c-.034.1-.05.145-.083.241m.166-.483-.057-.009.084-.242.058.009c-.034.1-.051.145-.085.241m.168-.483-.057-.01c.033-.1.05-.145.084-.242l.057.01c-.033.1-.05.145-.084.242" transform="translate(-36.535 -74.683)" fill="#0dd0fc"/>
        <path id="Path_907023" data-name="Path 907023" d="M81.914,171.3l-.06-.011.087-.254.058.012-.085.253m.173-.508-.06-.012c.035-.1.053-.152.088-.254l.059.011-.086.254m.171-.507-.059-.012.086-.253.059.011c-.034.1-.053.152-.087.254m.173-.507-.059-.012c.034-.1.052-.152.087-.254l.058.012c-.035.1-.052.153-.086.254m.172-.508-.06-.011c.035-.1.052-.152.086-.253l.059.01c-.034.1-.051.152-.085.254m.171-.506-.059-.011.086-.254.059.011-.086.254m.172-.507-.059-.011c.034-.1.052-.151.086-.253l.059.011-.086.253m.172-.506-.059-.011c.034-.1.052-.151.086-.252l.058.011c-.034.1-.051.151-.085.252m.171-.5-.059-.011c.034-.1.052-.15.086-.251l.058.011c-.035.1-.052.15-.086.251m.172-.5-.059-.011c.034-.1.052-.151.086-.251l.058.01c-.034.1-.051.151-.085.252m.171-.5-.059-.011c.034-.1.052-.151.086-.252l.059.011c-.035.1-.052.151-.086.252m.171-.5-.058-.011.086-.251.059.011-.086.251m.172-.5-.059-.011c.034-.1.051-.151.085-.251l.059.011c-.035.1-.051.15-.085.251m.171-.5-.059-.011c.035-.1.051-.152.085-.252l.059.011-.085.251m.17-.5-.059-.011c.034-.1.052-.151.086-.251l.059.01c-.035.1-.052.152-.086.252m.172-.5-.059-.011c.035-.1.05-.15.083-.251l.059.011c-.034.1-.05.151-.084.251m.169-.5-.059-.01c.034-.1.052-.15.086-.25l.059.01c-.034.1-.052.15-.086.251m.17-.5-.058-.011c.034-.1.051-.15.085-.25l.059.011-.086.25m.17-.5-.058-.011c.035-.1.051-.149.085-.249l.058.01c-.034.1-.051.15-.085.25m.17-.5-.058-.01.085-.249.059.01-.085.249m.171-.5-.059-.01c.034-.1.05-.15.084-.251l.06.011c-.035.1-.051.15-.085.25m.169-.5-.058-.011.084-.249.059.01-.085.249m.17-.5-.059-.01.085-.25.059.011-.085.249m.169-.5-.059-.01c.035-.1.053-.149.086-.248l.058.009-.085.249m.169-.5-.059-.01.085-.249.059.01c-.034.1-.05.15-.085.249m.17-.5-.058-.012c.034-.1.05-.149.084-.248l.059.01c-.035.1-.051.151-.085.25m.169-.5-.06-.009c.035-.1.052-.149.085-.248l.058.01-.084.248m.168-.5-.058-.011c.034-.1.051-.148.085-.248l.057.01c-.034.1-.05.149-.084.249m.17-.5-.059-.01c.034-.1.05-.149.084-.249l.059.011c-.034.1-.05.148-.084.248m.168-.5-.06-.01c.034-.1.051-.148.084-.247l.059.009-.084.248m.168-.495-.058-.01c.034-.1.051-.148.084-.247l.058.01c-.034.1-.05.149-.084.248m.168-.494-.057-.011c.033-.1.049-.148.083-.247l.058.012c-.033.1-.051.148-.084.247m.168-.495-.058-.01.082-.247.06.01c-.034.1-.051.148-.084.247m.168-.493-.058-.01c.034-.1.051-.148.085-.246l.058.01c-.034.1-.051.146-.085.245m.169-.493-.059-.01c.034-.1.051-.147.085-.246l.058.01-.083.246m.167-.493-.058-.009c.034-.1.051-.147.085-.246l.058.009c-.034.1-.051.147-.085.246m.167-.491-.058-.01c.034-.1.05-.147.083-.245l.059.009-.084.246m.167-.492-.058-.011c.034-.1.052-.146.085-.245l.057.01c-.034.1-.05.147-.084.246m.168-.491-.059-.009.085-.247.058.01-.084.246m.166-.491-.058-.009c.033-.1.051-.147.085-.245l.058.009c-.034.1-.051.146-.085.245m.168-.49-.059-.01c.034-.1.051-.147.084-.246l.058.009c-.034.1-.049.148-.083.246m.167-.49-.059-.009c.034-.1.05-.147.083-.245l.058.009c-.033.1-.049.147-.082.245m.166-.489-.058-.01.083-.244.057.009c-.034.1-.049.147-.082.245m.166-.489-.058-.01c.034-.1.05-.146.083-.244l.058.01-.083.243m.167-.488-.058-.009.084-.244.057.009c-.034.1-.05.147-.083.244m.165-.488-.057-.009c.034-.1.051-.146.084-.245l.058.01c-.033.1-.051.146-.085.244m.167-.488-.058-.01c.033-.1.05-.146.083-.244l.059.01-.083.243m.166-.487-.058-.01c.033-.1.05-.144.084-.243l.057.01c-.033.1-.049.146-.083.243m.165-.486-.058-.01c.033-.1.049-.145.082-.243l.059.009c-.033.1-.051.146-.084.243" transform="translate(-42.04 -75.584)" fill="#0dd0fc"/>
        <path id="Path_907024" data-name="Path 907024" d="M92.757,173.234l-.059-.012c.034-.1.053-.152.087-.255l.059.011-.087.256m.172-.513-.059-.011.085-.255.059.011-.085.255m.17-.511-.058-.011.085-.256.059.011c-.034.1-.051.153-.086.255m.172-.51-.059-.011.085-.256.06.011c-.035.1-.052.154-.086.256m.17-.51-.059-.013.086-.255.059.011-.086.257m.171-.51-.059-.011c.034-.1.052-.155.086-.256l.059.012-.086.256m.17-.51-.059-.011c.035-.1.052-.154.085-.255l.059.012-.085.254m.171-.51-.059-.011c.034-.1.052-.153.085-.254l.058.011-.084.254m.169-.508-.058-.011c.034-.1.051-.153.084-.255l.059.011-.086.255m.171-.509-.059-.011c.035-.1.051-.153.085-.254l.059.012-.085.253m.169-.507-.058-.011c.034-.1.051-.152.085-.253l.058.011-.085.253m.17-.508-.059-.011.084-.252.06.011c-.035.1-.051.151-.085.253m.17-.507-.059-.01c.034-.1.052-.152.085-.253l.059.011-.085.253m.17-.506-.059-.01c.034-.1.051-.153.085-.254l.058.011c-.034.1-.05.151-.084.252m.169-.506-.059-.01c.034-.1.05-.152.084-.253l.059.011c-.034.1-.05.151-.084.252m.169-.5-.059-.011.084-.252.06.012-.085.251m.168-.5-.058-.01c.034-.1.051-.153.085-.254l.058.012-.085.252m.17-.5-.059-.011.084-.251.059.01c-.034.1-.05.151-.084.252m.167-.5-.058-.011c.035-.1.051-.151.085-.251l.059.012c-.034.1-.051.15-.085.251m.17-.5-.059-.011c.034-.1.05-.151.084-.251l.059.011-.084.251m.168-.5-.06-.011c.034-.1.051-.15.084-.251.024,0,.035,0,.059.01-.034.1-.05.151-.083.252m.167-.5-.059-.012c.034-.1.052-.149.085-.25l.058.011-.084.251m.169-.5-.06-.011c.033-.1.051-.15.084-.25l.058.01-.083.251m.168-.5-.059-.01.084-.251.059.011c-.034.1-.05.15-.084.25m.167-.5-.059-.012c.034-.1.051-.149.084-.25l.059.011-.084.251m.167-.5-.058-.009c.034-.1.05-.152.084-.251l.059.011c-.033.1-.051.15-.085.25m.168-.5-.058-.01c.034-.1.05-.15.084-.25l.058.011c-.034.1-.05.149-.084.249m.167-.5-.058-.01c.034-.1.05-.15.083-.25l.059.009c-.034.1-.051.151-.084.25m.168-.5-.058-.01c.034-.1.05-.15.084-.25l.058.011c-.034.1-.049.149-.083.249m.167-.5-.058-.011c.034-.1.05-.149.083-.249l.058.01c-.033.1-.049.149-.083.249m.168-.5-.059-.009c.033-.1.049-.149.083-.249l.058.01c-.033.1-.048.149-.082.248m.166-.5-.058-.01c.033-.1.048-.149.082-.249l.059.01c-.034.1-.05.149-.083.249m.166-.5-.059-.009c.034-.1.05-.151.084-.251l.058.013c-.034.1-.05.148-.083.247m.166-.5-.058-.009c.034-.1.049-.149.082-.248l.059.01c-.033.1-.049.149-.083.248m.167-.5-.059-.009c.033-.1.051-.15.084-.249l.058.011-.083.247m.166-.5-.059-.01c.033-.1.05-.148.083-.247l.059.01-.083.247m.165-.494-.058-.01.082-.248.059.01c-.033.1-.051.149-.084.248m.166-.5-.059-.011c.034-.1.051-.148.083-.246l.059.01-.084.247m.167-.493-.06-.01.084-.247.058.009c-.033.1-.049.149-.082.248m.164-.494-.059-.011c.033-.1.051-.148.084-.247l.059.009c-.033.1-.051.149-.084.249m.166-.494-.059-.01.083-.246.058.008c-.033.1-.049.149-.082.248m.166-.494-.058-.009c.033-.1.048-.149.082-.247l.059.01c-.034.1-.05.148-.083.246m.165-.493-.058-.01c.033-.1.049-.147.082-.246l.058.009c-.034.1-.05.148-.083.247m.165-.492-.058-.01c.033-.1.048-.148.081-.247l.059.01c-.034.1-.05.148-.083.246m.165-.493-.058-.009c.033-.1.05-.148.083-.247l.058.01-.083.246m.165-.491-.058-.009c.033-.1.049-.148.082-.246l.058.009c-.033.1-.049.147-.082.246m.164-.491-.058-.009c.033-.1.048-.148.081-.246l.059.01-.082.245m.164-.49-.059-.01c.033-.1.051-.146.084-.245l.058.01-.082.245m.164-.489-.057-.01c.033-.1.048-.146.081-.244l.059.009-.083.245" transform="translate(-47.609 -76.494)" fill="#0dd0fc"/>
        <path id="Path_907025" data-name="Path 907025" d="M103.73,175.194l-.06-.013c.034-.1.051-.154.086-.257l.06.011c-.034.1-.052.156-.085.259m.17-.516-.06-.012c.034-.1.051-.154.085-.257l.06.012c-.034.1-.051.155-.085.257m.169-.516-.061-.011c.034-.1.052-.155.086-.257l.06.012-.085.257m.17-.514-.061-.012.085-.258.06.012c-.034.1-.05.154-.084.257m.168-.515-.06-.012c.034-.1.051-.155.084-.257l.06.011c-.034.1-.051.155-.085.258m.169-.513-.06-.012c.034-.1.051-.155.085-.257l.06.011-.085.257m.169-.514-.06-.013c.034-.1.05-.153.084-.255l.061.012-.085.256m.168-.513-.058-.012c.034-.1.049-.154.083-.256l.061.013c-.034.1-.051.153-.085.255m.17-.512-.06-.011c.034-.1.05-.154.084-.256l.061.011-.085.256m.169-.511-.06-.013c.034-.1.049-.153.083-.255l.061.011c-.034.1-.051.154-.084.257m.168-.512-.061-.011c.034-.1.051-.154.084-.256l.06.012-.084.256m.168-.511-.059-.01c.033-.1.051-.154.084-.255l.059.011c-.033.1-.051.153-.084.255m.168-.511-.06-.011c.033-.1.052-.153.085-.255l.059.011-.084.254m.167-.509-.058-.011c.034-.1.049-.153.082-.255l.061.011-.085.254m.168-.509-.061-.011.084-.255.061.012c-.033.1-.051.152-.084.254m.167-.509-.059-.011c.033-.1.049-.152.083-.253l.061.011-.085.254m.167-.507-.059-.013.083-.254.061.011-.085.255m.168-.508-.06-.012c.034-.1.051-.153.084-.254l.059.012c-.034.1-.049.152-.083.254m.166-.508-.059-.012c.033-.1.051-.15.084-.251l.059.01-.084.253m.167-.507-.06-.011c.033-.1.05-.152.084-.254.024,0,.035.008.059.012l-.083.253m.168-.506-.06-.011c.034-.1.049-.153.083-.254l.06.011c-.034.1-.05.152-.083.254m.166-.506-.06-.011c.034-.1.051-.153.084-.254l.059.012c-.034.1-.049.152-.083.253m.165-.5-.058-.013.083-.252.06.011c-.034.1-.051.153-.085.253m.167-.506-.059-.01c.033-.1.049-.151.083-.251l.059.009c-.033.1-.05.152-.083.252m.166-.5-.059-.012c.034-.1.049-.15.082-.251l.061.011-.084.252m.166-.5-.06-.01c.033-.1.05-.152.083-.252l.059.011-.083.252m.166-.5-.059-.011c.034-.1.05-.151.083-.251l.059.011-.082.251m.165-.5-.06-.011.083-.252c.024,0,.036.008.06.011-.033.1-.051.151-.084.251m.166-.5-.059-.011c.033-.1.049-.149.082-.25l.062.009c-.034.1-.052.151-.085.251m.167-.5-.06-.011c.033-.1.049-.151.082-.251l.06.011c-.033.1-.05.15-.082.25m.165-.5-.059-.01c.033-.1.048-.151.082-.25l.059.011c-.034.1-.05.149-.082.25m.165-.5-.06-.011c.033-.1.049-.151.082-.251l.059.011c-.033.1-.049.15-.082.251m.165-.5-.059-.012.081-.248.06.01c-.033.1-.049.15-.082.25m.165-.5-.06-.011c.033-.1.05-.15.083-.25l.06.011c-.033.1-.05.149-.083.249m.165-.5-.059-.01c.033-.1.049-.15.082-.25l.061.01-.084.25m.165-.5-.06-.011.083-.248.059.01c-.033.1-.05.149-.082.249m.163-.5-.058-.01c.033-.1.049-.151.082-.251l.06.012-.083.249m.164-.5-.059-.01c.033-.1.05-.149.083-.249l.059.01c-.033.1-.05.148-.083.248m.165-.5-.059-.01c.032-.1.049-.149.082-.249l.059.011c-.033.1-.05.149-.082.249m.163-.5-.059-.01.083-.249.059.01-.083.249m.165-.5-.06-.011c.033-.1.05-.149.082-.249l.059.011c-.033.1-.049.149-.081.249m.163-.5-.059-.01.081-.25.06.01c-.032.1-.049.15-.082.25m.164-.5-.06-.011c.033-.1.05-.148.083-.248l.059.011-.082.247m.163-.5-.059-.009.082-.249.059.01c-.032.1-.049.148-.082.247m.164-.494-.06-.01c.033-.1.049-.149.082-.248l.06.011c-.033.1-.05.148-.082.247m.163-.494-.06-.011.082-.247.059.011c-.033.1-.049.148-.082.247m.162-.5-.059-.01c.033-.1.049-.148.081-.247l.06.011-.082.246m.163-.494-.059-.009.082-.247.059.011-.082.245m.163-.492-.06-.01.082-.247.058.01c-.033.1-.048.148-.08.247" transform="translate(-53.244 -77.416)" fill="#0dd0fc"/>
        <path id="Path_907026" data-name="Path 907026" d="M114.835,177.179l-.062-.012c.034-.1.052-.156.085-.259l.06.012-.084.259m.169-.519-.061-.013c.034-.1.05-.156.084-.259l.06.012c-.034.1-.05.156-.083.26m.167-.519-.061-.013c.034-.1.052-.154.085-.258l.06.01c-.034.1-.05.157-.084.26m.168-.519-.061-.012c.033-.1.051-.156.084-.259l.061.011c-.034.1-.05.156-.084.259m.167-.517-.059-.013c.033-.1.049-.156.083-.259l.06.012c-.034.1-.051.156-.084.26m.168-.517-.06-.012c.033-.1.052-.155.085-.259l.06.012-.084.259m.168-.518-.06-.012c.034-.1.05-.155.083-.258l.061.012-.084.258m.168-.516-.062-.012c.033-.1.051-.155.084-.258l.06.012c-.034.1-.049.155-.082.258m.166-.516-.061-.011c.033-.1.049-.155.083-.258l.061.011c-.034.1-.05.155-.083.258m.167-.515-.06-.013c.034-.1.049-.154.083-.256l.06.011c-.034.1-.05.155-.083.258m.167-.516-.061-.011.083-.257.06.012c-.034.1-.049.154-.082.256m.167-.513-.061-.011.083-.258.061.013c-.034.1-.05.154-.083.256m.166-.515-.061-.011c.033-.1.05-.154.083-.257l.061.012c-.034.1-.05.153-.083.256m.167-.512-.061-.012c.033-.1.05-.154.083-.256l.059.011c-.034.1-.049.155-.081.257m.165-.514-.06-.011.083-.256.061.012c-.033.1-.051.154-.084.256m.166-.513-.06-.011c.034-.1.05-.153.083-.255l.06.011-.083.255m.165-.511-.059-.011c.033-.1.051-.154.083-.256l.059.011c-.033.1-.05.154-.083.257m.167-.511-.061-.012c.033-.1.05-.152.083-.254l.06.011-.082.255m.165-.511-.06-.012c.033-.1.048-.153.082-.254l.061.011-.083.255m.166-.51-.06-.011c.033-.1.048-.153.082-.255l.061.011c-.034.1-.05.153-.083.255m.165-.511-.06-.01c.033-.1.049-.154.082-.256l.06.012-.082.254m.166-.51-.061-.01c.033-.1.05-.153.083-.255l.06.012c-.033.1-.049.151-.082.253m.165-.508-.06-.011c.034-.1.05-.152.082-.253l.06.01c-.033.1-.049.153-.082.254m.165-.508-.061-.012c.033-.1.05-.152.083-.253l.06.011c-.033.1-.049.152-.082.254m.165-.508-.061-.011.082-.253.061.011c-.033.1-.05.152-.082.254m.164-.507-.061-.013.083-.252.06.011c-.034.1-.049.152-.082.254m.165-.509-.061-.01c.033-.1.05-.152.083-.254l.06.011c-.034.1-.049.151-.082.252m.163-.5-.059-.012c.033-.1.048-.151.081-.252l.061.011-.083.254m.165-.506-.06-.011.082-.253.06.011c-.033.1-.05.151-.083.252m.164-.505-.06-.012c.033-.1.049-.151.081-.252l.061.011-.082.252m.164-.5c-.024,0-.036-.007-.06-.011.033-.1.049-.152.081-.253l.06.011c-.033.1-.049.152-.082.253m.164-.505-.06-.01c.033-.1.048-.152.08-.252l.061.012c-.033.1-.048.15-.081.251m.163-.5-.061-.011c.033-.1.05-.15.082-.25l.06.011-.082.25m.163-.5-.059-.011.082-.251.059.01-.082.252m.163-.5-.06-.011c.033-.1.05-.151.082-.251l.061.01c-.033.1-.05.151-.083.252m.163-.5-.06-.011.082-.251.06.011c-.032.1-.05.151-.082.251m.163-.5-.06-.011.081-.251.06.011-.082.251m.163-.5-.06-.01.082-.25.06.011c-.033.1-.05.15-.082.25m.163-.5-.06-.01.081-.25.061.01c-.033.1-.049.15-.082.25m.161-.5-.059-.011c.032-.1.048-.151.081-.251l.06.01c-.033.1-.051.151-.083.251m.164-.5-.06-.01c.032-.1.048-.15.081-.25l.059.01c-.033.1-.048.15-.08.25m.162-.5-.06-.011c.033-.1.048-.149.08-.249l.061.01-.081.25m.162-.5-.06-.01.081-.249.06.01-.081.25m.162-.5-.06-.01.081-.25.059.011-.08.249m.162-.5-.06-.01.081-.249.06.011c-.033.1-.049.148-.081.248m.161-.5-.06-.01.081-.249.06.011c-.032.1-.049.149-.081.248m.161-.5-.06-.01c.032-.1.049-.15.08-.249l.061.011c-.033.1-.049.148-.081.248m.161-.5-.06-.008.081-.249.059.011c-.032.1-.049.147-.08.246m.161-.495-.06-.01.08-.248.06.01-.081.249" transform="translate(-58.947 -78.349)" fill="#0dd0fc"/>
        <path id="Path_907027" data-name="Path 907027" d="M126.079,179.188l-.062-.013c.034-.1.05-.157.083-.262l.062.011c-.033.105-.049.158-.083.263m.166-.523-.062-.012c.033-.1.051-.157.084-.261l.061.013c-.033.1-.05.156-.083.261m.165-.522-.061-.012c.033-.1.051-.157.084-.262l.061.012-.083.261m.167-.521-.062-.012.083-.262.061.012c-.034.1-.05.158-.083.262m.166-.522-.062-.012c.034-.1.049-.157.082-.26l.062.011c-.033.1-.049.157-.082.261m.165-.52-.061-.013.083-.261.062.012-.084.262m.166-.521-.062-.012c.033-.1.05-.156.083-.26l.061.012-.082.26m.165-.519-.061-.012.082-.259.061.011c-.033.1-.049.156-.082.26m.166-.519-.061-.012c.033-.1.049-.156.082-.26l.062.012c-.034.1-.051.156-.083.26m.165-.518-.062-.012c.033-.1.05-.156.084-.259l.061.011c-.033.1-.05.157-.082.26m.164-.519-.062-.012c.033-.1.05-.155.083-.259l.061.011-.082.26m.166-.518-.062-.012c.034-.1.05-.155.083-.259l.062.012c-.033.1-.049.155-.082.259m.165-.518-.063-.011c.034-.1.05-.156.082-.259l.063.011c-.033.1-.05.155-.082.258m.164-.517-.062-.011.082-.259.062.011-.082.258m.164-.516-.062-.011c.033-.1.05-.156.083-.259l.062.011-.082.259m.165-.517-.062-.011c.033-.1.049-.155.082-.258l.062.012c-.033.1-.049.154-.082.257m.163-.515-.061-.012.083-.258.062.012c-.033.1-.052.155-.084.258m.164-.515-.061-.011.081-.257.062.011c-.033.1-.05.155-.082.257m.164-.515-.062-.011c.033-.1.05-.154.082-.257l.062.011c-.033.1-.049.154-.082.256m.163-.513-.061-.011c.033-.1.05-.154.082-.257l.061.012-.082.256m.164-.513-.061-.011c.033-.1.048-.154.081-.257l.063.012c-.033.1-.05.154-.083.256m.163-.513-.061-.012c.033-.1.049-.154.081-.256l.062.011c-.032.1-.049.154-.082.257m.164-.512-.061-.011.081-.257.061.011-.081.257m.163-.512-.062-.012.082-.256.061.012c-.032.1-.048.154-.081.256m.163-.511-.062-.012c.033-.1.05-.154.082-.256l.061.012-.081.256m.163-.511-.062-.012.082-.255.06.012c-.033.1-.048.154-.081.255m.163-.511-.062-.011.081-.255.061.011c-.032.1-.048.153-.08.255m.162-.51-.062-.011.081-.256.062.012c-.033.1-.049.152-.081.254m.162-.509-.061-.012.08-.255.063.012c-.033.1-.05.152-.082.254m.162-.51-.061-.01c.033-.1.049-.152.081-.254l.06.01-.081.254m.162-.508-.061-.01.081-.253.061.01c-.032.1-.05.152-.082.253m.163-.508-.062-.011c.032-.1.049-.151.081-.253l.061.011c-.032.1-.049.151-.081.253m.162-.507-.062-.011c.032-.1.049-.152.081-.253l.061.01-.08.254m.161-.507-.06-.011c.032-.1.048-.152.08-.253l.063.011c-.032.1-.051.152-.083.253m.163-.507-.061-.011c.032-.1.048-.152.08-.253l.062.01c-.032.1-.049.152-.081.253m.161-.506-.061-.011.08-.252.061.011c-.032.1-.048.15-.08.252m.161-.5-.061-.01.08-.253.061.011-.081.252m.161-.506-.061-.011.081-.252.061.011c-.032.1-.048.151-.08.252m.161-.5-.062-.01.081-.253.061.011-.081.251m.16-.5-.061-.01c.033-.1.049-.153.081-.253l.061.011-.081.253m.162-.5-.062-.01.08-.252.061.01c-.032.1-.047.151-.08.252m.161-.5-.061-.011c.033-.1.048-.149.08-.25l.061.01c-.032.1-.047.151-.08.251m.16-.5-.06-.011.081-.25.061.01c-.032.1-.049.151-.081.251m.161-.5-.06-.01c.032-.1.047-.15.079-.25l.061.011c-.033.1-.048.15-.08.25m.161-.5-.061-.01.08-.25.061.01c-.033.1-.048.15-.08.25m.16-.5-.062-.01c.032-.1.049-.15.081-.25l.061.01c-.032.1-.049.151-.08.25m.159-.5-.061-.011.08-.25.061.011c-.032.1-.049.15-.08.25m.16-.5-.061-.01c.032-.1.049-.15.081-.25l.061.01c-.032.1-.049.149-.081.249m.16-.5-.06-.01.079-.25.061.01c-.032.1-.048.15-.08.25" transform="translate(-64.722 -79.293)" fill="#0dd0fc"/>
        <path id="Path_907028" data-name="Path 907028" d="M137.458,181.223l-.062-.013c.033-.105.05-.159.083-.265l.062.014c-.033.106-.049.159-.082.264m.165-.527-.062-.013c.034-.1.05-.158.082-.264l.063.014-.083.263m.163-.526-.06-.011c.033-.105.05-.158.082-.264l.062.013c-.033.105-.051.157-.084.262m.165-.525-.061-.013.082-.262.062.012-.083.263m.164-.524-.061-.013c.033-.106.048-.158.082-.263l.062.012c-.034.105-.05.158-.083.264m.165-.525-.062-.012c.033-.105.05-.158.083-.263l.062.012c-.033.105-.051.159-.083.263m.165-.525-.063-.012c.033-.1.049-.156.082-.261l.062.01c-.033.105-.049.158-.081.262m.164-.522-.062-.012c.033-.1.049-.158.082-.262l.062.011-.081.263m.163-.523-.062-.012c.032-.105.05-.158.082-.262l.061.012c-.032.1-.049.157-.082.262m.164-.522-.062-.013c.033-.1.049-.156.081-.26l.063.011c-.033.1-.049.157-.082.262m.163-.522-.062-.012c.033-.1.049-.155.082-.26l.062.011c-.032.1-.049.157-.082.261m.163-.522-.061-.011.081-.261.062.013c-.033.1-.049.155-.082.26m.163-.52-.061-.012c.033-.1.049-.157.082-.26l.062.011c-.032.1-.049.157-.082.261m.164-.521-.062-.012c.033-.1.049-.156.081-.26l.061.011c-.032.1-.047.156-.08.26m.162-.52-.062-.011.081-.26.062.011-.081.26m.163-.52-.062-.012.081-.259.063.012c-.033.1-.05.155-.082.259m.163-.519-.062-.011c.033-.1.049-.156.081-.259l.062.011-.081.259m.162-.518-.061-.012.08-.258.062.012c-.033.1-.049.155-.081.259m.162-.518-.061-.012c.032-.1.048-.154.08-.258l.063.011-.082.259m.162-.518-.061-.011c.032-.1.049-.155.081-.258l.061.011-.081.258m.162-.516-.061-.012.08-.258.063.011c-.032.1-.05.156-.082.26m.162-.518-.062-.01.081-.259.062.012c-.032.1-.049.154-.081.257m.162-.516-.061-.011.08-.258.061.011-.08.258m.162-.515-.062-.011.081-.257.061.011-.08.257m.161-.515-.062-.011.081-.256.062.011-.08.257m.161-.514-.061-.011c.033-.1.048-.154.08-.257l.061.011c-.032.1-.048.154-.08.257m.162-.515-.061-.01.08-.257.062.011-.081.256m.161-.513-.063-.011c.033-.1.05-.154.082-.257l.061.012c-.032.1-.047.153-.08.256m.161-.512-.061-.012.081-.256.061.011c-.032.1-.048.155-.08.257m.161-.514-.061-.01c.033-.1.048-.154.08-.256l.062.011-.081.255m.161-.512-.061-.01c.033-.1.047-.154.079-.256l.061.011c-.032.1-.047.154-.079.255m.161-.511-.061-.011c.033-.1.047-.153.079-.255l.061.011c-.033.1-.047.152-.079.255m.16-.51-.061-.012.08-.255.061.011c-.032.1-.048.154-.08.256m.16-.51-.061-.011.08-.256.061.012c-.032.1-.048.153-.08.255m.161-.511-.062-.01c.032-.1.048-.153.08-.255l.061.011c-.032.1-.048.152-.08.254m.16-.511-.061-.009c.032-.1.048-.153.08-.254l.061.011c-.032.1-.048.151-.08.253m.159-.507-.061-.011c.032-.1.049-.153.08-.254l.061.01c-.032.1-.049.153-.08.255m.16-.509-.061-.011.08-.253.061.011c-.032.1-.048.152-.08.253m.159-.507-.061-.011c.032-.1.048-.152.08-.253l.062.01-.08.254m.16-.507-.061-.011c.032-.1.049-.153.08-.255l.061.011-.08.254m.16-.508-.061-.011c.032-.1.048-.152.08-.253l.061.01-.08.254m.16-.507-.061-.011c.032-.1.047-.151.079-.251l.061.01c-.032.1-.047.152-.079.252m.16-.505-.062-.011.079-.252.061.011c-.032.1-.047.151-.079.252m.159-.5-.062-.011.079-.252.061.01c-.032.1-.046.152-.078.253m.158-.505-.062-.011c.032-.1.048-.15.08-.252l.061.01c-.032.1-.047.152-.079.253m.158-.5-.061-.011c.032-.1.049-.152.08-.253l.061.011c-.032.1-.048.152-.08.252m.159-.5-.061-.01.08-.252.06.011-.079.251m.159-.5-.062-.011c.031-.1.047-.15.079-.25l.062.009c-.032.1-.048.151-.079.251m.157-.5-.06-.01c.032-.1.046-.15.077-.251l.062.01c-.032.1-.048.151-.079.251" transform="translate(-70.566 -80.25)" fill="#0dd0fc"/>
        <path id="Path_907029" data-name="Path 907029" d="M148.983,183.283l-.062-.012c.033-.107.049-.16.082-.266l.062.012-.082.266m.164-.531-.063-.012c.033-.106.05-.16.082-.266l.063.013-.081.265m.163-.529-.064-.014c.033-.105.05-.158.083-.264l.063.013c-.032.106-.049.159-.082.265m.162-.529-.063-.013.082-.264.062.012c-.032.106-.048.16-.081.265m.163-.53-.063-.012.081-.265.063.013-.081.264m.162-.527-.063-.012c.033-.106.05-.16.082-.265l.063.011c-.033.106-.05.16-.083.266m.163-.53-.063-.011c.033-.106.049-.159.081-.264l.063.012-.081.263m.162-.527-.062-.011c.033-.105.049-.159.08-.264l.063.012c-.032.106-.048.158-.081.263m.162-.526-.063-.012c.033-.106.049-.159.081-.264l.063.011c-.033.105-.048.159-.081.264m.161-.526-.062-.012c.033-.106.049-.157.08-.262l.063.011c-.032.105-.049.158-.081.263m.161-.526-.062-.011c.033-.1.049-.159.081-.263l.062.013-.081.261m.163-.524-.063-.012c.033-.1.049-.157.081-.262l.063.012c-.032.105-.048.158-.081.262m.161-.524-.064-.013c.033-.1.05-.157.082-.262l.063.012-.081.263m.161-.524-.063-.012c.033-.1.049-.158.081-.262l.063.011c-.032.1-.048.158-.081.263m.161-.524-.062-.011.08-.262.063.011c-.032.1-.048.158-.081.262m.161-.523-.062-.012.079-.26.062.011c-.032.1-.047.157-.08.261m.161-.523-.063-.011c.032-.1.048-.157.081-.261l.063.011-.081.261m.16-.521-.063-.012.081-.261.062.012c-.033.1-.048.157-.08.262m.161-.522-.063-.011.08-.26.063.012-.08.26m.161-.521-.062-.011c.032-.1.047-.156.079-.26l.062.011c-.032.1-.047.156-.079.26m.161-.52-.062-.011c.032-.1.048-.156.08-.26l.062.011c-.033.1-.048.156-.08.26m.161-.52-.063-.01c.032-.1.047-.156.079-.26l.063.011c-.032.1-.048.154-.079.258m.16-.518-.063-.012.08-.26.063.012-.08.26m.16-.52-.063-.011c.032-.1.05-.156.081-.26l.061.012c-.032.1-.048.155-.08.258m.161-.518-.063-.01c.032-.1.049-.156.08-.26l.063.012c-.032.1-.048.155-.08.258m.16-.518-.062-.011c.032-.1.048-.156.079-.26l.063.011-.08.259m.16-.518-.062-.012c.032-.1.047-.155.079-.258l.062.01c-.032.1-.048.157-.08.26m.159-.518-.063-.011c.032-.1.049-.155.081-.258l.063.01c-.032.1-.049.156-.081.259m.16-.516-.063-.012c.032-.1.048-.155.08-.258l.062.011c-.032.1-.048.156-.079.259m.16-.516-.063-.011c.032-.1.047-.155.079-.258l.062.01c-.032.1-.047.155-.078.259m.158-.516-.061-.011c.032-.1.047-.154.079-.257l.062.01c-.032.1-.048.155-.08.258m.16-.516-.063-.011c.032-.1.047-.154.079-.256l.063.011c-.032.1-.047.154-.079.256m.158-.514-.062-.01c.032-.1.047-.154.079-.257l.062.011c-.032.1-.047.154-.079.257m.159-.513-.062-.011c.032-.1.047-.154.079-.257l.062.01c-.032.1-.048.155-.079.258m.159-.515-.063-.01.079-.257.063.011c-.032.1-.048.153-.08.256m.158-.513-.063-.011c.032-.1.048-.153.08-.255l.063.011c-.031.1-.048.154-.08.256m.158-.511-.063-.011c.032-.1.049-.154.08-.256l.062.01c-.032.1-.047.155-.079.257m.158-.513-.063-.011.079-.255.062.011c-.031.1-.047.153-.079.255m.158-.51-.063-.011.079-.257.064.012-.08.256m.157-.512-.062-.01c.031-.1.048-.153.079-.256l.063.011c-.032.1-.048.153-.08.255m.158-.511-.062-.01c.031-.1.048-.154.079-.255.025,0,.036.007.061.011l-.078.254m.157-.51-.061-.01c.032-.1.046-.153.077-.255l.063.011c-.031.1-.047.153-.079.255m.158-.51-.063-.01.079-.255.063.011c-.032.1-.048.152-.079.254m.157-.509-.062-.011.078-.254.063.01c-.032.1-.048.153-.079.255m.157-.509-.062-.01c.032-.1.048-.152.079-.253l.062.01c-.032.1-.047.151-.078.253m.157-.506-.063-.011c.032-.1.048-.152.079-.254l.062.01c-.031.1-.047.154-.078.255m.156-.509-.061-.011c.031-.1.046-.151.077-.252l.063.01c-.031.1-.047.152-.079.253m.157-.507-.063-.01.079-.253.063.01c-.032.1-.048.152-.079.253m.156-.507-.062-.01c.032-.1.046-.152.078-.253l.063.01c-.032.1-.048.151-.079.252" transform="translate(-76.485 -81.22)" fill="#0dd0fc"/>
        <path id="Path_907030" data-name="Path 907030" d="M160.657,185.369l-.065-.013.081-.268.064.012c-.032.108-.048.161-.08.268m.161-.535-.065-.012c.032-.107.049-.161.081-.268l.064.013c-.032.107-.048.16-.081.267m.161-.532-.064-.014.081-.267.064.013-.081.268m.162-.534-.064-.013c.032-.106.048-.16.08-.266l.063.012c-.032.107-.047.16-.08.267m.161-.533-.064-.013c.032-.107.048-.16.08-.266l.064.012c-.033.107-.048.16-.081.267m.16-.531-.064-.013c.032-.107.049-.16.082-.266l.064.012c-.033.106-.05.161-.082.267m.161-.533-.064-.012c.032-.107.048-.159.08-.265l.065.012c-.033.106-.049.159-.081.265m.161-.53-.064-.013c.032-.106.048-.16.08-.266l.064.013c-.033.106-.048.16-.08.266m.16-.531-.063-.013c.032-.107.048-.159.08-.264l.064.011c-.033.107-.049.16-.081.266m.161-.53-.064-.013c.032-.106.048-.159.08-.265l.064.013c-.032.106-.048.159-.08.265m.16-.53-.063-.012c.032-.106.048-.159.08-.265l.064.012c-.032.106-.049.159-.08.265m.161-.529-.064-.012.08-.264.064.012c-.032.106-.048.159-.08.264m.159-.529-.065-.012c.032-.106.05-.159.081-.264l.064.013c-.032.106-.049.158-.081.263m.16-.526-.064-.013c.032-.106.048-.16.08-.265l.064.013c-.032.106-.048.16-.08.265m.159-.528-.064-.013c.032-.106.048-.159.08-.264l.064.012c-.032.106-.049.159-.081.264m.161-.528L163,177.4c.032-.106.048-.157.08-.262l.064.011c-.032.105-.048.159-.079.263m.159-.525-.064-.012c.032-.105.048-.158.08-.263l.064.012-.08.263m.159-.526-.064-.012c.031-.105.048-.157.08-.262l.064.011-.08.263m.16-.524-.064-.013c.032-.105.047-.157.079-.262l.065.011c-.032.1-.048.158-.079.263m.159-.525-.065-.012c.032-.1.047-.158.079-.262l.064.013c-.032.1-.046.156-.078.261m.159-.524-.064-.011c.032-.105.048-.158.08-.263l.064.012c-.032.105-.048.158-.08.262m.159-.522-.064-.013c.032-.1.047-.157.079-.261l.064.012-.079.262m.159-.523-.064-.013c.032-.1.046-.158.078-.262l.064.013c-.032.1-.046.157-.078.262m.158-.524-.064-.011.078-.26.064.011-.078.26m.158-.521-.064-.012c.032-.1.047-.157.079-.261l.063.012c-.031.1-.046.156-.078.26m.158-.521-.064-.012c.031-.1.047-.156.079-.261l.063.013c-.031.1-.046.156-.078.26m.159-.521-.064-.012c.031-.1.048-.156.08-.26l.063.011-.079.26m.158-.521-.065-.011c.031-.1.048-.156.079-.26l.064.011c-.032.1-.047.155-.078.259m.156-.519-.062-.011c.032-.1.047-.157.078-.261l.064.012c-.031.1-.048.156-.08.26m.158-.52-.064-.012.078-.259.063.01c-.032.1-.046.157-.078.261m.157-.519-.063-.011c.031-.1.046-.157.077-.261l.064.012-.079.26m.158-.519-.064-.012c.032-.1.046-.155.077-.258l.064.012c-.032.1-.046.154-.077.258m.157-.519-.064-.011c.032-.1.047-.156.078-.259l.063.012-.077.258m.157-.516-.064-.011c.032-.1.047-.156.078-.26l.064.012c-.031.1-.046.156-.078.26m.157-.519L166,167.49l.079-.258.063.012-.078.257m.156-.517-.063-.011c.031-.1.047-.154.078-.258l.063.011-.078.257m.157-.515-.064-.011c.032-.1.047-.155.078-.258l.064.011c-.032.1-.047.155-.078.258m.156-.516-.063-.011.078-.258c.025,0,.037.009.063.013-.032.1-.047.154-.078.257m.157-.515-.065-.01c.031-.1.048-.156.08-.258l.063.011c-.032.1-.048.154-.078.257m.155-.514-.064-.011c.031-.1.048-.154.078-.257l.063.01c-.031.1-.047.155-.078.258m.157-.514-.064-.012.078-.256.063.011c-.031.1-.045.155-.077.257m.155-.514-.062-.011c.031-.1.045-.154.076-.257l.064.012-.078.256m.156-.512-.064-.012c.031-.1.047-.154.078-.256l.064.01-.077.257m.155-.513-.064-.011c.032-.1.047-.154.078-.256l.064.011c-.031.1-.047.153-.078.255m.157-.513-.064-.011.078-.256c.025,0,.038.008.063.013-.031.1-.047.152-.077.254m.155-.511-.064-.011c.031-.1.047-.154.078-.256l.063.011-.077.256m.155-.511-.065-.012.078-.254.063.011c-.031.1-.046.153-.077.255m.154-.51-.064-.012c.031-.1.047-.152.078-.254l.062.01c-.031.1-.046.154-.077.256m.156-.51-.064-.011.077-.255.063.011c-.031.1-.045.153-.076.255" transform="translate(-82.479 -82.201)" fill="#0dd0fc"/>
        <path id="Path_907031" data-name="Path 907031" d="M107.285,190.6l-.255-.047c.008-.026.012-.04.02-.066l.254.047c-.008.026-.011.039-.019.066m-.511-.1-.254-.048c.008-.026.011-.039.019-.065l.255.049c-.008.026-.012.038-.02.064m-.51-.1-.254-.049c.008-.026.011-.038.02-.064l.255.048c-.008.026-.012.039-.02.066m-.509-.1-.254-.048c.008-.026.013-.04.02-.066l.255.049c-.008.026-.013.039-.02.065m-.508-.1-.255-.048c.008-.026.013-.038.02-.065l.254.047c-.008.027-.013.04-.02.066m-.508-.1-.254-.047c.008-.026.013-.038.019-.064l.254.048c-.008.026-.011.038-.019.064m-.508-.094-.253-.048c.008-.026.012-.04.019-.066l.253.048c-.008.026-.011.039-.019.065m-.507-.1-.252-.048c.008-.026.012-.038.019-.065l.253.048-.021.065m-.507-.1-.252-.049c.008-.025.013-.038.02-.064l.252.048c-.008.026-.012.039-.02.065m-.5-.1-.252-.047c.008-.026.013-.039.02-.065l.253.048-.021.065m-.505-.1-.252-.047c.009-.026.013-.039.021-.066l.252.048-.021.065m-.5-.095-.253-.047.02-.065.253.047c-.008.026-.013.039-.02.065m-.5-.1-.251-.047.02-.064.251.046c-.008.026-.011.039-.019.065m-.5-.094-.252-.047.02-.065.252.048c-.008.026-.012.039-.02.065m-.5-.095-.251-.048c.008-.026.012-.038.02-.065l.251.048c-.008.026-.012.039-.02.065m-.5-.1-.251-.047c.008-.025.013-.038.021-.064l.251.047-.021.065m-.5-.095-.252-.046.021-.065.251.047c-.008.026-.013.037-.021.064m-.5-.094-.25-.047c.008-.026.011-.039.019-.065l.251.046-.02.066m-.5-.095-.25-.047.021-.065.25.048c-.008.026-.012.038-.021.064m-.5-.094-.25-.047c.009-.026.013-.039.02-.065l.25.048-.02.065m-.5-.094-.25-.047c.008-.026.013-.039.021-.065l.249.047c-.008.026-.013.039-.021.065m-.5-.095-.247-.046c.008-.026.011-.039.019-.065l.249.047c-.008.026-.012.037-.021.063m-.5-.094-.249-.045c.008-.026.011-.039.019-.066l.25.048c-.008.026-.013.037-.02.063m-.5-.093-.249-.048c.008-.026.013-.037.021-.063l.249.047c-.008.026-.013.038-.021.064m-.5-.093-.249-.048.02-.064.25.047-.021.065m-.5-.094-.248-.046c.008-.026.011-.038.019-.065l.248.047c-.007.026-.011.038-.019.064m-.5-.093-.248-.046.021-.065.248.047c-.009.026-.013.038-.021.064m-.5-.093-.249-.048c.008-.026.013-.038.02-.064.1.018.148.029.248.048-.007.025-.011.037-.019.064m-.5-.094-.249-.046.021-.064.248.046c-.008.026-.013.038-.02.064m-.5-.093-.246-.047c.008-.026.013-.038.021-.064l.247.046c-.007.026-.013.039-.021.065m-.493-.093-.247-.047c.008-.026.013-.038.021-.064l.247.046c-.008.025-.014.039-.021.065m-.493-.093-.247-.046.02-.065.245.047c-.008.026-.011.038-.019.064m-.494-.094-.245-.045.02-.065.248.046c-.008.026-.014.038-.022.064m-.491-.092-.247-.047c.008-.025.013-.038.021-.064l.245.046c-.008.026-.011.039-.019.064m-.492-.092L90,187.343l.02-.063.246.046c-.008.026-.014.038-.021.065m-.491-.094-.246-.046.021-.064.245.046c-.008.025-.013.038-.02.064m-.492-.092-.244-.047c.008-.025.014-.037.021-.063l.244.047c-.008.025-.013.038-.021.064m-.49-.093-.243-.046c.008-.026.012-.039.02-.064l.244.046c-.009.025-.013.038-.021.064m-.489-.093-.244-.046c.007-.025.013-.039.021-.064l.244.048c-.008.025-.013.036-.021.062m-.489-.091-.244-.046c.008-.025.013-.037.021-.063l.245.046c-.008.025-.014.038-.021.064m-.487-.092-.247-.046.021-.064.245.046c-.009.026-.012.039-.019.065m-.489-.092-.244-.046c.008-.026.013-.039.021-.064l.245.047c-.008.026-.013.038-.021.064m-.487-.093-.244-.045c.008-.025.012-.038.02-.063l.244.045c-.008.025-.012.039-.02.064m-.486-.09-.244-.046c.008-.026.012-.038.02-.063l.244.046c-.008.025-.012.038-.02.064m-.488-.092-.243-.046.021-.064.243.046c-.008.026-.013.038-.021.064m-.485-.091-.243-.047c.008-.026.013-.038.021-.064l.242.046-.02.065m-.486-.092-.242-.046c.008-.025.012-.038.021-.063l.242.045c-.008.025-.013.04-.021.065m-.484-.092-.243-.045c.007-.026.013-.038.021-.064l.243.046c-.008.026-.014.037-.021.063m-.484-.09-.243-.046c.008-.025.012-.038.021-.063l.242.045c-.008.025-.013.038-.02.064m-.485-.092-.242-.046c.008-.026.013-.037.021-.063l.242.046c-.007.026-.013.037-.021.063m-.483-.09-.242-.046c.008-.026.014-.037.021-.063l.241.044c-.008.025-.013.039-.02.064m-.483-.091-.242-.047c.009-.025.013-.038.022-.063l.241.046c-.007.025-.012.038-.02.064m-.483-.091-.24-.045c.009-.025.012-.038.02-.064l.241.046-.021.063M81,185.646l-.24-.046c.008-.025.012-.037.021-.063l.239.045-.02.063m-.481-.091-.24-.044.021-.063.24.045c-.008.025-.012.037-.02.062m-.481-.089-.24-.046c.009-.026.013-.038.021-.064l.24.045-.02.065m-.479-.092-.241-.046.022-.062.24.045c-.009.025-.013.038-.02.063m-.48-.09-.24-.046c.008-.025.012-.037.021-.063l.24.045c-.009.025-.013.038-.021.063m-.481-.091-.24-.045c.009-.024.014-.037.022-.063l.24.045c-.008.025-.013.037-.022.063m-.477-.09-.24-.045c.008-.026.012-.038.021-.064l.239.045c-.008.025-.011.038-.02.063m-.48-.09-.238-.046.021-.062.239.045c-.009.025-.014.038-.022.063m-.477-.09-.239-.046c.009-.025.013-.037.021-.063l.238.045c-.008.025-.011.038-.02.063m-.476-.09-.24-.045c.009-.025.013-.038.021-.063l.24.045c-.009.025-.012.037-.02.063m-.478-.09-.238-.044c.009-.025.013-.037.021-.062l.238.045-.021.062m-.476-.089-.238-.046c.008-.025.014-.037.022-.062l.237.044c-.009.025-.012.038-.02.064m-.476-.091-.237-.045c.008-.025.012-.037.021-.062l.238.044c-.008.025-.013.038-.022.063m-.475-.089-.237-.046c.008-.025.013-.037.02-.062l.237.044-.021.064m-.475-.09-.237-.044.021-.063.237.045c-.009.025-.013.037-.021.062m-.474-.089-.237-.044c.009-.025.013-.037.021-.063l.236.044c-.008.024-.011.038-.02.063m-.475-.09-.236-.045c.008-.025.014-.037.022-.062l.237.045c-.009.025-.015.037-.023.062m-.473-.089-.236-.044.021-.063.237.044c-.008.025-.013.038-.022.063m-.472-.089-.237-.044c.009-.025.014-.037.022-.062l.235.044-.02.062m-.471-.089-.237-.044c.009-.025.013-.037.021-.062l.236.045c-.008.025-.012.037-.019.062m-.473-.089-.234-.044c.008-.025.011-.038.02-.063l.236.045-.021.062M71,183.76l-.236-.044c.009-.025.013-.037.021-.063l.236.045c-.008.025-.013.037-.021.062m-.47-.089-.236-.044c.009-.025.013-.037.022-.062l.234.044c-.008.025-.012.037-.02.062m-.47-.088-.235-.045c.009-.025.013-.037.021-.062l.235.044c-.009.025-.013.037-.021.063m-.471-.088-.233-.044c.009-.025.013-.037.021-.063l.234.044-.021.063m-.467-.089-.235-.044c.009-.025.012-.038.02-.062l.235.043c-.009.025-.012.038-.02.063m-.47-.089-.233-.044c.008-.025.013-.037.021-.062l.232.044c-.008.025-.012.037-.021.062m-.468-.089-.233-.044.021-.063.232.045c-.008.025-.012.037-.02.062m-.467-.087-.232-.044c.007-.025.012-.038.021-.062l.233.044c-.008.024-.013.038-.021.063m-.467-.089-.234-.044c.009-.025.014-.038.022-.063l.233.044-.021.062m-.467-.089-.232-.043.021-.063.233.045c-.009.025-.013.036-.022.061m-.465-.088-.233-.044.021-.062.233.044c-.008.025-.013.038-.022.062m-.466-.087-.233-.044c.009-.025.014-.038.022-.063l.233.045c-.008.025-.014.037-.022.062m-.465-.088-.232-.044c.009-.025.013-.038.022-.063l.232.043c-.008.025-.013.038-.022.063m-.465-.089-.232-.044c.009-.025.012-.036.021-.061.092.017.141.025.233.044-.008.024-.013.037-.021.061m-.464-.087-.232-.044c.008-.025.013-.037.021-.062l.231.044c-.008.025-.011.038-.02.063M64,182.439l-.233-.045.021-.062.233.044c-.009.024-.013.038-.021.063m-.465-.088-.232-.043c.009-.025.014-.038.021-.063l.232.044-.021.062m-.464-.088-.231-.043c.008-.024.014-.037.021-.062l.232.044c-.009.024-.014.036-.022.061m-.462-.088-.232-.043c.009-.024.013-.037.022-.062l.231.044c-.008.024-.013.036-.021.061m-.462-.087-.232-.042.022-.062.231.043c-.008.025-.012.037-.021.061M61.682,182l-.23-.044c.008-.024.013-.036.021-.061l.23.044c-.008.024-.012.037-.021.062m-.461-.087-.231-.045c.009-.025.014-.036.021-.061l.231.043-.021.063m-.461-.088-.23-.043c.009-.024.012-.038.021-.063l.23.044-.021.062m-.46-.088-.231-.042.022-.062.229.043c-.008.024-.012.037-.021.061m-.46-.086-.23-.043c.008-.024.012-.037.021-.062l.23.043-.021.062m-.458-.087-.23-.043c.008-.025.013-.037.021-.062l.23.043-.021.062m-.46-.087-.229-.044.021-.061.229.044c-.008.024-.014.036-.022.061m-.458-.086-.229-.043c.008-.025.014-.038.021-.062l.23.043c-.009.024-.014.037-.022.062m-.458-.086-.229-.044c.009-.025.013-.037.022-.062l.229.043c-.008.025-.013.038-.021.063m-.458-.088-.228-.043c.008-.025.013-.037.02-.062l.23.044c-.008.024-.014.035-.023.06m-.456-.085-.229-.045c.008-.024.013-.036.021-.06.09.018.137.026.229.043-.009.025-.013.037-.021.062m-.457-.086-.228-.044c.008-.025.012-.037.021-.062l.229.044c-.008.024-.013.037-.022.062m-.456-.087-.228-.043c.008-.025.012-.037.021-.062l.229.044c-.009.025-.014.036-.023.061m-.456-.086-.227-.043c.008-.024.013-.037.02-.062l.229.043-.022.062m-.455-.086-.228-.043c.009-.024.014-.038.022-.062l.228.043-.022.062m-.455-.086-.227-.043c.009-.025.014-.037.022-.061l.226.043-.021.062m-.453-.086-.227-.042c.008-.024.012-.037.021-.062l.227.042c-.009.025-.013.038-.021.062m-.455-.086-.227-.042c.009-.025.014-.038.022-.062l.227.043c-.009.025-.013.037-.022.061" transform="translate(-27.569 -92.669)" fill="#0dd0fc"/>
        <path id="Path_907032" data-name="Path 907032" d="M110.939,179.49l-.253-.046c.007-.026.012-.039.02-.065l.254.046c-.007.026-.013.04-.02.065m-.508-.092-.253-.046c.008-.025.012-.038.02-.065l.254.046c-.007.026-.013.038-.02.065m-.508-.093-.254-.046c.007-.026.011-.038.019-.065l.254.046c-.007.026-.012.038-.019.065m-.508-.092-.253-.047c.007-.026.011-.038.019-.064l.254.047c-.008.026-.012.038-.02.065m-.507-.092-.252-.047c.008-.026.011-.039.019-.065l.254.046c-.008.026-.013.04-.021.066m-.506-.093-.252-.046.02-.065.252.047c-.008.025-.011.039-.019.064m-.506-.091-.252-.047c.008-.026.011-.038.019-.064l.253.046c-.008.026-.013.039-.021.066m-.5-.093-.252-.046.02-.064.252.047c-.008.025-.012.037-.02.063m-.5-.092-.252-.046.02-.064.252.047c-.008.026-.013.037-.021.063m-.5-.091-.251-.046c.008-.026.012-.037.02-.063l.251.045c-.008.025-.011.038-.019.064m-.5-.092-.252-.046c.008-.026.013-.038.021-.064l.251.045c-.008.026-.012.039-.02.065m-.5-.092-.251-.046c.008-.026.011-.038.019-.065l.252.047c-.008.025-.013.037-.02.063m-.5-.091-.252-.046.02-.063.251.045c-.008.026-.012.038-.019.064m-.5-.092-.251-.044.02-.065.251.046-.02.063m-.5-.09-.251-.046.021-.065.25.046c-.008.026-.011.039-.019.064m-.5-.091-.251-.046c.009-.026.013-.037.02-.063l.251.045c-.008.026-.013.038-.02.064m-.5-.092-.25-.045c.008-.025.012-.038.02-.064l.249.045-.019.063m-.5-.09-.25-.045c.008-.026.013-.038.02-.064l.249.045c-.008.026-.012.039-.02.065m-.5-.091-.249-.045.02-.064.249.045c-.008.026-.013.037-.02.064m-.5-.09-.249-.046c.008-.026.012-.038.02-.064l.249.045-.02.065m-.5-.091-.25-.045.02-.064.249.046c-.008.025-.012.038-.019.064m-.5-.091-.249-.045.02-.064.249.045c-.008.025-.012.038-.02.064m-.5-.09-.249-.046c.008-.025.012-.038.02-.064l.248.046c-.008.025-.011.038-.019.064m-.5-.09-.249-.046c.008-.025.013-.038.021-.064l.249.046-.021.064m-.5-.09-.248-.046.02-.064.249.046c-.008.025-.013.038-.02.064m-.5-.092c-.1-.018-.149-.025-.247-.044l.02-.064.247.045-.02.063m-.495-.089-.247-.045c.008-.026.011-.039.019-.064l.247.045c-.008.026-.012.039-.019.064m-.494-.089-.248-.046c.009-.025.012-.039.02-.064l.247.046c-.008.025-.011.038-.019.064m-.494-.09c-.1-.018-.148-.029-.247-.046.008-.026.012-.038.02-.063l.247.045-.02.064m-.493-.09-.246-.045.02-.063.246.044c-.008.025-.012.038-.02.064m-.493-.09-.247-.045c.008-.026.014-.038.021-.064l.246.045-.02.064m-.492-.091-.246-.044.02-.063.246.045c-.008.025-.013.037-.021.062m-.491-.089-.245-.045.02-.063.247.044c-.008.025-.014.038-.021.064m-.491-.09-.245-.044.02-.062.245.044-.02.063m-.49-.089-.246-.045c.008-.025.013-.037.021-.063l.244.045c-.008.025-.011.038-.019.063m-.491-.09-.244-.044c.008-.025.012-.037.02-.063l.245.045c-.008.025-.013.037-.021.062m-.489-.089-.244-.045c.008-.025.013-.038.021-.064l.244.045c-.008.025-.013.038-.021.064m-.489-.09-.243-.044c.008-.026.012-.038.02-.063l.243.044c-.008.025-.012.038-.02.063M92,176.038l-.244-.046c.008-.025.013-.037.021-.063l.243.044c-.008.025-.012.038-.02.064m-.487-.09-.244-.044c.008-.025.013-.038.021-.062l.243.044c-.008.025-.013.038-.02.063m-.487-.089-.244-.044c.008-.025.012-.038.02-.063l.244.044c-.008.025-.012.038-.02.063m-.487-.089-.243-.045.02-.063.243.045c-.008.025-.013.037-.02.063m-.486-.089-.243-.045c.008-.025.013-.037.021-.062l.243.044c-.008.025-.013.038-.021.063m-.485-.089-.242-.043c.008-.025.013-.038.021-.064l.242.044c-.008.025-.014.038-.021.063m-.485-.089-.242-.045c.008-.024.013-.037.021-.063l.242.045c-.008.025-.013.037-.021.063m-.484-.089-.243-.043c.008-.025.013-.038.021-.063l.242.044-.02.062m-.484-.088-.242-.044c.008-.025.013-.037.021-.063l.241.044-.02.063m-.483-.088-.242-.044c.008-.025.013-.038.021-.063l.242.044c-.008.025-.013.038-.021.063m-.483-.088-.241-.045.021-.062.241.044-.021.063m-.483-.088-.242-.044c.008-.025.013-.038.021-.063l.242.043c-.008.025-.014.038-.021.063m-.482-.088-.24-.044c.008-.024.013-.036.021-.061l.24.043c-.008.025-.014.037-.021.063m-.481-.087c-.1-.018-.144-.026-.241-.044.008-.025.013-.038.021-.063l.241.044c-.008.025-.013.037-.021.063m-.481-.088-.24-.044L85,174.7l.24.044c-.008.025-.012.036-.02.062m-.481-.087-.239-.045.02-.062.24.043c-.008.025-.013.038-.021.064m-.479-.089-.241-.042c.008-.025.013-.038.021-.062l.239.043c-.008.025-.011.036-.019.061m-.481-.086-.239-.043.021-.064.239.045c-.008.025-.013.037-.021.062m-.478-.088-.24-.043c.008-.025.014-.037.022-.063l.239.044c-.008.025-.014.037-.021.062m-.479-.087-.239-.043c.008-.025.013-.037.02-.062l.24.044c-.008.025-.013.036-.021.061m-.478-.086-.239-.044c.008-.025.012-.037.02-.062l.239.044c-.008.025-.012.036-.02.062m-.478-.087-.238-.045c.009-.025.014-.036.022-.062l.237.045c-.008.025-.013.036-.021.062m-.477-.088-.238-.043c.008-.024.013-.037.021-.062l.239.043c-.008.025-.013.037-.021.062m-.477-.086-.237-.043c.008-.025.013-.037.02-.062l.238.043c-.008.025-.013.037-.021.062m-.476-.087-.237-.043.021-.062.238.043-.021.063m-.475-.087-.237-.043.021-.062.237.043-.021.063m-.475-.086-.236-.043c.008-.025.012-.037.021-.062l.236.043-.021.062m-.474-.087-.237-.043c.009-.025.012-.037.02-.062l.237.043-.021.062m-.474-.086-.237-.044c.009-.025.014-.037.022-.062l.236.044-.02.062m-.473-.087-.237-.043.021-.062.237.043-.021.062m-.474-.086-.234-.043c.009-.025.012-.036.02-.06.094.017.142.024.235.041-.008.025-.013.038-.021.062m-.471-.086-.236-.043.021-.062.236.043-.021.061m-.473-.085-.235-.043.021-.062.235.043c-.009.025-.012.037-.021.062m-.471-.086-.235-.043c.008-.024.013-.037.022-.062l.235.043-.021.062m-.471-.086-.235-.043.022-.062.235.044-.021.061m-.47-.085-.235-.043c.009-.025.013-.037.021-.062l.236.043c-.009.024-.014.037-.022.062m-.469-.086-.235-.043c.009-.025.012-.037.02-.062l.236.043c-.009.025-.013.038-.021.062m-.47-.086-.234-.042.021-.063.234.043c-.008.025-.012.038-.021.062m-.468-.085-.234-.043.022-.063.234.043-.021.063m-.468-.086-.234-.042.02-.061.234.041c-.008.025-.012.037-.02.062m-.468-.085-.234-.043c.008-.025.013-.036.021-.061l.233.042c-.008.024-.012.037-.02.062m-.468-.085-.233-.043.021-.062.232.044c-.008.024-.012.036-.02.061m-.467-.085-.233-.044c.008-.025.012-.036.021-.06l.233.043-.021.061M71.5,172.3l-.233-.043c.008-.024.014-.036.023-.06l.232.042c-.008.025-.012.037-.021.062m-.466-.085-.232-.042c.008-.024.012-.036.021-.061l.232.042c-.008.025-.012.036-.02.061m-.466-.084-.232-.043c.008-.025.013-.037.021-.061l.233.043c-.008.024-.014.037-.022.062m-.465-.085L69.868,172c.008-.024.014-.037.022-.062l.232.042-.021.062m-.465-.085-.232-.042.021-.062.232.043c-.008.025-.013.037-.022.061m-.464-.084-.231-.043c.008-.025.013-.036.02-.061l.232.042-.021.062m-.464-.086-.231-.043c.009-.024.012-.036.02-.06l.233.042c-.008.025-.013.036-.022.061m-.463-.084-.232-.042.021-.061.232.042-.022.061m-.463-.085c-.092-.018-.139-.024-.231-.041l.022-.062.231.041c-.009.024-.014.036-.022.061m-.462-.084-.23-.042c.008-.025.013-.036.021-.061l.23.041-.021.062m-.461-.084-.231-.042.021-.06.231.041c-.008.025-.013.036-.021.061m-.462-.084-.231-.042c.009-.025.014-.035.022-.059l.23.041c-.008.025-.012.036-.021.061m-.461-.085-.23-.041.022-.061.23.042c-.009.024-.014.035-.022.06m-.461-.082-.229-.043c.008-.024.013-.035.021-.06l.23.041c-.008.024-.014.037-.022.061m-.459-.083-.23-.042.021-.061.229.041c-.009.025-.012.038-.021.062m-.46-.084-.23-.042.022-.061.23.042c-.009.024-.014.036-.022.061m-.459-.083-.229-.041c.008-.024.012-.037.021-.062l.229.042c-.008.024-.013.036-.021.061m-.458-.084-.23-.041c.009-.024.014-.037.022-.061l.229.041c-.009.024-.012.037-.021.061m-.458-.084-.229-.041.021-.061.229.042c-.008.024-.013.035-.021.06m-.459-.082-.228-.043c.009-.024.014-.035.022-.06l.228.042c-.008.024-.014.036-.022.061m-.456-.084-.229-.042c.008-.024.013-.036.021-.06l.229.042c-.008.024-.014.035-.021.06m-.458-.083-.227-.042c.009-.024.014-.035.022-.059l.228.041c-.008.024-.014.036-.022.06m-.456-.082-.228-.043.022-.06.228.042c-.009.024-.014.036-.022.061m-.455-.084-.228-.041c.009-.024.013-.036.021-.061l.228.042c-.008.024-.013.036-.021.06m-.455-.083-.227-.042.021-.06.227.042-.021.06m-.454-.082-.228-.042.021-.06.229.041-.022.061m-.455-.083-.227-.042c.008-.024.013-.036.021-.06l.228.042c-.009.024-.014.036-.022.06m-.453-.082L58.855,170l.021-.06.228.041-.022.061m-.455-.084-.225-.041c.008-.025.013-.036.021-.06l.225.041c-.008.024-.013.035-.022.06m-.451-.082-.228-.041c.008-.024.014-.036.023-.06l.226.041c-.009.024-.013.036-.021.06m-.454-.082-.226-.041.021-.061.226.041c-.008.025-.013.036-.021.061" transform="translate(-29.53 -87.152)" fill="#0dd0fc"/>
        <path id="Path_907033" data-name="Path 907033" d="M114.562,168.485l-.254-.044c.007-.026.012-.039.02-.065l.252.045c-.007.025-.011.038-.018.064m-.508-.09-.252-.044c.007-.026.01-.038.018-.064l.254.045c-.007.026-.012.037-.019.063m-.507-.089-.252-.045.019-.063.252.045c-.007.025-.011.038-.019.064m-.506-.088c-.1-.019-.151-.029-.252-.046.007-.026.012-.038.02-.063l.252.045c-.007.025-.012.039-.019.065m-.5-.09-.253-.046.02-.064.252.045-.019.064m-.5-.089-.253-.046c.008-.025.012-.038.019-.063l.251.044c-.008.025-.01.039-.018.065m-.505-.09-.252-.044c.008-.025.012-.037.019-.063l.252.044c-.008.026-.013.038-.02.063m-.5-.088-.252-.045c.008-.025.013-.037.02-.063l.252.045c-.008.025-.013.038-.02.063m-.5-.088-.252-.044.02-.064.251.045-.019.064m-.5-.089-.251-.044.02-.065.251.044-.02.065m-.5-.089-.251-.045c.008-.025.013-.039.02-.064l.251.045-.019.064m-.5-.089-.251-.044c.008-.026.012-.038.019-.064l.251.044-.02.064m-.5-.089-.251-.043c.008-.025.012-.038.019-.064l.251.044c-.008.026-.013.038-.02.063m-.5-.088-.249-.044c.007-.026.012-.038.02-.064l.249.044c-.007.025-.012.038-.02.063m-.5-.089-.25-.044c.008-.025.012-.038.019-.063l.25.044-.019.064m-.5-.088-.25-.043c.008-.026.013-.038.021-.064l.249.044c-.008.025-.012.037-.02.063m-.5-.088-.25-.043c.008-.025.012-.038.02-.063l.25.043c-.008.025-.012.038-.02.063m-.5-.087-.249-.044c.008-.026.012-.039.021-.064l.248.044-.02.064m-.5-.088-.249-.043c.008-.025.012-.038.02-.064l.248.043c-.008.025-.011.037-.019.063m-.5-.087-.25-.044c.009-.025.012-.039.02-.064l.25.044c-.008.025-.012.038-.019.064m-.5-.086c-.1-.018-.149-.028-.248-.045.008-.025.012-.038.02-.063l.247.044c-.008.025-.011.038-.019.064m-.5-.089-.247-.043c.008-.026.011-.038.019-.063l.248.044c-.008.025-.013.037-.021.063m-.494-.087-.249-.044c.008-.025.013-.037.02-.063l.249.043c-.008.025-.012.038-.02.063m-.5-.087-.248-.044c.008-.025.012-.037.02-.063l.248.043c-.008.025-.013.038-.02.063m-.494-.087-.248-.043c.008-.026.013-.039.02-.064l.247.044c-.008.025-.011.038-.019.063m-.493-.088-.247-.043c.008-.025.012-.038.02-.064l.246.043c-.008.025-.011.037-.019.063m-.494-.087-.246-.043c.008-.025.011-.038.019-.063l.247.044c-.008.025-.013.037-.021.062m-.493-.087-.246-.043.02-.064.246.044-.02.063m-.492-.087-.247-.043c.009-.025.013-.038.021-.063l.245.043c-.008.025-.011.038-.019.063m-.492-.087-.245-.042.02-.063.245.043c-.008.025-.013.037-.02.062m-.491-.086-.245-.043c.008-.025.011-.038.019-.063l.245.043c-.008.025-.012.038-.02.063m-.49-.086-.245-.045c.008-.025.011-.037.019-.062l.246.043c-.008.025-.012.038-.02.064m-.49-.087-.245-.043c.008-.025.013-.038.02-.063l.245.044-.02.062m-.489-.087-.244-.042c.008-.025.011-.038.019-.063l.244.042c-.008.025-.011.038-.019.063m-.489-.085-.245-.043c.008-.025.013-.037.02-.062l.243.043c-.008.024-.011.037-.019.062m-.488-.087-.244-.042c.008-.025.013-.038.02-.063l.243.043-.019.062m-.488-.087-.244-.041c.008-.025.013-.038.021-.063l.243.043c-.008.025-.013.036-.02.061m-.488-.084-.243-.044.02-.061.244.042c-.008.025-.014.038-.021.063m-.485-.086-.243-.042c.008-.025.012-.038.02-.063l.243.043c-.008.024-.012.038-.019.062m-.486-.085-.243-.042c.008-.025.013-.038.021-.064l.243.042c-.008.025-.013.039-.021.064m-.486-.086-.243-.043.02-.063.243.044c-.008.025-.013.037-.02.062m-.485-.086-.243-.042c.008-.025.013-.038.02-.063l.242.043-.02.062m-.484-.084-.243-.043c.008-.025.014-.038.021-.062l.242.041c-.008.025-.012.039-.02.064m-.484-.086-.242-.043c.008-.025.013-.037.02-.062l.241.044-.019.061m-.484-.086-.241-.042c.008-.025.012-.037.019-.063l.242.043-.02.062m-.483-.085-.241-.043.02-.062.242.042c-.008.025-.013.037-.021.062m-.482-.085-.241-.044c.008-.025.012-.036.02-.061l.24.043-.02.062m-.482-.085-.241-.042c.008-.024.012-.037.02-.063l.242.042-.02.063m-.482-.085-.24-.042.02-.062.241.042c-.008.024-.013.037-.021.062m-.48-.085-.241-.042.02-.062.24.041c-.008.025-.011.038-.019.063m-.48-.084-.24-.042c.008-.025.011-.039.019-.064l.239.043c-.008.025-.011.038-.019.063m-.481-.085-.239-.043c.008-.025.012-.037.019-.062l.241.041c-.008.025-.013.038-.021.063m-.48-.084-.239-.043c.007-.024.013-.036.021-.062l.239.042-.021.063m-.478-.084-.24-.043c.008-.025.013-.037.021-.062l.239.042-.02.062m-.479-.085c-.1-.018-.143-.024-.238-.041l.02-.063.239.042c-.008.024-.013.036-.021.061m-.478-.083-.238-.042c.008-.025.012-.038.02-.063l.238.042c-.008.024-.012.038-.02.063m-.477-.085-.238-.043c.008-.024.012-.037.019-.062l.239.043c-.008.025-.013.037-.02.062m-.477-.083-.238-.042c.008-.025.011-.037.019-.062l.239.041-.021.063m-.476-.085-.238-.042c.008-.025.012-.037.02-.062l.239.042c-.008.025-.013.037-.021.062m-.475-.084-.239-.041c.008-.024.013-.037.021-.062l.236.041c-.008.024-.011.037-.019.062m-.477-.083-.238-.043c.008-.024.014-.036.021-.061l.237.041c-.008.024-.013.037-.021.062m-.474-.085-.237-.042.021-.061.237.041c-.008.024-.013.037-.021.062m-.474-.083-.237-.041.021-.061.236.041c-.008.024-.012.037-.02.061m-.473-.082-.238-.042c.008-.024.014-.037.022-.062l.237.042c-.008.024-.013.037-.02.062m-.474-.083-.236-.042c.008-.025.012-.037.02-.062l.236.042c-.008.025-.012.037-.021.062m-.473-.084-.236-.041.021-.062.236.041-.02.062m-.472-.083-.236-.042c.008-.024.014-.036.021-.061l.236.041c-.008.025-.014.037-.021.062m-.471-.084-.236-.04.02-.063.236.041c-.008.024-.012.037-.019.062m-.473-.083-.234-.042.02-.061.235.042c-.008.025-.013.037-.021.061m-.47-.083-.235-.04c.008-.024.012-.038.02-.063l.235.041c-.008.025-.013.038-.021.062m-.47-.082-.236-.04.021-.063.235.041c-.008.024-.013.037-.02.062m-.47-.083-.235-.041.02-.061.235.041c-.009.024-.013.037-.02.061m-.469-.082-.235-.041c.008-.025.014-.038.022-.062l.235.041-.021.062m-.468-.083-.235-.041c.008-.025.013-.037.021-.061l.234.041c-.009.024-.012.036-.02.061m-.469-.082-.233-.041c.008-.025.012-.038.02-.063l.234.043-.021.061m-.467-.083-.233-.041c.008-.024.012-.037.02-.061l.233.04c-.008.024-.011.037-.02.062m-.468-.083-.233-.04.021-.061.233.04-.021.061m-.467-.081-.233-.04.021-.061.232.04-.02.061m-.467-.082-.232-.042c.008-.024.011-.036.02-.061l.234.04c-.008.025-.014.038-.022.062m-.465-.083-.232-.041c.008-.025.013-.036.021-.061l.231.041c-.008.025-.012.037-.02.061m-.465-.082-.233-.04c.008-.024.012-.038.021-.062l.233.041-.021.061m-.464-.081c-.093-.016-.14-.026-.233-.042.008-.024.012-.037.02-.061l.233.041c-.008.024-.012.037-.02.062m-.465-.082-.231-.041c.008-.024.011-.037.02-.061l.233.04c-.008.024-.013.037-.021.062m-.464-.081-.232-.041c.008-.024.012-.037.02-.061l.232.041c-.009.024-.012.037-.021.061m-.464-.082-.232-.041c.009-.024.014-.037.022-.062l.23.041c-.009.024-.012.037-.02.061m-.463-.082-.232-.039c.009-.024.013-.038.021-.062l.231.041c-.009.024-.012.037-.02.061m-.463-.08-.231-.041c.009-.024.012-.037.021-.061l.231.04c-.009.024-.013.038-.021.062m-.463-.082-.23-.041c.008-.024.011-.037.02-.062l.232.041-.021.061M72,160.995l-.23-.041c.008-.024.012-.037.02-.061l.231.041c-.008.024-.013.036-.022.061m-.461-.081-.23-.041c.009-.024.012-.037.02-.061l.231.041c-.008.024-.012.037-.021.061m-.46-.081-.231-.041.022-.06.23.041c-.009.024-.013.036-.021.061m-.461-.081-.23-.04c.008-.024.013-.036.021-.06l.23.039c-.008.024-.013.037-.022.061m-.46-.081-.23-.04c.008-.024.012-.036.02-.061l.23.04c-.008.024-.012.036-.02.061m-.459-.081-.229-.039c.009-.024.012-.037.02-.062l.229.041-.021.06m-.459-.081-.229-.039c.008-.024.012-.037.021-.061l.229.039c-.008.024-.012.037-.021.062m-.459-.08-.228-.04c.009-.024.012-.036.02-.061l.229.04c-.008.024-.012.036-.021.061m-.457-.08-.229-.041c.008-.024.011-.036.02-.061l.23.04c-.008.024-.014.037-.021.062m-.457-.081-.23-.04c.008-.024.013-.036.021-.06l.229.039-.021.062m-.458-.081-.228-.04.021-.06.229.039-.021.061m-.457-.08-.228-.041c.008-.024.013-.036.021-.06l.228.039c-.008.024-.013.037-.021.062m-.455-.08-.228-.04c.009-.024.012-.036.021-.061l.227.041-.02.06m-.457-.08-.227-.041c.008-.024.013-.036.021-.06l.227.04c-.008.024-.012.037-.021.061m-.455-.08-.227-.039c.008-.024.013-.039.021-.062l.227.041c-.009.024-.014.036-.022.06m-.454-.08-.228-.039.022-.061.227.039c-.008.024-.012.036-.021.061m-.454-.08-.227-.039c.008-.024.012-.037.021-.061l.227.04-.021.06m-.454-.079-.227-.04c.008-.024.014-.037.021-.061l.227.04c-.009.024-.013.037-.022.061m-.453-.08-.226-.04.021-.061.227.04-.021.061m-.453-.08-.226-.04.022-.06.226.04-.022.061m-.452-.08-.226-.04.02-.06.227.039-.021.061m-.452-.078-.225-.041c.008-.024.013-.036.021-.061l.225.041c-.008.024-.013.037-.021.061m-.451-.08-.225-.039c.008-.024.013-.037.021-.061l.225.039c-.009.024-.013.037-.021.061m-.452-.079-.225-.04.022-.061.225.04-.022.061" transform="translate(-31.474 -81.687)" fill="#0dd0fc"/>
        <path id="Path_907034" data-name="Path 907034" d="M118.151,157.592l-.252-.043c.007-.026.012-.038.02-.064l.252.043c-.007.026-.012.038-.02.064m-.506-.086-.251-.043c.008-.025.013-.038.02-.064l.251.043c-.007.025-.013.038-.02.064m-.5-.087-.251-.042c.007-.026.011-.039.018-.064l.253.043-.02.063m-.5-.085-.252-.044c.008-.025.014-.038.021-.064l.251.043-.02.065m-.5-.086-.253-.043c.008-.026.013-.038.02-.064l.251.043c-.008.025-.011.038-.018.064m-.5-.086-.25-.044.019-.062.251.043c-.008.025-.013.038-.02.064m-.5-.087c-.1-.017-.151-.024-.251-.042.007-.025.012-.038.02-.063l.251.043c-.007.025-.012.037-.02.063m-.5-.085-.251-.042c.007-.026.012-.039.02-.064l.25.043c-.007.025-.012.038-.019.063m-.5-.085-.25-.042c.008-.026.013-.039.02-.065l.251.043c-.008.026-.013.039-.021.064m-.5-.086-.25-.042.02-.064.25.042c-.008.026-.013.038-.02.064m-.5-.085-.249-.043c.007-.025.012-.038.02-.063l.249.042c-.007.026-.012.038-.02.064m-.5-.086-.25-.043c.008-.025.012-.037.019-.062l.251.042-.02.063m-.5-.085-.25-.042.02-.063.25.042c-.008.025-.013.038-.02.063m-.5-.084-.25-.043c.007-.025.012-.037.02-.063l.249.042-.019.064m-.5-.086-.249-.043c.008-.025.013-.037.02-.063l.25.042c-.008.025-.014.038-.021.063m-.5-.085-.249-.041c.008-.026.012-.037.02-.063l.247.041c-.007.025-.011.038-.019.063m-.5-.084-.25-.041c.008-.025.013-.038.02-.064l.249.043-.019.062m-.5-.084-.248-.042c.008-.025.013-.038.021-.063l.247.042c-.007.026-.012.039-.02.063m-.5-.085-.249-.041.02-.063c.1.017.149.024.248.041l-.019.062m-.5-.083-.248-.043c.008-.026.012-.038.02-.064l.247.043c-.008.025-.011.038-.019.064m-.5-.086-.247-.041c.008-.025.011-.037.019-.062l.248.041-.02.063m-.494-.083-.247-.043c.008-.025.012-.038.019-.063l.247.042c-.008.026-.012.038-.02.064m-.494-.085-.247-.041c.008-.025.012-.038.02-.063l.246.042-.02.063m-.493-.084-.247-.042c.008-.024.012-.037.02-.063l.247.042-.02.063m-.493-.084-.247-.042c.008-.024.013-.038.021-.063l.247.042c-.008.025-.013.038-.021.063m-.492-.084-.245-.041c.008-.025.011-.039.019-.064l.245.043c-.008.024-.012.036-.02.062m-.491-.084-.245-.04c.008-.025.012-.038.02-.064l.245.041-.019.063m-.491-.083-.246-.041.02-.063.245.042-.02.062m-.491-.083-.245-.042.02-.063.244.042-.019.063m-.49-.083-.245-.041c.008-.025.013-.038.02-.064l.244.042-.02.062m-.49-.084-.244-.04.02-.064.244.042c-.008.025-.012.037-.02.062m-.487-.083-.245-.041.02-.062.245.042c-.008.025-.012.037-.019.062m-.488-.083-.245-.041c.008-.025.013-.038.021-.063l.244.041c-.008.025-.012.037-.019.062m-.489-.082-.243-.042.02-.062.244.041c-.008.025-.013.037-.021.062m-.487-.083-.243-.042c.008-.025.012-.037.02-.062l.243.042c-.008.025-.013.037-.02.062m-.487-.082-.243-.042c.007-.025.013-.037.021-.062l.242.041c-.008.024-.013.038-.02.063m-.486-.083-.242-.042c.008-.025.012-.037.02-.062l.244.041c-.008.024-.014.037-.021.062m-.485-.083-.243-.04c.008-.025.012-.037.02-.062l.242.04c-.008.025-.011.037-.019.062m-.486-.082-.242-.042.02-.062.243.042c-.008.025-.013.037-.021.062m-.485-.083-.242-.041c.008-.025.012-.037.02-.062l.243.041c-.008.025-.014.037-.021.062m-.483-.082-.243-.041c.008-.025.013-.037.021-.062l.243.041c-.008.025-.012.037-.02.062m-.484-.081-.241-.042c.008-.025.013-.037.021-.062l.242.042c-.008.025-.013.037-.021.062m-.483-.083-.242-.041.02-.061.241.04-.02.062m-.482-.082-.241-.041.02-.062.242.041-.02.062m-.483-.082-.24-.041c.008-.025.011-.037.019-.063l.242.041c-.008.025-.013.037-.021.063m-.482-.082-.241-.041c.008-.025.014-.037.021-.062l.24.04c-.008.025-.013.038-.021.063m-.481-.083-.24-.04.021-.063.239.041c-.008.025-.011.037-.019.062m-.48-.081-.24-.041c.008-.025.012-.036.02-.062l.24.04-.02.063m-.48-.082-.24-.041.02-.062c.1.017.144.026.241.041-.008.025-.013.036-.02.061m-.48-.081-.24-.041c.008-.025.013-.036.021-.061l.239.04c-.008.025-.012.037-.02.062m-.479-.082-.238-.04.02-.062.239.041c-.008.024-.012.036-.02.061m-.479-.08-.239-.041.02-.062.241.04c-.008.024-.014.038-.021.063m-.478-.082-.237-.041.02-.061.238.041c-.008.024-.012.036-.02.061m-.477-.082-.238-.039.02-.063.238.041c-.008.024-.012.036-.02.061m-.478-.081-.237-.04.02-.061.239.039c-.008.024-.013.036-.021.061m-.476-.081-.239-.039.02-.063.238.041-.02.061m-.476-.08-.238-.041c.008-.025.013-.037.021-.061l.237.04c-.008.025-.012.037-.02.062m-.475-.081-.239-.04c.008-.025.013-.036.02-.061l.238.039c-.008.025-.012.037-.02.062m-.476-.081-.237-.04c.008-.025.012-.037.02-.062l.238.041-.021.061m-.474-.08-.237-.04c.008-.025.013-.036.02-.061l.237.039-.02.062m-.474-.081-.235-.039c.008-.025.012-.037.02-.062l.236.039-.021.062m-.473-.081-.236-.039c.008-.025.013-.038.021-.063l.236.04c-.008.025-.013.036-.021.061m-.473-.08-.236-.041c.008-.024.013-.036.021-.061l.236.04c-.008.025-.013.037-.021.062m-.472-.08-.236-.04c.008-.025.012-.036.02-.061l.236.04-.02.061m-.473-.079-.234-.041c.007-.025.011-.037.019-.061l.236.04c-.008.024-.013.037-.021.062m-.471-.081-.235-.04.021-.061.235.039-.02.061m-.471-.08-.235-.04c.008-.025.013-.037.02-.062l.237.04c-.008.025-.014.037-.022.062m-.47-.08L85.253,152c.008-.025.013-.038.021-.062l.236.04c-.008.024-.014.036-.021.061m-.469-.08c-.094-.017-.142-.022-.235-.038.008-.025.014-.038.022-.062l.234.039c-.008.024-.013.036-.021.061m-.47-.079-.233-.04c.008-.025.013-.036.021-.061l.234.04c-.008.024-.014.036-.022.061m-.468-.08-.234-.039c.008-.024.012-.037.02-.062l.234.041c-.008.024-.012.037-.02.061m-.469-.08-.233-.039.02-.061.233.04c-.008.025-.012.036-.02.06m-.467-.079-.233-.04.02-.06.233.039-.02.061m-.467-.079-.233-.039.02-.061.233.039-.02.061m-.466-.08-.235-.039c.009-.024.014-.036.021-.06l.234.039-.02.06m-.467-.078-.233-.039c.008-.025.014-.036.022-.061l.233.038-.021.061m-.465-.08-.233-.038c.009-.024.013-.037.021-.061l.233.039c-.008.024-.013.036-.02.06m-.466-.078-.232-.039.021-.06.232.039-.021.06m-.465-.078-.232-.038.021-.061.233.039c-.009.024-.013.036-.021.06m-.465-.078-.232-.04c.009-.024.012-.036.021-.06l.232.039-.021.061m-.465-.079-.23-.04c.008-.024.012-.036.02-.061l.232.039-.022.062m-.463-.079-.232-.04c.008-.024.014-.036.022-.06l.232.039c-.008.024-.014.037-.022.061m-.463-.079-.232-.039c.008-.025.013-.037.021-.061l.231.039c-.008.024-.012.036-.02.061m-.463-.078-.232-.039.021-.06.232.039c-.009.024-.012.036-.021.061m-.463-.078-.23-.039.021-.061.231.039-.021.061m-.462-.078-.231-.038.021-.061.231.039c-.009.024-.014.035-.021.06m-.461-.077-.231-.04c.008-.024.013-.036.021-.059l.23.039-.021.06m-.462-.079-.23-.039c.009-.024.012-.036.02-.06l.231.039-.021.06m-.46-.078-.231-.039c.009-.024.014-.037.022-.061l.231.039c-.008.024-.014.037-.021.061m-.461-.078-.23-.039c.008-.024.013-.036.021-.06l.23.038c-.008.024-.013.037-.021.061m-.459-.078-.23-.039c.008-.024.013-.035.021-.059l.229.039c-.008.024-.012.035-.02.059m-.46-.078-.229-.037.021-.061.229.039c-.008.024-.013.035-.021.059m-.458-.077-.23-.039c.008-.024.013-.035.021-.059l.229.037c-.008.024-.012.036-.02.061M73.426,150l-.228-.039c.009-.024.014-.036.022-.059l.228.038-.021.06m-.457-.078-.229-.039c.008-.024.014-.035.022-.059l.228.038c-.009.024-.013.036-.021.06m-.457-.078-.228-.038c.009-.024.012-.036.02-.061l.229.038c-.008.024-.013.036-.021.06m-.456-.078-.229-.038c.009-.024.013-.036.021-.061l.228.039c-.009.024-.012.035-.02.059m-.457-.077-.228-.039c.009-.024.014-.035.022-.06l.228.039c-.008.024-.013.036-.022.06m-.455-.077-.229-.038.021-.059.228.037c-.009.024-.013.036-.021.06m-.456-.077-.227-.039.021-.059.228.038-.022.06m-.454-.077-.227-.04c.008-.024.013-.035.021-.059l.227.039-.021.06m-.455-.078-.227-.039c.008-.024.014-.035.021-.059l.226.039-.021.059m-.454-.077-.227-.039c.008-.024.013-.036.022-.059l.226.039c-.008.024-.012.036-.021.059m-.453-.076-.226-.039c.009-.024.011-.035.02-.059l.228.039c-.009.024-.013.035-.021.06m-.453-.076-.226-.04c.009-.024.014-.035.022-.059l.225.039-.021.06m-.452-.077-.226-.039c.008-.024.013-.036.022-.059l.225.039c-.008.024-.012.036-.021.06m-.452-.077-.226-.038c.008-.024.012-.036.021-.06l.227.038c-.009.024-.014.036-.022.06m-.451-.076-.226-.038.021-.06.226.038c-.008.024-.013.036-.021.06m-.452-.076-.226-.038c.008-.024.014-.036.021-.059l.226.038c-.008.023-.013.036-.021.059m-.451-.077-.224-.037c.008-.024.013-.036.022-.06l.224.039c-.009.024-.014.035-.022.058m-.449-.076-.225-.038c.008-.024.013-.035.021-.059l.226.038c-.009.024-.014.035-.022.059m-.45-.076-.224-.037.021-.06.224.039-.021.058" transform="translate(-33.402 -76.277)" fill="#0dd0fc"/>
        <path id="Path_907035" data-name="Path 907035" d="M74.546,172.486c-2.188-.878-3.274-1.315-5.43-2.179l-4.434-4.529c-1.939-1.254-2.9-1.877-4.807-3.109.062-.085.094-.126.157-.211l4.823,3.118,4.437,4.525,5.3,2.117c2.755-.88,4.138-1.323,6.913-2.211l.044.037,4.9,3.868,6.868-1.751,5.275,3.42c3.01-1.463,4.518-2.2,7.543-3.665,3.318-1.575,4.982-2.364,8.319-3.947.036.092.054.139.09.232-3.337,1.582-5,2.373-8.321,3.948l-7.68,3.732-5.306-3.443-6.88,1.752-4.938-3.9-6.877,2.2" transform="translate(-30.752 -83.438)" fill="#0dd0fc"/>
        <path id="Path_907036" data-name="Path 907036" d="M69.89,168.621a.634.634,0,0,1-.667.43.432.432,0,0,1-.3-.606.633.633,0,0,1,.667-.431.432.432,0,0,1,.3.606" transform="translate(-35.38 -86.288)" fill="#111f63"/>
        <path id="Path_907037" data-name="Path 907037" d="M69.05,169.044a.536.536,0,0,1-.377-.749.785.785,0,0,1,.825-.531.535.535,0,0,1,.377.748.785.785,0,0,1-.825.532m.362-1.037a.485.485,0,0,0-.51.329.332.332,0,0,0,.233.464.487.487,0,0,0,.511-.33.331.331,0,0,0-.234-.463" transform="translate(-35.25 -86.158)" fill="#0dd0fc"/>
        <path id="Path_907038" data-name="Path 907038" d="M78.906,178.1a.635.635,0,0,1-.674.433.442.442,0,0,1-.312-.615.634.634,0,0,1,.673-.435.444.444,0,0,1,.313.617" transform="translate(-40.003 -91.149)" fill="#111f63"/>
        <path id="Path_907039" data-name="Path 907039" d="M78.06,178.522a.548.548,0,0,1-.386-.761.785.785,0,0,1,.832-.536.549.549,0,0,1,.388.762.785.785,0,0,1-.834.535m.361-1.05a.486.486,0,0,0-.516.331.341.341,0,0,0,.241.472.486.486,0,0,0,.515-.332.339.339,0,0,0-.239-.471" transform="translate(-39.873 -91.017)" fill="#0dd0fc"/>
        <path id="Path_907040" data-name="Path 907040" d="M90.058,182.055a.637.637,0,0,1-.68.436.45.45,0,0,1-.32-.622.636.636,0,0,1,.678-.437.452.452,0,0,1,.322.623" transform="translate(-45.724 -93.178)" fill="#111f63"/>
        <path id="Path_907041" data-name="Path 907041" d="M89.2,182.482a.557.557,0,0,1-.4-.769.787.787,0,0,1,.838-.54.558.558,0,0,1,.4.77.786.786,0,0,1-.839.54m.358-1.06a.488.488,0,0,0-.519.335.345.345,0,0,0,.245.477.488.488,0,0,0,.521-.335.346.346,0,0,0-.246-.477" transform="translate(-45.592 -93.044)" fill="#0dd0fc"/>
        <path id="Path_907042" data-name="Path 907042" d="M104.2,177.79a.637.637,0,0,1-.683.438.453.453,0,0,1-.328-.622.638.638,0,0,1,.682-.439.455.455,0,0,1,.329.624" transform="translate(-52.983 -90.988)" fill="#111f63"/>
        <path id="Path_907043" data-name="Path 907043" d="M103.345,178.22a.561.561,0,0,1-.406-.769.79.79,0,0,1,.842-.543.561.561,0,0,1,.407.769.789.789,0,0,1-.843.542m.354-1.063a.49.49,0,0,0-.522.337.347.347,0,0,0,.251.476.489.489,0,0,0,.522-.336.348.348,0,0,0-.251-.477" transform="translate(-52.85 -90.854)" fill="#0dd0fc"/>
        <path id="Path_907044" data-name="Path 907044" d="M114.363,185.812a.639.639,0,0,1-.69.441.462.462,0,0,1-.337-.632.639.639,0,0,1,.688-.444.467.467,0,0,1,.339.634" transform="translate(-58.194 -95.102)" fill="#111f63"/>
        <path id="Path_907045" data-name="Path 907045" d="M113.5,186.247a.575.575,0,0,1-.414-.783.791.791,0,0,1,.849-.547.575.575,0,0,1,.418.782.791.791,0,0,1-.852.548m.352-1.077a.49.49,0,0,0-.526.339.356.356,0,0,0,.258.484.492.492,0,0,0,.528-.339.356.356,0,0,0-.26-.484" transform="translate(-58.06 -94.967)" fill="#0dd0fc"/>
        <path id="Path_907046" data-name="Path 907046" d="M128.495,182.209a.643.643,0,0,1-.693.446.467.467,0,0,1-.344-.634.64.64,0,0,1,.691-.445.468.468,0,0,1,.346.633" transform="translate(-65.447 -93.253)" fill="#111f63"/>
        <path id="Path_907047" data-name="Path 907047" d="M127.626,182.646a.578.578,0,0,1-.426-.783.793.793,0,0,1,.853-.549.579.579,0,0,1,.429.783.793.793,0,0,1-.856.549m.347-1.079a.491.491,0,0,0-.529.34.358.358,0,0,0,.263.485.491.491,0,0,0,.53-.34.359.359,0,0,0-.265-.485" transform="translate(-65.311 -93.117)" fill="#0dd0fc"/>
        <path id="Path_907048" data-name="Path 907048" d="M139.373,189.261a.642.642,0,0,1-.7.447.477.477,0,0,1-.356-.642.644.644,0,0,1,.7-.448.479.479,0,0,1,.355.644" transform="translate(-71.026 -96.869)" fill="#111f63"/>
        <path id="Path_907049" data-name="Path 907049" d="M138.5,189.7a.591.591,0,0,1-.438-.794.8.8,0,0,1,.861-.553.592.592,0,0,1,.439.794.794.794,0,0,1-.862.553m.343-1.09a.491.491,0,0,0-.534.342.366.366,0,0,0,.271.492.492.492,0,0,0,.534-.342.367.367,0,0,0-.271-.492" transform="translate(-70.889 -96.731)" fill="#0dd0fc"/>
        <path id="Path_907050" data-name="Path 907050" d="M155.024,181.654a.645.645,0,0,1-.7.449.479.479,0,0,1-.364-.641.645.645,0,0,1,.7-.449.481.481,0,0,1,.365.64" transform="translate(-79.059 -92.964)" fill="#111f63"/>
        <path id="Path_907051" data-name="Path 907051" d="M154.144,182.094a.593.593,0,0,1-.449-.791.8.8,0,0,1,.866-.554.593.593,0,0,1,.451.79.8.8,0,0,1-.868.555m.338-1.09a.5.5,0,0,0-.537.342.368.368,0,0,0,.279.491.493.493,0,0,0,.537-.344.366.366,0,0,0-.279-.489" transform="translate(-78.92 -92.826)" fill="#0dd0fc"/>
        <path id="Path_907052" data-name="Path 907052" d="M172.126,173.54a.647.647,0,0,1-.7.45.482.482,0,0,1-.375-.638.647.647,0,0,1,.7-.449.481.481,0,0,1,.375.637" transform="translate(-87.837 -88.798)" fill="#111f63"/>
        <path id="Path_907053" data-name="Path 907053" d="M171.242,173.98a.6.6,0,0,1-.463-.787.8.8,0,0,1,.87-.556.6.6,0,0,1,.463.788.8.8,0,0,1-.87.555m.329-1.088a.5.5,0,0,0-.537.345.368.368,0,0,0,.286.487.5.5,0,0,0,.54-.344.37.37,0,0,0-.288-.488" transform="translate(-87.696 -88.66)" fill="#0dd0fc"/>
        <path id="Path_907054" data-name="Path 907054" d="M94.694,182.171c-1.269-4.246-1.892-6.337-3.12-10.454l-4.68-4.62-7.12,2.921h-.026c-2.474-.023-3.7-.036-6.151-.059l-4.873-3.352-7.741,5.085-.042,0-5.815-.393c.025-.1.037-.149.061-.248l5.773.391,7.8-5.129,4.943,3.4,6.057.054,7.218-2.962,4.83,4.785c1.2,4.031,1.815,6.077,3.057,10.232l7.426-3.306,7.256-.26c-.01.106-.013.157-.021.263l-7.206.258c-3.062,1.361-4.587,2.04-7.632,3.4" transform="translate(-28.313 -85.416)" fill="#e40dfc"/>
        <path id="Path_907055" data-name="Path 907055" d="M67.082,176.648a.634.634,0,0,1-.671.431.437.437,0,0,1-.3-.612.633.633,0,0,1,.668-.431.438.438,0,0,1,.306.612" transform="translate(-33.935 -90.407)" fill="#111f63"/>
        <path id="Path_907056" data-name="Path 907056" d="M66.239,177.07a.54.54,0,0,1-.375-.756.782.782,0,0,1,.826-.533.542.542,0,0,1,.378.756.785.785,0,0,1-.83.532m.366-1.043a.485.485,0,0,0-.512.33.335.335,0,0,0,.233.468.485.485,0,0,0,.513-.33.335.335,0,0,0-.233-.468" transform="translate(-33.806 -90.276)" fill="#e40dfc"/>
        <path id="Path_907057" data-name="Path 907057" d="M82.964,166.317a.638.638,0,0,1-.673.432.436.436,0,0,1-.312-.607.634.634,0,0,1,.67-.432.437.437,0,0,1,.314.607" transform="translate(-42.088 -85.104)" fill="#111f63"/>
        <path id="Path_907058" data-name="Path 907058" d="M82.122,166.741a.539.539,0,0,1-.387-.75.785.785,0,0,1,.827-.535.54.54,0,0,1,.388.751.784.784,0,0,1-.828.534m.358-1.04a.488.488,0,0,0-.514.331.334.334,0,0,0,.239.465.487.487,0,0,0,.514-.33.334.334,0,0,0-.239-.465" transform="translate(-41.959 -84.973)" fill="#e40dfc"/>
        <path id="Path_907059" data-name="Path 907059" d="M93.185,172.82a.637.637,0,0,1-.679.434.445.445,0,0,1-.319-.615.638.638,0,0,1,.677-.435.446.446,0,0,1,.321.616" transform="translate(-47.331 -88.439)" fill="#111f63"/>
        <path id="Path_907060" data-name="Path 907060" d="M92.335,173.247a.548.548,0,0,1-.394-.759.786.786,0,0,1,.834-.538.551.551,0,0,1,.4.76.788.788,0,0,1-.837.537m.357-1.052a.486.486,0,0,0-.517.334.34.34,0,0,0,.243.471.487.487,0,0,0,.519-.332.343.343,0,0,0-.246-.472" transform="translate(-47.2 -88.308)" fill="#e40dfc"/>
        <path id="Path_907061" data-name="Path 907061" d="M105.731,173.2a.636.636,0,0,1-.681.437.45.45,0,0,1-.329-.618.637.637,0,0,1,.68-.438.451.451,0,0,1,.329.619" transform="translate(-53.769 -88.633)" fill="#111f63"/>
        <path id="Path_907062" data-name="Path 907062" d="M104.876,173.629a.559.559,0,0,1-.407-.766.789.789,0,0,1,.841-.54.558.558,0,0,1,.407.765.79.79,0,0,1-.841.542m.351-1.059a.49.49,0,0,0-.52.336.345.345,0,0,0,.251.473.488.488,0,0,0,.521-.334.347.347,0,0,0-.252-.475" transform="translate(-53.636 -88.499)" fill="#e40dfc"/>
        <path id="Path_907063" data-name="Path 907063" d="M120.468,167.15a.639.639,0,0,1-.683.44.454.454,0,0,1-.339-.619.642.642,0,0,1,.684-.439.453.453,0,0,1,.338.618" transform="translate(-61.332 -85.526)" fill="#111f63"/>
        <path id="Path_907064" data-name="Path 907064" d="M119.612,167.579a.56.56,0,0,1-.417-.763.792.792,0,0,1,.843-.543.559.559,0,0,1,.417.764.788.788,0,0,1-.843.542m.345-1.057a.49.49,0,0,0-.522.336.348.348,0,0,0,.258.474.493.493,0,0,0,.523-.337.348.348,0,0,0-.259-.473" transform="translate(-61.2 -85.392)" fill="#e40dfc"/>
        <path id="Path_907065" data-name="Path 907065" d="M130.237,176.785a.642.642,0,0,1-.692.444.465.465,0,0,1-.344-.631.64.64,0,0,1,.689-.443.466.466,0,0,1,.347.63" transform="translate(-66.343 -90.468)" fill="#111f63"/>
        <path id="Path_907066" data-name="Path 907066" d="M129.37,177.221a.575.575,0,0,1-.426-.779.792.792,0,0,1,.852-.547.573.573,0,0,1,.428.776.792.792,0,0,1-.853.55m.344-1.074a.489.489,0,0,0-.527.338.356.356,0,0,0,.263.483.492.492,0,0,0,.53-.34.357.357,0,0,0-.267-.481" transform="translate(-66.207 -90.334)" fill="#e40dfc"/>
        <path id="Path_907067" data-name="Path 907067" d="M136.6,198.069a.643.643,0,0,1-.7.45.485.485,0,0,1-.356-.651.644.644,0,0,1,.7-.448.484.484,0,0,1,.356.649" transform="translate(-69.598 -101.389)" fill="#111f63"/>
        <path id="Path_907068" data-name="Path 907068" d="M135.718,198.511a.6.6,0,0,1-.438-.8.8.8,0,0,1,.866-.554.6.6,0,0,1,.439.8.8.8,0,0,1-.866.556m.346-1.1a.493.493,0,0,0-.537.343.372.372,0,0,0,.272.5.5.5,0,0,0,.537-.345.371.371,0,0,0-.272-.5" transform="translate(-69.461 -101.25)" fill="#e40dfc"/>
        <path id="Path_907069" data-name="Path 907069" d="M152.077,191.177a.646.646,0,0,1-.7.452.486.486,0,0,1-.363-.648.645.645,0,0,1,.7-.451.487.487,0,0,1,.365.647" transform="translate(-77.544 -97.851)" fill="#111f63"/>
        <path id="Path_907070" data-name="Path 907070" d="M151.193,191.62a.6.6,0,0,1-.449-.8.8.8,0,0,1,.869-.556.6.6,0,0,1,.451.8.8.8,0,0,1-.871.556m.339-1.1a.493.493,0,0,0-.538.343.373.373,0,0,0,.278.5.494.494,0,0,0,.539-.345.372.372,0,0,0-.279-.5" transform="translate(-77.405 -97.713)" fill="#e40dfc"/>
        <path id="Path_907071" data-name="Path 907071" d="M166.942,190.643a.646.646,0,0,1-.71.453.492.492,0,0,1-.374-.651.646.646,0,0,1,.709-.453.493.493,0,0,1,.375.652" transform="translate(-85.171 -97.574)" fill="#111f63"/>
        <path id="Path_907072" data-name="Path 907072" d="M166.055,191.089a.609.609,0,0,1-.462-.8.8.8,0,0,1,.875-.559.609.609,0,0,1,.464.8.8.8,0,0,1-.876.56m.334-1.106a.493.493,0,0,0-.541.347.377.377,0,0,0,.286.5.5.5,0,0,0,.543-.347.378.378,0,0,0-.287-.5" transform="translate(-85.032 -97.436)" fill="#e40dfc"/>
        <path id="Path_907073" data-name="Path 907073" d="M52.736,14.887,125.917,22.9l.406-1.355L52.1,13.418,16.544,111.247l1.086.229Z" transform="translate(-8.497 -6.891)" fill="#c9d9ed"/>
        <path id="Path_907074" data-name="Path 907074" d="M162.954,15.027a.877.877,0,0,0,.29.27,1.068,1.068,0,0,0,.421.133,1.341,1.341,0,0,0,.478-.036,1.535,1.535,0,0,0,.445-.192,1.5,1.5,0,0,0,.362-.316,1.264,1.264,0,0,0,.229-.409.988.988,0,0,0,.049-.431.835.835,0,0,0-.134-.369.872.872,0,0,0-.291-.27,1.078,1.078,0,0,0-.421-.132,1.362,1.362,0,0,0-.477.037,1.552,1.552,0,0,0-.443.192,1.53,1.53,0,0,0-.361.316,1.278,1.278,0,0,0-.231.41.983.983,0,0,0-.048.427.837.837,0,0,0,.133.369" transform="translate(-83.621 -6.815)" fill="#28282b"/>
      </g>
    </g>
    <g id="Group_1119886" data-name="Group 1119886" transform="translate(79.894 7.081)">
      <g id="Group_1119885" data-name="Group 1119885" clip-path="url(#clip-path-6)">
        <rect id="Rectangle_409667" data-name="Rectangle 409667" width="1.029" height="0.919" transform="translate(-0.004 0)" fill="url(#linear-gradient-3)"/>
      </g>
    </g>
    <g id="Group_1119894" data-name="Group 1119894">
      <g id="Group_1119893" data-name="Group 1119893" clip-path="url(#clip-path)">
        <path id="Path_907076" data-name="Path 907076" d="M88.977,236.941a2.376,2.376,0,0,0-.662-.794,2.436,2.436,0,0,0-.982-.448l-2.554-.544a2.766,2.766,0,0,0-1.122,0,3.228,3.228,0,0,0-1.056.423,3.5,3.5,0,0,0-.877.776,3.423,3.423,0,0,0-.581,1.058l-.9,2.679a3.072,3.072,0,0,0-.161,1.156,2.644,2.644,0,0,0,.272,1.034,2.373,2.373,0,0,0,.651.8,2.4,2.4,0,0,0,.976.458l2.563.569a2.783,2.783,0,0,0,1.134.009,3.209,3.209,0,0,0,1.071-.425,3.5,3.5,0,0,0,.887-.785,3.418,3.418,0,0,0,.584-1.072l.89-2.7a3.033,3.033,0,0,0,.152-1.16,2.623,2.623,0,0,0-.286-1.031" transform="translate(-41.128 -120.744)" fill="#717280"/>
        <path id="Path_907077" data-name="Path 907077" d="M88.821,236.5a2.38,2.38,0,0,0-.662-.794,2.443,2.443,0,0,0-.982-.448l-2.554-.544a2.774,2.774,0,0,0-1.122,0,3.228,3.228,0,0,0-1.056.423,3.477,3.477,0,0,0-.877.776,3.418,3.418,0,0,0-.581,1.058l-.9,2.679a3.069,3.069,0,0,0-.161,1.156,2.644,2.644,0,0,0,.272,1.035,2.363,2.363,0,0,0,1.628,1.259l2.563.57a2.783,2.783,0,0,0,1.134.008,3.187,3.187,0,0,0,1.071-.425,3.487,3.487,0,0,0,.887-.785,3.421,3.421,0,0,0,.584-1.072l.89-2.7a3.036,3.036,0,0,0,.152-1.16,2.625,2.625,0,0,0-.286-1.031" transform="translate(-41.048 -120.52)" fill="#2a2b30"/>
        <path id="Path_907078" data-name="Path 907078" d="M85.547,243.71a2.416,2.416,0,0,1-1.912-.86,2.639,2.639,0,0,1-.493-2.232,3.819,3.819,0,0,1,3.539-3.022,2.415,2.415,0,0,1,1.911.86,2.638,2.638,0,0,1,.493,2.232,3.819,3.819,0,0,1-3.539,3.022m1.134-5.749a3.44,3.44,0,0,0-3.181,2.727,2.281,2.281,0,0,0,.417,1.93,2.059,2.059,0,0,0,1.63.727,3.439,3.439,0,0,0,3.181-2.727,2.281,2.281,0,0,0-.417-1.93,2.059,2.059,0,0,0-1.629-.727" transform="translate(-42.67 -122.028)" fill="#19191c"/>
        <g id="Group_1119889" data-name="Group 1119889" transform="translate(32.817)" opacity="0.2" style="mix-blend-mode: overlay;isolation: isolate">
          <g id="Group_1119888" data-name="Group 1119888">
            <g id="Group_1119887" data-name="Group 1119887" clip-path="url(#clip-path-8)">
              <path id="Path_907079" data-name="Path 907079" d="M135.328,92.5,158.6,13.545a4.764,4.764,0,0,0,.147-2.14,4.3,4.3,0,0,0-.773-1.834,4.683,4.683,0,0,0-1.547-1.338,5.772,5.772,0,0,0-2.176-.655L80.92.028a6.006,6.006,0,0,0-2.141.18,7.219,7.219,0,0,0-2.012.884A7.3,7.3,0,0,0,75.1,2.541a6.264,6.264,0,0,0-1.107,1.875L67.467,22.163Z" transform="translate(-67.467 0)" fill="#fff"/>
            </g>
          </g>
        </g>
        <g id="Group_1119892" data-name="Group 1119892" transform="translate(11.936 78.03)" style="mix-blend-mode: multiply;isolation: isolate">
          <g id="Group_1119891" data-name="Group 1119891">
            <g id="Group_1119890" data-name="Group 1119890" clip-path="url(#clip-path-9)">
              <path id="Path_907080" data-name="Path 907080" d="M35.591,175.795a26.335,26.335,0,0,0,3.185,2.237c.119.076,1.217.773,2.983,1.828.251.15.586.35.838.5.311.181.62.365.93.547a4.018,4.018,0,0,0,.374.211,1.162,1.162,0,0,0,.813.127.491.491,0,0,0,.235-.141c.168-.183.274-.546-.162-1.22-1.114-1.616-3.185-4.626-4.707-6.516-.358-.444-.73-.869-.884-1.025-.181-.183-.181-.183-1.96-1.838-1.048-.977-2.534-2.36-4.35-4.051l-6.337-5.9-.14-.13-1.869,5.083,11.021,10.262.03.028" transform="translate(-24.54 -160.422)" fill="#d3d6f5"/>
            </g>
          </g>
        </g>
      </g>
    </g>
    <g id="Group_1119896" data-name="Group 1119896" transform="translate(8.768 6.661)">
      <g id="Group_1119895" data-name="Group 1119895" clip-path="url(#clip-path-10)">
        <rect id="Rectangle_409671" data-name="Rectangle 409671" width="43.616" height="95.28" transform="matrix(0.976, -0.217, 0.217, 0.976, -19.559, 4.352)" fill="url(#linear-gradient-4)"/>
      </g>
    </g>
    <g id="Group_1119901" data-name="Group 1119901">
      <g id="Group_1119900" data-name="Group 1119900" clip-path="url(#clip-path)">
        <g id="Group_1119899" data-name="Group 1119899" transform="translate(10.522 16.281)" style="mix-blend-mode: multiply;isolation: isolate">
          <g id="Group_1119898" data-name="Group 1119898">
            <g id="Group_1119897" data-name="Group 1119897" clip-path="url(#clip-path-12)">
              <path id="Path_907082" data-name="Path 907082" d="M38.611,106.276c-.021-.083-.04-.167-.06-.252a5.07,5.07,0,0,1,3.324-1.354,4.171,4.171,0,0,1,1.539.228c.024.1.043.181.059.248a3.922,3.922,0,0,0-1.591-.256,4.8,4.8,0,0,0-3.27,1.387m-12.1-72.629a4.951,4.951,0,0,0-1.5-.173,5.745,5.745,0,0,0-3.381,1.231q.171.721.357,1.5a4.117,4.117,0,0,1,3.063-1.42A2.744,2.744,0,0,1,26.9,35.3c-.136-.572-.267-1.124-.391-1.649" transform="translate(-21.632 -33.473)" fill="#c3cce8"/>
            </g>
          </g>
        </g>
      </g>
    </g>
  </g>
</svg>
