<svg xmlns="http://www.w3.org/2000/svg" xmlns:xlink="http://www.w3.org/1999/xlink" width="139" height="139" viewBox="0 0 139 139">
  <defs>
    <clipPath id="clip-path">
      <rect id="Rectángulo_400938" data-name="Rectángulo 400938" width="139" height="139" transform="translate(-0.043 -0.043)" fill="none"/>
    </clipPath>
    <clipPath id="clip-path-3">
      <rect id="Rectángulo_401301" data-name="Rectángulo 401301" width="74.96" height="225.068" fill="#d4e157"/>
    </clipPath>
    <clipPath id="clip-path-5">
      <rect id="Rectángulo_401247" data-name="Rectángulo 401247" width="18.555" height="18.555" fill="#d4e157"/>
    </clipPath>
    <clipPath id="clip-path-6">
      <path id="Trazado_873506" data-name="Trazado 873506" d="M18.555,9.277A9.278,9.278,0,1,1,9.277,0a9.278,9.278,0,0,1,9.278,9.277" fill="#d4e157"/>
    </clipPath>
    <clipPath id="clip-path-8">
      <path id="Trazado_873507" data-name="Trazado 873507" d="M18.555,9.277A9.278,9.278,0,1,1,9.277,0a9.277,9.277,0,0,1,9.278,9.277" fill="#d4e157"/>
    </clipPath>
    <clipPath id="clip-path-14">
      <path id="Trazado_873513" data-name="Trazado 873513" d="M18.555,9.277A9.277,9.277,0,1,1,9.277,0a9.277,9.277,0,0,1,9.277,9.277" fill="#d4e157"/>
    </clipPath>
    <clipPath id="clip-path-16">
      <path id="Trazado_873514" data-name="Trazado 873514" d="M18.555,9.278A9.278,9.278,0,1,1,9.277,0a9.278,9.278,0,0,1,9.278,9.278" fill="#d4e157"/>
    </clipPath>
    <clipPath id="clip-path-22">
      <path id="Trazado_873519" data-name="Trazado 873519" d="M18.555,9.278A9.277,9.277,0,1,1,9.277,0a9.277,9.277,0,0,1,9.277,9.278" fill="#d4e157"/>
    </clipPath>
    <clipPath id="clip-path-24">
      <path id="Trazado_873521" data-name="Trazado 873521" d="M18.555,9.277A9.278,9.278,0,1,1,9.278,0a9.277,9.277,0,0,1,9.277,9.277" fill="#d4e157"/>
    </clipPath>
    <clipPath id="clip-path-26">
      <path id="Trazado_873524" data-name="Trazado 873524" d="M18.555,9.277A9.278,9.278,0,1,1,9.278,0a9.278,9.278,0,0,1,9.277,9.277" fill="#d4e157"/>
    </clipPath>
    <clipPath id="clip-path-32">
      <path id="Trazado_873532" data-name="Trazado 873532" d="M18.555,9.278A9.278,9.278,0,1,1,9.278,0a9.278,9.278,0,0,1,9.277,9.278" fill="#d4e157"/>
    </clipPath>
  </defs>
  <g id="Grupo_1121182" data-name="Grupo 1121182" transform="translate(-731 -2345.126)">
    <g id="Grupo_1120648" data-name="Grupo 1120648" transform="translate(466.043 -2938.831)">
      <g id="Grupo_1099379" data-name="Grupo 1099379" transform="translate(265 5284)">
        <rect id="Rectángulo_401103" data-name="Rectángulo 401103" width="139" height="139" transform="translate(-0.043 -0.043)" fill="none"/>
        <path id="Trazado_873425" data-name="Trazado 873425" d="M57.977,0A57.977,57.977,0,1,1,0,57.977,57.977,57.977,0,0,1,57.977,0Z" transform="translate(17.221 20.665)" fill="#b9bfe2"/>
        <g id="Enmascarar_grupo_1100032" data-name="Enmascarar grupo 1100032" clip-path="url(#clip-path)">
          <g id="Grupo_1101051" data-name="Grupo 1101051" transform="translate(4603.382 -392.033) rotate(90)" style="isolation: isolate">
            <g id="Grupo_1099913" data-name="Grupo 1099913" transform="translate(358.539 4430.41)" clip-path="url(#clip-path-3)" style="isolation: isolate">
              <g id="Grupo_1099912" data-name="Grupo 1099912">
                <g id="Grupo_1099911" data-name="Grupo 1099911" clip-path="url(#clip-path-3)">
                  <g id="Grupo_1099780" data-name="Grupo 1099780" transform="translate(56.405 94.592)" style="isolation: isolate">
                    <g id="Grupo_1099779" data-name="Grupo 1099779" transform="translate(0 0)">
                      <g id="Grupo_1099778" data-name="Grupo 1099778" transform="translate(0 0)" clip-path="url(#clip-path-5)">
                        <g id="Grupo_1099777" data-name="Grupo 1099777" transform="translate(0 0)">
                          <g id="Grupo_1099776" data-name="Grupo 1099776" clip-path="url(#clip-path-6)">
                            <rect id="Rectángulo_401246" data-name="Rectángulo 401246" width="23.587" height="23.587" transform="translate(-5.714 16.586) rotate(-70.991)" fill="#d4e157"/>
                          </g>
                        </g>
                      </g>
                    </g>
                  </g>
                  <g id="Grupo_1099785" data-name="Grupo 1099785" transform="translate(56.405 113.147)" style="isolation: isolate">
                    <g id="Grupo_1099784" data-name="Grupo 1099784">
                      <g id="Grupo_1099783" data-name="Grupo 1099783" clip-path="url(#clip-path-5)">
                        <g id="Grupo_1099782" data-name="Grupo 1099782" transform="translate(0)">
                          <g id="Grupo_1099781" data-name="Grupo 1099781" clip-path="url(#clip-path-8)">
                            <rect id="Rectángulo_401248" data-name="Rectángulo 401248" width="23.587" height="23.587" transform="translate(-5.714 16.586) rotate(-70.991)" fill="#d4e157"/>
                          </g>
                        </g>
                      </g>
                    </g>
                  </g>
                  <g id="Grupo_1099790" data-name="Grupo 1099790" transform="translate(56.405 131.759)" style="isolation: isolate">
                    <g id="Grupo_1099789" data-name="Grupo 1099789" transform="translate(0 0)">
                      <g id="Grupo_1099788" data-name="Grupo 1099788" transform="translate(0 0)" clip-path="url(#clip-path-5)">
                        <g id="Grupo_1099787" data-name="Grupo 1099787" transform="translate(0 0)">
                          <g id="Grupo_1099786" data-name="Grupo 1099786" clip-path="url(#clip-path-6)">
                            <rect id="Rectángulo_401250" data-name="Rectángulo 401250" width="23.587" height="23.587" transform="translate(-5.714 16.586) rotate(-70.991)" fill="#d4e157"/>
                          </g>
                        </g>
                      </g>
                    </g>
                  </g>
                  <g id="Grupo_1099795" data-name="Grupo 1099795" transform="translate(56.405 150.314)" style="isolation: isolate">
                    <g id="Grupo_1099794" data-name="Grupo 1099794" transform="translate(0 0)">
                      <g id="Grupo_1099793" data-name="Grupo 1099793" transform="translate(0 0)" clip-path="url(#clip-path-5)">
                        <g id="Grupo_1099792" data-name="Grupo 1099792" transform="translate(0 0)">
                          <g id="Grupo_1099791" data-name="Grupo 1099791" clip-path="url(#clip-path-8)">
                            <rect id="Rectángulo_401252" data-name="Rectángulo 401252" width="23.587" height="23.587" transform="translate(-5.714 16.586) rotate(-70.991)" fill="#d4e157"/>
                          </g>
                        </g>
                      </g>
                    </g>
                  </g>
                  <g id="Grupo_1099815" data-name="Grupo 1099815" transform="translate(37.85 94.592)" style="isolation: isolate">
                    <g id="Grupo_1099814" data-name="Grupo 1099814" transform="translate(0 0)">
                      <g id="Grupo_1099813" data-name="Grupo 1099813" transform="translate(0 0)" clip-path="url(#clip-path-5)">
                        <g id="Grupo_1099812" data-name="Grupo 1099812" transform="translate(0 0)">
                          <g id="Grupo_1099811" data-name="Grupo 1099811" clip-path="url(#clip-path-14)">
                            <rect id="Rectángulo_401260" data-name="Rectángulo 401260" width="23.587" height="23.587" transform="translate(-5.714 16.586) rotate(-70.991)" fill="#d4e157"/>
                          </g>
                        </g>
                      </g>
                    </g>
                  </g>
                  <g id="Grupo_1099820" data-name="Grupo 1099820" transform="translate(56.405 75.434)" style="isolation: isolate">
                    <g id="Grupo_1099819" data-name="Grupo 1099819" transform="translate(0 0)">
                      <g id="Grupo_1099818" data-name="Grupo 1099818" transform="translate(0 0)" clip-path="url(#clip-path-5)">
                        <g id="Grupo_1099817" data-name="Grupo 1099817" transform="translate(0 0)">
                          <g id="Grupo_1099816" data-name="Grupo 1099816" clip-path="url(#clip-path-16)">
                            <rect id="Rectángulo_401262" data-name="Rectángulo 401262" width="23.587" height="23.587" transform="matrix(0.326, -0.945, 0.945, 0.326, -5.714, 16.587)" fill="#d4e157"/>
                          </g>
                        </g>
                      </g>
                    </g>
                  </g>
                  <g id="Grupo_1099825" data-name="Grupo 1099825" transform="translate(56.405 56.776)" style="isolation: isolate">
                    <g id="Grupo_1099824" data-name="Grupo 1099824" transform="translate(0 0)">
                      <g id="Grupo_1099823" data-name="Grupo 1099823" transform="translate(0 0)" clip-path="url(#clip-path-5)">
                        <g id="Grupo_1099822" data-name="Grupo 1099822" transform="translate(0 0)">
                          <g id="Grupo_1099821" data-name="Grupo 1099821" clip-path="url(#clip-path-6)">
                            <rect id="Rectángulo_401264" data-name="Rectángulo 401264" width="23.587" height="23.587" transform="translate(-5.714 16.586) rotate(-70.991)" fill="#d4e157"/>
                          </g>
                        </g>
                      </g>
                    </g>
                  </g>
                  <g id="Grupo_1099830" data-name="Grupo 1099830" transform="translate(56.405 37.88)" style="isolation: isolate">
                    <g id="Grupo_1099829" data-name="Grupo 1099829" transform="translate(0 0)">
                      <g id="Grupo_1099828" data-name="Grupo 1099828" transform="translate(0 0)" clip-path="url(#clip-path-5)">
                        <g id="Grupo_1099827" data-name="Grupo 1099827" transform="translate(0 0)">
                          <g id="Grupo_1099826" data-name="Grupo 1099826" clip-path="url(#clip-path-16)">
                            <rect id="Rectángulo_401266" data-name="Rectángulo 401266" width="23.587" height="23.587" transform="translate(-5.714 16.587) rotate(-70.991)" fill="#d4e157"/>
                          </g>
                        </g>
                      </g>
                    </g>
                  </g>
                  <g id="Grupo_1099845" data-name="Grupo 1099845" transform="translate(37.85 75.434)" style="isolation: isolate">
                    <g id="Grupo_1099844" data-name="Grupo 1099844" transform="translate(0 0)">
                      <g id="Grupo_1099843" data-name="Grupo 1099843" transform="translate(0 0)" clip-path="url(#clip-path-5)">
                        <g id="Grupo_1099842" data-name="Grupo 1099842" transform="translate(0 0)">
                          <g id="Grupo_1099841" data-name="Grupo 1099841" clip-path="url(#clip-path-22)">
                            <rect id="Rectángulo_401272" data-name="Rectángulo 401272" width="23.587" height="23.587" transform="translate(-5.714 16.587) rotate(-70.991)" fill="#d4e157"/>
                          </g>
                        </g>
                      </g>
                    </g>
                  </g>
                  <g id="Grupo_1099855" data-name="Grupo 1099855" transform="translate(37.424 113.147)" style="isolation: isolate">
                    <g id="Grupo_1099854" data-name="Grupo 1099854">
                      <g id="Grupo_1099853" data-name="Grupo 1099853" clip-path="url(#clip-path-5)">
                        <g id="Grupo_1099852" data-name="Grupo 1099852" transform="translate(0)">
                          <g id="Grupo_1099851" data-name="Grupo 1099851" transform="translate(0)" clip-path="url(#clip-path-24)">
                            <rect id="Rectángulo_401276" data-name="Rectángulo 401276" width="23.587" height="23.587" transform="translate(-5.714 16.586) rotate(-70.991)" fill="#d4e157"/>
                          </g>
                        </g>
                      </g>
                    </g>
                  </g>
                  <g id="Grupo_1099870" data-name="Grupo 1099870" transform="translate(37.424 131.759)" style="isolation: isolate">
                    <g id="Grupo_1099869" data-name="Grupo 1099869" transform="translate(0 0)">
                      <g id="Grupo_1099868" data-name="Grupo 1099868" transform="translate(0 0)" clip-path="url(#clip-path-5)">
                        <g id="Grupo_1099867" data-name="Grupo 1099867" transform="translate(0 0)">
                          <g id="Grupo_1099866" data-name="Grupo 1099866" transform="translate(0)" clip-path="url(#clip-path-26)">
                            <rect id="Rectángulo_401282" data-name="Rectángulo 401282" width="23.587" height="23.587" transform="translate(-5.714 16.586) rotate(-70.991)" fill="#d4e157"/>
                          </g>
                        </g>
                      </g>
                    </g>
                  </g>
                  <g id="Grupo_1099885" data-name="Grupo 1099885" transform="translate(37.424 150.314)" style="isolation: isolate">
                    <g id="Grupo_1099884" data-name="Grupo 1099884" transform="translate(0 0)">
                      <g id="Grupo_1099883" data-name="Grupo 1099883" transform="translate(0 0)" clip-path="url(#clip-path-5)">
                        <g id="Grupo_1099882" data-name="Grupo 1099882" transform="translate(0 0)">
                          <g id="Grupo_1099881" data-name="Grupo 1099881" transform="translate(0)" clip-path="url(#clip-path-24)">
                            <rect id="Rectángulo_401288" data-name="Rectángulo 401288" width="23.587" height="23.587" transform="translate(-5.714 16.586) rotate(-70.991)" fill="#d4e157"/>
                          </g>
                        </g>
                      </g>
                    </g>
                  </g>
                  <g id="Grupo_1099900" data-name="Grupo 1099900" transform="translate(37.85 56.861)" style="isolation: isolate">
                    <g id="Grupo_1099899" data-name="Grupo 1099899" transform="translate(0 0)">
                      <g id="Grupo_1099898" data-name="Grupo 1099898" transform="translate(0 0)" clip-path="url(#clip-path-5)">
                        <g id="Grupo_1099897" data-name="Grupo 1099897" transform="translate(0 0)">
                          <g id="Grupo_1099896" data-name="Grupo 1099896" clip-path="url(#clip-path-22)">
                            <rect id="Rectángulo_401294" data-name="Rectángulo 401294" width="23.587" height="23.587" transform="translate(-5.714 16.587) rotate(-70.991)" fill="#d4e157"/>
                          </g>
                        </g>
                      </g>
                    </g>
                  </g>
                  <g id="Grupo_1099910" data-name="Grupo 1099910" transform="translate(37.424 37.88)" style="isolation: isolate">
                    <g id="Grupo_1099909" data-name="Grupo 1099909" transform="translate(0 0)">
                      <g id="Grupo_1099908" data-name="Grupo 1099908" transform="translate(0 0)" clip-path="url(#clip-path-5)">
                        <g id="Grupo_1099907" data-name="Grupo 1099907" transform="translate(0 0)">
                          <g id="Grupo_1099906" data-name="Grupo 1099906" transform="translate(0)" clip-path="url(#clip-path-32)">
                            <rect id="Rectángulo_401298" data-name="Rectángulo 401298" width="23.587" height="23.587" transform="matrix(0.326, -0.945, 0.945, 0.326, -5.714, 16.587)" fill="#d4e157"/>
                          </g>
                        </g>
                      </g>
                    </g>
                  </g>
                </g>
              </g>
            </g>
          </g>
        </g>
        <circle id="Elipse_11503" data-name="Elipse 11503" cx="60.5" cy="60.5" r="60.5" transform="translate(8.957 8.957)" fill="#f1f8e9"/>
      </g>
    </g>
    <g id="Grupo_1120650" data-name="Grupo 1120650" transform="translate(413 -4048.875)">
      <g id="Grupo_1099389" data-name="Grupo 1099389" transform="translate(347.893 6422.744)">
        <rect id="Rectángulo_401104" data-name="Rectángulo 401104" width="78" height="79" transform="translate(0.107 0.256)" fill="none"/>
      </g>
      <path id="Trazado_908289" data-name="Trazado 908289" d="M70.946,32.983a1.039,1.039,0,0,0-.772,0L45.9,42.641a1.038,1.038,0,0,0-.441.334L38.339,52.24a1.042,1.042,0,0,0,.372,1.573l6.534,3.178V69.4a1.045,1.045,0,0,0,.594.942L70.113,81.931l.017.007.038.016a.9.9,0,0,0,.089.031L70.3,82a.788.788,0,0,0,.092.019l.04.007a.983.983,0,0,0,.123.009h.009a1.155,1.155,0,0,0,.134-.009l.033-.005a.882.882,0,0,0,.1-.021.38.38,0,0,0,.042-.012.977.977,0,0,0,.092-.033A.329.329,0,0,0,71,81.937l.014-.005L95.287,70.343a1.043,1.043,0,0,0,.594-.942V56.991l6.534-3.178a1.042,1.042,0,0,0,.372-1.573l-7.124-9.265a1.052,1.052,0,0,0-.441-.334v0Zm-.386,2.09,21.455,8.535L70.56,52.146,49.105,43.611Zm-23.929,9.8,22.353,8.893-6.228,9.427L40.771,52.5Zm.7,23.872V58l15.338,7.461a1.04,1.04,0,0,0,1.326-.361l5.526-8.365v22.6Zm46.465,0L71.6,79.335v-22.6L77.128,65.1a1.04,1.04,0,0,0,1.326.361L93.792,58ZM78.364,63.191l-6.228-9.427,22.353-8.893L100.35,52.5Zm31.2-4.17a39,39,0,0,1-39,39,1.043,1.043,0,0,1,0-2.085,36.915,36.915,0,0,0,2.45-73.75l3.338,3.63a1.042,1.042,0,1,1-1.534,1.411l-5.022-5.46a1.045,1.045,0,0,1,.061-1.474l5.46-5.022a1.043,1.043,0,1,1,1.413,1.534L73.14,20.1A39,39,0,0,1,109.56,59.02ZM59.455,94.639a1.042,1.042,0,0,1-.593,1.35l-6.911,2.693a1.043,1.043,0,0,1-.758-1.943l4.374-1.7a39.016,39.016,0,0,1,3.588-73.32,1.043,1.043,0,1,1,.608,1.995,36.931,36.931,0,0,0-3.093,69.525L54.82,88.484a1.043,1.043,0,1,1,1.943-.758Z" transform="translate(316.44 6405.626)" fill="#474d41"/>
    </g>
  </g>
</svg>
