<svg xmlns="http://www.w3.org/2000/svg" xmlns:xlink="http://www.w3.org/1999/xlink" width="99" height="99" viewBox="0 0 99 99">
  <defs>
    <clipPath id="clip-path">
      <rect id="Rectangle_401273" data-name="Rectangle 401273" width="15.047" height="15.048" fill="#f6f8de"/>
    </clipPath>
    <clipPath id="clip-path-2">
      <path id="Path_873519" data-name="Path 873519" d="M15.047,7.524A7.524,7.524,0,1,1,7.524,0a7.524,7.524,0,0,1,7.524,7.524" fill="#f6f8de"/>
    </clipPath>
  </defs>
  <g id="Group_1120616" data-name="Group 1120616" transform="translate(-961.711 -1154)">
    <rect id="Rectangle_409537" data-name="Rectangle 409537" width="99" height="99" rx="49.5" transform="translate(961.711 1154)" fill="#f3f9ff"/>
    <g id="Group_1119771" data-name="Group 1119771" transform="translate(14.084 -7981.033)">
      <g id="Group_1099855" data-name="Group 1099855" transform="translate(948.664 9139)">
        <g id="Group_1099808" data-name="Group 1099808">
          <g id="Group_1101062" data-name="Group 1101062" transform="translate(-307.943 -6779.151)">
            <g id="Group_1101056" data-name="Group 1101056" transform="translate(330.953 6828.445) rotate(90)" opacity="0.998" style="isolation: isolate">
              <g id="Group_1099844" data-name="Group 1099844" transform="translate(0 0)">
                <g id="Group_1099843" data-name="Group 1099843" transform="translate(0 0)" clip-path="url(#clip-path)">
                  <g id="Group_1099842" data-name="Group 1099842" transform="translate(0 0)">
                    <g id="Group_1099841" data-name="Group 1099841" clip-path="url(#clip-path-2)">
                      <rect id="Rectangle_401272" data-name="Rectangle 401272" width="19.128" height="19.128" transform="translate(-4.634 13.451) rotate(-70.991)" fill="#f6f8de"/>
                    </g>
                  </g>
                </g>
              </g>
            </g>
            <g id="Group_1101057" data-name="Group 1101057" transform="translate(330.953 6843.492) rotate(90)" opacity="0.998" style="isolation: isolate">
              <g id="Group_1099844-2" data-name="Group 1099844" transform="translate(0 0)">
                <g id="Group_1099843-2" data-name="Group 1099843" transform="translate(0 0)" clip-path="url(#clip-path)">
                  <g id="Group_1099842-2" data-name="Group 1099842" transform="translate(0 0)">
                    <g id="Group_1099841-2" data-name="Group 1099841" clip-path="url(#clip-path-2)">
                      <rect id="Rectangle_401272-2" data-name="Rectangle 401272" width="19.128" height="19.128" transform="translate(-4.634 13.451) rotate(-70.991)" fill="#f6f8de"/>
                    </g>
                  </g>
                </g>
              </g>
            </g>
            <g id="Group_1101058" data-name="Group 1101058" transform="translate(330.953 6858.54) rotate(90)" opacity="0.998" style="isolation: isolate">
              <g id="Group_1099844-3" data-name="Group 1099844" transform="translate(0 0)">
                <g id="Group_1099843-3" data-name="Group 1099843" transform="translate(0 0)" clip-path="url(#clip-path)">
                  <g id="Group_1099842-3" data-name="Group 1099842" transform="translate(0 0)">
                    <g id="Group_1099841-3" data-name="Group 1099841" clip-path="url(#clip-path-2)">
                      <rect id="Rectangle_401272-3" data-name="Rectangle 401272" width="19.128" height="19.128" transform="translate(-4.634 13.451) rotate(-70.991)" fill="#f6f8de"/>
                    </g>
                  </g>
                </g>
              </g>
            </g>
            <g id="Group_1101059" data-name="Group 1101059" transform="translate(346 6858.676) rotate(90)" opacity="0.998" style="isolation: isolate">
              <g id="Group_1099844-4" data-name="Group 1099844" transform="translate(0 0)">
                <g id="Group_1099843-4" data-name="Group 1099843" transform="translate(0 0)" clip-path="url(#clip-path)">
                  <g id="Group_1099842-4" data-name="Group 1099842" transform="translate(0 0)">
                    <g id="Group_1099841-4" data-name="Group 1099841" clip-path="url(#clip-path-2)">
                      <rect id="Rectangle_401272-4" data-name="Rectangle 401272" width="19.128" height="19.128" transform="translate(-4.634 13.451) rotate(-70.991)" fill="#f6f8de"/>
                    </g>
                  </g>
                </g>
              </g>
            </g>
            <g id="Group_1101060" data-name="Group 1101060" transform="translate(346 6843.492) rotate(90)" opacity="0.998" style="isolation: isolate">
              <g id="Group_1099844-5" data-name="Group 1099844" transform="translate(0 0)">
                <g id="Group_1099843-5" data-name="Group 1099843" transform="translate(0 0)" clip-path="url(#clip-path)">
                  <g id="Group_1099842-5" data-name="Group 1099842" transform="translate(0 0)">
                    <g id="Group_1099841-5" data-name="Group 1099841" clip-path="url(#clip-path-2)">
                      <rect id="Rectangle_401272-5" data-name="Rectangle 401272" width="19.128" height="19.128" transform="translate(-4.634 13.451) rotate(-70.991)" fill="#f6f8de"/>
                    </g>
                  </g>
                </g>
              </g>
            </g>
            <g id="Group_1101061" data-name="Group 1101061" transform="translate(361.047 6858.676) rotate(90)" opacity="0.998" style="isolation: isolate">
              <g id="Group_1099844-6" data-name="Group 1099844" transform="translate(0 0)">
                <g id="Group_1099843-6" data-name="Group 1099843" transform="translate(0 0)" clip-path="url(#clip-path)">
                  <g id="Group_1099842-6" data-name="Group 1099842" transform="translate(0 0)">
                    <g id="Group_1099841-6" data-name="Group 1099841" clip-path="url(#clip-path-2)">
                      <rect id="Rectangle_401272-6" data-name="Rectangle 401272" width="19.128" height="19.128" transform="translate(-4.634 13.451) rotate(-70.991)" fill="#f6f8de"/>
                    </g>
                  </g>
                </g>
              </g>
            </g>
          </g>
          <g id="Group_1099776" data-name="Group 1099776" transform="translate(20.038 16.035)">
            <g id="Group_1099618" data-name="Group 1099618" transform="translate(0 0)">
              <rect id="Rectangle_401104" data-name="Rectangle 401104" width="57.823" height="58.52" transform="translate(0)" fill="none"/>
            </g>
            <g id="Group_1120657" data-name="Group 1120657" transform="translate(-1 -1.24)">
              <path id="Path_907110" data-name="Path 907110" d="M2.433,26.5a.936.936,0,0,0-.933.933v8.4a.936.936,0,0,0,.933.933h8.4a.936.936,0,0,0,.933-.933v-8.4a.936.936,0,0,0-.933-.933ZM9.9,34.9H3.366V28.366H9.9Z" transform="translate(-0.033 -1.433)" fill="#474d41"/>
              <path id="Path_907111" data-name="Path 907111" d="M12.059,15.763a.921.921,0,0,0,.037-.905L7.43,5.516a.971.971,0,0,0-1.67,0L1.1,14.848a.945.945,0,0,0,.037.905.932.932,0,0,0,.793.439h9.332a.932.932,0,0,0,.793-.439ZM3.445,14.335,6.6,8.026l3.154,6.309Z" transform="translate(0)" fill="#474d41"/>
              <path id="Path_907112" data-name="Path 907112" d="M6.6,58.2A5.6,5.6,0,1,0,1,52.6,5.6,5.6,0,0,0,6.6,58.2Zm0-9.332A3.733,3.733,0,1,1,2.866,52.6,3.732,3.732,0,0,1,6.6,48.866Z" transform="translate(0 -2.802)" fill="#474d41"/>
              <path id="Path_907113" data-name="Path 907113" d="M58.3,34.2a1.976,1.976,0,0,0,1.969-1.969V30.041A1.976,1.976,0,0,0,58.3,28.072a.11.11,0,0,1-.112-.065,10.146,10.146,0,0,0-.728-1.745.143.143,0,0,1,.037-.14,1.971,1.971,0,0,0,0-2.781l-1.549-1.549a1.96,1.96,0,0,0-2.781,0,.1.1,0,0,1-.131.028,10.145,10.145,0,0,0-1.745-.728.126.126,0,0,1-.075-.112,1.976,1.976,0,0,0-1.969-1.969H47.05A1.98,1.98,0,0,0,45.081,21a.093.093,0,0,1-.047.084,10.462,10.462,0,0,0-1.773.737.124.124,0,0,1-.131-.037,1.96,1.96,0,0,0-2.781,0L38.791,23.34a1.971,1.971,0,0,0,0,2.781.1.1,0,0,1,.028.131A10.145,10.145,0,0,0,38.091,28a.119.119,0,0,1-.112.065,1.976,1.976,0,0,0-1.969,1.969v2.193a1.976,1.976,0,0,0,1.969,1.969.11.11,0,0,1,.112.065A10.145,10.145,0,0,0,38.819,36a.143.143,0,0,1-.037.14,1.971,1.971,0,0,0,0,2.781l1.549,1.549a1.96,1.96,0,0,0,2.781,0,.1.1,0,0,1,.131-.028,10.145,10.145,0,0,0,1.745.728.126.126,0,0,1,.075.112,1.976,1.976,0,0,0,1.969,1.969h2.193a1.976,1.976,0,0,0,1.969-1.969.11.11,0,0,1,.065-.112A10.145,10.145,0,0,0,53,40.446a.124.124,0,0,1,.131.037,1.96,1.96,0,0,0,2.781,0l1.558-1.558a1.971,1.971,0,0,0,0-2.781.1.1,0,0,1-.028-.131,11.285,11.285,0,0,0,.737-1.773c0-.019.047-.047.112-.047ZM56.4,33.7a7.877,7.877,0,0,1-.607,1.456,1.989,1.989,0,0,0,.364,2.324.113.113,0,0,1,0,.149L54.6,39.177h-.14a1.974,1.974,0,0,0-2.324-.364,8.8,8.8,0,0,1-1.437.6A1.977,1.977,0,0,0,49.318,41.3a.1.1,0,0,1-.1.1H47.022a.1.1,0,0,1-.1-.1,1.957,1.957,0,0,0-1.381-1.894,8.348,8.348,0,0,1-1.437-.6,1.977,1.977,0,0,0-.915-.224,2,2,0,0,0-1.409.588c-.383.383-.14,0-.14,0l-1.549-1.549s-.037-.1,0-.149a1.974,1.974,0,0,0,.364-2.324,8.8,8.8,0,0,1-.6-1.437,1.977,1.977,0,0,0-1.894-1.381.1.1,0,0,1-.1-.1V30.041a.1.1,0,0,1,.1-.1,1.957,1.957,0,0,0,1.894-1.381,9.16,9.16,0,0,1,.6-1.437,1.989,1.989,0,0,0-.364-2.324.113.113,0,0,1,0-.149L41.647,23.1h.14a1.974,1.974,0,0,0,2.324.364,9.041,9.041,0,0,1,1.456-.607,1.947,1.947,0,0,0,1.363-1.894.1.1,0,0,1,.1-.1h2.193a.1.1,0,0,1,.1.1,1.957,1.957,0,0,0,1.381,1.894,8.348,8.348,0,0,1,1.437.6,1.974,1.974,0,0,0,2.324-.364c.625-.625.14,0,.14,0l1.549,1.549s.037.1,0,.149a1.974,1.974,0,0,0-.364,2.324,8.8,8.8,0,0,1,.6,1.437,1.977,1.977,0,0,0,1.894,1.381.1.1,0,0,1,.1.1v2.193a.109.109,0,0,1-.121.1A1.927,1.927,0,0,0,56.4,33.69Z" transform="translate(-2.338 -0.933)" fill="#474d41"/>
              <path id="Path_907114" data-name="Path 907114" d="M48.533,25a6.533,6.533,0,1,0,6.533,6.533A6.54,6.54,0,0,0,48.533,25Zm0,11.2A4.666,4.666,0,1,1,53.2,31.533,4.668,4.668,0,0,1,48.533,36.2Z" transform="translate(-2.738 -1.333)" fill="#474d41"/>
              <path id="Path_907115" data-name="Path 907115" d="M61.044,18.852l-1.232-5.3-1.82.42.579,2.482a17.768,17.768,0,0,0-22.836,1.512c-.364.355-.644.653-.905.952l1.428,1.2c.243-.289.5-.551.775-.821a15.9,15.9,0,0,1,22.435.4.938.938,0,0,0,1.586-.859Z" transform="translate(-2.259 -0.532)" fill="#474d41"/>
              <path id="Path_907116" data-name="Path 907116" d="M59.09,44.171a15.9,15.9,0,0,1-22.435-.4.938.938,0,0,0-1.586.859l1.232,5.3,1.82-.42-.579-2.482a17.773,17.773,0,0,0,22.836-1.521c.364-.355.644-.653.905-.952l-1.428-1.2c-.243.289-.5.551-.775.821Z" transform="translate(-2.273 -2.558)" fill="#474d41"/>
              <path id="Path_907117" data-name="Path 907117" d="M33,24.932H28.174l-2.66-14.166A.939.939,0,0,0,24.6,10H19v1.866h4.825l2.66,14.166a.939.939,0,0,0,.915.765H33Z" transform="translate(-1.202 -0.331)" fill="#474d41"/>
              <path id="Path_907118" data-name="Path 907118" d="M20,52.8h4.666a.93.93,0,0,0,.915-.765l2.66-14.166h4.825V36h-5.6a.93.93,0,0,0-.915.765l-2.66,14.166H20Z" transform="translate(-1.269 -2.067)" fill="#474d41"/>
              <path id="Path_907119" data-name="Path 907119" d="M20,31H32.132v1.866H20Z" transform="translate(-1.269 -1.733)" fill="#474d41"/>
              <path id="Path_907120" data-name="Path 907120" d="M15,10h1.866v1.866H15Z" transform="translate(-0.935 -0.331)" fill="#474d41"/>
              <path id="Path_907121" data-name="Path 907121" d="M16,31h1.866v1.866H16Z" transform="translate(-1.002 -1.733)" fill="#474d41"/>
              <path id="Path_907122" data-name="Path 907122" d="M16,52h1.866v1.866H16Z" transform="translate(-1.002 -3.135)" fill="#474d41"/>
            </g>
          </g>
        </g>
      </g>
    </g>
  </g>
</svg>
