<svg xmlns="http://www.w3.org/2000/svg" xmlns:xlink="http://www.w3.org/1999/xlink" width="139" height="139" viewBox="0 0 139 139">
  <defs>
    <clipPath id="clip-path">
      <rect id="Rectangle_400938" data-name="Rectangle 400938" width="139" height="139" transform="translate(-0.043 -0.043)" fill="none"/>
    </clipPath>
    <clipPath id="clip-path-3">
      <rect id="Rectangle_401301" data-name="Rectangle 401301" width="74.96" height="225.068" fill="#d4e157"/>
    </clipPath>
    <clipPath id="clip-path-5">
      <rect id="Rectangle_401247" data-name="Rectangle 401247" width="18.555" height="18.555" fill="#d4e157"/>
    </clipPath>
    <clipPath id="clip-path-6">
      <path id="Path_873506" data-name="Path 873506" d="M18.555,9.277A9.278,9.278,0,1,1,9.277,0a9.278,9.278,0,0,1,9.278,9.277" fill="#d4e157"/>
    </clipPath>
    <clipPath id="clip-path-8">
      <path id="Path_873507" data-name="Path 873507" d="M18.555,9.277A9.278,9.278,0,1,1,9.277,0a9.277,9.277,0,0,1,9.278,9.277" fill="#d4e157"/>
    </clipPath>
    <clipPath id="clip-path-14">
      <path id="Path_873513" data-name="Path 873513" d="M18.555,9.277A9.277,9.277,0,1,1,9.277,0a9.277,9.277,0,0,1,9.277,9.277" fill="#d4e157"/>
    </clipPath>
    <clipPath id="clip-path-16">
      <path id="Path_873514" data-name="Path 873514" d="M18.555,9.278A9.278,9.278,0,1,1,9.277,0a9.278,9.278,0,0,1,9.278,9.278" fill="#d4e157"/>
    </clipPath>
    <clipPath id="clip-path-22">
      <path id="Path_873519" data-name="Path 873519" d="M18.555,9.278A9.277,9.277,0,1,1,9.277,0a9.277,9.277,0,0,1,9.277,9.278" fill="#d4e157"/>
    </clipPath>
    <clipPath id="clip-path-24">
      <path id="Path_873521" data-name="Path 873521" d="M18.555,9.277A9.278,9.278,0,1,1,9.278,0a9.277,9.277,0,0,1,9.277,9.277" fill="#d4e157"/>
    </clipPath>
    <clipPath id="clip-path-26">
      <path id="Path_873524" data-name="Path 873524" d="M18.555,9.277A9.278,9.278,0,1,1,9.278,0a9.278,9.278,0,0,1,9.277,9.277" fill="#d4e157"/>
    </clipPath>
    <clipPath id="clip-path-32">
      <path id="Path_873532" data-name="Path 873532" d="M18.555,9.278A9.278,9.278,0,1,1,9.278,0a9.278,9.278,0,0,1,9.277,9.278" fill="#d4e157"/>
    </clipPath>
  </defs>
  <g id="Group_1121181" data-name="Group 1121181" transform="translate(-311 -2345.126)">
    <g id="Group_1120649" data-name="Group 1120649" transform="translate(46.043 -2938.831)">
      <g id="Group_1099379" data-name="Group 1099379" transform="translate(265 5284)">
        <rect id="Rectangle_401103" data-name="Rectangle 401103" width="139" height="139" transform="translate(-0.043 -0.043)" fill="none"/>
        <path id="Path_873425" data-name="Path 873425" d="M57.977,0A57.977,57.977,0,1,1,0,57.977,57.977,57.977,0,0,1,57.977,0Z" transform="translate(17.221 20.665)" fill="#b9bfe2"/>
        <g id="Mask_Group_1100032" data-name="Mask Group 1100032" clip-path="url(#clip-path)">
          <g id="Group_1101051" data-name="Group 1101051" transform="translate(4603.382 -392.033) rotate(90)" style="isolation: isolate">
            <g id="Group_1099913" data-name="Group 1099913" transform="translate(358.539 4430.41)" clip-path="url(#clip-path-3)" style="isolation: isolate">
              <g id="Group_1099912" data-name="Group 1099912">
                <g id="Group_1099911" data-name="Group 1099911" clip-path="url(#clip-path-3)">
                  <g id="Group_1099780" data-name="Group 1099780" transform="translate(56.405 94.592)" style="isolation: isolate">
                    <g id="Group_1099779" data-name="Group 1099779" transform="translate(0 0)">
                      <g id="Group_1099778" data-name="Group 1099778" transform="translate(0 0)" clip-path="url(#clip-path-5)">
                        <g id="Group_1099777" data-name="Group 1099777" transform="translate(0 0)">
                          <g id="Group_1099776" data-name="Group 1099776" clip-path="url(#clip-path-6)">
                            <rect id="Rectangle_401246" data-name="Rectangle 401246" width="23.587" height="23.587" transform="translate(-5.714 16.586) rotate(-70.991)" fill="#d4e157"/>
                          </g>
                        </g>
                      </g>
                    </g>
                  </g>
                  <g id="Group_1099785" data-name="Group 1099785" transform="translate(56.405 113.147)" style="isolation: isolate">
                    <g id="Group_1099784" data-name="Group 1099784">
                      <g id="Group_1099783" data-name="Group 1099783" clip-path="url(#clip-path-5)">
                        <g id="Group_1099782" data-name="Group 1099782" transform="translate(0)">
                          <g id="Group_1099781" data-name="Group 1099781" clip-path="url(#clip-path-8)">
                            <rect id="Rectangle_401248" data-name="Rectangle 401248" width="23.587" height="23.587" transform="translate(-5.714 16.586) rotate(-70.991)" fill="#d4e157"/>
                          </g>
                        </g>
                      </g>
                    </g>
                  </g>
                  <g id="Group_1099790" data-name="Group 1099790" transform="translate(56.405 131.759)" style="isolation: isolate">
                    <g id="Group_1099789" data-name="Group 1099789" transform="translate(0 0)">
                      <g id="Group_1099788" data-name="Group 1099788" transform="translate(0 0)" clip-path="url(#clip-path-5)">
                        <g id="Group_1099787" data-name="Group 1099787" transform="translate(0 0)">
                          <g id="Group_1099786" data-name="Group 1099786" clip-path="url(#clip-path-6)">
                            <rect id="Rectangle_401250" data-name="Rectangle 401250" width="23.587" height="23.587" transform="translate(-5.714 16.586) rotate(-70.991)" fill="#d4e157"/>
                          </g>
                        </g>
                      </g>
                    </g>
                  </g>
                  <g id="Group_1099795" data-name="Group 1099795" transform="translate(56.405 150.314)" style="isolation: isolate">
                    <g id="Group_1099794" data-name="Group 1099794" transform="translate(0 0)">
                      <g id="Group_1099793" data-name="Group 1099793" transform="translate(0 0)" clip-path="url(#clip-path-5)">
                        <g id="Group_1099792" data-name="Group 1099792" transform="translate(0 0)">
                          <g id="Group_1099791" data-name="Group 1099791" clip-path="url(#clip-path-8)">
                            <rect id="Rectangle_401252" data-name="Rectangle 401252" width="23.587" height="23.587" transform="translate(-5.714 16.586) rotate(-70.991)" fill="#d4e157"/>
                          </g>
                        </g>
                      </g>
                    </g>
                  </g>
                  <g id="Group_1099815" data-name="Group 1099815" transform="translate(37.85 94.592)" style="isolation: isolate">
                    <g id="Group_1099814" data-name="Group 1099814" transform="translate(0 0)">
                      <g id="Group_1099813" data-name="Group 1099813" transform="translate(0 0)" clip-path="url(#clip-path-5)">
                        <g id="Group_1099812" data-name="Group 1099812" transform="translate(0 0)">
                          <g id="Group_1099811" data-name="Group 1099811" clip-path="url(#clip-path-14)">
                            <rect id="Rectangle_401260" data-name="Rectangle 401260" width="23.587" height="23.587" transform="translate(-5.714 16.586) rotate(-70.991)" fill="#d4e157"/>
                          </g>
                        </g>
                      </g>
                    </g>
                  </g>
                  <g id="Group_1099820" data-name="Group 1099820" transform="translate(56.405 75.434)" style="isolation: isolate">
                    <g id="Group_1099819" data-name="Group 1099819" transform="translate(0 0)">
                      <g id="Group_1099818" data-name="Group 1099818" transform="translate(0 0)" clip-path="url(#clip-path-5)">
                        <g id="Group_1099817" data-name="Group 1099817" transform="translate(0 0)">
                          <g id="Group_1099816" data-name="Group 1099816" clip-path="url(#clip-path-16)">
                            <rect id="Rectangle_401262" data-name="Rectangle 401262" width="23.587" height="23.587" transform="matrix(0.326, -0.945, 0.945, 0.326, -5.714, 16.587)" fill="#d4e157"/>
                          </g>
                        </g>
                      </g>
                    </g>
                  </g>
                  <g id="Group_1099825" data-name="Group 1099825" transform="translate(56.405 56.776)" style="isolation: isolate">
                    <g id="Group_1099824" data-name="Group 1099824" transform="translate(0 0)">
                      <g id="Group_1099823" data-name="Group 1099823" transform="translate(0 0)" clip-path="url(#clip-path-5)">
                        <g id="Group_1099822" data-name="Group 1099822" transform="translate(0 0)">
                          <g id="Group_1099821" data-name="Group 1099821" clip-path="url(#clip-path-6)">
                            <rect id="Rectangle_401264" data-name="Rectangle 401264" width="23.587" height="23.587" transform="translate(-5.714 16.586) rotate(-70.991)" fill="#d4e157"/>
                          </g>
                        </g>
                      </g>
                    </g>
                  </g>
                  <g id="Group_1099830" data-name="Group 1099830" transform="translate(56.405 37.88)" style="isolation: isolate">
                    <g id="Group_1099829" data-name="Group 1099829" transform="translate(0 0)">
                      <g id="Group_1099828" data-name="Group 1099828" transform="translate(0 0)" clip-path="url(#clip-path-5)">
                        <g id="Group_1099827" data-name="Group 1099827" transform="translate(0 0)">
                          <g id="Group_1099826" data-name="Group 1099826" clip-path="url(#clip-path-16)">
                            <rect id="Rectangle_401266" data-name="Rectangle 401266" width="23.587" height="23.587" transform="translate(-5.714 16.587) rotate(-70.991)" fill="#d4e157"/>
                          </g>
                        </g>
                      </g>
                    </g>
                  </g>
                  <g id="Group_1099845" data-name="Group 1099845" transform="translate(37.85 75.434)" style="isolation: isolate">
                    <g id="Group_1099844" data-name="Group 1099844" transform="translate(0 0)">
                      <g id="Group_1099843" data-name="Group 1099843" transform="translate(0 0)" clip-path="url(#clip-path-5)">
                        <g id="Group_1099842" data-name="Group 1099842" transform="translate(0 0)">
                          <g id="Group_1099841" data-name="Group 1099841" clip-path="url(#clip-path-22)">
                            <rect id="Rectangle_401272" data-name="Rectangle 401272" width="23.587" height="23.587" transform="translate(-5.714 16.587) rotate(-70.991)" fill="#d4e157"/>
                          </g>
                        </g>
                      </g>
                    </g>
                  </g>
                  <g id="Group_1099855" data-name="Group 1099855" transform="translate(37.424 113.147)" style="isolation: isolate">
                    <g id="Group_1099854" data-name="Group 1099854">
                      <g id="Group_1099853" data-name="Group 1099853" clip-path="url(#clip-path-5)">
                        <g id="Group_1099852" data-name="Group 1099852" transform="translate(0)">
                          <g id="Group_1099851" data-name="Group 1099851" transform="translate(0)" clip-path="url(#clip-path-24)">
                            <rect id="Rectangle_401276" data-name="Rectangle 401276" width="23.587" height="23.587" transform="translate(-5.714 16.586) rotate(-70.991)" fill="#d4e157"/>
                          </g>
                        </g>
                      </g>
                    </g>
                  </g>
                  <g id="Group_1099870" data-name="Group 1099870" transform="translate(37.424 131.759)" style="isolation: isolate">
                    <g id="Group_1099869" data-name="Group 1099869" transform="translate(0 0)">
                      <g id="Group_1099868" data-name="Group 1099868" transform="translate(0 0)" clip-path="url(#clip-path-5)">
                        <g id="Group_1099867" data-name="Group 1099867" transform="translate(0 0)">
                          <g id="Group_1099866" data-name="Group 1099866" transform="translate(0)" clip-path="url(#clip-path-26)">
                            <rect id="Rectangle_401282" data-name="Rectangle 401282" width="23.587" height="23.587" transform="translate(-5.714 16.586) rotate(-70.991)" fill="#d4e157"/>
                          </g>
                        </g>
                      </g>
                    </g>
                  </g>
                  <g id="Group_1099885" data-name="Group 1099885" transform="translate(37.424 150.314)" style="isolation: isolate">
                    <g id="Group_1099884" data-name="Group 1099884" transform="translate(0 0)">
                      <g id="Group_1099883" data-name="Group 1099883" transform="translate(0 0)" clip-path="url(#clip-path-5)">
                        <g id="Group_1099882" data-name="Group 1099882" transform="translate(0 0)">
                          <g id="Group_1099881" data-name="Group 1099881" transform="translate(0)" clip-path="url(#clip-path-24)">
                            <rect id="Rectangle_401288" data-name="Rectangle 401288" width="23.587" height="23.587" transform="translate(-5.714 16.586) rotate(-70.991)" fill="#d4e157"/>
                          </g>
                        </g>
                      </g>
                    </g>
                  </g>
                  <g id="Group_1099900" data-name="Group 1099900" transform="translate(37.85 56.861)" style="isolation: isolate">
                    <g id="Group_1099899" data-name="Group 1099899" transform="translate(0 0)">
                      <g id="Group_1099898" data-name="Group 1099898" transform="translate(0 0)" clip-path="url(#clip-path-5)">
                        <g id="Group_1099897" data-name="Group 1099897" transform="translate(0 0)">
                          <g id="Group_1099896" data-name="Group 1099896" clip-path="url(#clip-path-22)">
                            <rect id="Rectangle_401294" data-name="Rectangle 401294" width="23.587" height="23.587" transform="translate(-5.714 16.587) rotate(-70.991)" fill="#d4e157"/>
                          </g>
                        </g>
                      </g>
                    </g>
                  </g>
                  <g id="Group_1099910" data-name="Group 1099910" transform="translate(37.424 37.88)" style="isolation: isolate">
                    <g id="Group_1099909" data-name="Group 1099909" transform="translate(0 0)">
                      <g id="Group_1099908" data-name="Group 1099908" transform="translate(0 0)" clip-path="url(#clip-path-5)">
                        <g id="Group_1099907" data-name="Group 1099907" transform="translate(0 0)">
                          <g id="Group_1099906" data-name="Group 1099906" transform="translate(0)" clip-path="url(#clip-path-32)">
                            <rect id="Rectangle_401298" data-name="Rectangle 401298" width="23.587" height="23.587" transform="matrix(0.326, -0.945, 0.945, 0.326, -5.714, 16.587)" fill="#d4e157"/>
                          </g>
                        </g>
                      </g>
                    </g>
                  </g>
                </g>
              </g>
            </g>
          </g>
        </g>
        <circle id="Ellipse_11503" data-name="Ellipse 11503" cx="60.5" cy="60.5" r="60.5" transform="translate(8.957 8.957)" fill="#f1f8e9"/>
      </g>
    </g>
    <g id="Group_1120651" data-name="Group 1120651" transform="translate(-7 -4048.875)">
      <g id="Group_1099389" data-name="Group 1099389" transform="translate(347.893 6422.744)">
        <rect id="Rectangle_401104" data-name="Rectangle 401104" width="78" height="79" transform="translate(0.107 0.256)" fill="none"/>
      </g>
      <path id="Path_908288" data-name="Path 908288" d="M81.025,37.174A35.417,35.417,0,0,1,47,82.409q-1.294,0-2.587-.094a1.258,1.258,0,0,1-1.922,1.344l-3.3-2.2a1.258,1.258,0,0,1,.143-2.174L42.9,77.527a1.258,1.258,0,0,1,1.157,2.234c.98.087,1.964.131,2.948.131A32.916,32.916,0,0,0,78.608,37.87a1.258,1.258,0,1,1,2.417-.7ZM14.182,57.736a1.259,1.259,0,0,0,1.209-1.607A32.916,32.916,0,0,1,47,14.108q1.2,0,2.408.088a1.258,1.258,0,0,0,1.424,1.964l3.714-1.389a1.258,1.258,0,0,0,.359-2.149L51.845,10.1a1.258,1.258,0,0,0-1.88,1.616c-.986-.082-1.976-.124-2.965-.124A35.432,35.432,0,0,0,12.974,56.826a1.258,1.258,0,0,0,1.208.91Zm18.7,15.823A12.441,12.441,0,1,1,20.441,61.117,12.455,12.455,0,0,1,32.883,73.559Zm-2.516,0a9.925,9.925,0,1,0-9.925,9.925A9.937,9.937,0,0,0,30.367,73.559Zm-9.711-1.282c-2.121-.348-2.158-1.119-2.172-1.41-.053-1.1,1.147-1.425,1.389-1.479a2.276,2.276,0,0,1,2.7,1.261,1.258,1.258,0,1,0,2.32-.974,4.539,4.539,0,0,0-3.194-2.72v-.472a1.258,1.258,0,0,0-2.516,0v.484a3.974,3.974,0,0,0-3.213,4.024c.068,1.411.866,3.211,4.278,3.771,2.37.389,2.47,1.215,2.513,1.568a.887.887,0,0,1-.2.744,2.9,2.9,0,0,1-2,.724,2.33,2.33,0,0,1-2.483-1.533,1.258,1.258,0,0,0-2.441.609,4.55,4.55,0,0,0,3.55,3.3v.462a1.258,1.258,0,0,0,2.516,0v-.44a4.866,4.866,0,0,0,2.763-1.477,3.385,3.385,0,0,0,.8-2.694c-.246-2.026-1.8-3.287-4.6-3.748ZM61.117,20.441A12.441,12.441,0,1,1,73.559,32.883,12.455,12.455,0,0,1,61.117,20.441Zm2.516,0a9.925,9.925,0,1,0,9.925-9.925A9.936,9.936,0,0,0,63.633,20.441Zm10.041,4.237a2.329,2.329,0,0,1-2.483-1.533,1.258,1.258,0,0,0-2.441.609,4.55,4.55,0,0,0,3.55,3.3v.462a1.258,1.258,0,1,0,2.516,0v-.44A4.864,4.864,0,0,0,77.58,25.6a3.385,3.385,0,0,0,.8-2.694c-.246-2.026-1.794-3.287-4.6-3.748-2.121-.348-2.158-1.119-2.172-1.41-.053-1.1,1.147-1.425,1.389-1.48a2.276,2.276,0,0,1,2.7,1.261,1.258,1.258,0,0,0,2.32-.974,4.539,4.539,0,0,0-3.194-2.72v-.472a1.258,1.258,0,1,0-2.516,0v.484a3.974,3.974,0,0,0-3.213,4.024c.068,1.411.866,3.21,4.278,3.771,2.37.389,2.47,1.215,2.513,1.568a.887.887,0,0,1-.2.744,2.9,2.9,0,0,1-2,.724ZM54.511,23.393a1.258,1.258,0,0,1,1.258,1.258v2.656h3.4a1.258,1.258,0,0,1,1.258,1.258v8.514h8.171a1.258,1.258,0,0,1,1.258,1.258V60.264a1.258,1.258,0,0,1-1.258,1.258H30.009a1.258,1.258,0,0,1-1.258-1.258V38.337a1.258,1.258,0,0,1,1.258-1.258H38.18V28.565a1.258,1.258,0,0,1,1.258-1.258h3.481V24.651a1.258,1.258,0,0,1,1.258-1.258H54.511ZM31.267,59.006h6.913V39.6H31.267Zm21.289-7.364H46.33v7.364h6.226ZM60.423,39.6v19.41h6.913V39.6Zm-2.516-9.772H40.7V59.005h3.118V50.383a1.258,1.258,0,0,1,1.258-1.258h8.742a1.258,1.258,0,0,1,1.258,1.258v8.622h2.835Zm-4.654-2.516v-1.4H45.435v1.4ZM48.515,34h1.573a.473.473,0,0,0,.472-.472V31.958a.473.473,0,0,0-.472-.472H48.515a.473.473,0,0,0-.472.472V33.53A.473.473,0,0,0,48.515,34Zm5.124,0h1.573a.473.473,0,0,0,.472-.472V31.958a.473.473,0,0,0-.472-.472H53.639a.473.473,0,0,0-.472.472V33.53A.473.473,0,0,0,53.639,34ZM43.391,34h1.573a.473.473,0,0,0,.472-.472V31.958a.473.473,0,0,0-.472-.472H43.391a.473.473,0,0,0-.472.472V33.53A.473.473,0,0,0,43.391,34Zm0,4.572h1.573a.473.473,0,0,0,.472-.472V36.53a.473.473,0,0,0-.472-.472H43.391a.473.473,0,0,0-.472.472V38.1A.473.473,0,0,0,43.391,38.574Zm5.124,0h1.573a.473.473,0,0,0,.472-.472V36.53a.473.473,0,0,0-.472-.472H48.515a.473.473,0,0,0-.472.472V38.1A.473.473,0,0,0,48.515,38.574Zm5.124,0h1.573a.473.473,0,0,0,.472-.472V36.53a.473.473,0,0,0-.472-.472H53.639a.473.473,0,0,0-.472.472V38.1A.473.473,0,0,0,53.639,38.574ZM43.391,43.146h1.573a.473.473,0,0,0,.472-.472V41.1a.473.473,0,0,0-.472-.472H43.391a.473.473,0,0,0-.472.472v1.573A.473.473,0,0,0,43.391,43.146Zm5.124,0h1.573a.473.473,0,0,0,.472-.472V41.1a.473.473,0,0,0-.472-.472H48.515a.473.473,0,0,0-.472.472v1.573A.473.473,0,0,0,48.515,43.146Zm5.124,0h1.573a.473.473,0,0,0,.472-.472V41.1a.473.473,0,0,0-.472-.472H53.639a.473.473,0,0,0-.472.472v1.573A.473.473,0,0,0,53.639,43.146ZM43.391,47.718h1.573a.473.473,0,0,0,.472-.472V45.673a.473.473,0,0,0-.472-.472H43.391a.473.473,0,0,0-.472.472v1.573A.473.473,0,0,0,43.391,47.718Zm10.249,0h1.573a.473.473,0,0,0,.472-.472V45.673a.473.473,0,0,0-.472-.472H53.639a.473.473,0,0,0-.472.472v1.573A.473.473,0,0,0,53.639,47.718Zm-5.124,0h1.573a.473.473,0,0,0,.472-.472V45.673a.473.473,0,0,0-.472-.472H48.515a.473.473,0,0,0-.472.472v1.573A.473.473,0,0,0,48.515,47.718ZM35.509,53.167H33.937a.473.473,0,0,0-.472.472v1.573a.473.473,0,0,0,.472.472h1.573a.473.473,0,0,0,.472-.472V53.638A.473.473,0,0,0,35.509,53.167Zm0-5.124H33.937a.473.473,0,0,0-.472.472v1.573a.473.473,0,0,0,.472.472h1.573a.473.473,0,0,0,.472-.472V48.514A.473.473,0,0,0,35.509,48.042Zm0-5.124H33.937a.473.473,0,0,0-.472.472v1.573a.473.473,0,0,0,.472.472h1.573a.473.473,0,0,0,.472-.472V43.39A.473.473,0,0,0,35.509,42.918ZM63.093,55.683h1.573a.473.473,0,0,0,.472-.472V53.638a.473.473,0,0,0-.472-.472H63.093a.473.473,0,0,0-.472.472v1.573A.473.473,0,0,0,63.093,55.683Zm0-5.124h1.573a.473.473,0,0,0,.472-.472V48.514a.473.473,0,0,0-.472-.472H63.093a.473.473,0,0,0-.472.472v1.573A.473.473,0,0,0,63.093,50.558Zm0-5.124h1.573a.473.473,0,0,0,.472-.472V43.39a.473.473,0,0,0-.472-.472H63.093a.473.473,0,0,0-.472.472v1.573A.473.473,0,0,0,63.093,45.434Z" transform="translate(340 6415.516)" fill="#474d41"/>
    </g>
  </g>
</svg>
