<svg xmlns="http://www.w3.org/2000/svg" xmlns:xlink="http://www.w3.org/1999/xlink" width="99" height="99" viewBox="0 0 99 99">
  <defs>
    <clipPath id="clip-path">
      <rect id="Rectangle_401273" data-name="Rectangle 401273" width="15.047" height="15.048" fill="#f6f8de"/>
    </clipPath>
    <clipPath id="clip-path-2">
      <path id="Path_873519" data-name="Path 873519" d="M15.047,7.524A7.524,7.524,0,1,1,7.524,0a7.524,7.524,0,0,1,7.524,7.524" fill="#f6f8de"/>
    </clipPath>
  </defs>
  <g id="Group_1120618" data-name="Group 1120618" transform="translate(8416 10546)">
    <rect id="Rectangle_409541" data-name="Rectangle 409541" width="99" height="99" rx="49.5" transform="translate(-8416 -10546)" fill="#f3f9ff"/>
    <g id="Group_1119773" data-name="Group 1119773" transform="translate(-9363.627 -19681.033)">
      <g id="Group_1099855" data-name="Group 1099855" transform="translate(948.664 9139)">
        <g id="Group_1099808" data-name="Group 1099808">
          <g id="Group_1101062" data-name="Group 1101062" transform="translate(-307.943 -6779.151)">
            <g id="Group_1101056" data-name="Group 1101056" transform="translate(330.953 6828.445) rotate(90)" opacity="0.998" style="isolation: isolate">
              <g id="Group_1099844" data-name="Group 1099844" transform="translate(0 0)">
                <g id="Group_1099843" data-name="Group 1099843" transform="translate(0 0)" clip-path="url(#clip-path)">
                  <g id="Group_1099842" data-name="Group 1099842" transform="translate(0 0)">
                    <g id="Group_1099841" data-name="Group 1099841" clip-path="url(#clip-path-2)">
                      <rect id="Rectangle_401272" data-name="Rectangle 401272" width="19.128" height="19.128" transform="translate(-4.634 13.451) rotate(-70.991)" fill="#f6f8de"/>
                    </g>
                  </g>
                </g>
              </g>
            </g>
            <g id="Group_1101057" data-name="Group 1101057" transform="translate(330.953 6843.492) rotate(90)" opacity="0.998" style="isolation: isolate">
              <g id="Group_1099844-2" data-name="Group 1099844" transform="translate(0 0)">
                <g id="Group_1099843-2" data-name="Group 1099843" transform="translate(0 0)" clip-path="url(#clip-path)">
                  <g id="Group_1099842-2" data-name="Group 1099842" transform="translate(0 0)">
                    <g id="Group_1099841-2" data-name="Group 1099841" clip-path="url(#clip-path-2)">
                      <rect id="Rectangle_401272-2" data-name="Rectangle 401272" width="19.128" height="19.128" transform="translate(-4.634 13.451) rotate(-70.991)" fill="#f6f8de"/>
                    </g>
                  </g>
                </g>
              </g>
            </g>
            <g id="Group_1101058" data-name="Group 1101058" transform="translate(330.953 6858.54) rotate(90)" opacity="0.998" style="isolation: isolate">
              <g id="Group_1099844-3" data-name="Group 1099844" transform="translate(0 0)">
                <g id="Group_1099843-3" data-name="Group 1099843" transform="translate(0 0)" clip-path="url(#clip-path)">
                  <g id="Group_1099842-3" data-name="Group 1099842" transform="translate(0 0)">
                    <g id="Group_1099841-3" data-name="Group 1099841" clip-path="url(#clip-path-2)">
                      <rect id="Rectangle_401272-3" data-name="Rectangle 401272" width="19.128" height="19.128" transform="translate(-4.634 13.451) rotate(-70.991)" fill="#f6f8de"/>
                    </g>
                  </g>
                </g>
              </g>
            </g>
            <g id="Group_1101059" data-name="Group 1101059" transform="translate(346 6858.676) rotate(90)" opacity="0.998" style="isolation: isolate">
              <g id="Group_1099844-4" data-name="Group 1099844" transform="translate(0 0)">
                <g id="Group_1099843-4" data-name="Group 1099843" transform="translate(0 0)" clip-path="url(#clip-path)">
                  <g id="Group_1099842-4" data-name="Group 1099842" transform="translate(0 0)">
                    <g id="Group_1099841-4" data-name="Group 1099841" clip-path="url(#clip-path-2)">
                      <rect id="Rectangle_401272-4" data-name="Rectangle 401272" width="19.128" height="19.128" transform="translate(-4.634 13.451) rotate(-70.991)" fill="#f6f8de"/>
                    </g>
                  </g>
                </g>
              </g>
            </g>
            <g id="Group_1101060" data-name="Group 1101060" transform="translate(346 6843.492) rotate(90)" opacity="0.998" style="isolation: isolate">
              <g id="Group_1099844-5" data-name="Group 1099844" transform="translate(0 0)">
                <g id="Group_1099843-5" data-name="Group 1099843" transform="translate(0 0)" clip-path="url(#clip-path)">
                  <g id="Group_1099842-5" data-name="Group 1099842" transform="translate(0 0)">
                    <g id="Group_1099841-5" data-name="Group 1099841" clip-path="url(#clip-path-2)">
                      <rect id="Rectangle_401272-5" data-name="Rectangle 401272" width="19.128" height="19.128" transform="translate(-4.634 13.451) rotate(-70.991)" fill="#f6f8de"/>
                    </g>
                  </g>
                </g>
              </g>
            </g>
            <g id="Group_1101061" data-name="Group 1101061" transform="translate(361.047 6858.676) rotate(90)" opacity="0.998" style="isolation: isolate">
              <g id="Group_1099844-6" data-name="Group 1099844" transform="translate(0 0)">
                <g id="Group_1099843-6" data-name="Group 1099843" transform="translate(0 0)" clip-path="url(#clip-path)">
                  <g id="Group_1099842-6" data-name="Group 1099842" transform="translate(0 0)">
                    <g id="Group_1099841-6" data-name="Group 1099841" clip-path="url(#clip-path-2)">
                      <rect id="Rectangle_401272-6" data-name="Rectangle 401272" width="19.128" height="19.128" transform="translate(-4.634 13.451) rotate(-70.991)" fill="#f6f8de"/>
                    </g>
                  </g>
                </g>
              </g>
            </g>
          </g>
          <g id="Group_1099776" data-name="Group 1099776" transform="translate(20.038 16.035)">
            <g id="Group_1099618" data-name="Group 1099618" transform="translate(0 0)">
              <rect id="Rectangle_401104" data-name="Rectangle 401104" width="57.823" height="58.52" transform="translate(0)" fill="none"/>
            </g>
            <g id="Group_1120658" data-name="Group 1120658" transform="translate(0.021 0.099)">
              <path id="Path_907124" data-name="Path 907124" d="M115.072,125.283h16.613a.847.847,0,0,0,0-1.693H115.072A.847.847,0,0,0,115.072,125.283Z" transform="translate(-101.351 -109.638)" fill="#474d41"/>
              <path id="Path_907125" data-name="Path 907125" d="M115.072,180.308h12.775a.847.847,0,0,0,0-1.693H115.072A.847.847,0,0,0,115.072,180.308Z" transform="translate(-101.351 -158.451)" fill="#474d41"/>
              <path id="Path_907126" data-name="Path 907126" d="M115.072,235.333h10.969a.847.847,0,0,0,0-1.693H115.072A.847.847,0,0,0,115.072,235.333Z" transform="translate(-101.351 -207.264)" fill="#474d41"/>
              <path id="Path_907127" data-name="Path 907127" d="M131,330.6h-.561v-8.275a.847.847,0,0,0-.847-.847h-3.4v-2.985a.847.847,0,0,0-.847-.847h-4.234a.847.847,0,0,0-.847.847v5.152H116.88a.847.847,0,0,0-.847.847V330.6h-.561a.847.847,0,1,0,0,1.693H131a.847.847,0,0,0,0-1.693Zm-13.278,0v-5.261h2.541V330.6Zm4.238,0v-11.26h2.541V330.6Zm4.244,0v-7.428h2.541V330.6Z" transform="translate(-101.684 -281.786)" fill="#474d41"/>
              <path id="Path_907128" data-name="Path 907128" d="M57.8,26.372A13.978,13.978,0,0,0,49.64,14.1c-.025-.014-.05-.027-.077-.039a.831.831,0,0,0-.082-.032,14.019,14.019,0,0,0-6.015-1.183V8.182A1.969,1.969,0,0,0,41.5,6.216H40.278V5.159a1.969,1.969,0,0,0-1.966-1.967H37.087V1.967A1.969,1.969,0,0,0,35.121,0H1.968A1.969,1.969,0,0,0,0,1.967V49.619a1.969,1.969,0,0,0,1.966,1.967H3.193v1.225a1.968,1.968,0,0,0,1.963,1.967l1.225,0v1.052A1.969,1.969,0,0,0,8.347,57.8H34.8a.855.855,0,0,0,.6-.247l7.824-7.787a.847.847,0,0,0,.249-.6V40.774c.114,0,.228.006.342.006A14.048,14.048,0,0,0,50.65,39a.847.847,0,0,0-.828-1.477,12.317,12.317,0,0,1-14.053-1.463l8.315-8.315L55.45,30.762a12.159,12.159,0,0,1-2.38,4.127.847.847,0,0,0,1.273,1.116A13.913,13.913,0,0,0,57.8,26.372ZM48.082,15.291,43.12,26.318,34.57,34.869A12.276,12.276,0,0,1,48.082,15.291ZM5.159,53.084a.273.273,0,0,1-.273-.273V5.159a.273.273,0,0,1,.273-.273h5.906a.847.847,0,0,0,0-1.693H5.159A1.969,1.969,0,0,0,3.193,5.159V49.892H1.968a.273.273,0,0,1-.273-.273V1.967a.273.273,0,0,1,.273-.273H35.121a.273.273,0,0,1,.273.273V3.192H15.807a.847.847,0,0,0,0,1.693h22.5a.273.273,0,0,1,.273.273V6.216H8.347A1.969,1.969,0,0,0,6.38,8.182V53.089Zm2.915,2.751V8.182a.273.273,0,0,1,.273-.273H41.5a.273.273,0,0,1,.273.273v4.811a13.969,13.969,0,0,0,0,27.633v7.622H35.915a1.969,1.969,0,0,0-1.966,1.967v5.893H8.347a.273.273,0,0,1-.273-.273ZM35.642,54.9V50.215a.273.273,0,0,1,.273-.273h4.667Zm9.369-28.66,4.616-10.26A12.271,12.271,0,0,1,55.88,29.125Z" fill="#474d41"/>
            </g>
          </g>
        </g>
      </g>
    </g>
  </g>
</svg>
