<svg xmlns="http://www.w3.org/2000/svg" xmlns:xlink="http://www.w3.org/1999/xlink" width="99" height="99" viewBox="0 0 99 99">
  <defs>
    <clipPath id="clip-path">
      <rect id="Rectangle_401273" data-name="Rectangle 401273" width="15.047" height="15.048" fill="#f6f8de"/>
    </clipPath>
    <clipPath id="clip-path-2">
      <path id="Path_873519" data-name="Path 873519" d="M15.047,7.524A7.524,7.524,0,1,1,7.524,0a7.524,7.524,0,0,1,7.524,7.524" fill="#f6f8de"/>
    </clipPath>
  </defs>
  <g id="Group_1120617" data-name="Group 1120617" transform="translate(-732.711 -1154)">
    <rect id="Rectangle_409535" data-name="Rectangle 409535" width="99" height="99" rx="49.5" transform="translate(732.711 1154)" fill="#f3f9ff"/>
    <g id="Group_1119770" data-name="Group 1119770" transform="translate(-214.916 -7981.033)">
      <g id="Group_1099855" data-name="Group 1099855" transform="translate(948.664 9139)">
        <g id="Group_1099808" data-name="Group 1099808">
          <g id="Group_1101062" data-name="Group 1101062" transform="translate(-307.943 -6779.151)">
            <g id="Group_1101056" data-name="Group 1101056" transform="translate(330.953 6828.445) rotate(90)" opacity="0.998" style="isolation: isolate">
              <g id="Group_1099844" data-name="Group 1099844" transform="translate(0 0)">
                <g id="Group_1099843" data-name="Group 1099843" transform="translate(0 0)" clip-path="url(#clip-path)">
                  <g id="Group_1099842" data-name="Group 1099842" transform="translate(0 0)">
                    <g id="Group_1099841" data-name="Group 1099841" clip-path="url(#clip-path-2)">
                      <rect id="Rectangle_401272" data-name="Rectangle 401272" width="19.128" height="19.128" transform="translate(-4.634 13.451) rotate(-70.991)" fill="#f6f8de"/>
                    </g>
                  </g>
                </g>
              </g>
            </g>
            <g id="Group_1101057" data-name="Group 1101057" transform="translate(330.953 6843.492) rotate(90)" opacity="0.998" style="isolation: isolate">
              <g id="Group_1099844-2" data-name="Group 1099844" transform="translate(0 0)">
                <g id="Group_1099843-2" data-name="Group 1099843" transform="translate(0 0)" clip-path="url(#clip-path)">
                  <g id="Group_1099842-2" data-name="Group 1099842" transform="translate(0 0)">
                    <g id="Group_1099841-2" data-name="Group 1099841" clip-path="url(#clip-path-2)">
                      <rect id="Rectangle_401272-2" data-name="Rectangle 401272" width="19.128" height="19.128" transform="translate(-4.634 13.451) rotate(-70.991)" fill="#f6f8de"/>
                    </g>
                  </g>
                </g>
              </g>
            </g>
            <g id="Group_1101058" data-name="Group 1101058" transform="translate(330.953 6858.54) rotate(90)" opacity="0.998" style="isolation: isolate">
              <g id="Group_1099844-3" data-name="Group 1099844" transform="translate(0 0)">
                <g id="Group_1099843-3" data-name="Group 1099843" transform="translate(0 0)" clip-path="url(#clip-path)">
                  <g id="Group_1099842-3" data-name="Group 1099842" transform="translate(0 0)">
                    <g id="Group_1099841-3" data-name="Group 1099841" clip-path="url(#clip-path-2)">
                      <rect id="Rectangle_401272-3" data-name="Rectangle 401272" width="19.128" height="19.128" transform="translate(-4.634 13.451) rotate(-70.991)" fill="#f6f8de"/>
                    </g>
                  </g>
                </g>
              </g>
            </g>
            <g id="Group_1101059" data-name="Group 1101059" transform="translate(346 6858.676) rotate(90)" opacity="0.998" style="isolation: isolate">
              <g id="Group_1099844-4" data-name="Group 1099844" transform="translate(0 0)">
                <g id="Group_1099843-4" data-name="Group 1099843" transform="translate(0 0)" clip-path="url(#clip-path)">
                  <g id="Group_1099842-4" data-name="Group 1099842" transform="translate(0 0)">
                    <g id="Group_1099841-4" data-name="Group 1099841" clip-path="url(#clip-path-2)">
                      <rect id="Rectangle_401272-4" data-name="Rectangle 401272" width="19.128" height="19.128" transform="translate(-4.634 13.451) rotate(-70.991)" fill="#f6f8de"/>
                    </g>
                  </g>
                </g>
              </g>
            </g>
            <g id="Group_1101060" data-name="Group 1101060" transform="translate(346 6843.492) rotate(90)" opacity="0.998" style="isolation: isolate">
              <g id="Group_1099844-5" data-name="Group 1099844" transform="translate(0 0)">
                <g id="Group_1099843-5" data-name="Group 1099843" transform="translate(0 0)" clip-path="url(#clip-path)">
                  <g id="Group_1099842-5" data-name="Group 1099842" transform="translate(0 0)">
                    <g id="Group_1099841-5" data-name="Group 1099841" clip-path="url(#clip-path-2)">
                      <rect id="Rectangle_401272-5" data-name="Rectangle 401272" width="19.128" height="19.128" transform="translate(-4.634 13.451) rotate(-70.991)" fill="#f6f8de"/>
                    </g>
                  </g>
                </g>
              </g>
            </g>
            <g id="Group_1101061" data-name="Group 1101061" transform="translate(361.047 6858.676) rotate(90)" opacity="0.998" style="isolation: isolate">
              <g id="Group_1099844-6" data-name="Group 1099844" transform="translate(0 0)">
                <g id="Group_1099843-6" data-name="Group 1099843" transform="translate(0 0)" clip-path="url(#clip-path)">
                  <g id="Group_1099842-6" data-name="Group 1099842" transform="translate(0 0)">
                    <g id="Group_1099841-6" data-name="Group 1099841" clip-path="url(#clip-path-2)">
                      <rect id="Rectangle_401272-6" data-name="Rectangle 401272" width="19.128" height="19.128" transform="translate(-4.634 13.451) rotate(-70.991)" fill="#f6f8de"/>
                    </g>
                  </g>
                </g>
              </g>
            </g>
          </g>
          <g id="Group_1099776" data-name="Group 1099776" transform="translate(18.093 22.176)">
            <g id="Group_1099618" data-name="Group 1099618" transform="translate(0 -0.644)">
              <rect id="Rectangle_401104" data-name="Rectangle 401104" width="50.275" height="50.881" transform="translate(0)" fill="none"/>
            </g>
            <g id="Group_1120656" data-name="Group 1120656" transform="translate(0 -4.935)">
              <path id="Path_907104" data-name="Path 907104" d="M47.405.005H6.692A6.7,6.7,0,0,0,0,6.7V43.971a6.7,6.7,0,0,0,6.692,6.694H18.578v1.852H17.36a.792.792,0,1,0,0,1.585H50.135a.792.792,0,1,0,0-1.585H47.51V50.662A6.7,6.7,0,0,0,54.1,43.971V6.7A6.7,6.7,0,0,0,47.405.005ZM20.163,52.517V40.458a1,1,0,0,1,1-1h2.951a1,1,0,0,1,1,1V52.517ZM26.7,47.495h2.286V49.08H26.7Zm0,3.17h2.286v1.852H26.7Zm3.871,1.852V43.652a1,1,0,0,1,1-1h2.951a1,1,0,0,1,1,1v8.865ZM37.1,47.495H39.39V49.08H37.1Zm0,3.17H39.39v1.852H37.1Zm3.871,1.852V36.159a1,1,0,0,1,1-1h2.951a1,1,0,0,1,1,1v2.875a.792.792,0,1,0,1.585,0V36.159a2.587,2.587,0,0,0-2.584-2.584H41.974a2.587,2.587,0,0,0-2.584,2.584V45.91H37.1V43.652a2.587,2.587,0,0,0-2.584-2.584H31.568a2.587,2.587,0,0,0-2.584,2.584V45.91H26.7V40.458a2.587,2.587,0,0,0-2.584-2.584H21.162a2.587,2.587,0,0,0-2.584,2.584V45.91H6.692a1.94,1.94,0,0,1-1.938-1.938V13.627a2.553,2.553,0,0,1,2.551-2.551H46.792a2.553,2.553,0,0,1,2.551,2.551V43.972A1.939,1.939,0,0,1,47.51,45.9V42.2a.792.792,0,0,0-1.585,0V52.517Zm11.538-8.546a5.113,5.113,0,0,1-5,5.106V47.492a3.526,3.526,0,0,0,3.418-3.52V13.627a4.14,4.14,0,0,0-4.136-4.136H7.305A4.14,4.14,0,0,0,3.17,13.627V43.972a3.527,3.527,0,0,0,3.523,3.523H18.578V49.08H6.692a5.114,5.114,0,0,1-5.108-5.109V6.7A5.113,5.113,0,0,1,6.692,1.59H47.405A5.113,5.113,0,0,1,52.513,6.7Z" transform="translate(0 -0.005)" fill="#474d41"/>
              <path id="Path_907105" data-name="Path 907105" d="M32.725,27.6a2.725,2.725,0,1,0,2.725,2.725A2.728,2.728,0,0,0,32.725,27.6Zm0,3.865a1.14,1.14,0,1,1,1.14-1.14A1.141,1.141,0,0,1,32.725,31.467Z" transform="translate(-26.83 -24.686)" fill="#474d41"/>
              <path id="Path_907106" data-name="Path 907106" d="M90.872,27.6A2.725,2.725,0,1,0,93.6,30.327,2.728,2.728,0,0,0,90.872,27.6Zm0,3.865a1.14,1.14,0,1,1,1.14-1.14A1.141,1.141,0,0,1,90.872,31.467Z" transform="translate(-78.833 -24.686)" fill="#474d41"/>
              <path id="Path_907107" data-name="Path 907107" d="M149.019,27.6a2.725,2.725,0,1,0,2.725,2.725A2.728,2.728,0,0,0,149.019,27.6Zm0,3.865a1.14,1.14,0,1,1,1.14-1.14A1.141,1.141,0,0,1,149.019,31.467Z" transform="translate(-130.837 -24.686)" fill="#474d41"/>
              <path id="Path_907108" data-name="Path 907108" d="M360.907,148.172a9.661,9.661,0,0,1-2.472-1.153.985.985,0,0,1-.255-.956,1.347,1.347,0,0,1,.626-.919v1.137a.792.792,0,0,0,1.585,0v-1.243a1.945,1.945,0,0,1,.626.324.792.792,0,0,0,1.014-1.218,3.665,3.665,0,0,0-1.64-.735v-.552a.792.792,0,0,0-1.585,0v.609c-.073.018-.146.037-.221.06a2.863,2.863,0,0,0-1.962,2.245,2.534,2.534,0,0,0,.834,2.5,10.208,10.208,0,0,0,2.922,1.4,1.46,1.46,0,0,1,1.038,1.692,1.877,1.877,0,0,1-1.027,1.374v-2a.792.792,0,1,0-1.585,0v2.155a2.673,2.673,0,0,1-1.289-.521.792.792,0,1,0-.868,1.326,4.152,4.152,0,0,0,2.157.786v.618a.792.792,0,0,0,1.585,0V154.4a3.469,3.469,0,0,0,2.59-2.78,3.013,3.013,0,0,0-2.073-3.449Z" transform="translate(-318.645 -127.054)" fill="#474d41"/>
              <path id="Path_907109" data-name="Path 907109" d="M96.094,147.066l-5.3-2.2V133.32a3.539,3.539,0,0,0-3.534-3.535H73.784a.792.792,0,1,0,0,1.585h9.248v3.688H66.265V133.32a1.952,1.952,0,0,1,1.949-1.95h2.4a.792.792,0,0,0,0-1.585h-2.4a3.539,3.539,0,0,0-3.534,3.535v15.42a3.538,3.538,0,0,0,3.534,3.534H87.255a3.518,3.518,0,0,0,1.241-.227l.768,1.848a1.8,1.8,0,0,0,1.682,1.127q.066,0,.132,0a1.8,1.8,0,0,0,1.644-1.36l.615-2.346a.244.244,0,0,1,.174-.174l2.346-.615a1.829,1.829,0,0,0,.238-3.458ZM88.5,143.911a1.829,1.829,0,0,0-2.521,1.506H84.617v-3.594H89.2V144.2Zm-22.234-2.088H83.032v3.594H66.265Zm22.94-1.585H84.617v-3.594H89.2Zm-4.588-8.868h2.638a1.952,1.952,0,0,1,1.949,1.95v1.738H84.617Zm-1.585,5.273v3.594H66.265v-3.594Zm-16.767,12.1V147H83.032v3.689H68.214A1.952,1.952,0,0,1,66.265,148.74Zm20.99,1.949H84.617V147H86.4l1.488,3.583a1.943,1.943,0,0,1-.633.105Zm8.38-1.919a.227.227,0,0,1-.181.219l-2.346.615a1.831,1.831,0,0,0-1.305,1.3l-.615,2.346a.241.241,0,0,1-.461.032l-3.155-7.595a.241.241,0,0,1,.319-.319l7.595,3.155A.227.227,0,0,1,95.635,148.771Z" transform="translate(-57.846 -116.072)" fill="#474d41"/>
            </g>
          </g>
        </g>
      </g>
    </g>
  </g>
</svg>
