<svg xmlns="http://www.w3.org/2000/svg" xmlns:xlink="http://www.w3.org/1999/xlink" width="85" height="85" viewBox="0 0 85 85">
  <defs>
    <clipPath id="clip-path">
      <rect id="Rectangle_401273" data-name="Rectangle 401273" width="12.919" height="12.92" fill="#f6f8de"/>
    </clipPath>
    <clipPath id="clip-path-2">
      <path id="Path_873519" data-name="Path 873519" d="M12.919,6.46A6.46,6.46,0,1,1,6.46,0a6.46,6.46,0,0,1,6.46,6.46" fill="#f6f8de"/>
    </clipPath>
  </defs>
  <g id="Group_1120620" data-name="Group 1120620" transform="translate(3870 6172)">
    <rect id="Rectangle_409320" data-name="Rectangle 409320" width="85" height="85" rx="42.5" transform="translate(-3870 -6172)" fill="#fff"/>
    <g id="Group_1119330" data-name="Group 1119330" transform="translate(-3862.273 -6154.828)">
      <g id="Group_1099855" data-name="Group 1099855" transform="translate(0 0)">
        <g id="Group_1099808" data-name="Group 1099808" transform="translate(0 0)">
          <g id="Group_1101062" data-name="Group 1101062" transform="translate(0 28.556)">
            <g id="Group_1101056" data-name="Group 1101056" transform="translate(12.92) rotate(90)" opacity="0.998" style="isolation: isolate">
              <g id="Group_1099844" data-name="Group 1099844" transform="translate(0 0)">
                <g id="Group_1099843" data-name="Group 1099843" transform="translate(0 0)" clip-path="url(#clip-path)">
                  <g id="Group_1099842" data-name="Group 1099842" transform="translate(0 0)">
                    <g id="Group_1099841" data-name="Group 1099841" clip-path="url(#clip-path-2)">
                      <rect id="Rectangle_401272" data-name="Rectangle 401272" width="16.423" height="16.423" transform="translate(-3.979 11.549) rotate(-70.991)" fill="#f6f8de"/>
                    </g>
                  </g>
                </g>
              </g>
            </g>
            <g id="Group_1101057" data-name="Group 1101057" transform="translate(12.92 12.919) rotate(90)" opacity="0.998" style="isolation: isolate">
              <g id="Group_1099844-2" data-name="Group 1099844" transform="translate(0 0)">
                <g id="Group_1099843-2" data-name="Group 1099843" transform="translate(0 0)" clip-path="url(#clip-path)">
                  <g id="Group_1099842-2" data-name="Group 1099842" transform="translate(0 0)">
                    <g id="Group_1099841-2" data-name="Group 1099841" clip-path="url(#clip-path-2)">
                      <rect id="Rectangle_401272-2" data-name="Rectangle 401272" width="16.423" height="16.423" transform="translate(-3.979 11.549) rotate(-70.991)" fill="#f6f8de"/>
                    </g>
                  </g>
                </g>
              </g>
            </g>
            <g id="Group_1101058" data-name="Group 1101058" transform="translate(12.92 25.838) rotate(90)" opacity="0.998" style="isolation: isolate">
              <g id="Group_1099844-3" data-name="Group 1099844" transform="translate(0 0)">
                <g id="Group_1099843-3" data-name="Group 1099843" transform="translate(0 0)" clip-path="url(#clip-path)">
                  <g id="Group_1099842-3" data-name="Group 1099842" transform="translate(0 0)">
                    <g id="Group_1099841-3" data-name="Group 1099841" clip-path="url(#clip-path-2)">
                      <rect id="Rectangle_401272-3" data-name="Rectangle 401272" width="16.423" height="16.423" transform="translate(-3.979 11.549) rotate(-70.991)" fill="#f6f8de"/>
                    </g>
                  </g>
                </g>
              </g>
            </g>
            <g id="Group_1101059" data-name="Group 1101059" transform="translate(25.839 25.955) rotate(90)" opacity="0.998" style="isolation: isolate">
              <g id="Group_1099844-4" data-name="Group 1099844" transform="translate(0 0)">
                <g id="Group_1099843-4" data-name="Group 1099843" transform="translate(0 0)" clip-path="url(#clip-path)">
                  <g id="Group_1099842-4" data-name="Group 1099842" transform="translate(0 0)">
                    <g id="Group_1099841-4" data-name="Group 1099841" clip-path="url(#clip-path-2)">
                      <rect id="Rectangle_401272-4" data-name="Rectangle 401272" width="16.423" height="16.423" transform="translate(-3.979 11.549) rotate(-70.991)" fill="#f6f8de"/>
                    </g>
                  </g>
                </g>
              </g>
            </g>
            <g id="Group_1101060" data-name="Group 1101060" transform="translate(25.839 12.919) rotate(90)" opacity="0.998" style="isolation: isolate">
              <g id="Group_1099844-5" data-name="Group 1099844" transform="translate(0 0)">
                <g id="Group_1099843-5" data-name="Group 1099843" transform="translate(0 0)" clip-path="url(#clip-path)">
                  <g id="Group_1099842-5" data-name="Group 1099842" transform="translate(0 0)">
                    <g id="Group_1099841-5" data-name="Group 1099841" clip-path="url(#clip-path-2)">
                      <rect id="Rectangle_401272-5" data-name="Rectangle 401272" width="16.423" height="16.423" transform="translate(-3.979 11.549) rotate(-70.991)" fill="#f6f8de"/>
                    </g>
                  </g>
                </g>
              </g>
            </g>
            <g id="Group_1101061" data-name="Group 1101061" transform="translate(38.758 25.955) rotate(90)" opacity="0.998" style="isolation: isolate">
              <g id="Group_1099844-6" data-name="Group 1099844" transform="translate(0 0)">
                <g id="Group_1099843-6" data-name="Group 1099843" transform="translate(0 0)" clip-path="url(#clip-path)">
                  <g id="Group_1099842-6" data-name="Group 1099842" transform="translate(0 0)">
                    <g id="Group_1099841-6" data-name="Group 1099841" clip-path="url(#clip-path-2)">
                      <rect id="Rectangle_401272-6" data-name="Rectangle 401272" width="16.423" height="16.423" transform="translate(-3.979 11.549) rotate(-70.991)" fill="#f6f8de"/>
                    </g>
                  </g>
                </g>
              </g>
            </g>
          </g>
          <g id="Group_1099776" data-name="Group 1099776" transform="translate(11.13 1.851)">
            <g id="Group_1099618" data-name="Group 1099618" transform="translate(0 0)">
              <rect id="Rectangle_401104" data-name="Rectangle 401104" width="48.26" height="48.841" transform="translate(0)" fill="none"/>
            </g>
            <g id="Group_1120660" data-name="Group 1120660" transform="translate(-0.975 -1.141)">
              <path id="Path_907139" data-name="Path 907139" d="M20,54.227a.778.778,0,0,0,.778.778H37.893a.778.778,0,0,0,.778-.778V44.114a5.446,5.446,0,0,0-5.446-5.446h-.887a6.224,6.224,0,1,0-6.006,0h-.887A5.446,5.446,0,0,0,20,44.114Zm4.668-21.005a4.668,4.668,0,1,1,4.668,4.668,4.668,4.668,0,0,1-4.668-4.668ZM21.556,44.114a3.89,3.89,0,0,1,3.89-3.89h7.78a3.89,3.89,0,0,1,3.89,3.89V53.45H21.556Z" transform="translate(-4.218 -5.771)" fill="#474d41"/>
              <path id="Path_907140" data-name="Path 907140" d="M32.39,37.723h1.556a2.723,2.723,0,0,0-5.446,0h1.556a1.167,1.167,0,0,1,2.334,0Z" transform="translate(-6.106 -7.549)" fill="#474d41"/>
              <path id="Path_907141" data-name="Path 907141" d="M23.556,1A1.556,1.556,0,0,0,22,2.556V13.448A1.556,1.556,0,0,0,23.556,15h3.968l1.556,3.431a.778.778,0,0,0,1.416,0L32.051,15H36a1.556,1.556,0,0,0,1.556-1.556V2.556A1.556,1.556,0,0,0,36,1ZM36,13.448H31.53a.778.778,0,0,0-.708.459L29.78,16.241l-1.042-2.334a.778.778,0,0,0-.708-.459H23.556V2.556H36Z" transform="translate(-4.663)" fill="#474d41"/>
              <path id="Path_907142" data-name="Path 907142" d="M28.857,12.357l2.2-2.2,2.2,2.2,1.1-1.1-2.2-2.2,2.2-2.2-1.1-1.1-2.2,2.2-2.2-2.2-1.1,1.1,2.2,2.2-2.2,2.2Z" transform="translate(-5.941 -1.057)" fill="#474d41"/>
              <path id="Path_907143" data-name="Path 907143" d="M57.448,14H46.556A1.556,1.556,0,0,0,45,15.556v9.336a1.556,1.556,0,0,0,1.556,1.556h1.385L47.334,29.4a.79.79,0,0,0,1.33.708l3.656-3.664h5.127A1.556,1.556,0,0,0,59,24.892V15.556A1.556,1.556,0,0,0,57.448,14Zm0,10.892H52a.778.778,0,0,0-.552.226L49.38,27.226l.288-1.4a.785.785,0,0,0-.778-.934H46.556V15.556H57.448Z" transform="translate(-9.769 -2.886)" fill="#474d41"/>
              <path id="Path_907144" data-name="Path 907144" d="M51.565,23.968l1.649-1.657,1.649,1.657,1.1-1.1-1.657-1.649,1.657-1.649-1.1-1.1-1.649,1.657L51.565,18.46l-1.1,1.1,1.657,1.649L50.46,22.863Z" transform="translate(-10.981 -3.877)" fill="#474d41"/>
              <path id="Path_907145" data-name="Path 907145" d="M2.556,26.448H7.683l3.656,3.664a.787.787,0,0,0,1.33-.708l-.607-2.956h1.385A1.556,1.556,0,0,0,15,24.892V15.556A1.556,1.556,0,0,0,13.448,14H2.556A1.556,1.556,0,0,0,1,15.556v9.336a1.556,1.556,0,0,0,1.556,1.556Zm0-10.892H13.448v9.336H11.114a.785.785,0,0,0-.762.934l.272,1.4L8.554,25.148A.778.778,0,0,0,8,24.892H2.556Z" transform="translate(0 -2.886)" fill="#474d41"/>
              <path id="Path_907146" data-name="Path 907146" d="M7.565,23.968l1.649-1.657,1.649,1.657,1.1-1.1-1.657-1.649,1.657-1.649-1.1-1.1L9.214,20.117,7.565,18.46l-1.1,1.1,1.657,1.649L6.46,22.863Z" transform="translate(-1.212 -3.877)" fill="#474d41"/>
            </g>
          </g>
        </g>
      </g>
    </g>
  </g>
</svg>
