<svg xmlns="http://www.w3.org/2000/svg" width="295" height="238.652" viewBox="0 0 295 238.652">
  <g id="Group_1118954" data-name="Group 1118954" transform="translate(-915.289 -1342.348)">
    <rect id="Rectangle_409117" data-name="Rectangle 409117" width="295" height="223" transform="translate(915.289 1358)" fill="none"/>
    <g id="Cloud" transform="translate(935.669 1342.348)">
      <g id="Group_1120978" data-name="Group 1120978" transform="translate(-0.005 0)">
        <path id="Path_908290" data-name="Path 908290" d="M37.23,292.892c49.646,24.365,130.134,24.365,179.78,0s49.646-63.863,0-88.228-130.134-24.365-179.78,0-49.646,63.863,0,88.228Z" transform="translate(0.005 -72.514)" fill="#e5e9fe"/>
        <path id="Path_908291" data-name="Path 908291" d="M349.908,322.742c-7.875,3.751-20.644,3.751-28.52,0s-7.875-9.836,0-13.594,20.644-3.751,28.52,0S357.784,318.991,349.908,322.742Z" transform="translate(-122.733 -119.177)" fill="#b9bfe2"/>
        <g id="Device" transform="translate(49.937)">
          <g id="Group_1120951" data-name="Group 1120951" transform="translate(45.964 110.463)">
            <path id="Path_908292" data-name="Path 908292" d="M187.442,181.186l-22.911,13.227a4.326,4.326,0,0,0-1.845,2.639l-5.694,32.876a2.735,2.735,0,0,0,1.234,2.639L173,241.1a3.417,3.417,0,0,0,3.079,0l31.574-18.231a2.888,2.888,0,0,0,0-5.108L196.288,211.2a3.891,3.891,0,0,1-1.717-2.658l-2.529-24.8a3.778,3.778,0,0,0-1.625-2.6,3.31,3.31,0,0,0-2.982.055Z" transform="translate(-156.962 -180.803)" fill="#263238"/>
            <path id="Path_908293" data-name="Path 908293" d="M185.73,259.413v6.146a3.169,3.169,0,0,0,1.54-.367l31.574-18.231a3.3,3.3,0,0,0,1.54-2.554,3.05,3.05,0,0,0-.6-1.668H214.61Z" transform="translate(-168.154 -204.899)" fill="#455a64"/>
            <path id="Path_908294" data-name="Path 908294" d="M192.5,184.026l-22.911,13.227a4.326,4.326,0,0,0-1.845,2.639l-5.169,29.845a2.735,2.735,0,0,0,1.234,2.639l11.364,6.562a3.417,3.417,0,0,0,3.079,0l31.574-18.231a.939.939,0,0,0,0-1.778l-11.364-6.562a3.89,3.89,0,0,1-1.717-2.658l-2.529-24.8A1.062,1.062,0,0,0,192.5,184.026Z" transform="translate(-159.133 -181.975)" fill="#263238"/>
            <path id="Path_908295" data-name="Path 908295" d="M209.981,236.386l-11.364-6.562a3.523,3.523,0,0,1-1.124-1.124L162.95,248.642a2.606,2.606,0,0,0,1.02,1.191l11.364,6.562a3.416,3.416,0,0,0,3.079,0l31.574-18.231a.939.939,0,0,0,0-1.778Z" transform="translate(-159.292 -199.437)" fill="#37474f"/>
          </g>
          <g id="Group_1120952" data-name="Group 1120952">
            <path id="Path_908296" data-name="Path 908296" d="M85.363,176.231l-1.466-.849a4.758,4.758,0,0,1-2.157-3.733V73.254A4.747,4.747,0,0,1,83.9,69.527L204.109.513a4.788,4.788,0,0,1,4.313,0l1.118.648A4.758,4.758,0,0,1,211.7,4.894v98.395a4.767,4.767,0,0,1-2.157,3.733l-119.864,69.2a4.775,4.775,0,0,1-4.307,0Z" transform="translate(-81.734 0)" fill="#455a64"/>
            <path id="Path_908297" data-name="Path 908297" d="M90.4,121.057l-8.034-4.637a4.388,4.388,0,0,0-.635,2.126v98.395a4.767,4.767,0,0,0,2.157,3.733l1.466.849a4.775,4.775,0,0,0,4.307,0l.733-.422V121.057Z" transform="translate(-81.73 -45.292)" fill="#263238"/>
            <path id="Path_908298" data-name="Path 908298" d="M91.2,177.124V78.73A4.767,4.767,0,0,1,93.357,75L213.22,5.794c1.191-.684,2.157-.128,2.157,1.246v98.395a4.767,4.767,0,0,1-2.157,3.733l-119.864,69.2c-1.191.684-2.157.128-2.157-1.246Z" transform="translate(-85.414 -2.14)" fill="#37474f"/>
            <path id="Path_908299" data-name="Path 908299" d="M182.346,222.061,193.7,215.5c.849-.489,1.54-.141,1.54.776a3.3,3.3,0,0,1-1.54,2.554l-11.364,6.562c-.849.489-1.54.141-1.54-.776a3.294,3.294,0,0,1,1.54-2.554Z" transform="translate(-120.272 -83.752)" fill="#e0e0e0"/>
            <path id="Path_908300" data-name="Path 908300" d="M99.45,82.444l112.887-65.36c.678-.391,1.228-.073,1.228.709v85.76a2.706,2.706,0,0,1-1.234,2.132L99.444,170.861c-.678.391-1.234.073-1.234-.709V84.582a2.715,2.715,0,0,1,1.228-2.132Z" transform="translate(-88.141 -6.581)" fill="#fff"/>
          </g>
        </g>
        <g id="Tab" transform="translate(67.178 9.134)">
          <path id="Path_908301" data-name="Path 908301" d="M112.156,83.824,230.626,15.415c1.882-1.088,3.415-.2,3.415,1.973v77.3a3.526,3.526,0,0,1-1.589,2.749L111.538,167.25c-.874.5-1.588.092-1.588-.916V87.63a4.888,4.888,0,0,1,2.2-3.812Z" transform="translate(-109.95 -14.951)" fill="#e0e0e0"/>
          <path id="Path_908302" data-name="Path 908302" d="M234.052,19.172V17.388c0-2.169-1.54-3.061-3.415-1.973L112.159,83.824a4.878,4.878,0,0,0-2.2,3.812v3.189Z" transform="translate(-109.954 -14.951)" fill="#d4e157"/>
          <path id="Path_908303" data-name="Path 908303" d="M288.849,28.416a2.608,2.608,0,0,0-1.179,2.041c0,.751.525,1.057,1.179.678a2.609,2.609,0,0,0,1.179-2.041C290.028,28.343,289.5,28.038,288.849,28.416Z" transform="translate(-179.091 -20.126)" fill="#fff"/>
          <path id="Path_908304" data-name="Path 908304" d="M296.5,24a2.608,2.608,0,0,0-1.179,2.041c0,.751.525,1.057,1.179.678a2.608,2.608,0,0,0,1.179-2.041C297.678,23.923,297.153,23.618,296.5,24Z" transform="translate(-182.067 -18.407)" fill="#fff"/>
          <path id="Path_908305" data-name="Path 908305" d="M304.149,19.586a2.608,2.608,0,0,0-1.179,2.041c0,.751.525,1.057,1.179.678a2.608,2.608,0,0,0,1.179-2.041C305.328,19.513,304.8,19.208,304.149,19.586Z" transform="translate(-185.043 -16.691)" fill="#fff"/>
        </g>
        <g id="Graphics" transform="translate(72.145 25.095)">
          <g id="Group_1120954" data-name="Group 1120954" transform="translate(32.265)">
            <g id="Group_1120953" data-name="Group 1120953">
              <path id="Path_908306" data-name="Path 908306" d="M250.42,42.917c-.1-.324-.4-.428-.764-.22L174.313,86.2a1.594,1.594,0,0,0-.562.593l-2.48-1.436a1.594,1.594,0,0,1,.562-.593l75.343-43.5a1.735,1.735,0,0,1,1.589,0l.892.513a1.745,1.745,0,0,1,.764,1.136Z" transform="translate(-171.038 -41.075)" fill="#ebebeb"/>
              <path id="Path_908307" data-name="Path 908307" d="M251.882,44.12V76.678a1.745,1.745,0,0,1-.794,1.375l-75.343,43.5-.11.055a.665.665,0,0,1-.147.043c-.006,0-.018.006-.024.006-.3.043-.513-.171-.513-.562V88.542a1.63,1.63,0,0,1,.232-.782,1.594,1.594,0,0,1,.562-.593l75.343-43.506c.36-.208.666-.1.764.22a.181.181,0,0,1,.012.061A.871.871,0,0,1,251.882,44.12Z" transform="translate(-172.469 -42.039)" fill="#fafafa"/>
              <path id="Path_908308" data-name="Path 908308" d="M173.884,148.892a1.825,1.825,0,0,1-.751.067,1.38,1.38,0,0,1-.556-.171l-.892-.513a1.764,1.764,0,0,1-.794-1.375V114.342a1.6,1.6,0,0,1,.232-.782L173.6,115a1.63,1.63,0,0,0-.232.782V148.33c0,.391.214.6.513.562Z" transform="translate(-170.89 -69.275)" fill="#e0e0e0"/>
            </g>
            <path id="Path_908309" data-name="Path 908309" d="M250.939,71.874a.3.3,0,0,0-.409.134l-2.67,5.273a1.021,1.021,0,0,0-.275-.263,1.152,1.152,0,0,0-1.185.086,3.069,3.069,0,0,0-1.362,2.059l-5.12-.837a1.072,1.072,0,0,0-.489-.806,1.179,1.179,0,0,0-1.185.086,2.644,2.644,0,0,0-.782.721l-6.494-5.92a2.673,2.673,0,0,0,.293-1.155,1.055,1.055,0,0,0-1.7-.984,3.035,3.035,0,0,0-1.393,2.413,1.154,1.154,0,0,0,.507,1.057l-4.607,13.887a1.25,1.25,0,0,0-.959.171,2.931,2.931,0,0,0-1.087,1.228l-5.548-4s.006-.055.006-.079a1.055,1.055,0,0,0-1.7-.984,3.035,3.035,0,0,0-1.393,2.413,1.339,1.339,0,0,0,.22.776l-4.5,13.154a1.414,1.414,0,0,0-.635.208,3.078,3.078,0,0,0-1.381,2.23l-6.922,4a.987.987,0,0,0-.44-.587,1.179,1.179,0,0,0-1.185.086,3.083,3.083,0,0,0-1.289,1.729l-4.491-1.821a2.463,2.463,0,0,0,.031-.36,1.055,1.055,0,0,0-1.7-.984,3.034,3.034,0,0,0-1.393,2.413,1.578,1.578,0,0,0,.092.525l-5.126,9.806a1.222,1.222,0,0,0-1.014.153,3.078,3.078,0,0,0-1.381,2.23l-3.586,2.071a.305.305,0,0,0,.153.568.29.29,0,0,0,.153-.043l3.342-1.931a.987.987,0,0,0,.44.587.924.924,0,0,0,.477.122,1.433,1.433,0,0,0,.709-.214,3.034,3.034,0,0,0,1.393-2.413,1.406,1.406,0,0,0-.2-.745l5.053-9.659.012.012a.924.924,0,0,0,.477.122,1.433,1.433,0,0,0,.709-.214,2.989,2.989,0,0,0,1.191-1.46l4.564,1.845v.067a1.172,1.172,0,0,0,.513,1.069.924.924,0,0,0,.477.122,1.433,1.433,0,0,0,.709-.214,3.078,3.078,0,0,0,1.381-2.23l6.922-4a.987.987,0,0,0,.44.587.924.924,0,0,0,.477.122,1.433,1.433,0,0,0,.709-.214,3.034,3.034,0,0,0,1.393-2.413,1.184,1.184,0,0,0-.47-1.033l4.417-12.934a.868.868,0,0,0,.257.037,1.433,1.433,0,0,0,.709-.214,3.006,3.006,0,0,0,1.265-1.668l5.45,3.922a2.57,2.57,0,0,0-.086.593,1.172,1.172,0,0,0,.513,1.069.924.924,0,0,0,.477.122,1.433,1.433,0,0,0,.709-.214,3.034,3.034,0,0,0,1.393-2.413,1.339,1.339,0,0,0-.22-.776l4.7-14.15a1.5,1.5,0,0,0,.593-.2,2.644,2.644,0,0,0,.782-.721l6.494,5.92a2.673,2.673,0,0,0-.293,1.155,1.172,1.172,0,0,0,.513,1.069.924.924,0,0,0,.477.122,1.433,1.433,0,0,0,.709-.214,3.069,3.069,0,0,0,1.362-2.059l5.12.837a1.072,1.072,0,0,0,.489.806.924.924,0,0,0,.477.122,1.433,1.433,0,0,0,.709-.214,3.036,3.036,0,0,0,1.387-2.328l2.981-5.89a.3.3,0,0,0-.134-.409Zm-67.3,48.724a.593.593,0,0,1-.574.086.6.6,0,0,1-.208-.538,2.436,2.436,0,0,1,1.087-1.882.832.832,0,0,1,.4-.128.31.31,0,0,1,.171.043.6.6,0,0,1,.208.538A2.446,2.446,0,0,1,183.642,120.6Zm7.441-12.9a.593.593,0,0,1-.574.086.6.6,0,0,1-.208-.538,2.467,2.467,0,0,1,1.088-1.888.832.832,0,0,1,.4-.128.31.31,0,0,1,.171.043.6.6,0,0,1,.208.538,2.436,2.436,0,0,1-1.087,1.882Zm7.448,1.436a.593.593,0,0,1-.574.086.6.6,0,0,1-.208-.538,2.467,2.467,0,0,1,1.087-1.888.832.832,0,0,1,.4-.128.31.31,0,0,1,.171.043.6.6,0,0,1,.214.538,2.446,2.446,0,0,1-1.087,1.882Zm9.928-5.731a.592.592,0,0,1-.574.086.6.6,0,0,1-.208-.538,2.446,2.446,0,0,1,1.088-1.882.832.832,0,0,1,.4-.128.31.31,0,0,1,.171.043.6.6,0,0,1,.214.538,2.468,2.468,0,0,1-1.088,1.888Zm6.305-16.557a.593.593,0,0,1-.574.086.186.186,0,0,1-.049-.049l-.006-.006a.677.677,0,0,1-.153-.489A2.458,2.458,0,0,1,215.07,84.5a.832.832,0,0,1,.4-.128.31.31,0,0,1,.171.043.6.6,0,0,1,.208.538,2.436,2.436,0,0,1-1.088,1.882Zm8.327,3.831a.593.593,0,0,1-.574.086.6.6,0,0,1-.208-.538,2.436,2.436,0,0,1,1.087-1.882.832.832,0,0,1,.4-.128.31.31,0,0,1,.171.043.248.248,0,0,1,.061.055h0a.678.678,0,0,1,.153.489,2.457,2.457,0,0,1-1.088,1.888Zm6.458-17.534a.593.593,0,0,1-.574.086.6.6,0,0,1-.208-.538,2.458,2.458,0,0,1,1.088-1.888.832.832,0,0,1,.4-.128.31.31,0,0,1,.171.043.6.6,0,0,1,.208.538,2.446,2.446,0,0,1-1.088,1.882Zm8.688,7.331a.593.593,0,0,1-.574.086.6.6,0,0,1-.208-.538,2.467,2.467,0,0,1,1.088-1.888.832.832,0,0,1,.4-.128.31.31,0,0,1,.171.043.6.6,0,0,1,.208.538,2.436,2.436,0,0,1-1.088,1.882Zm8.162-.507a.593.593,0,0,1-.574.086.6.6,0,0,1-.208-.538,2.467,2.467,0,0,1,1.087-1.888.832.832,0,0,1,.4-.128.31.31,0,0,1,.171.043.6.6,0,0,1,.208.538,2.446,2.446,0,0,1-1.088,1.882Z" transform="translate(-173.867 -52.351)" fill="#d4e157"/>
          </g>
          <g id="Group_1120957" data-name="Group 1120957" transform="translate(32.265 65.91)">
            <g id="Group_1120955" data-name="Group 1120955">
              <path id="Path_908310" data-name="Path 908310" d="M205.745,150.8c-.1-.324-.409-.428-.764-.22L174.3,168.289a1.611,1.611,0,0,0-.58.629l-2.474-1.448a1.633,1.633,0,0,1,.574-.611l30.67-17.712a1.735,1.735,0,0,1,1.588,0l.9.513A1.79,1.79,0,0,1,205.745,150.8Z" transform="translate(-171.03 -148.955)" fill="#ebebeb"/>
              <path id="Path_908311" data-name="Path 908311" d="M207.215,152v23.962a1.771,1.771,0,0,1-.794,1.375L177.43,194.07l-1.686.978a.761.761,0,0,1-.122.061.062.062,0,0,1-.018.006c-.379.134-.654-.079-.654-.525V170.628a1.574,1.574,0,0,1,.214-.745,1.61,1.61,0,0,1,.58-.629l30.676-17.712c.354-.208.666-.1.764.22a.121.121,0,0,0,.012.061A.871.871,0,0,1,207.215,152Z" transform="translate(-172.47 -149.919)" fill="#fafafa"/>
              <path id="Path_908312" data-name="Path 908312" d="M174.024,205.941c-.031.012-.061.024-.1.037a.549.549,0,0,1-.134.037,1.136,1.136,0,0,1-.208.037c-.067.006-.141.012-.208.012a2,2,0,0,1-.428-.049,1.428,1.428,0,0,1-.373-.141l-.892-.519a1.745,1.745,0,0,1-.794-1.375V180.024a1.632,1.632,0,0,1,.22-.764l2.474,1.448a1.574,1.574,0,0,0-.214.745v23.962C173.37,205.861,173.645,206.075,174.024,205.941Z" transform="translate(-170.89 -160.745)" fill="#e0e0e0"/>
            </g>
            <g id="Group_1120956" data-name="Group 1120956" transform="translate(4.961 11.434)">
              <path id="Path_908313" data-name="Path 908313" d="M179.01,204.205v-15.97a1.175,1.175,0,0,1,.532-.916l1.424-.825c.293-.171.532-.031.532.305v15.97a1.175,1.175,0,0,1-.532.916l-1.424.825C179.248,204.682,179.01,204.541,179.01,204.205Z" transform="translate(-179.01 -174.965)" fill="#d4e157"/>
              <path id="Path_908314" data-name="Path 908314" d="M187.14,197.691V178.855a1.175,1.175,0,0,1,.532-.916l1.424-.825c.293-.171.532-.031.532.305v18.836a1.175,1.175,0,0,1-.532.916l-1.424.825C187.378,198.167,187.14,198.027,187.14,197.691Z" transform="translate(-182.173 -171.316)" fill="#d4e157"/>
              <path id="Path_908315" data-name="Path 908315" d="M195.26,199.237v-9.042a1.175,1.175,0,0,1,.532-.916l1.424-.825c.293-.171.532-.031.532.305V197.8a1.175,1.175,0,0,1-.532.916l-1.424.825C195.5,199.713,195.26,199.573,195.26,199.237Z" transform="translate(-185.332 -175.728)" fill="#1fa2a2"/>
              <path id="Path_908316" data-name="Path 908316" d="M203.39,192.849V181.125a1.175,1.175,0,0,1,.532-.916l1.424-.825c.293-.171.532-.031.532.305v11.724a1.175,1.175,0,0,1-.532.916l-1.424.825C203.628,193.326,203.39,193.185,203.39,192.849Z" transform="translate(-188.495 -172.199)" fill="#d4e157"/>
              <path id="Path_908317" data-name="Path 908317" d="M211.506,193.084v-3.99a1.185,1.185,0,0,1,.525-.916l1.424-.825c.293-.171.532-.031.532.305v3.99a1.175,1.175,0,0,1-.532.916l-1.424.825c-.293.171-.532.031-.532-.305Z" transform="translate(-191.65 -175.3)" fill="#1fa2a2"/>
              <path id="Path_908318" data-name="Path 908318" d="M219.626,182.59V169.485a1.185,1.185,0,0,1,.525-.916l1.424-.825c.293-.171.532-.031.532.305v13.105a1.175,1.175,0,0,1-.532.916l-1.424.825c-.293.171-.532.031-.532-.305Z" transform="translate(-194.809 -167.67)" fill="#d4e157"/>
            </g>
          </g>
          <g id="Group_1120961" data-name="Group 1120961" transform="translate(69.49 40.115)">
            <g id="Group_1120958" data-name="Group 1120958">
              <path id="Path_908319" data-name="Path 908319" d="M274.112,108.577c-.1-.324-.409-.428-.764-.22L235.225,130.37a1.611,1.611,0,0,0-.58.629l-2.474-1.448a1.633,1.633,0,0,1,.574-.611l38.118-22.013a1.735,1.735,0,0,1,1.588,0l.9.513A1.79,1.79,0,0,1,274.112,108.577Z" transform="translate(-231.956 -106.735)" fill="#ebebeb"/>
              <path id="Path_908320" data-name="Path 908320" d="M275.582,109.78v23.962a1.771,1.771,0,0,1-.794,1.375l-36.438,21.035-1.686.978a.761.761,0,0,1-.122.061.062.062,0,0,1-.018.006c-.379.134-.654-.079-.654-.525V132.709a1.574,1.574,0,0,1,.214-.745,1.61,1.61,0,0,1,.58-.629l38.124-22.013c.354-.208.666-.1.764.22a.121.121,0,0,0,.012.061.873.873,0,0,1,.018.177Z" transform="translate(-233.396 -107.699)" fill="#fafafa"/>
              <path id="Path_908321" data-name="Path 908321" d="M234.954,170.76c-.031.012-.061.024-.1.037a.551.551,0,0,1-.134.037,1.135,1.135,0,0,1-.208.037c-.067.006-.141.012-.208.012a2,2,0,0,1-.428-.049,1.428,1.428,0,0,1-.373-.141l-.892-.519a1.745,1.745,0,0,1-.794-1.375V144.844a1.632,1.632,0,0,1,.22-.764l2.474,1.448a1.574,1.574,0,0,0-.214.745v23.962C234.3,170.681,234.575,170.895,234.954,170.76Z" transform="translate(-231.82 -121.264)" fill="#e0e0e0"/>
            </g>
            <g id="Group_1120959" data-name="Group 1120959" transform="translate(5.77 21.063)">
              <path id="Path_908322" data-name="Path 908322" d="M252.082,142.05l-1.973,7.362a5.283,5.283,0,0,1-.843,1.625l-6.372,7.655a3.753,3.753,0,0,1-1.54-2.5c-.446-2.462.813-5.829,3.275-8.792.422-.5.849-.971,1.289-1.417A15.68,15.68,0,0,1,252.082,142.05Z" transform="translate(-241.265 -141.537)" fill="#1fa2a2"/>
              <path id="Path_908323" data-name="Path 908323" d="M258.848,156.965c-2.829,4.759-8.205,8.352-12.237,8.1a4.536,4.536,0,0,1-1.6-.354l6.281-7.545a1.912,1.912,0,0,1,1.3-.587h.067l6.2.385Z" transform="translate(-242.722 -147.189)" fill="#d4e157"/>
              <path id="Path_908324" data-name="Path 908324" d="M263.043,141.6l-5.853,7.032,1.918-7.154A5.929,5.929,0,0,1,263.043,141.6Z" transform="translate(-247.46 -141.21)" fill="#d4e157"/>
              <path id="Path_908325" data-name="Path 908325" d="M264.007,150.743l-6.543-.4a.708.708,0,0,1-.214-.049.316.316,0,0,1,.055-.122.381.381,0,0,1,.055-.073l6.372-7.655C265.834,143.87,265.944,147.071,264.007,150.743Z" transform="translate(-247.484 -141.688)" fill="#d4e157"/>
            </g>
            <path id="Path_908326" data-name="Path 908326" d="M274.71,128.391c0,.44.354.593.794.342l11.914-6.879a1.637,1.637,0,0,0,.794-1.259c0-.44-.354-.593-.794-.342L275.5,127.133A1.637,1.637,0,0,0,274.71,128.391Z" transform="translate(-248.506 -111.947)" fill="#d4e157"/>
            <g id="Group_1120960" data-name="Group 1120960" transform="translate(26.204 12.975)">
              <path id="Path_908327" data-name="Path 908327" d="M274.71,136.231c0,.44.354.593.794.342l11.914-6.879a1.638,1.638,0,0,0,.794-1.259c0-.44-.354-.593-.794-.342L275.5,134.973A1.637,1.637,0,0,0,274.71,136.231Z" transform="translate(-274.71 -127.973)" fill="#e0e0e0"/>
              <path id="Path_908328" data-name="Path 908328" d="M274.71,141.071c0,.44.354.593.794.342l11.914-6.879a1.637,1.637,0,0,0,.794-1.259c0-.44-.354-.593-.794-.342L275.5,139.813A1.637,1.637,0,0,0,274.71,141.071Z" transform="translate(-274.71 -129.856)" fill="#e0e0e0"/>
              <path id="Path_908329" data-name="Path 908329" d="M274.71,145.9c0,.44.354.593.794.342l11.914-6.879a1.637,1.637,0,0,0,.794-1.259c0-.44-.354-.593-.794-.342L275.5,144.643A1.637,1.637,0,0,0,274.71,145.9Z" transform="translate(-274.71 -131.735)" fill="#e0e0e0"/>
              <path id="Path_908330" data-name="Path 908330" d="M274.71,150.741c0,.44.354.593.794.342l11.914-6.879a1.637,1.637,0,0,0,.794-1.259c0-.44-.354-.593-.794-.342L275.5,149.483A1.637,1.637,0,0,0,274.71,150.741Z" transform="translate(-274.71 -133.618)" fill="#e0e0e0"/>
            </g>
          </g>
          <g id="Group_1120967" data-name="Group 1120967" transform="translate(0 50.152)">
            <g id="Group_1120962" data-name="Group 1120962" transform="translate(0 12.897)">
              <path id="Path_908331" data-name="Path 908331" d="M143.014,146.116c-.1-.33-.4-.434-.764-.22L121.5,157.871a1.7,1.7,0,0,0-.562.593l-2.48-1.43a1.643,1.643,0,0,1,.562-.593L139.77,144.46a1.773,1.773,0,0,1,1.588,0l.892.519a1.745,1.745,0,0,1,.764,1.136Z" transform="translate(-118.228 -144.273)" fill="#ebebeb"/>
              <path id="Path_908332" data-name="Path 908332" d="M144.477,147.317v6.763a1.755,1.755,0,0,1-.794,1.375L122.934,167.43a1.638,1.638,0,0,1-.147.073.086.086,0,0,0-.037.012c-.354.1-.611-.11-.611-.544v-6.763a1.584,1.584,0,0,1,.232-.782,1.694,1.694,0,0,1,.562-.593l20.748-11.975c.36-.214.666-.11.764.22a.18.18,0,0,1,.012.061A.92.92,0,0,1,144.477,147.317Z" transform="translate(-119.66 -145.235)" fill="#fafafa"/>
              <path id="Path_908333" data-name="Path 908333" d="M121.171,174.679a1.538,1.538,0,0,1-.3.079,1.771,1.771,0,0,1-.929-.079,1.577,1.577,0,0,1-.177-.086l-.892-.513a1.745,1.745,0,0,1-.794-1.375v-6.763a1.65,1.65,0,0,1,.232-.782l2.48,1.43a1.584,1.584,0,0,0-.232.782v6.763C120.56,174.569,120.817,174.783,121.171,174.679Z" transform="translate(-118.08 -152.399)" fill="#e0e0e0"/>
            </g>
            <g id="Group_1120963" data-name="Group 1120963" transform="translate(0 25.795)">
              <path id="Path_908334" data-name="Path 908334" d="M143.014,167.226c-.1-.33-.4-.434-.764-.22L121.5,178.981a1.7,1.7,0,0,0-.562.593l-2.48-1.43a1.644,1.644,0,0,1,.562-.593L139.77,165.57a1.773,1.773,0,0,1,1.588,0l.892.519a1.745,1.745,0,0,1,.764,1.136Z" transform="translate(-118.228 -165.383)" fill="#ebebeb"/>
              <path id="Path_908335" data-name="Path 908335" d="M144.477,168.427v6.763a1.755,1.755,0,0,1-.794,1.375L122.934,188.54a1.638,1.638,0,0,1-.147.073.087.087,0,0,0-.037.012c-.354.1-.611-.11-.611-.544v-6.763a1.584,1.584,0,0,1,.232-.782,1.694,1.694,0,0,1,.562-.593l20.748-11.975c.36-.214.666-.11.764.22a.18.18,0,0,1,.012.061A.92.92,0,0,1,144.477,168.427Z" transform="translate(-119.66 -166.345)" fill="#fafafa"/>
              <path id="Path_908336" data-name="Path 908336" d="M121.171,195.789a1.535,1.535,0,0,1-.3.079,1.771,1.771,0,0,1-.929-.079,1.585,1.585,0,0,1-.177-.086l-.892-.513a1.745,1.745,0,0,1-.794-1.375v-6.763a1.65,1.65,0,0,1,.232-.782l2.48,1.43a1.584,1.584,0,0,0-.232.782v6.763C120.56,195.679,120.817,195.893,121.171,195.789Z" transform="translate(-118.08 -173.509)" fill="#e0e0e0"/>
            </g>
            <g id="Group_1120964" data-name="Group 1120964" transform="translate(0 38.686)">
              <path id="Path_908337" data-name="Path 908337" d="M143.014,188.326c-.1-.33-.4-.434-.764-.22L121.5,200.081a1.7,1.7,0,0,0-.562.593l-2.48-1.43a1.643,1.643,0,0,1,.562-.593L139.77,186.67a1.773,1.773,0,0,1,1.588,0l.892.519a1.745,1.745,0,0,1,.764,1.136Z" transform="translate(-118.228 -186.483)" fill="#ebebeb"/>
              <path id="Path_908338" data-name="Path 908338" d="M144.477,189.527v6.763a1.755,1.755,0,0,1-.794,1.375L122.934,209.64a1.634,1.634,0,0,1-.147.073.087.087,0,0,0-.037.012c-.354.1-.611-.11-.611-.544v-6.763a1.584,1.584,0,0,1,.232-.782,1.694,1.694,0,0,1,.562-.593l20.748-11.975c.36-.214.666-.11.764.22a.18.18,0,0,1,.012.061A.92.92,0,0,1,144.477,189.527Z" transform="translate(-119.66 -187.445)" fill="#fafafa"/>
              <path id="Path_908339" data-name="Path 908339" d="M121.171,216.889a1.537,1.537,0,0,1-.3.079,1.771,1.771,0,0,1-.929-.079,1.582,1.582,0,0,1-.177-.086l-.892-.513a1.745,1.745,0,0,1-.794-1.375v-6.763a1.65,1.65,0,0,1,.232-.782l2.48,1.43a1.584,1.584,0,0,0-.232.782v6.763C120.56,216.779,120.817,216.993,121.171,216.889Z" transform="translate(-118.08 -194.609)" fill="#e0e0e0"/>
            </g>
            <g id="Group_1120965" data-name="Group 1120965" transform="translate(0 51.583)">
              <path id="Path_908340" data-name="Path 908340" d="M143.014,209.436c-.1-.33-.4-.434-.764-.22L121.5,221.191a1.694,1.694,0,0,0-.562.593l-2.48-1.43a1.644,1.644,0,0,1,.562-.593L139.77,207.78a1.773,1.773,0,0,1,1.588,0l.892.519a1.745,1.745,0,0,1,.764,1.136Z" transform="translate(-118.228 -207.593)" fill="#ebebeb"/>
              <path id="Path_908341" data-name="Path 908341" d="M144.477,210.637V217.4a1.755,1.755,0,0,1-.794,1.375L122.934,230.75a1.638,1.638,0,0,1-.147.073.087.087,0,0,0-.037.012c-.354.1-.611-.11-.611-.544v-6.763a1.584,1.584,0,0,1,.232-.782,1.7,1.7,0,0,1,.562-.593l20.748-11.975c.36-.214.666-.11.764.22a.18.18,0,0,1,.012.061A.92.92,0,0,1,144.477,210.637Z" transform="translate(-119.66 -208.555)" fill="#fafafa"/>
              <path id="Path_908342" data-name="Path 908342" d="M121.171,238a1.537,1.537,0,0,1-.3.079,1.771,1.771,0,0,1-.929-.079,1.582,1.582,0,0,1-.177-.086l-.892-.513a1.745,1.745,0,0,1-.794-1.375v-6.763a1.65,1.65,0,0,1,.232-.782l2.48,1.43a1.584,1.584,0,0,0-.232.782v6.763c0,.434.257.648.611.544Z" transform="translate(-118.08 -215.719)" fill="#e0e0e0"/>
            </g>
            <g id="Group_1120966" data-name="Group 1120966">
              <path id="Path_908343" data-name="Path 908343" d="M145.048,127.2a.245.245,0,0,1,.079.024l-2.23-1.277v-.69a.92.92,0,0,0-.018-.177.1.1,0,0,0-.012-.061,1.745,1.745,0,0,0-.764-1.136l-.892-.519a1.773,1.773,0,0,0-1.588,0l-20.748,11.981a1.751,1.751,0,0,0-.794,1.375v6.763a1.745,1.745,0,0,0,.794,1.375l.892.513a1.577,1.577,0,0,0,.177.086,1.771,1.771,0,0,0,.929.079,1.539,1.539,0,0,0,.3-.079.087.087,0,0,1,.037-.012,1.635,1.635,0,0,0,.147-.073L142.1,133.392a1.755,1.755,0,0,0,.794-1.375v-1.949l2.267-2.615a.151.151,0,0,0-.116-.25Z" transform="translate(-118.08 -123.166)" fill="#d4e157"/>
              <path id="Path_908344" data-name="Path 908344" d="M121.171,153.569a1.537,1.537,0,0,1-.3.079,1.771,1.771,0,0,1-.929-.079,1.582,1.582,0,0,1-.177-.086l-.892-.513a1.745,1.745,0,0,1-.794-1.375v-6.763a1.65,1.65,0,0,1,.232-.782l2.48,1.43a1.584,1.584,0,0,0-.232.782v6.763C120.56,153.459,120.817,153.673,121.171,153.569Z" transform="translate(-118.08 -131.289)" opacity="0.1"/>
              <path id="Path_908345" data-name="Path 908345" d="M143.014,125.006c-.1-.33-.4-.434-.764-.22L121.5,136.761a1.7,1.7,0,0,0-.562.593l-2.48-1.43a1.644,1.644,0,0,1,.562-.593L139.77,123.35a1.773,1.773,0,0,1,1.588,0l.892.519a1.745,1.745,0,0,1,.764,1.136Z" transform="translate(-118.228 -123.163)" fill="#fff" opacity="0.4"/>
              <path id="Path_908346" data-name="Path 908346" d="M160.851,128.959H158.7V127.7l2.23,1.277a.148.148,0,0,0-.079-.024Z" transform="translate(-133.883 -124.928)" fill="#fff" opacity="0.4"/>
            </g>
          </g>
        </g>
        <g id="Plants" transform="translate(11.642 147.688)">
          <g id="Group_1120969" data-name="Group 1120969" transform="translate(7.919)">
            <path id="Path_908347" data-name="Path 908347" d="M44.682,282.512l4.283-2.45s2.053-11.327.519-21.06C47.321,245.317,38,240.594,34.619,241.957s-4.179,5.413,1.931,13.325C40.155,259.949,44.8,269.81,44.682,282.512Z" transform="translate(-32.011 -241.732)" fill="#d4e157"/>
            <g id="Group_1120968" data-name="Group 1120968" opacity="0.1">
              <path id="Path_908348" data-name="Path 908348" d="M44.682,282.512l4.283-2.45s2.053-11.327.519-21.06C47.321,245.317,38,240.594,34.619,241.957s-4.179,5.413,1.931,13.325C40.155,259.949,44.8,269.81,44.682,282.512Z" transform="translate(-32.011 -241.732)"/>
            </g>
            <path id="Path_908349" data-name="Path 908349" d="M49.2,278.327h-.043a.312.312,0,0,1-.263-.342c1.772-12.812-3.385-26.852-9.17-32.509a.307.307,0,1,1,.434-.434c5.9,5.761,11.15,20.027,9.348,33.028a.3.3,0,0,1-.3.263Z" transform="translate(-34.975 -242.984)" fill="#fff"/>
          </g>
          <g id="Group_1120970" data-name="Group 1120970" transform="translate(0 11.756)">
            <path id="Path_908350" data-name="Path 908350" d="M27.75,296.865c-.678.391-2.071-.458-2.609-.819a6.455,6.455,0,0,1-2.151-2.468,6.055,6.055,0,0,1-.538-3.635,14.068,14.068,0,0,1,.458-1.931c.177-.623.36-1.252.538-1.876a4.806,4.806,0,0,0,.275-1.894c-.165-1.283-1.3-2.181-2.34-2.957-1.142-.855-2.34-1.992-2.334-3.537a5.429,5.429,0,0,1,1.362-3.238c.739-.935,1.613-1.766,2.285-2.749a3.768,3.768,0,0,0,.776-2.4,3.948,3.948,0,0,0-.525-1.5,22.142,22.142,0,0,1-1.643-3.006,3.03,3.03,0,0,1,.519-3.2,3.538,3.538,0,0,1,2.658-.66,6.067,6.067,0,0,1,2.474.868c2.456,1.362,3.855,4.271,6.458,5.321a25.793,25.793,0,0,0,3.153.77,3.872,3.872,0,0,1,2.6,1.778c.953,1.906-.819,4.258-.147,6.287.593,1.79,2.334,2.48,3.318,4.093a3.845,3.845,0,0,1,.458,2.346,11.277,11.277,0,0,1-.99,3.965,27.8,27.8,0,0,1-2.175,3.574c-.043.043-11.785,6.806-11.889,6.867Z" transform="translate(-19.05 -260.973)" fill="#d4e157"/>
            <path id="Path_908351" data-name="Path 908351" d="M38.461,294.386h-.006a.312.312,0,0,1-.3-.318c.507-12.128-5.211-25.52-9.366-29.405a.307.307,0,0,1,.422-.446c4.24,3.971,10.069,17.583,9.561,29.882a.3.3,0,0,1-.305.293Z" transform="translate(-22.802 -262.203)" fill="#fff"/>
            <path id="Path_908352" data-name="Path 908352" d="M35.849,288.9a.33.33,0,0,1-.092-.012,40.935,40.935,0,0,0-8.8-1.417.307.307,0,0,1-.293-.318.3.3,0,0,1,.318-.293,41.643,41.643,0,0,1,8.957,1.448.3.3,0,0,1-.092.593Z" transform="translate(-22.01 -271.044)" fill="#fff"/>
          </g>
        </g>
        <g id="Lens" transform="translate(43.968 100.362)">
          <path id="Path_908353" data-name="Path 908353" d="M110.4,266.843h0a2.038,2.038,0,0,0-1.2-1.674,6.432,6.432,0,0,0-5.8,0,2.046,2.046,0,0,0-1.2,1.674h0l-1.625,42.688h0A2.784,2.784,0,0,0,102.236,312a8.956,8.956,0,0,0,8.114,0,2.767,2.767,0,0,0,1.668-2.468h.012L110.4,266.843Z" transform="translate(-83.088 -203.255)" fill="#bfc9ff"/>
          <path id="Path_908354" data-name="Path 908354" d="M104.446,265.169c-1.6.923-1.6,2.426,0,3.348a6.432,6.432,0,0,0,5.8,0c1.6-.923,1.6-2.426,0-3.348A6.432,6.432,0,0,0,104.446,265.169Z" transform="translate(-84.131 -203.255)" opacity="0.15"/>
          <path id="Path_908355" data-name="Path 908355" d="M110.134,245.8a3.857,3.857,0,0,0-3.507,0,1.24,1.24,0,0,0-.727,1.014h0v12.6h0a1.24,1.24,0,0,0,.727,1.014,3.857,3.857,0,0,0,3.507,0,1.24,1.24,0,0,0,.727-1.014v-12.6h0A1.24,1.24,0,0,0,110.134,245.8Z" transform="translate(-85.164 -195.825)" fill="#263238"/>
          <g id="Group_1120971" data-name="Group 1120971">
            <path id="Path_908356" data-name="Path 908356" d="M122.8,183.375c-.006-.251-.018-.495-.037-.739s-.031-.483-.055-.721c-.012-.159-.031-.318-.049-.477-.043-.415-.1-.825-.171-1.216-.031-.177-.061-.36-.1-.538s-.067-.336-.1-.5c-.1-.452-.214-.892-.342-1.314-.067-.2-.128-.4-.2-.6a.539.539,0,0,1-.031-.092c-.073-.2-.141-.385-.214-.568-.086-.214-.171-.428-.269-.629-.067-.153-.134-.3-.214-.446a2.2,2.2,0,0,0-.159-.318c-.061-.128-.128-.257-.2-.379-.018-.031-.031-.061-.049-.086-.061-.11-.128-.22-.2-.33-.043-.073-.092-.141-.134-.208a11.149,11.149,0,0,0-1.051-1.4c-.067-.073-.134-.147-.2-.22s-.11-.116-.165-.171c-.067-.073-.141-.141-.214-.214a6.827,6.827,0,0,0-.635-.568c-.1-.092-.214-.177-.324-.257s-.22-.165-.336-.244a5.9,5.9,0,0,0-.544-.354l-.147-.092-.031-.024h-.006l-8.657-5h-.012l-.049-.031a10.861,10.861,0,0,0-5.438-1.375,19.17,19.17,0,0,0-9.427,2.884c-11.645,6.727-21.09,23.082-21.09,36.535,0,6.708,2.346,11.425,6.14,13.637l.037.018h0l8.663,5v.006l.037.024h0a.792.792,0,0,1,.1.049,5.593,5.593,0,0,0,.5.263c.208.1.422.2.635.281.189.079.385.153.58.214a3,3,0,0,0,.312.092,2.116,2.116,0,0,0,.336.1,3.5,3.5,0,0,0,.342.086,1.835,1.835,0,0,0,.25.055c.147.031.305.061.458.079a.311.311,0,0,0,.1.018q.275.046.55.073c3.14.33,6.794-.556,10.7-2.81,11.651-6.727,21.1-23.088,21.1-36.535,0-.324-.006-.642-.018-.959Zm-14.131-9.513a18.792,18.792,0,0,1,.666,5.132c0,11.865-8.682,26.9-18.958,32.833a18.322,18.322,0,0,1-4.808,2,19.047,19.047,0,0,1-.666-5.138c0-11.865,8.682-26.9,18.958-32.833A18.292,18.292,0,0,1,108.666,173.862Z" transform="translate(-71.96 -164.27)" fill="#bfc9ff"/>
            <path id="Path_908357" data-name="Path 908357" d="M86.507,235.431,78.1,230.58c-3.794-2.218-6.14-6.934-6.14-13.63a41.848,41.848,0,0,1,4.992-18.61l8.663,5a41.768,41.768,0,0,0-4.992,18.61c0,6.562,2.23,11.217,5.884,13.49Z" transform="translate(-71.96 -177.525)" opacity="0.1"/>
            <path id="Path_908358" data-name="Path 908358" d="M128.314,186.56c-.006-.25-.018-.495-.037-.739s-.031-.483-.055-.721c-.012-.159-.031-.318-.049-.477-.043-.415-.1-.825-.171-1.216-.031-.177-.061-.36-.1-.538s-.067-.336-.1-.5c-.1-.452-.214-.892-.342-1.314-.067-.2-.128-.4-.2-.6a.538.538,0,0,1-.031-.092c-.073-.2-.141-.385-.214-.568-.086-.214-.171-.428-.269-.629-.067-.153-.134-.3-.214-.446a2.2,2.2,0,0,0-.159-.318c-.061-.128-.128-.257-.2-.379-.018-.031-.031-.061-.049-.086-.061-.11-.128-.22-.2-.33-.043-.073-.092-.141-.134-.208a11.149,11.149,0,0,0-1.051-1.4c-.067-.073-.134-.147-.2-.22s-.11-.116-.165-.171c-.067-.073-.141-.141-.214-.214a6.834,6.834,0,0,0-.635-.568c-.1-.092-.214-.177-.324-.257s-.22-.165-.336-.244a5.9,5.9,0,0,0-.544-.354c-3.831-2.328-9.183-2.053-15.1,1.362-11.651,6.727-21.1,23.082-21.1,36.535,0,6.812,2.419,11.572,6.323,13.734a5.6,5.6,0,0,0,.5.263c.208.1.422.2.635.281.189.079.385.153.58.214a3,3,0,0,0,.312.092,2.12,2.12,0,0,0,.336.1,3.5,3.5,0,0,0,.342.086,1.833,1.833,0,0,0,.25.055c.147.031.305.061.458.079a.31.31,0,0,0,.1.018q.275.046.55.073c3.14.33,6.794-.556,10.7-2.81,11.651-6.727,21.1-23.088,21.1-36.535,0-.324-.006-.642-.018-.959ZM105.1,220.352a15.1,15.1,0,0,1-7.283,2.3c-4.038,0-5.9-2.755-6.733-5.645a19.046,19.046,0,0,1-.666-5.138c0-11.865,8.682-26.9,18.958-32.833a18.292,18.292,0,0,1,4.808-1.992,10.633,10.633,0,0,1,2.474-.312c6.678,0,7.393,7.539,7.393,10.783C124.05,199.384,115.374,214.42,105.1,220.352Z" transform="translate(-77.477 -167.456)" fill="#fff" opacity="0.4"/>
            <path id="Path_908359" data-name="Path 908359" d="M127.2,190.243c0,11.865-8.676,26.9-18.952,32.833a15.1,15.1,0,0,1-7.283,2.3c-4.038,0-5.9-2.755-6.733-5.645a18.322,18.322,0,0,0,4.808-2C109.315,211.8,118,196.768,118,184.9a18.793,18.793,0,0,0-.666-5.132,10.634,10.634,0,0,1,2.474-.312C126.482,179.46,127.2,187,127.2,190.243Z" transform="translate(-80.624 -170.18)" opacity="0.1"/>
            <path id="Path_908360" data-name="Path 908360" d="M123.083,188.172c0,11.865-8.676,26.9-18.952,32.833a15.1,15.1,0,0,1-7.283,2.3,7.665,7.665,0,0,1-1.277-.1,9.347,9.347,0,0,1-1.766-3.47,19.047,19.047,0,0,1-.666-5.138c0-11.865,8.682-26.9,18.958-32.833a18.292,18.292,0,0,1,4.808-1.992,10.634,10.634,0,0,1,2.474-.312,7.739,7.739,0,0,1,1.283.1c2.108,2.487,2.419,6.476,2.419,8.608Z" transform="translate(-80.2 -170.18)" fill="#fff" opacity="0.7"/>
          </g>
          <path id="Path_908361" data-name="Path 908361" d="M105.113,270.611l-1.094,43.58a7.037,7.037,0,0,1-1.766-.69,2.767,2.767,0,0,1-1.668-2.468h-.006l1.625-42.681a2.038,2.038,0,0,0,1.2,1.674,5.357,5.357,0,0,0,1.7.587Z" transform="translate(-83.094 -204.762)" opacity="0.1"/>
        </g>
        <g id="Character" transform="translate(187.646 80.084)">
          <g id="Character2">
            <g id="Group_1120974" data-name="Group 1120974" transform="translate(9.091)">
              <path id="Path_908362" data-name="Path 908362" d="M368.419,196.762c-.037-.47-.91-5.474-1.515-8.272l-5.884,1.8,1.045,5.15,4.955,3.977c1.552-.305,1.43-2.187,1.4-2.658Z" transform="translate(-337.187 -153.415)" fill="#ffa8a7"/>
              <g id="Group_1120973" data-name="Group 1120973">
                <path id="Path_908363" data-name="Path 908363" d="M342.387,149.232h1.253a8.761,8.761,0,0,0,8.761-8.761h0a9.389,9.389,0,0,0-9.39-9.39h0a9.389,9.389,0,0,0-9.39,9.39h0a8.761,8.761,0,0,0,8.761,8.761Z" transform="translate(-326.527 -131.08)" fill="#263238"/>
                <path id="Path_908364" data-name="Path 908364" d="M324.79,184.76l-2.78,5.1,4.326,3.7,3.965-6.281Z" transform="translate(-322.01 -151.964)" fill="#f28f8f"/>
                <path id="Path_908365" data-name="Path 908365" d="M336.54,166.16c-2.755.031-5.792,1.033-6.837,3.2s-4.313,8.9-4.313,8.9,2.438,3.568,6.305,3.318Z" transform="translate(-323.325 -144.728)" fill="#bfc9ff"/>
                <g id="Group_1120972" data-name="Group 1120972" transform="translate(2.065 21.432)" opacity="0.1">
                  <path id="Path_908366" data-name="Path 908366" d="M336.54,166.16c-2.755.031-5.792,1.033-6.837,3.2s-4.313,8.9-4.313,8.9,2.438,3.568,6.305,3.318Z" transform="translate(-325.39 -166.16)"/>
                </g>
                <path id="Path_908367" data-name="Path 908367" d="M354.616,314.092v-.6c-.238.709-1.344,3.757-3.018,5.285-1.332,1.216-3.146,2.615-3.611,3.971-.483,1.405,2.529,1.882,3.77,1.662a7.647,7.647,0,0,0,4.332-2.328c.715-.88,1.173-1.918,1.68-2.615s1.686-1.46,1.967-2.261a5.094,5.094,0,0,0-.244-2.218c-.2-.745-.409-1.564-.66-1.5v.458a3.32,3.32,0,0,1-2.108.715C356.107,314.685,354.61,314.563,354.616,314.092Z" transform="translate(-332.096 -202.043)" fill="#263238"/>
                <path id="Path_908368" data-name="Path 908368" d="M351.667,317.628c.415-.367.831-.727,1.2-1.075a12.327,12.327,0,0,0,2.572-4.112,5.775,5.775,0,0,0,.44-2.224V307.81H360.1v3.916h0v.1l-.018.012c-.2.88-2.138,3.207-3.238,4.729a6.138,6.138,0,0,1-3.812,2.542c-1.589.214-2.4-.287-1.368-1.491Z" transform="translate(-333.369 -199.836)" fill="#ffa8a7"/>
                <path id="Path_908369" data-name="Path 908369" d="M328.946,307.432v-.6c-.238.709-1.344,3.757-3.018,5.285-1.332,1.216-3.146,2.615-3.611,3.971-.483,1.405,2.529,1.882,3.77,1.662a7.648,7.648,0,0,0,4.332-2.328c.715-.88,1.173-1.918,1.68-2.615s1.686-1.46,1.967-2.261a5.094,5.094,0,0,0-.244-2.218c-.2-.745-.409-1.564-.66-1.5v.458a3.319,3.319,0,0,1-2.108.715C330.437,308.025,328.94,307.9,328.946,307.432Z" transform="translate(-322.109 -199.452)" fill="#263238"/>
                <path id="Path_908370" data-name="Path 908370" d="M326,310.968c.415-.367.831-.727,1.2-1.075a12.327,12.327,0,0,0,2.572-4.112,5.775,5.775,0,0,0,.44-2.224V301.15h4.222v3.916h0v.1l-.018.012c-.2.88-2.138,3.208-3.238,4.729a6.138,6.138,0,0,1-3.812,2.542c-1.589.214-2.4-.287-1.369-1.491Z" transform="translate(-323.382 -197.244)" fill="#ffa8a7"/>
                <path id="Path_908371" data-name="Path 908371" d="M350.788,206.441c3.275,7.148-.116,32.32-.116,32.32.1,1.161,1.424,3.44,1.918,8.547.587,6.03-.916,21.176-.916,21.176a4.572,4.572,0,0,1-4.264.171s-4.02-22.807-4.778-28.807c-.66-5.236-1.925-17.534-1.925-17.534l-3.6,17.5a27.873,27.873,0,0,1,1,6.165c.086,3.544-2.071,19.08-2.071,19.08-.415.794-3.562.984-4.387.018,0,0-1.857-21.823-2.224-26.063-.22-2.535,2.67-33.627,2.67-33.627l18.7,1.045Z" transform="translate(-324.889 -159.99)" fill="#1fa2a2"/>
                <path id="Path_908372" data-name="Path 908372" d="M343.054,227.564l-1.063-5.847s-4.5-.929-6.531-2.847a11.645,11.645,0,0,0,5.315,3.531l1.191,5.108-2.083,15.476,3.171-15.427Z" transform="translate(-327.243 -165.234)" fill="#263238"/>
                <path id="Path_908373" data-name="Path 908373" d="M346.4,166.356h0a8.288,8.288,0,0,1,5.541,4.527,7.17,7.17,0,0,1,.2,5.407l-2.92,8.456s1.369,3.311,2.957,6.433c-7.338,4.093-16.5,1.943-18.7-1.045-.092-.635.031-3.489-.147-6.739-.189-3.464-.666-7.38-.122-9.525,1.014-3.977,2.908-7.71,6.678-7.71l6.519.189Z" transform="translate(-326.265 -144.728)" fill="#bfc9ff"/>
                <path id="Path_908374" data-name="Path 908374" d="M354.96,166.48c2.5.354,6.4.849,8.12,6.934,1.68,5.932,2.071,8,2.071,8a8.347,8.347,0,0,1-6.207,2.371l-1.289-4.57L354.96,166.48Z" transform="translate(-334.829 -144.852)" fill="#bfc9ff"/>
                <path id="Path_908375" data-name="Path 908375" d="M338.03,138.86c-.99.587-2.218,3.079-2.1,8.309.1,4.429,1.54,5.523,2.261,5.841a7.585,7.585,0,0,0,3.464-.1v2.658s-1.87,2.169-1.753,3.391,2.7,1.509,4.448.318a11.364,11.364,0,0,0,2.872-3.006v-6.427a1.694,1.694,0,0,0,2.407.226,3.185,3.185,0,0,0,.684-4.326,1.931,1.931,0,0,0-3.085.617,10.685,10.685,0,0,1-5.028-1.5,8.071,8.071,0,0,1-4.167-6Z" transform="translate(-327.424 -134.107)" fill="#ffa8a7"/>
                <path id="Path_908376" data-name="Path 908376" d="M344.039,150.28a.564.564,0,0,0,.525.6.575.575,0,0,0,.587-.55.564.564,0,0,0-.525-.6A.575.575,0,0,0,344.039,150.28Z" transform="translate(-330.58 -138.335)" fill="#263238"/>
                <path id="Path_908377" data-name="Path 908377" d="M342.965,156.78l-1.3.415a.665.665,0,0,0,.843.464.709.709,0,0,0,.452-.88Z" transform="translate(-329.659 -141.078)" fill="#f28f8f"/>
                <path id="Path_908378" data-name="Path 908378" d="M336.492,147.134l1.13-.782a.652.652,0,0,0-.935-.189.716.716,0,0,0-.189.971Z" transform="translate(-327.602 -136.9)" fill="#263238"/>
                <path id="Path_908379" data-name="Path 908379" d="M336.979,149.62a.564.564,0,0,0,.525.6.575.575,0,0,0,.587-.55.564.564,0,0,0-.525-.6A.575.575,0,0,0,336.979,149.62Z" transform="translate(-327.833 -138.079)" fill="#263238"/>
                <path id="Path_908380" data-name="Path 908380" d="M340.107,149.45l-.092,3.354-1.766-.544Z" transform="translate(-328.328 -138.227)" fill="#f28f8f"/>
                <path id="Path_908381" data-name="Path 908381" d="M345.31,160.457c1.423-.189,4.356-1.026,4.814-2.187a3.011,3.011,0,0,1-1.026,1.479,15.355,15.355,0,0,1-3.788,1.595Z" transform="translate(-331.075 -141.658)" fill="#f28f8f"/>
              </g>
              <path id="Path_908382" data-name="Path 908382" d="M360.1,189.4a44.34,44.34,0,0,1-1.442-4.643,16.979,16.979,0,0,0,1.21,5.309Z" transform="translate(-336.268 -151.964)" opacity="0.1"/>
            </g>
            <path id="Path_908383" data-name="Path 908383" d="M307.13,184.25l16.178,4.258,4.778,20.082L312.7,204.118Z" transform="translate(-307.13 -151.765)" fill="#e0e0e0"/>
            <g id="Group_1120975" data-name="Group 1120975" transform="translate(3.904 45.767)" opacity="0.1">
              <path id="Path_908384" data-name="Path 908384" d="M316.673,205.99a2.915,2.915,0,0,1-2.92,1.46l-.232-.831Z" transform="translate(-313.52 -205.99)"/>
            </g>
            <g id="Group_1120976" data-name="Group 1120976" transform="translate(10.673 46.396)" opacity="0.1">
              <path id="Path_908385" data-name="Path 908385" d="M324.6,207.02c.073.538,1.173,1.527,3.03,2.144a15.454,15.454,0,0,0,5.364.33l-.293-1-8.1-1.479Z" transform="translate(-324.6 -207.02)"/>
            </g>
            <g id="Group_1120977" data-name="Group 1120977" transform="translate(4.603 34.51)" opacity="0.1">
              <path id="Path_908386" data-name="Path 908386" d="M314.8,188.448s-.061-.275-.134-.617.874-.354,2.12-.031l2.383.617c1.246.324,2.316.861,2.389,1.2l.134.617Z" transform="translate(-314.663 -187.566)"/>
            </g>
            <path id="Path_908387" data-name="Path 908387" d="M313.047,184.674c-.049-.214.336-.269.861-.122l.947.263s-.281-1.332,1.815-.868a3.279,3.279,0,0,1,2.554,1.98l1.008.287c.556.159,1.063.458,1.124.672l.122.385-8.333-2.193s-.043-.183-.092-.4Z" transform="translate(-309.43 -151.609)" fill="#37474f"/>
            <path id="Path_908388" data-name="Path 908388" d="M314.774,186.13c.764.183,1.081.287,1.2.813.128.6.183,1.039.183,1.039l3.69.978s-.177-.758-.238-1.057.067-.477.654-.318l.049-.232-5.78-1.472.244.257Z" transform="translate(-310.009 -152.4)" fill="#37474f"/>
            <path id="Path_908389" data-name="Path 908389" d="M314.632,188.538s-.061-.275-.134-.617.874-.354,2.12-.031l2.383.617c1.246.324,2.316.861,2.389,1.2l.134.617Z" transform="translate(-309.995 -153.09)" fill="#37474f"/>
            <path id="Path_908390" data-name="Path 908390" d="M352.344,203.127l-4.955-3.977s-10.954,1.949-12.237,2.053a3.365,3.365,0,0,1-3.208-2.071c-.489-1.265-1.356-1.106-1.356-1.106s.379,1.6.5,2.114-2.963.929-4.674.354-4.185.263-2.652,2.59,4.515,2.6,6.592,2.6a22.166,22.166,0,0,0,2.59-.171c.672-.086,1.338-.153,2.01-.2,4.24-.3,15.463-1.57,17.388-2.175Z" transform="translate(-313.414 -157.122)" fill="#ffa8a7"/>
            <path id="Path_908391" data-name="Path 908391" d="M309.094,193.631s.58,2.065.721,2.56,2.022,1.387,3.208,1.717,2.493.715,1.925,2.377c-.519,1.533-2.474,1.882-3.47,1.839a3.682,3.682,0,0,1-2.9-2.529c-.684-1.955-.318-4.051-.587-5.193s.507-1.454,1.106-.77Z" transform="translate(-307.444 -155.275)" fill="#ffa8a7"/>
          </g>
          <path id="Path_908392" data-name="Path 908392" d="M369.03,159.766h0a5.893,5.893,0,0,1-5.89-5.89V140.05h0a5.893,5.893,0,0,1,5.89,5.89Z" transform="translate(-328.92 -134.57)" fill="#263238"/>
          <path id="Path_908393" data-name="Path 908393" d="M362.733,139.523l2.444-1.314a1.347,1.347,0,0,0-1.851-.611A1.458,1.458,0,0,0,362.733,139.523Z" transform="translate(-328.703 -133.554)" fill="#263238"/>
        </g>
        <g id="Cloud-2" data-name="Cloud" transform="translate(36.893 25.286)">
          <path id="Nube" d="M84.983,43.68,80.792,46.1c.018-.189.037-.373.037-.556V44.328c0-2.163-1.515-3.036-3.391-1.955a6.622,6.622,0,0,0-2.022,1.943c-.305-2.719-2.438-3.733-5.028-2.236a11.216,11.216,0,0,0-5.071,8.786v1.815a4.792,4.792,0,0,0,.428,2.108L62.262,56.8a4.158,4.158,0,0,0-1.882,3.256c0,1.2.843,1.686,1.882,1.088L84.983,48.024a4.158,4.158,0,0,0,1.882-3.256c0-1.2-.843-1.686-1.882-1.088Z" transform="translate(-60.38 -41.387)" fill="#bfc9ff"/>
        </g>
      </g>
    </g>
  </g>
</svg>
