<svg xmlns="http://www.w3.org/2000/svg" xmlns:xlink="http://www.w3.org/1999/xlink" width="85" height="85" viewBox="0 0 85 85">
  <defs>
    <clipPath id="clip-path">
      <rect id="Rectangle_401273" data-name="Rectangle 401273" width="12.919" height="12.92" fill="#f6f8de"/>
    </clipPath>
    <clipPath id="clip-path-2">
      <path id="Path_873519" data-name="Path 873519" d="M12.919,6.46A6.46,6.46,0,1,1,6.46,0a6.46,6.46,0,0,1,6.46,6.46" fill="#f6f8de"/>
    </clipPath>
  </defs>
  <g id="Group_1120619" data-name="Group 1120619" transform="translate(3870 6172)">
    <path id="Path_906868" data-name="Path 906868" d="M42.5,0A42.5,42.5,0,1,1,0,42.5,42.5,42.5,0,0,1,42.5,0Z" transform="translate(-3870 -6172)" fill="#fff"/>
    <g id="Group_1119330" data-name="Group 1119330" transform="translate(-3862.273 -6154.828)">
      <g id="Group_1099855" data-name="Group 1099855" transform="translate(0 0)">
        <g id="Group_1099808" data-name="Group 1099808" transform="translate(0 0)">
          <g id="Group_1101062" data-name="Group 1101062" transform="translate(0 28.556)">
            <g id="Group_1101056" data-name="Group 1101056" transform="translate(12.92) rotate(90)" opacity="0.998" style="isolation: isolate">
              <g id="Group_1099844" data-name="Group 1099844" transform="translate(0 0)">
                <g id="Group_1099843" data-name="Group 1099843" transform="translate(0 0)" clip-path="url(#clip-path)">
                  <g id="Group_1099842" data-name="Group 1099842" transform="translate(0 0)">
                    <g id="Group_1099841" data-name="Group 1099841" clip-path="url(#clip-path-2)">
                      <rect id="Rectangle_401272" data-name="Rectangle 401272" width="16.423" height="16.423" transform="translate(-3.979 11.549) rotate(-70.991)" fill="#f6f8de"/>
                    </g>
                  </g>
                </g>
              </g>
            </g>
            <g id="Group_1101057" data-name="Group 1101057" transform="translate(12.92 12.919) rotate(90)" opacity="0.998" style="isolation: isolate">
              <g id="Group_1099844-2" data-name="Group 1099844" transform="translate(0 0)">
                <g id="Group_1099843-2" data-name="Group 1099843" transform="translate(0 0)" clip-path="url(#clip-path)">
                  <g id="Group_1099842-2" data-name="Group 1099842" transform="translate(0 0)">
                    <g id="Group_1099841-2" data-name="Group 1099841" clip-path="url(#clip-path-2)">
                      <rect id="Rectangle_401272-2" data-name="Rectangle 401272" width="16.423" height="16.423" transform="translate(-3.979 11.549) rotate(-70.991)" fill="#f6f8de"/>
                    </g>
                  </g>
                </g>
              </g>
            </g>
            <g id="Group_1101058" data-name="Group 1101058" transform="translate(12.92 25.838) rotate(90)" opacity="0.998" style="isolation: isolate">
              <g id="Group_1099844-3" data-name="Group 1099844" transform="translate(0 0)">
                <g id="Group_1099843-3" data-name="Group 1099843" transform="translate(0 0)" clip-path="url(#clip-path)">
                  <g id="Group_1099842-3" data-name="Group 1099842" transform="translate(0 0)">
                    <g id="Group_1099841-3" data-name="Group 1099841" clip-path="url(#clip-path-2)">
                      <rect id="Rectangle_401272-3" data-name="Rectangle 401272" width="16.423" height="16.423" transform="translate(-3.979 11.549) rotate(-70.991)" fill="#f6f8de"/>
                    </g>
                  </g>
                </g>
              </g>
            </g>
            <g id="Group_1101059" data-name="Group 1101059" transform="translate(25.839 25.955) rotate(90)" opacity="0.998" style="isolation: isolate">
              <g id="Group_1099844-4" data-name="Group 1099844" transform="translate(0 0)">
                <g id="Group_1099843-4" data-name="Group 1099843" transform="translate(0 0)" clip-path="url(#clip-path)">
                  <g id="Group_1099842-4" data-name="Group 1099842" transform="translate(0 0)">
                    <g id="Group_1099841-4" data-name="Group 1099841" clip-path="url(#clip-path-2)">
                      <rect id="Rectangle_401272-4" data-name="Rectangle 401272" width="16.423" height="16.423" transform="translate(-3.979 11.549) rotate(-70.991)" fill="#f6f8de"/>
                    </g>
                  </g>
                </g>
              </g>
            </g>
            <g id="Group_1101060" data-name="Group 1101060" transform="translate(25.839 12.919) rotate(90)" opacity="0.998" style="isolation: isolate">
              <g id="Group_1099844-5" data-name="Group 1099844" transform="translate(0 0)">
                <g id="Group_1099843-5" data-name="Group 1099843" transform="translate(0 0)" clip-path="url(#clip-path)">
                  <g id="Group_1099842-5" data-name="Group 1099842" transform="translate(0 0)">
                    <g id="Group_1099841-5" data-name="Group 1099841" clip-path="url(#clip-path-2)">
                      <rect id="Rectangle_401272-5" data-name="Rectangle 401272" width="16.423" height="16.423" transform="translate(-3.979 11.549) rotate(-70.991)" fill="#f6f8de"/>
                    </g>
                  </g>
                </g>
              </g>
            </g>
            <g id="Group_1101061" data-name="Group 1101061" transform="translate(38.758 25.955) rotate(90)" opacity="0.998" style="isolation: isolate">
              <g id="Group_1099844-6" data-name="Group 1099844" transform="translate(0 0)">
                <g id="Group_1099843-6" data-name="Group 1099843" transform="translate(0 0)" clip-path="url(#clip-path)">
                  <g id="Group_1099842-6" data-name="Group 1099842" transform="translate(0 0)">
                    <g id="Group_1099841-6" data-name="Group 1099841" clip-path="url(#clip-path-2)">
                      <rect id="Rectangle_401272-6" data-name="Rectangle 401272" width="16.423" height="16.423" transform="translate(-3.979 11.549) rotate(-70.991)" fill="#f6f8de"/>
                    </g>
                  </g>
                </g>
              </g>
            </g>
          </g>
          <g id="Group_1099776" data-name="Group 1099776" transform="translate(10.368 0)">
            <g id="Group_1099618" data-name="Group 1099618" transform="translate(0 0)">
              <rect id="Rectangle_401104" data-name="Rectangle 401104" width="49.646" height="50.244" transform="translate(0)" fill="none"/>
            </g>
            <g id="Group_1120659" data-name="Group 1120659" transform="translate(-1 -1.015)">
              <path id="Path_907129" data-name="Path 907129" d="M41.5,32.689a13.2,13.2,0,1,0-24.1,7.959,19.29,19.29,0,0,1,2.791,5.711,27.424,27.424,0,0,1,.977,8.024l1.6.1a28.521,28.521,0,0,0-1.032-8.551,20.826,20.826,0,0,0-3.012-6.187A11.6,11.6,0,1,1,39.9,32.95a.791.791,0,0,0,.16.46l3.113,5.335H40.709a.8.8,0,0,0-.8.8v6.616a.854.854,0,0,1-.853.853H32.99v1.6h1.956v5.816h1.6V48.616h2.508a2.458,2.458,0,0,0,2.454-2.454V40.347h3.057a.8.8,0,0,0,.692-1.2Z" transform="translate(-2.809 -3.781)" fill="#474d41"/>
              <path id="Path_907130" data-name="Path 907130" d="M29.207,26a7.207,7.207,0,1,0,7.207,7.207A7.207,7.207,0,0,0,29.207,26Zm0,12.812a5.605,5.605,0,1,1,5.605-5.605,5.605,5.605,0,0,1-5.605,5.605Z" transform="translate(-4.184 -4.977)" fill="#474d41"/>
              <path id="Path_907131" data-name="Path 907131" d="M32,31h1.6v1.6H32Z" transform="translate(-6.177 -5.973)" fill="#474d41"/>
              <path id="Path_907132" data-name="Path 907132" d="M28,31h1.6v1.6H28Z" transform="translate(-5.38 -5.973)" fill="#474d41"/>
              <path id="Path_907133" data-name="Path 907133" d="M32.406,35a2.4,2.4,0,0,1-4.8,0H26a4,4,0,0,0,8.007,0Z" transform="translate(-4.981 -6.77)" fill="#474d41"/>
              <path id="Path_907134" data-name="Path 907134" d="M32.044,13.816V4.207L33,5.489l1.281-.961-2.4-3.2a.83.83,0,0,0-1.281,0l-2.4,3.2,1.281.961.961-1.281v9.609Z" transform="translate(-5.42)" fill="#474d41"/>
              <path id="Path_907135" data-name="Path 907135" d="M56.886,26.2l-.961,1.281,1.281.961H50v1.6h7.207L55.926,31l.961,1.281,3.2-2.4a.8.8,0,0,0,0-1.281Z" transform="translate(-9.763 -5.017)" fill="#474d41"/>
              <path id="Path_907136" data-name="Path 907136" d="M51.336,13.574,51.9,9.61A.8.8,0,0,0,51,8.7l-3.964.566.227,1.586,1.585-.227-6.552,6.552,1.132,1.132,6.552-6.552-.227,1.585Z" transform="translate(-8.228 -1.529)" fill="#474d41"/>
              <path id="Path_907137" data-name="Path 907137" d="M5.484,27.481,4.523,26.2l-3.2,2.4a.8.8,0,0,0,0,1.281l3.2,2.4L5.484,31,4.2,30.044h6.406v-1.6H4.2Z" transform="translate(0 -5.017)" fill="#474d41"/>
              <path id="Path_907138" data-name="Path 907138" d="M18.914,16.781,12.762,10.63l1.585.227.227-1.586L10.611,8.7A.8.8,0,0,0,9.7,9.61l.566,3.964,1.585-.227-.227-1.585,6.151,6.151Z" transform="translate(-1.733 -1.529)" fill="#474d41"/>
            </g>
          </g>
        </g>
      </g>
    </g>
  </g>
</svg>
