<svg xmlns="http://www.w3.org/2000/svg" xmlns:xlink="http://www.w3.org/1999/xlink" width="120" height="120" viewBox="0 0 120 120">
  <defs>
    <clipPath id="clip-path">
      <rect id="Rectangle_400938" data-name="Rectangle 400938" width="113" height="113" fill="none"/>
    </clipPath>
    <clipPath id="clip-path-2">
      <rect id="Rectangle_401742" data-name="Rectangle 401742" width="120" height="120" fill="none"/>
    </clipPath>
    <clipPath id="clip-path-3">
      <rect id="Rectangle_401301" data-name="Rectangle 401301" width="64.317" height="193.113" fill="#d4e157"/>
    </clipPath>
    <clipPath id="clip-path-5">
      <rect id="Rectangle_401247" data-name="Rectangle 401247" width="15.921" height="15.92" fill="#d4e157"/>
    </clipPath>
    <clipPath id="clip-path-6">
      <path id="Path_873506" data-name="Path 873506" d="M15.921,7.96A7.96,7.96,0,1,1,7.96,0a7.961,7.961,0,0,1,7.961,7.96" fill="#d4e157"/>
    </clipPath>
    <clipPath id="clip-path-8">
      <path id="Path_873507" data-name="Path 873507" d="M15.921,7.96A7.96,7.96,0,1,1,7.96,0a7.96,7.96,0,0,1,7.961,7.96" fill="#d4e157"/>
    </clipPath>
    <clipPath id="clip-path-13">
      <rect id="Rectangle_401261" data-name="Rectangle 401261" width="15.92" height="15.92" fill="#d4e157"/>
    </clipPath>
    <clipPath id="clip-path-14">
      <path id="Path_873513" data-name="Path 873513" d="M15.92,7.96A7.96,7.96,0,1,1,7.96,0a7.96,7.96,0,0,1,7.96,7.96" fill="#d4e157"/>
    </clipPath>
    <clipPath id="clip-path-15">
      <rect id="Rectangle_401263" data-name="Rectangle 401263" width="15.921" height="15.921" fill="#d4e157"/>
    </clipPath>
    <clipPath id="clip-path-16">
      <path id="Path_873514" data-name="Path 873514" d="M15.921,7.961A7.96,7.96,0,1,1,7.96,0a7.961,7.961,0,0,1,7.961,7.961" fill="#d4e157"/>
    </clipPath>
    <clipPath id="clip-path-21">
      <rect id="Rectangle_401273" data-name="Rectangle 401273" width="15.92" height="15.921" fill="#d4e157"/>
    </clipPath>
    <clipPath id="clip-path-22">
      <path id="Path_873519" data-name="Path 873519" d="M15.92,7.961A7.96,7.96,0,1,1,7.96,0a7.96,7.96,0,0,1,7.96,7.961" fill="#d4e157"/>
    </clipPath>
    <clipPath id="clip-path-24">
      <path id="Path_873521" data-name="Path 873521" d="M15.921,7.96A7.96,7.96,0,1,1,7.961,0a7.96,7.96,0,0,1,7.96,7.96" fill="#d4e157"/>
    </clipPath>
    <clipPath id="clip-path-32">
      <path id="Path_873532" data-name="Path 873532" d="M15.921,7.961A7.96,7.96,0,1,1,7.961,0a7.96,7.96,0,0,1,7.96,7.961" fill="#d4e157"/>
    </clipPath>
  </defs>
  <g id="Group_1120628" data-name="Group 1120628" transform="translate(-180.711 -1630)">
    <g id="Group_1101154" data-name="Group 1101154" transform="translate(180.711 1630.434)">
      <g id="Group_1099379" data-name="Group 1099379" transform="translate(0 -0.434)">
        <rect id="Rectangle_401103" data-name="Rectangle 401103" width="120" height="120" transform="translate(0 0)" fill="none"/>
        <path id="Path_873425" data-name="Path 873425" d="M49.147,0C76.29,0,98.293,23.571,98.293,52.647s-22,52.647-49.147,52.647S0,81.723,0,52.647,22,0,49.147,0Z" transform="translate(15.677 12.583)" fill="#b9bfe2"/>
        <g id="Mask_Group_1100032" data-name="Mask Group 1100032" transform="translate(0 0)" clip-path="url(#clip-path-2)">
          <g id="Group_1101051" data-name="Group 1101051" transform="translate(148.45 -27.966) rotate(90)" style="isolation: isolate">
            <g id="Group_1099913" data-name="Group 1099913" clip-path="url(#clip-path-3)" style="isolation: isolate">
              <g id="Group_1099912" data-name="Group 1099912">
                <g id="Group_1099911" data-name="Group 1099911" clip-path="url(#clip-path-3)">
                  <g id="Group_1099780" data-name="Group 1099780" transform="translate(48.396 81.162)" style="isolation: isolate">
                    <g id="Group_1099779" data-name="Group 1099779">
                      <g id="Group_1099778" data-name="Group 1099778" transform="translate(0 0)" clip-path="url(#clip-path-5)">
                        <g id="Group_1099777" data-name="Group 1099777" transform="translate(0 0)">
                          <g id="Group_1099776" data-name="Group 1099776" clip-path="url(#clip-path-6)">
                            <path id="Path_875145" data-name="Path 875145" d="M0,0H20.238V20.238H0Z" transform="translate(-4.903 14.231) rotate(-70.991)" fill="#d4e157"/>
                          </g>
                        </g>
                      </g>
                    </g>
                  </g>
                  <g id="Group_1099785" data-name="Group 1099785" transform="translate(48.396 97.082)" style="isolation: isolate">
                    <g id="Group_1099784" data-name="Group 1099784">
                      <g id="Group_1099783" data-name="Group 1099783" clip-path="url(#clip-path-5)">
                        <g id="Group_1099782" data-name="Group 1099782" transform="translate(0)">
                          <g id="Group_1099781" data-name="Group 1099781" clip-path="url(#clip-path-8)">
                            <path id="Path_875146" data-name="Path 875146" d="M0,0H20.238V20.238H0Z" transform="translate(-4.903 14.231) rotate(-70.991)" fill="#d4e157"/>
                          </g>
                        </g>
                      </g>
                    </g>
                  </g>
                  <g id="Group_1099790" data-name="Group 1099790" transform="translate(48.396 113.052)" style="isolation: isolate">
                    <g id="Group_1099789" data-name="Group 1099789">
                      <g id="Group_1099788" data-name="Group 1099788" transform="translate(0 0)" clip-path="url(#clip-path-5)">
                        <g id="Group_1099787" data-name="Group 1099787" transform="translate(0 0)">
                          <g id="Group_1099786" data-name="Group 1099786" clip-path="url(#clip-path-6)">
                            <path id="Path_875147" data-name="Path 875147" d="M0,0H20.238V20.238H0Z" transform="translate(-4.903 14.231) rotate(-70.991)" fill="#d4e157"/>
                          </g>
                        </g>
                      </g>
                    </g>
                  </g>
                  <g id="Group_1099795" data-name="Group 1099795" transform="translate(48.396 128.972)" style="isolation: isolate">
                    <g id="Group_1099794" data-name="Group 1099794">
                      <g id="Group_1099793" data-name="Group 1099793" transform="translate(0 0)" clip-path="url(#clip-path-5)">
                        <g id="Group_1099792" data-name="Group 1099792" transform="translate(0 0)">
                          <g id="Group_1099791" data-name="Group 1099791" clip-path="url(#clip-path-8)">
                            <path id="Path_875148" data-name="Path 875148" d="M0,0H20.238V20.238H0Z" transform="translate(-4.903 14.231) rotate(-70.991)" fill="#d4e157"/>
                          </g>
                        </g>
                      </g>
                    </g>
                  </g>
                  <g id="Group_1099815" data-name="Group 1099815" transform="translate(32.476 81.162)" style="isolation: isolate">
                    <g id="Group_1099814" data-name="Group 1099814">
                      <g id="Group_1099813" data-name="Group 1099813" transform="translate(0 0)" clip-path="url(#clip-path-13)">
                        <g id="Group_1099812" data-name="Group 1099812" transform="translate(0 0)">
                          <g id="Group_1099811" data-name="Group 1099811" clip-path="url(#clip-path-14)">
                            <path id="Path_875149" data-name="Path 875149" d="M0,0H20.238V20.238H0Z" transform="translate(-4.903 14.231) rotate(-70.991)" fill="#d4e157"/>
                          </g>
                        </g>
                      </g>
                    </g>
                  </g>
                  <g id="Group_1099820" data-name="Group 1099820" transform="translate(48.396 64.723)" style="isolation: isolate">
                    <g id="Group_1099819" data-name="Group 1099819">
                      <g id="Group_1099818" data-name="Group 1099818" transform="translate(0 0)" clip-path="url(#clip-path-15)">
                        <g id="Group_1099817" data-name="Group 1099817" transform="translate(0 0)">
                          <g id="Group_1099816" data-name="Group 1099816" clip-path="url(#clip-path-16)">
                            <path id="Path_875150" data-name="Path 875150" d="M0,0H20.238V20.238H0Z" transform="matrix(0.326, -0.945, 0.945, 0.326, -4.903, 14.232)" fill="#d4e157"/>
                          </g>
                        </g>
                      </g>
                    </g>
                  </g>
                  <g id="Group_1099825" data-name="Group 1099825" transform="translate(48.396 48.715)" style="isolation: isolate">
                    <g id="Group_1099824" data-name="Group 1099824">
                      <g id="Group_1099823" data-name="Group 1099823" transform="translate(0 0)" clip-path="url(#clip-path-5)">
                        <g id="Group_1099822" data-name="Group 1099822" transform="translate(0 0)">
                          <g id="Group_1099821" data-name="Group 1099821" clip-path="url(#clip-path-6)">
                            <path id="Path_875151" data-name="Path 875151" d="M0,0H20.238V20.238H0Z" transform="translate(-4.903 14.231) rotate(-70.991)" fill="#d4e157"/>
                          </g>
                        </g>
                      </g>
                    </g>
                  </g>
                  <g id="Group_1099830" data-name="Group 1099830" transform="translate(48.396 32.501)" style="isolation: isolate">
                    <g id="Group_1099829" data-name="Group 1099829">
                      <g id="Group_1099828" data-name="Group 1099828" transform="translate(0 0)" clip-path="url(#clip-path-15)">
                        <g id="Group_1099827" data-name="Group 1099827" transform="translate(0 0)">
                          <g id="Group_1099826" data-name="Group 1099826" clip-path="url(#clip-path-16)">
                            <path id="Path_875152" data-name="Path 875152" d="M0,0H20.238V20.238H0Z" transform="translate(-4.903 14.232) rotate(-70.991)" fill="#d4e157"/>
                          </g>
                        </g>
                      </g>
                    </g>
                  </g>
                  <g id="Group_1099845" data-name="Group 1099845" transform="translate(32.476 64.723)" style="isolation: isolate">
                    <g id="Group_1099844" data-name="Group 1099844">
                      <g id="Group_1099843" data-name="Group 1099843" transform="translate(0 0)" clip-path="url(#clip-path-21)">
                        <g id="Group_1099842" data-name="Group 1099842" transform="translate(0 0)">
                          <g id="Group_1099841" data-name="Group 1099841" clip-path="url(#clip-path-22)">
                            <path id="Path_875153" data-name="Path 875153" d="M0,0H20.238V20.238H0Z" transform="translate(-4.903 14.232) rotate(-70.991)" fill="#d4e157"/>
                          </g>
                        </g>
                      </g>
                    </g>
                  </g>
                  <g id="Group_1099855" data-name="Group 1099855" transform="translate(32.11 97.082)" style="isolation: isolate">
                    <g id="Group_1099854" data-name="Group 1099854">
                      <g id="Group_1099853" data-name="Group 1099853" clip-path="url(#clip-path-5)">
                        <g id="Group_1099852" data-name="Group 1099852" transform="translate(0)">
                          <g id="Group_1099851" data-name="Group 1099851" clip-path="url(#clip-path-24)">
                            <path id="Path_875154" data-name="Path 875154" d="M0,0H20.238V20.238H0Z" transform="translate(-4.903 14.231) rotate(-70.991)" fill="#d4e157"/>
                          </g>
                        </g>
                      </g>
                    </g>
                  </g>
                  <g id="Group_1099870" data-name="Group 1099870" transform="translate(32.11 113.052)" style="isolation: isolate">
                    <g id="Group_1099869" data-name="Group 1099869">
                      <g id="Group_1099868" data-name="Group 1099868" transform="translate(0 0)" clip-path="url(#clip-path-5)">
                        <g id="Group_1099867" data-name="Group 1099867" transform="translate(0 0)">
                          <g id="Group_1099866" data-name="Group 1099866" clip-path="url(#clip-path-24)">
                            <path id="Path_875155" data-name="Path 875155" d="M0,0H20.238V20.238H0Z" transform="translate(-4.903 14.231) rotate(-70.991)" fill="#d4e157"/>
                          </g>
                        </g>
                      </g>
                    </g>
                  </g>
                  <g id="Group_1099885" data-name="Group 1099885" transform="translate(32.11 128.972)" style="isolation: isolate">
                    <g id="Group_1099884" data-name="Group 1099884">
                      <g id="Group_1099883" data-name="Group 1099883" transform="translate(0 0)" clip-path="url(#clip-path-5)">
                        <g id="Group_1099882" data-name="Group 1099882" transform="translate(0 0)">
                          <g id="Group_1099881" data-name="Group 1099881" clip-path="url(#clip-path-24)">
                            <path id="Path_875156" data-name="Path 875156" d="M0,0H20.238V20.238H0Z" transform="translate(-4.903 14.231) rotate(-70.991)" fill="#d4e157"/>
                          </g>
                        </g>
                      </g>
                    </g>
                  </g>
                  <g id="Group_1099900" data-name="Group 1099900" transform="translate(32.476 48.788)" style="isolation: isolate">
                    <g id="Group_1099899" data-name="Group 1099899">
                      <g id="Group_1099898" data-name="Group 1099898" transform="translate(0 0)" clip-path="url(#clip-path-21)">
                        <g id="Group_1099897" data-name="Group 1099897" transform="translate(0 0)">
                          <g id="Group_1099896" data-name="Group 1099896" clip-path="url(#clip-path-22)">
                            <path id="Path_875157" data-name="Path 875157" d="M0,0H20.238V20.238H0Z" transform="translate(-4.903 14.232) rotate(-70.991)" fill="#d4e157"/>
                          </g>
                        </g>
                      </g>
                    </g>
                  </g>
                  <g id="Group_1099910" data-name="Group 1099910" transform="translate(32.11 32.501)" style="isolation: isolate">
                    <g id="Group_1099909" data-name="Group 1099909">
                      <g id="Group_1099908" data-name="Group 1099908" transform="translate(0 0)" clip-path="url(#clip-path-15)">
                        <g id="Group_1099907" data-name="Group 1099907" transform="translate(0 0)">
                          <g id="Group_1099906" data-name="Group 1099906" clip-path="url(#clip-path-32)">
                            <path id="Path_875158" data-name="Path 875158" d="M0,0H20.238V20.238H0Z" transform="matrix(0.326, -0.945, 0.945, 0.326, -4.903, 14.232)" fill="#d4e157"/>
                          </g>
                        </g>
                      </g>
                    </g>
                  </g>
                </g>
              </g>
            </g>
          </g>
        </g>
        <circle id="Ellipse_11503" data-name="Ellipse 11503" cx="51.5" cy="51.5" r="51.5" transform="translate(8 9)" fill="#f3f9ff"/>
      </g>
    </g>
    <g id="Group_1101156" data-name="Group 1101156" transform="translate(207.504 1655.256)">
      <g id="Group_1099389" data-name="Group 1099389" transform="translate(0.293 -0.141)">
        <rect id="Rectangle_401104" data-name="Rectangle 401104" width="67" height="68" transform="translate(-0.086 -0.116)" fill="none"/>
      </g>
      <g id="Group_1120942" data-name="Group 1120942" transform="translate(-1.793 -1.445)">
        <path id="Path_908216" data-name="Path 908216" d="M22.217,18.681h5.193V64.528a1.117,1.117,0,0,0,1.117,1.117h9.492a1.117,1.117,0,0,0,1.117-1.117V18.681h5.193A1.117,1.117,0,0,0,45.14,16.8L34.085,5.068a1.151,1.151,0,0,0-1.626,0L21.4,16.8a1.117,1.117,0,0,0,.813,1.882ZM33.272,7.462l8.465,8.986h-3.72A1.117,1.117,0,0,0,36.9,17.565V63.412H29.642V17.565a1.117,1.117,0,0,0-1.117-1.117h-3.72Z" transform="translate(2.228 0)" fill="#474d41"/>
        <path id="Path_908217" data-name="Path 908217" d="M15.492,62.466h9.492A1.117,1.117,0,0,0,26.1,61.349V33.1a1.117,1.117,0,0,0-1.777-.9l-9.492,6.952a1.117,1.117,0,0,0-.457.9v21.3A1.117,1.117,0,0,0,15.492,62.466Zm1.117-21.852L23.867,35.3V60.233H16.608Z" transform="translate(1.444 3.179)" fill="#474d41"/>
        <path id="Path_908218" data-name="Path 908218" d="M39.737,32.091a1.117,1.117,0,0,0-.612,1V61.351a1.117,1.117,0,0,0,1.117,1.117h9.492a1.117,1.117,0,0,0,1.117-1.117V40.029a1.117,1.117,0,0,0-.457-.9L40.9,32.186A1.117,1.117,0,0,0,39.737,32.091Zm1.621,3.2L48.617,40.6V60.234H41.358Z" transform="translate(4.331 3.178)" fill="#474d41"/>
        <path id="Path_908219" data-name="Path 908219" d="M62.728,47.17l-9.453-6.923a1.117,1.117,0,0,0-1.777.9V60.41a1.117,1.117,0,0,0,1.117,1.117h9.493a1.117,1.117,0,0,0,1.117-1.117V48.094a1.142,1.142,0,0,0-.5-.925ZM60.992,59.294H53.733V43.353l7.258,5.313Z" transform="translate(5.775 4.118)" fill="#474d41"/>
        <path id="Path_908220" data-name="Path 908220" d="M3.117,61.527h9.492a1.117,1.117,0,0,0,1.117-1.117V41.142a1.117,1.117,0,0,0-.53-.938,1.133,1.133,0,0,0-1.266.047L2.457,47.183a1.117,1.117,0,0,0-.457.9V60.41a1.117,1.117,0,0,0,1.117,1.117ZM4.233,48.65l7.258-5.312V59.293H4.233Z" transform="translate(0 4.118)" fill="#474d41"/>
      </g>
    </g>
  </g>
</svg>
