<svg xmlns="http://www.w3.org/2000/svg" xmlns:xlink="http://www.w3.org/1999/xlink" width="85" height="85" viewBox="0 0 85 85">
  <defs>
    <clipPath id="clip-path">
      <rect id="Rectangle_401273" data-name="Rectangle 401273" width="12.919" height="12.92" fill="#f6f8de"/>
    </clipPath>
    <clipPath id="clip-path-2">
      <path id="Path_873519" data-name="Path 873519" d="M12.919,6.46A6.46,6.46,0,1,1,6.46,0a6.46,6.46,0,0,1,6.46,6.46" fill="#f6f8de"/>
    </clipPath>
  </defs>
  <g id="Group_1120621" data-name="Group 1120621" transform="translate(3870 6172)">
    <rect id="Rectangle_409320" data-name="Rectangle 409320" width="85" height="85" rx="42.5" transform="translate(-3870 -6172)" fill="#fff"/>
    <g id="Group_1119330" data-name="Group 1119330" transform="translate(-3862.273 -6154.828)">
      <g id="Group_1099855" data-name="Group 1099855" transform="translate(0 0)">
        <g id="Group_1099808" data-name="Group 1099808" transform="translate(0 0)">
          <g id="Group_1101062" data-name="Group 1101062" transform="translate(0 28.556)">
            <g id="Group_1101056" data-name="Group 1101056" transform="translate(12.92) rotate(90)" opacity="0.998" style="isolation: isolate">
              <g id="Group_1099844" data-name="Group 1099844" transform="translate(0 0)">
                <g id="Group_1099843" data-name="Group 1099843" transform="translate(0 0)" clip-path="url(#clip-path)">
                  <g id="Group_1099842" data-name="Group 1099842" transform="translate(0 0)">
                    <g id="Group_1099841" data-name="Group 1099841" clip-path="url(#clip-path-2)">
                      <rect id="Rectangle_401272" data-name="Rectangle 401272" width="16.423" height="16.423" transform="translate(-3.979 11.549) rotate(-70.991)" fill="#f6f8de"/>
                    </g>
                  </g>
                </g>
              </g>
            </g>
            <g id="Group_1101057" data-name="Group 1101057" transform="translate(12.92 12.919) rotate(90)" opacity="0.998" style="isolation: isolate">
              <g id="Group_1099844-2" data-name="Group 1099844" transform="translate(0 0)">
                <g id="Group_1099843-2" data-name="Group 1099843" transform="translate(0 0)" clip-path="url(#clip-path)">
                  <g id="Group_1099842-2" data-name="Group 1099842" transform="translate(0 0)">
                    <g id="Group_1099841-2" data-name="Group 1099841" clip-path="url(#clip-path-2)">
                      <rect id="Rectangle_401272-2" data-name="Rectangle 401272" width="16.423" height="16.423" transform="translate(-3.979 11.549) rotate(-70.991)" fill="#f6f8de"/>
                    </g>
                  </g>
                </g>
              </g>
            </g>
            <g id="Group_1101058" data-name="Group 1101058" transform="translate(12.92 25.838) rotate(90)" opacity="0.998" style="isolation: isolate">
              <g id="Group_1099844-3" data-name="Group 1099844" transform="translate(0 0)">
                <g id="Group_1099843-3" data-name="Group 1099843" transform="translate(0 0)" clip-path="url(#clip-path)">
                  <g id="Group_1099842-3" data-name="Group 1099842" transform="translate(0 0)">
                    <g id="Group_1099841-3" data-name="Group 1099841" clip-path="url(#clip-path-2)">
                      <rect id="Rectangle_401272-3" data-name="Rectangle 401272" width="16.423" height="16.423" transform="translate(-3.979 11.549) rotate(-70.991)" fill="#f6f8de"/>
                    </g>
                  </g>
                </g>
              </g>
            </g>
            <g id="Group_1101059" data-name="Group 1101059" transform="translate(25.839 25.955) rotate(90)" opacity="0.998" style="isolation: isolate">
              <g id="Group_1099844-4" data-name="Group 1099844" transform="translate(0 0)">
                <g id="Group_1099843-4" data-name="Group 1099843" transform="translate(0 0)" clip-path="url(#clip-path)">
                  <g id="Group_1099842-4" data-name="Group 1099842" transform="translate(0 0)">
                    <g id="Group_1099841-4" data-name="Group 1099841" clip-path="url(#clip-path-2)">
                      <rect id="Rectangle_401272-4" data-name="Rectangle 401272" width="16.423" height="16.423" transform="translate(-3.979 11.549) rotate(-70.991)" fill="#f6f8de"/>
                    </g>
                  </g>
                </g>
              </g>
            </g>
            <g id="Group_1101060" data-name="Group 1101060" transform="translate(25.839 12.919) rotate(90)" opacity="0.998" style="isolation: isolate">
              <g id="Group_1099844-5" data-name="Group 1099844" transform="translate(0 0)">
                <g id="Group_1099843-5" data-name="Group 1099843" transform="translate(0 0)" clip-path="url(#clip-path)">
                  <g id="Group_1099842-5" data-name="Group 1099842" transform="translate(0 0)">
                    <g id="Group_1099841-5" data-name="Group 1099841" clip-path="url(#clip-path-2)">
                      <rect id="Rectangle_401272-5" data-name="Rectangle 401272" width="16.423" height="16.423" transform="translate(-3.979 11.549) rotate(-70.991)" fill="#f6f8de"/>
                    </g>
                  </g>
                </g>
              </g>
            </g>
            <g id="Group_1101061" data-name="Group 1101061" transform="translate(38.758 25.955) rotate(90)" opacity="0.998" style="isolation: isolate">
              <g id="Group_1099844-6" data-name="Group 1099844" transform="translate(0 0)">
                <g id="Group_1099843-6" data-name="Group 1099843" transform="translate(0 0)" clip-path="url(#clip-path)">
                  <g id="Group_1099842-6" data-name="Group 1099842" transform="translate(0 0)">
                    <g id="Group_1099841-6" data-name="Group 1099841" clip-path="url(#clip-path-2)">
                      <rect id="Rectangle_401272-6" data-name="Rectangle 401272" width="16.423" height="16.423" transform="translate(-3.979 11.549) rotate(-70.991)" fill="#f6f8de"/>
                    </g>
                  </g>
                </g>
              </g>
            </g>
          </g>
          <g id="Group_1099776" data-name="Group 1099776" transform="translate(10.368 0)">
            <g id="Group_1099618" data-name="Group 1099618" transform="translate(0 0)">
              <rect id="Rectangle_401104" data-name="Rectangle 401104" width="49.646" height="50.244" transform="translate(0)" fill="none"/>
            </g>
            <path id="Path_907147" data-name="Path 907147" d="M49.846,18.615h-.267L45.78,9.5a.8.8,0,0,0-.739-.493H38.635v-.8a.8.8,0,0,0-.8-.8H29.006a4,4,0,1,0-6.365,0H13.812a.8.8,0,0,0-.8.8v.8H6.605a.8.8,0,0,0-.739.493l-3.8,9.116H1.8a.8.8,0,0,0-.8.8,5.605,5.605,0,1,0,11.21,0,.8.8,0,0,0-.8-.8h-.267L7.806,10.608h5.205v.8a.8.8,0,0,0,.8.8h7.207V29.322a11.211,11.211,0,1,0,9.609,0V12.209h7.207a.8.8,0,0,0,.8-.8v-.8H43.84L40.5,18.615h-.267a.8.8,0,0,0-.8.8,5.605,5.605,0,1,0,11.21,0,.8.8,0,0,0-.8-.8Zm-43.24,4.8a4.011,4.011,0,0,1-3.923-3.2h7.846a4.011,4.011,0,0,1-3.923,3.2Zm-2.8-4.8,2.8-6.727,2.8,6.727ZM23.421,5a2.4,2.4,0,1,1,2.4,2.4A2.4,2.4,0,0,1,23.421,5Zm2.4,24.823a9.538,9.538,0,0,1,3.983.875,16.211,16.211,0,0,1-7.967,0,9.538,9.538,0,0,1,3.983-.875Zm.8,16.263V43.967c1,.021,1.974.077,2.9.175a14.311,14.311,0,0,1-.865,2.148,17.869,17.869,0,0,0-2.038-.2Zm-3.639.2a14.311,14.311,0,0,1-.865-2.148c.929-.1,1.905-.153,2.9-.175v2.122a17.87,17.87,0,0,0-2.038.2Zm2.038-13.508V34.9c-1-.021-1.974-.077-2.9-.175a14.316,14.316,0,0,1,.865-2.148,17.871,17.871,0,0,0,2.038.2Zm0,3.723v2.13h-3.58a16.09,16.09,0,0,1,.285-2.341C22.782,36.411,23.889,36.481,25.022,36.5Zm-5.181,2.13H16.255a9.52,9.52,0,0,1,.873-3.262,21.984,21.984,0,0,0,3.01.7,17.721,17.721,0,0,0-.3,2.563Zm0,1.6a17.721,17.721,0,0,0,.3,2.563,21.985,21.985,0,0,0-3.01.7,9.52,9.52,0,0,1-.873-3.262Zm1.6,0h3.58v2.13c-1.133.023-2.24.093-3.294.211a16.091,16.091,0,0,1-.285-2.341Zm5.181,2.13v-2.13H30.2a16.091,16.091,0,0,1-.285,2.341C28.864,42.459,27.757,42.389,26.624,42.366Zm5.181-2.13h3.587a9.52,9.52,0,0,1-.873,3.262,21.983,21.983,0,0,0-3.01-.7,17.721,17.721,0,0,0,.3-2.563Zm0-1.6a17.721,17.721,0,0,0-.3-2.563,21.983,21.983,0,0,0,3.01-.7,9.52,9.52,0,0,1,.873,3.262Zm-1.6,0h-3.58V36.5c1.133-.023,2.24-.093,3.294-.211a16.091,16.091,0,0,1,.285,2.341ZM26.624,34.9V32.781a17.871,17.871,0,0,0,2.038-.2,14.316,14.316,0,0,1,.865,2.148C28.6,34.826,27.621,34.882,26.624,34.9Zm-6.575-3.13a10.313,10.313,0,0,0,1.318.46,16.087,16.087,0,0,0-.849,2.28,21.443,21.443,0,0,1-2.574-.562,9.678,9.678,0,0,1,2.1-2.178Zm-2.1,13.146a21.441,21.441,0,0,1,2.574-.562,16.087,16.087,0,0,0,.849,2.28,10.312,10.312,0,0,0-1.318.46,9.678,9.678,0,0,1-2.1-2.178Zm3.9,3.249a16.211,16.211,0,0,1,7.967,0,9.5,9.5,0,0,1-7.967,0ZM31.6,47.1a10.312,10.312,0,0,0-1.318-.46,16.087,16.087,0,0,0,.849-2.28,21.443,21.443,0,0,1,2.574.562A9.678,9.678,0,0,1,31.6,47.1Zm2.1-13.146a21.443,21.443,0,0,1-2.574.562,16.087,16.087,0,0,0-.849-2.28,10.313,10.313,0,0,0,1.318-.46,9.677,9.677,0,0,1,2.1,2.178Zm3.331-23.343H29.827a.8.8,0,0,0-.8.8V28.7a11.145,11.145,0,0,0-2.4-.432V19.416h-1.6v8.849a11.145,11.145,0,0,0-2.4.432V11.409a.8.8,0,0,0-.8-.8H14.613v-1.6H37.034Zm8.007,1.281,2.8,6.727H42.238Zm0,11.531a4.011,4.011,0,0,1-3.923-3.2h7.846a4.011,4.011,0,0,1-3.923,3.2Z" transform="translate(-1 -0.707)" fill="#474d41"/>
          </g>
        </g>
      </g>
    </g>
  </g>
</svg>
