<svg xmlns="http://www.w3.org/2000/svg" xmlns:xlink="http://www.w3.org/1999/xlink" width="295" height="179.437" viewBox="0 0 295 179.437">
  <defs>
    <clipPath id="clip-path">
      <rect id="Rectangle_409863" data-name="Rectangle 409863" width="257.599" height="166.333" fill="none"/>
    </clipPath>
  </defs>
  <g id="Group_1121159" data-name="Group 1121159" transform="translate(-285.711 -2135.391)">
    <g id="Group_1119535" data-name="Group 1119535" transform="translate(0.379 -1454.87)">
      <rect id="Rectangle_401121" data-name="Rectangle 401121" width="295" height="117.429" rx="30" transform="translate(285.332 3652.269)" fill="#f6f8de"/>
    </g>
    <g id="Group_1121200" data-name="Group 1121200" transform="translate(306.049 2135.391)">
      <g id="Group_1121200-2" data-name="Group 1121200" clip-path="url(#clip-path)">
        <path id="Path_909285" data-name="Path 909285" d="M241.117,4.518H56.525a9.044,9.044,0,0,0-9.045,9.041V148.366a9.042,9.042,0,0,0,9.039,9.045h184.6a9.044,9.044,0,0,0,9.041-9.045V13.559a9.043,9.043,0,0,0-9.041-9.041" transform="translate(1.665 0.158)" fill="#bac36a"/>
        <path id="Path_909286" data-name="Path 909286" d="M243.709,13.216V148.023a4.236,4.236,0,0,1-4.061,4.376H68.1a4.244,4.244,0,0,1-4.069-4.376V13.216A4.236,4.236,0,0,1,68.1,8.844H239.647a4.23,4.23,0,0,1,4.062,4.372" transform="translate(2.245 0.31)" fill="#fff"/>
        <path id="Path_909287" data-name="Path 909287" d="M239.657,152.686H68.111a4.518,4.518,0,0,1-4.347-4.658V13.226a4.514,4.514,0,0,1,4.347-4.658H239.657A4.511,4.511,0,0,1,244,13.226V148.037a4.514,4.514,0,0,1-4.347,4.658ZM68.111,9.131a3.953,3.953,0,0,0-3.787,4.091V148.037a3.952,3.952,0,0,0,3.787,4.095H239.657a3.951,3.951,0,0,0,3.78-4.095V13.226a3.949,3.949,0,0,0-3.779-4.091Z" transform="translate(2.236 0.3)" fill="#303030"/>
        <path id="Path_909288" data-name="Path 909288" d="M246.69,4.518H62.105a9.042,9.042,0,0,0-9.045,9.039V148.366a9.042,9.042,0,0,0,9.039,9.045H246.7a9.044,9.044,0,0,0,9.041-9.045V13.559A9.043,9.043,0,0,0,246.7,4.518Zm-2.6,143.848a4.245,4.245,0,0,1-4.061,4.376H68.762a4.245,4.245,0,0,1-4.061-4.376V13.559a4.226,4.226,0,0,1,4.057-4.372H240.035a4.226,4.226,0,0,1,4.057,4.372V148.366Z" transform="translate(1.861 0.158)" fill="#303030"/>
        <path id="Path_909289" data-name="Path 909289" d="M59.016,65.907h0a1.528,1.528,0,0,1,1.528,1.528V90.6a1.528,1.528,0,0,1-3.056,0V67.435a1.528,1.528,0,0,1,1.528-1.528" transform="translate(2.016 2.311)" fill="#bac36a"/>
        <path id="Path_909290" data-name="Path 909290" d="M92.836.772H225.048A19.956,19.956,0,0,1,245,20.728V125.4a19.956,19.956,0,0,1-19.956,19.956H92.836A19.956,19.956,0,0,1,72.88,125.4V20.728A19.956,19.956,0,0,1,92.836.772" transform="translate(2.555 0.027)" fill="#fff"/>
        <path id="Path_909291" data-name="Path 909291" d="M237.777,145.65H80.123a7.526,7.526,0,0,1-7.518-7.518V8.018A7.526,7.526,0,0,1,80.123.5H237.777A7.526,7.526,0,0,1,245.3,8.018V138.133a7.528,7.528,0,0,1-7.518,7.518M80.123,1.063a6.961,6.961,0,0,0-6.955,6.955V138.133a6.961,6.961,0,0,0,6.955,6.955H237.777a6.961,6.961,0,0,0,6.955-6.955V8.018a6.961,6.961,0,0,0-6.955-6.955Z" transform="translate(2.546 0.018)" fill="#303030"/>
        <path id="Path_909292" data-name="Path 909292" d="M237.888.772H79.992A7.113,7.113,0,0,0,72.88,7.884v5.858H245V7.884A7.113,7.113,0,0,0,237.892.772Z" transform="translate(2.555 0.027)" fill="#fff"/>
        <path id="Path_909293" data-name="Path 909293" d="M245.008,14.033H72.89a.283.283,0,0,1-.282-.282V7.893A7.4,7.4,0,0,1,80,.5H237.9a7.4,7.4,0,0,1,7.393,7.393v5.855a.283.283,0,0,1-.282.282ZM73.166,13.47H244.732V7.893A6.839,6.839,0,0,0,237.9,1.062H80A6.839,6.839,0,0,0,73.17,7.893Z" transform="translate(2.546 0.018)" fill="#ff95fb"/>
        <path id="Path_909294" data-name="Path 909294" d="M245.008,14.033H72.89a.283.283,0,0,1-.282-.282V7.893A7.4,7.4,0,0,1,80,.5H237.9a7.4,7.4,0,0,1,7.393,7.393v5.855a.283.283,0,0,1-.282.282ZM73.166,13.47H244.732V7.893A6.839,6.839,0,0,0,237.9,1.062H80A6.839,6.839,0,0,0,73.17,7.893Z" transform="translate(2.546 0.018)" fill="none" stroke="#9fabff" stroke-miterlimit="10" stroke-width="1"/>
        <path id="Path_909295" data-name="Path 909295" d="M232.8,7.135a2.9,2.9,0,1,1-2.9-2.9,2.9,2.9,0,0,1,2.9,2.9" transform="translate(7.96 0.149)" fill="#bac36a"/>
        <path id="Path_909296" data-name="Path 909296" d="M222.62,7.135a2.9,2.9,0,1,1-2.9-2.9,2.9,2.9,0,0,1,2.9,2.9" transform="translate(7.603 0.149)" fill="#bfc9ff"/>
        <path id="Path_909297" data-name="Path 909297" d="M209.537,4.238a2.9,2.9,0,1,1-2.9,2.9,2.9,2.9,0,0,1,2.9-2.9" transform="translate(7.246 0.149)" fill="#303030"/>
        <rect id="Rectangle_409856" data-name="Rectangle 409856" width="172.124" height="15.883" transform="translate(75.435 13.77)" fill="#bfc9ff"/>
        <path id="Path_909298" data-name="Path 909298" d="M245.008,29.478H72.89a.283.283,0,0,1-.282-.282V13.314a.283.283,0,0,1,.282-.282H245.008a.283.283,0,0,1,.282.282V29.2a.283.283,0,0,1-.282.282M73.166,28.915H244.732V13.591H73.171Z" transform="translate(2.546 0.457)" fill="#bfc9ff"/>
        <path id="Path_909299" data-name="Path 909299" d="M234.782,18.038H225.2a.563.563,0,1,1,0-1.126h9.578a.563.563,0,0,1,0,1.126" transform="translate(7.877 0.593)" fill="#bfc9ff"/>
        <path id="Path_909300" data-name="Path 909300" d="M234.782,21.559H225.2a.563.563,0,1,1,0-1.126h9.578a.563.563,0,0,1,0,1.126" transform="translate(7.877 0.716)" fill="#bfc9ff"/>
        <path id="Path_909301" data-name="Path 909301" d="M234.782,25.08H225.2a.563.563,0,0,1,0-1.126h9.578a.563.563,0,0,1,0,1.126" transform="translate(7.877 0.84)" fill="#bfc9ff"/>
        <path id="Path_909302" data-name="Path 909302" d="M181.673,35.658h42.744a8.653,8.653,0,0,1,8.653,8.653v8.471a8.653,8.653,0,0,1-8.653,8.653H181.673a8.653,8.653,0,0,1-8.653-8.653V44.311a8.653,8.653,0,0,1,8.653-8.653" transform="translate(6.067 1.25)" fill="#bac36a"/>
        <path id="Path_909303" data-name="Path 909303" d="M181.673,67.219h42.744a8.653,8.653,0,0,1,8.653,8.653v8.471A8.653,8.653,0,0,1,224.417,93H181.673a8.653,8.653,0,0,1-8.653-8.653V75.872a8.653,8.653,0,0,1,8.653-8.653" transform="translate(6.067 2.357)" fill="#fff"/>
        <path id="Path_909304" data-name="Path 909304" d="M229.942,93.289H176.167a3.426,3.426,0,0,1-3.416-3.416V70.366a3.426,3.426,0,0,1,3.416-3.416h53.776a3.425,3.425,0,0,1,3.416,3.416v19.5a3.425,3.425,0,0,1-3.416,3.422M176.167,67.516a2.858,2.858,0,0,0-2.856,2.856v19.5a2.858,2.858,0,0,0,2.856,2.856h53.776a2.858,2.858,0,0,0,2.856-2.856V70.366a2.858,2.858,0,0,0-2.856-2.856H176.167Z" transform="translate(6.057 2.348)" fill="#ff95fb"/>
        <path id="Path_909305" data-name="Path 909305" d="M229.942,93.289H176.167a3.426,3.426,0,0,1-3.416-3.416V70.366a3.426,3.426,0,0,1,3.416-3.416h53.776a3.425,3.425,0,0,1,3.416,3.416v19.5A3.425,3.425,0,0,1,229.942,93.289ZM176.167,67.516a2.858,2.858,0,0,0-2.856,2.856v19.5a2.858,2.858,0,0,0,2.856,2.856h53.776a2.858,2.858,0,0,0,2.856-2.856V70.366a2.858,2.858,0,0,0-2.856-2.856H176.167Z" transform="translate(6.057 2.348)" fill="none" stroke="#9fabff" stroke-miterlimit="10" stroke-width="1"/>
        <path id="Path_909306" data-name="Path 909306" d="M233.082,88.831H173.03a.282.282,0,1,1,0-.563h60.052a.282.282,0,1,1,0,.563" transform="translate(6.057 3.095)" fill="#ff95fb"/>
        <path id="Path_909307" data-name="Path 909307" d="M233.082,88.831H173.03a.282.282,0,1,1,0-.563h60.052a.282.282,0,1,1,0,.563Z" transform="translate(6.057 3.095)" fill="none" stroke="#9fabff" stroke-miterlimit="10" stroke-width="1"/>
        <path id="Path_909308" data-name="Path 909308" d="M233.082,85.278H173.03a.282.282,0,0,1,0-.563h60.052a.282.282,0,0,1,0,.563" transform="translate(6.057 2.97)" fill="#ff95fb"/>
        <path id="Path_909309" data-name="Path 909309" d="M233.082,85.278H173.03a.282.282,0,0,1,0-.563h60.052a.282.282,0,0,1,0,.563Z" transform="translate(6.057 2.97)" fill="none" stroke="#9fabff" stroke-miterlimit="10" stroke-width="1"/>
        <path id="Path_909310" data-name="Path 909310" d="M233.082,81.725H173.03a.282.282,0,1,1,0-.563h60.052a.282.282,0,1,1,0,.563" transform="translate(6.057 2.846)" fill="#ff95fb"/>
        <path id="Path_909311" data-name="Path 909311" d="M233.082,81.725H173.03a.282.282,0,1,1,0-.563h60.052a.282.282,0,1,1,0,.563Z" transform="translate(6.057 2.846)" fill="none" stroke="#9fabff" stroke-miterlimit="10" stroke-width="1"/>
        <path id="Path_909312" data-name="Path 909312" d="M233.082,78.171H173.03a.282.282,0,1,1,0-.563h60.052a.282.282,0,1,1,0,.563" transform="translate(6.057 2.721)" fill="#ff95fb"/>
        <path id="Path_909313" data-name="Path 909313" d="M233.082,78.171H173.03a.282.282,0,1,1,0-.563h60.052a.282.282,0,1,1,0,.563Z" transform="translate(6.057 2.721)" fill="none" stroke="#9fabff" stroke-miterlimit="10" stroke-width="1"/>
        <path id="Path_909314" data-name="Path 909314" d="M233.082,74.617H173.03a.282.282,0,1,1,0-.563h60.052a.282.282,0,1,1,0,.563" transform="translate(6.057 2.597)" fill="#ff95fb"/>
        <path id="Path_909315" data-name="Path 909315" d="M233.082,74.617H173.03a.282.282,0,1,1,0-.563h60.052a.282.282,0,1,1,0,.563Z" transform="translate(6.057 2.597)" fill="none" stroke="#9fabff" stroke-miterlimit="10" stroke-width="1"/>
        <path id="Path_909316" data-name="Path 909316" d="M233.082,71.064H173.03a.282.282,0,1,1,0-.563h60.052a.282.282,0,1,1,0,.563" transform="translate(6.057 2.472)" fill="#ff95fb"/>
        <path id="Path_909317" data-name="Path 909317" d="M233.082,71.064H173.03a.282.282,0,1,1,0-.563h60.052a.282.282,0,1,1,0,.563Z" transform="translate(6.057 2.472)" fill="none" stroke="#9fabff" stroke-miterlimit="10" stroke-width="1"/>
        <path id="Path_909318" data-name="Path 909318" d="M89.666,35.658h24a8.653,8.653,0,0,1,8.653,8.653V85.618a8.653,8.653,0,0,1-8.653,8.653h-24a8.653,8.653,0,0,1-8.653-8.653V44.311a8.653,8.653,0,0,1,8.653-8.653" transform="translate(2.841 1.25)" fill="#fff"/>
        <path id="Path_909319" data-name="Path 909319" d="M119.193,94.562H84.16a3.426,3.426,0,0,1-3.416-3.416V38.8a3.426,3.426,0,0,1,3.416-3.416h35.032a3.426,3.426,0,0,1,3.416,3.416V91.143a3.426,3.426,0,0,1-3.416,3.416ZM84.16,35.949A2.858,2.858,0,0,0,81.3,38.8V91.143A2.858,2.858,0,0,0,84.16,94h35.032a2.858,2.858,0,0,0,2.856-2.856V38.8a2.858,2.858,0,0,0-2.856-2.856Z" transform="translate(2.831 1.241)" fill="#ff95fb"/>
        <path id="Path_909320" data-name="Path 909320" d="M119.193,94.562H84.16a3.426,3.426,0,0,1-3.416-3.416V38.8a3.426,3.426,0,0,1,3.416-3.416h35.032a3.426,3.426,0,0,1,3.416,3.416V91.143a3.426,3.426,0,0,1-3.416,3.416ZM84.16,35.949A2.858,2.858,0,0,0,81.3,38.8V91.143A2.858,2.858,0,0,0,84.16,94h35.032a2.858,2.858,0,0,0,2.856-2.856V38.8a2.858,2.858,0,0,0-2.856-2.856Z" transform="translate(2.831 1.241)" fill="none" stroke="#9fabff" stroke-miterlimit="10" stroke-width="1"/>
        <path id="Path_909321" data-name="Path 909321" d="M135.626,35.466h24a8.653,8.653,0,0,1,8.653,8.653V85.426a8.653,8.653,0,0,1-8.653,8.653h-24a8.653,8.653,0,0,1-8.653-8.653V44.119a8.653,8.653,0,0,1,8.653-8.653" transform="translate(4.452 1.244)" fill="#fff"/>
        <path id="Path_909322" data-name="Path 909322" d="M165.153,94.37H130.12a3.426,3.426,0,0,1-3.416-3.416V38.609a3.426,3.426,0,0,1,3.416-3.416h35.032a3.426,3.426,0,0,1,3.416,3.416V90.947a3.426,3.426,0,0,1-3.416,3.416ZM130.12,35.757a2.858,2.858,0,0,0-2.856,2.856V90.951a2.858,2.858,0,0,0,2.856,2.856h35.032a2.858,2.858,0,0,0,2.856-2.856V38.609a2.858,2.858,0,0,0-2.856-2.856H130.12Z" transform="translate(4.443 1.234)" fill="#ff95fb"/>
        <path id="Path_909323" data-name="Path 909323" d="M165.153,94.37H130.12a3.426,3.426,0,0,1-3.416-3.416V38.609a3.426,3.426,0,0,1,3.416-3.416h35.032a3.426,3.426,0,0,1,3.416,3.416V90.947a3.426,3.426,0,0,1-3.416,3.416ZM130.12,35.757a2.858,2.858,0,0,0-2.856,2.856V90.951a2.858,2.858,0,0,0,2.856,2.856h35.032a2.858,2.858,0,0,0,2.856-2.856V38.609a2.858,2.858,0,0,0-2.856-2.856H130.12Z" transform="translate(4.443 1.234)" fill="none" stroke="#9fabff" stroke-miterlimit="10" stroke-width="1"/>
        <path id="Path_909324" data-name="Path 909324" d="M89.666,98.308H185.45a8.653,8.653,0,0,1,8.653,8.653v18.386A8.653,8.653,0,0,1,185.45,134H89.666a8.653,8.653,0,0,1-8.653-8.653V106.961a8.653,8.653,0,0,1,8.653-8.653" transform="translate(2.841 3.447)" fill="#fff"/>
        <path id="Path_909325" data-name="Path 909325" d="M190.979,134.291H84.161a3.425,3.425,0,0,1-3.416-3.416V101.455a3.426,3.426,0,0,1,3.416-3.416H190.979a3.426,3.426,0,0,1,3.416,3.416v29.418a3.424,3.424,0,0,1-3.416,3.419M84.161,98.6a2.858,2.858,0,0,0-2.856,2.856v29.418a2.858,2.858,0,0,0,2.856,2.856H190.979a2.858,2.858,0,0,0,2.856-2.856V101.455a2.858,2.858,0,0,0-2.856-2.856Z" transform="translate(2.831 3.438)" fill="#ff95fb"/>
        <path id="Path_909326" data-name="Path 909326" d="M190.979,134.291H84.161a3.425,3.425,0,0,1-3.416-3.416V101.455a3.426,3.426,0,0,1,3.416-3.416H190.979a3.426,3.426,0,0,1,3.416,3.416v29.418A3.424,3.424,0,0,1,190.979,134.291ZM84.161,98.6a2.858,2.858,0,0,0-2.856,2.856v29.418a2.858,2.858,0,0,0,2.856,2.856H190.979a2.858,2.858,0,0,0,2.856-2.856V101.455a2.858,2.858,0,0,0-2.856-2.856Z" transform="translate(2.831 3.438)" fill="none" stroke="#9fabff" stroke-miterlimit="10" stroke-width="1"/>
        <path id="Path_909327" data-name="Path 909327" d="M194.112,126.186H81.023a.282.282,0,1,1,0-.563H194.112a.282.282,0,1,1,0,.563" transform="translate(2.831 4.405)" fill="#ff95fb"/>
        <path id="Path_909328" data-name="Path 909328" d="M194.112,126.186H81.023a.282.282,0,1,1,0-.563H194.112a.282.282,0,1,1,0,.563Z" transform="translate(2.831 4.405)" fill="none" stroke="#9fabff" stroke-miterlimit="10" stroke-width="1"/>
        <path id="Path_909329" data-name="Path 909329" d="M194.112,119.289H81.023a.282.282,0,1,1,0-.563H194.112a.282.282,0,1,1,0,.563" transform="translate(2.831 4.163)" fill="#ff95fb"/>
        <path id="Path_909330" data-name="Path 909330" d="M194.112,119.289H81.023a.282.282,0,1,1,0-.563H194.112a.282.282,0,1,1,0,.563Z" transform="translate(2.831 4.163)" fill="none" stroke="#9fabff" stroke-miterlimit="10" stroke-width="1"/>
        <path id="Path_909331" data-name="Path 909331" d="M194.112,112.393H81.023a.282.282,0,1,1,0-.563H194.112a.282.282,0,1,1,0,.563" transform="translate(2.831 3.921)" fill="#ff95fb"/>
        <path id="Path_909332" data-name="Path 909332" d="M194.112,112.393H81.023a.282.282,0,1,1,0-.563H194.112a.282.282,0,1,1,0,.563Z" transform="translate(2.831 3.921)" fill="none" stroke="#9fabff" stroke-miterlimit="10" stroke-width="1"/>
        <path id="Path_909333" data-name="Path 909333" d="M194.112,105.5H81.023a.282.282,0,1,1,0-.563H194.112a.282.282,0,1,1,0,.563" transform="translate(2.831 3.679)" fill="#ff95fb"/>
        <path id="Path_909334" data-name="Path 909334" d="M194.112,105.5H81.023a.282.282,0,1,1,0-.563H194.112a.282.282,0,1,1,0,.563Z" transform="translate(2.831 3.679)" fill="none" stroke="#9fabff" stroke-miterlimit="10" stroke-width="1"/>
        <path id="Path_909335" data-name="Path 909335" d="M87.989,134.291a.283.283,0,0,1-.282-.282V98.318a.282.282,0,0,1,.563,0V134.01a.283.283,0,0,1-.282.282" transform="translate(3.075 3.438)" fill="#ff95fb"/>
        <path id="Path_909336" data-name="Path 909336" d="M87.989,134.291a.283.283,0,0,1-.282-.282V98.318a.282.282,0,0,1,.563,0V134.01A.283.283,0,0,1,87.989,134.291Z" transform="translate(3.075 3.438)" fill="none" stroke="#9fabff" stroke-miterlimit="10" stroke-width="1"/>
        <path id="Path_909337" data-name="Path 909337" d="M94.955,134.291a.283.283,0,0,1-.282-.282V98.318a.282.282,0,0,1,.563,0V134.01a.283.283,0,0,1-.282.282" transform="translate(3.32 3.438)" fill="#ff95fb"/>
        <path id="Path_909338" data-name="Path 909338" d="M94.955,134.291a.283.283,0,0,1-.282-.282V98.318a.282.282,0,0,1,.563,0V134.01A.283.283,0,0,1,94.955,134.291Z" transform="translate(3.32 3.438)" fill="none" stroke="#9fabff" stroke-miterlimit="10" stroke-width="1"/>
        <path id="Path_909339" data-name="Path 909339" d="M101.92,134.291a.283.283,0,0,1-.282-.282V98.318a.282.282,0,0,1,.563,0V134.01a.283.283,0,0,1-.282.282" transform="translate(3.564 3.438)" fill="#ff95fb"/>
        <path id="Path_909340" data-name="Path 909340" d="M101.92,134.291a.283.283,0,0,1-.282-.282V98.318a.282.282,0,0,1,.563,0V134.01A.283.283,0,0,1,101.92,134.291Z" transform="translate(3.564 3.438)" fill="none" stroke="#9fabff" stroke-miterlimit="10" stroke-width="1"/>
        <path id="Path_909341" data-name="Path 909341" d="M108.755,134.291a.283.283,0,0,1-.282-.282V98.318a.282.282,0,0,1,.563,0V134.01a.283.283,0,0,1-.282.282" transform="translate(3.804 3.438)" fill="#ff95fb"/>
        <path id="Path_909342" data-name="Path 909342" d="M108.755,134.291a.283.283,0,0,1-.282-.282V98.318a.282.282,0,0,1,.563,0V134.01A.283.283,0,0,1,108.755,134.291Z" transform="translate(3.804 3.438)" fill="none" stroke="#9fabff" stroke-miterlimit="10" stroke-width="1"/>
        <path id="Path_909343" data-name="Path 909343" d="M115.594,134.291a.283.283,0,0,1-.282-.282V98.318a.282.282,0,0,1,.563,0V134.01a.283.283,0,0,1-.282.282" transform="translate(4.043 3.438)" fill="#ff95fb"/>
        <path id="Path_909344" data-name="Path 909344" d="M115.594,134.291a.283.283,0,0,1-.282-.282V98.318a.282.282,0,0,1,.563,0V134.01A.283.283,0,0,1,115.594,134.291Z" transform="translate(4.043 3.438)" fill="none" stroke="#9fabff" stroke-miterlimit="10" stroke-width="1"/>
        <path id="Path_909345" data-name="Path 909345" d="M122.429,134.291a.283.283,0,0,1-.282-.282V98.318a.282.282,0,0,1,.563,0V134.01a.283.283,0,0,1-.282.282" transform="translate(4.283 3.438)" fill="#ff95fb"/>
        <path id="Path_909346" data-name="Path 909346" d="M122.429,134.291a.283.283,0,0,1-.282-.282V98.318a.282.282,0,0,1,.563,0V134.01A.283.283,0,0,1,122.429,134.291Z" transform="translate(4.283 3.438)" fill="none" stroke="#9fabff" stroke-miterlimit="10" stroke-width="1"/>
        <path id="Path_909347" data-name="Path 909347" d="M129.268,134.291a.283.283,0,0,1-.282-.282V98.318a.282.282,0,0,1,.563,0V134.01a.283.283,0,0,1-.282.282" transform="translate(4.523 3.438)" fill="#ff95fb"/>
        <path id="Path_909348" data-name="Path 909348" d="M129.268,134.291a.283.283,0,0,1-.282-.282V98.318a.282.282,0,0,1,.563,0V134.01A.283.283,0,0,1,129.268,134.291Z" transform="translate(4.523 3.438)" fill="none" stroke="#9fabff" stroke-miterlimit="10" stroke-width="1"/>
        <path id="Path_909349" data-name="Path 909349" d="M136.1,134.291a.283.283,0,0,1-.282-.282V98.318a.282.282,0,0,1,.563,0V134.01a.283.283,0,0,1-.282.282" transform="translate(4.762 3.438)" fill="#ff95fb"/>
        <path id="Path_909350" data-name="Path 909350" d="M136.1,134.291a.283.283,0,0,1-.282-.282V98.318a.282.282,0,0,1,.563,0V134.01A.283.283,0,0,1,136.1,134.291Z" transform="translate(4.762 3.438)" fill="none" stroke="#9fabff" stroke-miterlimit="10" stroke-width="1"/>
        <path id="Path_909351" data-name="Path 909351" d="M142.939,134.291a.283.283,0,0,1-.282-.282V98.318a.282.282,0,0,1,.563,0V134.01a.283.283,0,0,1-.282.282" transform="translate(5.002 3.438)" fill="#ff95fb"/>
        <path id="Path_909352" data-name="Path 909352" d="M142.939,134.291a.283.283,0,0,1-.282-.282V98.318a.282.282,0,0,1,.563,0V134.01A.283.283,0,0,1,142.939,134.291Z" transform="translate(5.002 3.438)" fill="none" stroke="#9fabff" stroke-miterlimit="10" stroke-width="1"/>
        <path id="Path_909353" data-name="Path 909353" d="M149.78,134.291a.283.283,0,0,1-.282-.282V98.318a.282.282,0,0,1,.563,0V134.01a.283.283,0,0,1-.282.282" transform="translate(5.242 3.438)" fill="#ff95fb"/>
        <path id="Path_909354" data-name="Path 909354" d="M149.78,134.291a.283.283,0,0,1-.282-.282V98.318a.282.282,0,0,1,.563,0V134.01A.283.283,0,0,1,149.78,134.291Z" transform="translate(5.242 3.438)" fill="none" stroke="#9fabff" stroke-miterlimit="10" stroke-width="1"/>
        <path id="Path_909355" data-name="Path 909355" d="M156.615,134.291a.283.283,0,0,1-.282-.282V98.318a.282.282,0,0,1,.563,0V134.01a.283.283,0,0,1-.282.282" transform="translate(5.482 3.438)" fill="#ff95fb"/>
        <path id="Path_909356" data-name="Path 909356" d="M156.615,134.291a.283.283,0,0,1-.282-.282V98.318a.282.282,0,0,1,.563,0V134.01A.283.283,0,0,1,156.615,134.291Z" transform="translate(5.482 3.438)" fill="none" stroke="#9fabff" stroke-miterlimit="10" stroke-width="1"/>
        <path id="Path_909357" data-name="Path 909357" d="M163.454,134.291a.283.283,0,0,1-.282-.282V98.318a.282.282,0,0,1,.563,0V134.01a.283.283,0,0,1-.282.282" transform="translate(5.722 3.438)" fill="#ff95fb"/>
        <path id="Path_909358" data-name="Path 909358" d="M163.454,134.291a.283.283,0,0,1-.282-.282V98.318a.282.282,0,0,1,.563,0V134.01A.283.283,0,0,1,163.454,134.291Z" transform="translate(5.722 3.438)" fill="none" stroke="#9fabff" stroke-miterlimit="10" stroke-width="1"/>
        <path id="Path_909359" data-name="Path 909359" d="M170.289,134.291a.283.283,0,0,1-.282-.282V98.318a.282.282,0,0,1,.563,0V134.01a.283.283,0,0,1-.282.282" transform="translate(5.961 3.438)" fill="#ff95fb"/>
        <path id="Path_909360" data-name="Path 909360" d="M170.289,134.291a.283.283,0,0,1-.282-.282V98.318a.282.282,0,0,1,.563,0V134.01A.283.283,0,0,1,170.289,134.291Z" transform="translate(5.961 3.438)" fill="none" stroke="#9fabff" stroke-miterlimit="10" stroke-width="1"/>
        <path id="Path_909361" data-name="Path 909361" d="M177.127,134.291a.283.283,0,0,1-.282-.282V98.318a.282.282,0,0,1,.563,0V134.01a.283.283,0,0,1-.282.282" transform="translate(6.201 3.438)" fill="#ff95fb"/>
        <path id="Path_909362" data-name="Path 909362" d="M177.127,134.291a.283.283,0,0,1-.282-.282V98.318a.282.282,0,0,1,.563,0V134.01A.283.283,0,0,1,177.127,134.291Z" transform="translate(6.201 3.438)" fill="none" stroke="#9fabff" stroke-miterlimit="10" stroke-width="1"/>
        <path id="Path_909363" data-name="Path 909363" d="M183.963,134.291a.283.283,0,0,1-.282-.282V98.318a.282.282,0,0,1,.563,0V134.01a.283.283,0,0,1-.282.282" transform="translate(6.441 3.438)" fill="#ff95fb"/>
        <path id="Path_909364" data-name="Path 909364" d="M183.963,134.291a.283.283,0,0,1-.282-.282V98.318a.282.282,0,0,1,.563,0V134.01A.283.283,0,0,1,183.963,134.291Z" transform="translate(6.441 3.438)" fill="none" stroke="#9fabff" stroke-miterlimit="10" stroke-width="1"/>
        <path id="Path_909365" data-name="Path 909365" d="M205.206,98.308h18.386a8.653,8.653,0,0,1,8.653,8.653v18.386A8.653,8.653,0,0,1,223.592,134H205.206a8.653,8.653,0,0,1-8.653-8.653V106.961a8.653,8.653,0,0,1,8.653-8.653" transform="translate(6.892 3.447)" fill="#fff"/>
        <path id="Path_909366" data-name="Path 909366" d="M229.117,134.291H199.7a3.426,3.426,0,0,1-3.416-3.416V101.455a3.426,3.426,0,0,1,3.416-3.416h29.418a3.425,3.425,0,0,1,3.416,3.416v29.418a3.424,3.424,0,0,1-3.416,3.419M199.7,98.6a2.858,2.858,0,0,0-2.856,2.856v29.418a2.858,2.858,0,0,0,2.856,2.856h29.418a2.858,2.858,0,0,0,2.856-2.856V101.455a2.858,2.858,0,0,0-2.856-2.856Z" transform="translate(6.883 3.438)" fill="#ff95fb"/>
        <path id="Path_909367" data-name="Path 909367" d="M229.117,134.291H199.7a3.426,3.426,0,0,1-3.416-3.416V101.455a3.426,3.426,0,0,1,3.416-3.416h29.418a3.425,3.425,0,0,1,3.416,3.416v29.418A3.424,3.424,0,0,1,229.117,134.291ZM199.7,98.6a2.858,2.858,0,0,0-2.856,2.856v29.418a2.858,2.858,0,0,0,2.856,2.856h29.418a2.858,2.858,0,0,0,2.856-2.856V101.455a2.858,2.858,0,0,0-2.856-2.856Z" transform="translate(6.883 3.438)" fill="none" stroke="#9fabff" stroke-miterlimit="10" stroke-width="1"/>
        <path id="Path_909368" data-name="Path 909368" d="M101.339,46.762a3.607,3.607,0,1,0-3.607-3.607,3.607,3.607,0,0,0,3.607,3.607ZM112.1,56.341l-2.969-5.907a3.054,3.054,0,0,0-2.725-1.681H96.254a3.049,3.049,0,0,0-2.725,1.681l-2.965,5.907a1.736,1.736,0,0,0,.621,2.285A1.673,1.673,0,0,0,93.466,58c.014-.025.028-.051.041-.078l3.28-6.53h.041L93.563,67.03H96.5v11.9a1.735,1.735,0,0,0,1.581,1.76,1.672,1.672,0,0,0,1.758-1.58c0-.029,0-.058,0-.087V67.033h2.987v11.9a1.735,1.735,0,0,0,1.581,1.76,1.672,1.672,0,0,0,1.758-1.58c0-.029,0-.058,0-.087V67.037H109.1L105.836,51.4h.041l3.28,6.53a1.672,1.672,0,0,0,2.244.744c.027-.013.054-.027.08-.042a1.738,1.738,0,0,0,.621-2.285Z" transform="translate(3.168 1.387)" fill="#fff"/>
        <path id="Path_909369" data-name="Path 909369" d="M104.516,80.982h-.1a2.025,2.025,0,0,1-1.847-2.042V67.324h-2.424V79.038a1.951,1.951,0,0,1-1.951,1.951q-.053,0-.106,0a2.025,2.025,0,0,1-1.847-2.042V67.328H93.585a.273.273,0,0,1-.217-.1.285.285,0,0,1-.056-.236l2.853-13.663L93.784,58.07a1.922,1.922,0,0,1-1.179.991,1.96,1.96,0,0,1-1.535-.173,2.028,2.028,0,0,1-.736-2.654L93.3,50.326a3.312,3.312,0,0,1,2.976-1.835h10.156a3.312,3.312,0,0,1,2.976,1.835l2.969,5.907a2.023,2.023,0,0,1-.736,2.654,1.954,1.954,0,0,1-2.666-.729c-.017-.029-.032-.059-.048-.089l-2.381-4.748L109.4,66.991a.27.27,0,0,1-.056.236.283.283,0,0,1-.217.1h-2.654V79.044A1.952,1.952,0,0,1,104.525,81ZM99.858,66.757h2.979a.283.283,0,0,1,.282.282v11.9a1.457,1.457,0,0,0,1.313,1.482,1.387,1.387,0,0,0,1.462-1.308c0-.027,0-.054,0-.081V67.035a.283.283,0,0,1,.282-.282h2.588L105.571,51.46a.27.27,0,0,1,.056-.236.283.283,0,0,1,.217-.1h.041a.286.286,0,0,1,.252.154l3.28,6.53a1.392,1.392,0,0,0,1.87.615l.062-.033a1.458,1.458,0,0,0,.51-1.914l-2.969-5.907a2.748,2.748,0,0,0-2.474-1.524H96.261a2.761,2.761,0,0,0-2.474,1.524l-2.969,5.907a1.46,1.46,0,0,0,.51,1.914,1.391,1.391,0,0,0,1.932-.582l3.28-6.53a.286.286,0,0,1,.252-.154h.041a.273.273,0,0,1,.217.1.285.285,0,0,1,.056.236L93.914,66.754H96.5a.283.283,0,0,1,.282.282v11.9A1.457,1.457,0,0,0,98.1,80.415a1.387,1.387,0,0,0,1.462-1.308c0-.027,0-.054,0-.081V67.031a.283.283,0,0,1,.282-.282Zm1.494-19.7a3.889,3.889,0,1,1,3.889-3.889,3.889,3.889,0,0,1-3.889,3.889Zm0-7.21a3.326,3.326,0,1,0,3.326,3.326,3.326,3.326,0,0,0-3.326-3.326Z" transform="translate(3.16 1.377)" fill="#303030"/>
        <path id="Path_909370" data-name="Path 909370" d="M108.589,57.425a1.672,1.672,0,0,0,2.244.744c.027-.013.054-.027.08-.042a1.738,1.738,0,0,0,.621-2.285l-1.009-2.012h-3.737l1.805,3.6Z" transform="translate(3.744 1.887)" fill="#bac36a"/>
        <path id="Path_909371" data-name="Path 909371" d="M110.1,58.635a1.965,1.965,0,0,1-1.745-1.078l-1.805-3.6a.274.274,0,0,1,.011-.274.287.287,0,0,1,.24-.136h3.739a.286.286,0,0,1,.252.154l1.009,2.012a2.023,2.023,0,0,1-.736,2.654,1.925,1.925,0,0,1-.965.259Zm-2.841-4.515,1.6,3.186a1.386,1.386,0,0,0,1.861.618c.024-.011.046-.024.068-.036a1.458,1.458,0,0,0,.51-1.914l-.932-1.854Z" transform="translate(3.735 1.878)" fill="#303030"/>
        <path id="Path_909372" data-name="Path 909372" d="M104.3,80.191a1.672,1.672,0,0,0,1.758-1.582c0-.028,0-.057,0-.085V66.532H109l-2.654-12.7H96.108l-2.654,12.7h2.935v11.9a1.735,1.735,0,0,0,1.581,1.76,1.672,1.672,0,0,0,1.758-1.582c0-.028,0-.057,0-.085V66.536h2.987v11.9a1.735,1.735,0,0,0,1.581,1.76Z" transform="translate(3.277 1.888)" fill="#bac36a"/>
        <path id="Path_909373" data-name="Path 909373" d="M104.407,80.481h-.1a2.025,2.025,0,0,1-1.847-2.042V66.823h-2.424V78.537a1.951,1.951,0,0,1-1.951,1.951q-.053,0-.106,0a2.025,2.025,0,0,1-1.847-2.042V66.827H93.475a.273.273,0,0,1-.217-.1.285.285,0,0,1-.056-.236l2.654-12.7a.28.28,0,0,1,.274-.226h10.235a.278.278,0,0,1,.274.226l2.654,12.7a.27.27,0,0,1-.056.236.283.283,0,0,1-.217.1h-2.654V78.541a1.952,1.952,0,0,1-1.948,1.952ZM99.749,66.256h2.987a.283.283,0,0,1,.282.282v11.9a1.457,1.457,0,0,0,1.313,1.482,1.387,1.387,0,0,0,1.462-1.308c0-.027,0-.054,0-.081V66.534a.283.283,0,0,1,.282-.282h2.588L106.13,54.115H96.353L93.819,66.253h2.588a.283.283,0,0,1,.282.282v11.9A1.457,1.457,0,0,0,98,79.915a1.387,1.387,0,0,0,1.462-1.308c0-.027,0-.054,0-.081V66.531a.283.283,0,0,1,.282-.282Z" transform="translate(3.268 1.878)" fill="#303030"/>
        <path id="Path_909374" data-name="Path 909374" d="M91.191,58.123a1.674,1.674,0,0,0,2.282-.623c.015-.026.028-.052.041-.079l1.805-3.6H91.581l-1.01,2.008a1.736,1.736,0,0,0,.621,2.285Z" transform="translate(3.169 1.887)" fill="#bac36a"/>
        <path id="Path_909375" data-name="Path 909375" d="M92.026,58.635a1.925,1.925,0,0,1-.965-.259,2.023,2.023,0,0,1-.732-2.654l1.009-2.012a.286.286,0,0,1,.252-.154h3.739a.279.279,0,0,1,.24.136.274.274,0,0,1,.011.274l-1.805,3.6a1.922,1.922,0,0,1-1.179.991,1.988,1.988,0,0,1-.567.086Zm-.263-4.515-.932,1.854a1.46,1.46,0,0,0,.51,1.914,1.391,1.391,0,0,0,1.932-.582l1.6-3.186h-3.11Z" transform="translate(3.159 1.878)" fill="#303030"/>
        <path id="Path_909376" data-name="Path 909376" d="M86.839,88.467a1.781,1.781,0,0,1-.852-.207,1.581,1.581,0,0,1-.6-.556,1.468,1.468,0,0,1-.221-.792,1.908,1.908,0,0,1,.376-1.092l1.269-1.854h1.249L86.61,85.959l-.414-.037a1.942,1.942,0,0,1,.191-.259.723.723,0,0,1,.24-.173.988.988,0,0,1,.383-.064,1.5,1.5,0,0,1,1.3.725A1.5,1.5,0,0,1,88.3,87.7a1.581,1.581,0,0,1-.6.556,1.74,1.74,0,0,1-.859.207Zm0-.946a.6.6,0,0,0,.319-.083.55.55,0,0,0,.214-.229.719.719,0,0,0,0-.653.6.6,0,0,0-.214-.229.637.637,0,0,0-.319-.083.587.587,0,0,0-.526.311.719.719,0,0,0,0,.653.6.6,0,0,0,.214.229.607.607,0,0,0,.311.083Z" transform="translate(2.986 2.944)" fill="#bac36a"/>
        <path id="Path_909377" data-name="Path 909377" d="M90.634,88.47a1.774,1.774,0,0,1-.995-.289,1.958,1.958,0,0,1-.69-.81,2.684,2.684,0,0,1-.252-1.193,2.651,2.651,0,0,1,.252-1.186,2,2,0,0,1,.683-.807,1.712,1.712,0,0,1,.983-.289,1.782,1.782,0,0,1,1,.289,1.962,1.962,0,0,1,.687.807,2.745,2.745,0,0,1,.252,1.2,2.65,2.65,0,0,1-.252,1.189,1.941,1.941,0,0,1-.683.8,1.749,1.749,0,0,1-.984.289m-.016-.965a.657.657,0,0,0,.436-.154.96.96,0,0,0,.277-.446,2.35,2.35,0,0,0,.1-.725,2.274,2.274,0,0,0-.1-.717.955.955,0,0,0-.277-.447.665.665,0,0,0-.443-.154.635.635,0,0,0-.424.15.943.943,0,0,0-.277.443,2.319,2.319,0,0,0-.1.725,2.414,2.414,0,0,0,.1.725.956.956,0,0,0,.277.45.645.645,0,0,0,.432.154Z" transform="translate(3.11 2.942)" fill="#bac36a"/>
        <path id="Path_909378" data-name="Path 909378" d="M93.7,85.783a.937.937,0,0,1-.473-.124.9.9,0,0,1-.342-.342.939.939,0,0,1-.124-.477.925.925,0,0,1,.917-.932H93.7a.957.957,0,0,1,.484.124.978.978,0,0,1,.342.334.96.96,0,0,1,0,.95.964.964,0,0,1-.342.342.933.933,0,0,1-.481.124m-.383,2.038,2.139-3.7a.429.429,0,1,1,.743.427l-2.139,3.7a.429.429,0,1,1-.743-.427m.383-2.744a.219.219,0,0,0,.169-.067.235.235,0,0,0,.064-.166.225.225,0,0,0-.064-.166.222.222,0,0,0-.166-.067.206.206,0,0,0-.157.067.246.246,0,0,0,0,.33.206.206,0,0,0,.157.067Zm2.105,3.386a.929.929,0,0,1-.477-.124A.9.9,0,0,1,94.987,88a.939.939,0,0,1-.124-.477.916.916,0,0,1,.124-.473.932.932,0,0,1,.81-.458.968.968,0,0,1,.484.124.936.936,0,0,1,.342.334.9.9,0,0,1,.124.473.925.925,0,0,1-.907.942Zm0-.713a.235.235,0,0,0,.166-.064.205.205,0,0,0,.064-.161.227.227,0,0,0-.39-.166.235.235,0,0,0-.064.166.219.219,0,0,0,.064.161.224.224,0,0,0,.157.064Z" transform="translate(3.253 2.942)" fill="#bac36a"/>
        <path id="Path_909379" data-name="Path 909379" d="M111.5,84.944H99.764a.548.548,0,0,1,0-1.1H111.5a.548.548,0,0,1,0,1.1" transform="translate(3.479 2.94)" fill="#bac36a"/>
        <path id="Path_909380" data-name="Path 909380" d="M117.514,86.645H99.559a.282.282,0,1,1,0-.563h17.955a.282.282,0,0,1,0,.563" transform="translate(3.481 3.018)" fill="#303030"/>
        <path id="Path_909381" data-name="Path 909381" d="M117.514,88.284H99.559a.282.282,0,1,1,0-.563h17.955a.282.282,0,0,1,0,.563" transform="translate(3.481 3.076)" fill="#303030"/>
        <path id="Path_909382" data-name="Path 909382" d="M147.3,46.762a3.607,3.607,0,1,0-3.607-3.607,3.607,3.607,0,0,0,3.607,3.607Zm10.765,9.578-2.913-5.8a3.235,3.235,0,0,0-2.9-1.787h-9.912a3.235,3.235,0,0,0-2.9,1.787l-2.913,5.8a1.736,1.736,0,0,0,.621,2.285A1.673,1.673,0,0,0,139.433,58c.014-.025.028-.051.041-.078l2.991-5.956V78.928a1.735,1.735,0,0,0,1.581,1.76,1.672,1.672,0,0,0,1.758-1.582c0-.028,0-.057,0-.085V65.5h2.987V78.931a1.735,1.735,0,0,0,1.581,1.76,1.672,1.672,0,0,0,1.758-1.582c0-.028,0-.057,0-.085V51.98l2.991,5.956a1.672,1.672,0,0,0,2.244.744c.027-.013.054-.027.08-.042a1.738,1.738,0,0,0,.621-2.285Z" transform="translate(4.78 1.387)" fill="#fff"/>
        <path id="Path_909383" data-name="Path 909383" d="M144.144,80.982h-.1a2.025,2.025,0,0,1-1.847-2.042V53.167l-2.458,4.894a1.922,1.922,0,0,1-1.179.991,1.96,1.96,0,0,1-1.535-.173,2.026,2.026,0,0,1-.732-2.657l2.913-5.8a3.5,3.5,0,0,1,3.146-1.941h9.921a3.5,3.5,0,0,1,3.146,1.941l2.913,5.8a2.023,2.023,0,0,1-.736,2.654,1.951,1.951,0,0,1-2.661-.728c-.018-.03-.033-.06-.049-.09l-2.458-4.894V79.031a1.951,1.951,0,0,1-1.951,1.951q-.053,0-.106,0a2.025,2.025,0,0,1-1.847-2.042V65.791H146.1V79.033a1.952,1.952,0,0,1-1.948,1.952ZM142.473,51.7a.168.168,0,0,1,.064.007.282.282,0,0,1,.217.274V78.937a1.457,1.457,0,0,0,1.313,1.482,1.387,1.387,0,0,0,1.462-1.308c0-.027,0-.054,0-.081V65.508a.283.283,0,0,1,.282-.282H148.8a.283.283,0,0,1,.282.282V78.937a1.457,1.457,0,0,0,1.313,1.482,1.387,1.387,0,0,0,1.462-1.308c0-.026,0-.051,0-.077V51.981a.282.282,0,0,1,.217-.274.276.276,0,0,1,.311.146l2.991,5.956a1.392,1.392,0,0,0,1.87.615l.062-.033a1.458,1.458,0,0,0,.51-1.914l-2.913-5.8a2.94,2.94,0,0,0-2.643-1.629h-9.92a2.937,2.937,0,0,0-2.643,1.629l-2.913,5.8a1.46,1.46,0,0,0,.51,1.914,1.391,1.391,0,0,0,1.932-.582l2.991-5.956a.278.278,0,0,1,.252-.154Zm4.834-4.642a3.889,3.889,0,1,1,3.889-3.889,3.889,3.889,0,0,1-3.889,3.889Zm0-7.21a3.326,3.326,0,1,0,3.326,3.326,3.326,3.326,0,0,0-3.326-3.326Z" transform="translate(4.771 1.377)" fill="#303030"/>
        <path id="Path_909384" data-name="Path 909384" d="M142.256,66.566h3.337V78.077a1.667,1.667,0,0,1-1.663,1.67q-.048,0-.1,0a1.728,1.728,0,0,1-1.581-1.76V66.566Z" transform="translate(4.988 2.334)" fill="#bfc9ff"/>
        <path id="Path_909385" data-name="Path 909385" d="M143.943,80.034h-.113a2.02,2.02,0,0,1-1.847-2.042V66.576a.283.283,0,0,1,.282-.282H145.6a.283.283,0,0,1,.282.282V78.086a1.958,1.958,0,0,1-.612,1.419,1.923,1.923,0,0,1-1.332.533Zm-1.4-13.177V77.992a1.448,1.448,0,0,0,1.31,1.479,1.387,1.387,0,0,0,1.462-1.306c0-.026,0-.053,0-.079V66.857Z" transform="translate(4.979 2.325)" fill="#303030"/>
        <path id="Path_909386" data-name="Path 909386" d="M151.709,66.566V78.077a1.667,1.667,0,0,1-1.663,1.67q-.048,0-.1,0a1.728,1.728,0,0,1-1.581-1.76V66.566h3.34Z" transform="translate(5.202 2.334)" fill="#bfc9ff"/>
        <path id="Path_909387" data-name="Path 909387" d="M150.056,80.034h-.113a2.017,2.017,0,0,1-1.842-2.042V66.576a.283.283,0,0,1,.282-.282h3.337a.283.283,0,0,1,.282.282V78.086a1.958,1.958,0,0,1-.612,1.419,1.923,1.923,0,0,1-1.332.533Zm-1.392-13.177V77.992a1.45,1.45,0,0,0,1.309,1.479,1.387,1.387,0,0,0,1.462-1.306c0-.026,0-.053,0-.079V66.857h-2.773Z" transform="translate(5.193 2.325)" fill="#303030"/>
        <path id="Path_909388" data-name="Path 909388" d="M131.106,86.877l1.389-2.913h1.2l-1.426,2.913Zm0,.612v-.612l.326-.319H134.7v.932h-3.6Zm2.079.36V85.728h1.092v2.121a.548.548,0,0,1-1.1,0Z" transform="translate(4.597 2.944)" fill="#bfc9ff"/>
        <path id="Path_909389" data-name="Path 909389" d="M136.8,88.47a1.774,1.774,0,0,1-.995-.289,1.958,1.958,0,0,1-.69-.81,2.684,2.684,0,0,1-.252-1.193,2.651,2.651,0,0,1,.252-1.186,2,2,0,0,1,.683-.807,1.712,1.712,0,0,1,.983-.289,1.782,1.782,0,0,1,1,.289,1.955,1.955,0,0,1,.687.807,2.745,2.745,0,0,1,.252,1.2,2.65,2.65,0,0,1-.252,1.189,1.941,1.941,0,0,1-.683.8,1.733,1.733,0,0,1-.984.289m-.011-.965a.657.657,0,0,0,.436-.154.96.96,0,0,0,.277-.446,2.35,2.35,0,0,0,.1-.725,2.274,2.274,0,0,0-.1-.717.955.955,0,0,0-.277-.447.665.665,0,0,0-.443-.154.635.635,0,0,0-.424.15.943.943,0,0,0-.277.443,2.32,2.32,0,0,0-.1.725,2.382,2.382,0,0,0,.1.725.956.956,0,0,0,.277.45.645.645,0,0,0,.432.154Z" transform="translate(4.729 2.942)" fill="#bfc9ff"/>
        <path id="Path_909390" data-name="Path 909390" d="M139.866,85.783a.937.937,0,0,1-.473-.124.9.9,0,0,1-.342-.342.949.949,0,0,1-.124-.477.925.925,0,0,1,.917-.932h.021a.957.957,0,0,1,.484.124.978.978,0,0,1,.342.334.96.96,0,0,1,0,.95.964.964,0,0,1-.342.342.93.93,0,0,1-.48.124m-.383,2.038,2.139-3.7a.429.429,0,1,1,.743.427l-2.139,3.7a.429.429,0,1,1-.743-.427m.383-2.744a.219.219,0,0,0,.169-.067.235.235,0,0,0,.064-.166.225.225,0,0,0-.064-.166.222.222,0,0,0-.166-.067.206.206,0,0,0-.157.067.246.246,0,0,0,0,.33.206.206,0,0,0,.157.067Zm2.105,3.386a.928.928,0,0,1-.477-.124.9.9,0,0,1-.342-.342.939.939,0,0,1-.124-.477.916.916,0,0,1,.124-.473.932.932,0,0,1,.81-.458.968.968,0,0,1,.484.124.936.936,0,0,1,.342.334.9.9,0,0,1,.124.473.925.925,0,0,1-.907.942Zm0-.713a.225.225,0,0,0,.166-.064.205.205,0,0,0,.064-.161.227.227,0,0,0-.39-.166.235.235,0,0,0-.064.166.219.219,0,0,0,.064.161.224.224,0,0,0,.157.064Z" transform="translate(4.871 2.942)" fill="#bfc9ff"/>
        <path id="Path_909391" data-name="Path 909391" d="M157.459,84.944H145.724a.548.548,0,1,1,0-1.1H157.46a.548.548,0,1,1,0,1.1" transform="translate(5.091 2.94)" fill="#bfc9ff"/>
        <path id="Path_909392" data-name="Path 909392" d="M163.474,86.645H145.519a.282.282,0,1,1,0-.563h17.955a.282.282,0,1,1,0,.563" transform="translate(5.093 3.018)" fill="#303030"/>
        <path id="Path_909393" data-name="Path 909393" d="M163.474,88.284H145.519a.282.282,0,1,1,0-.563h17.955a.282.282,0,1,1,0,.563" transform="translate(5.093 3.076)" fill="#303030"/>
        <path id="Path_909394" data-name="Path 909394" d="M186.261,54.123a4.391,4.391,0,0,1-1.978-.414,4.675,4.675,0,0,1-1.535-1.253l1.269-1.279a3.694,3.694,0,0,0,1.013.942,2.462,2.462,0,0,0,1.332.353,2.1,2.1,0,0,0,1.223-.311,1.038,1.038,0,0,0,.447-.893,1.072,1.072,0,0,0-.259-.747,2.112,2.112,0,0,0-.683-.488,8.173,8.173,0,0,0-.932-.367c-.337-.109-.672-.236-1.009-.383a4.142,4.142,0,0,1-.932-.54,2.341,2.341,0,0,1-.676-.828,2.873,2.873,0,0,1-.252-1.288,2.718,2.718,0,0,1,.439-1.569,2.826,2.826,0,0,1,1.209-.995,4.247,4.247,0,0,1,1.749-.346,3.923,3.923,0,0,1,1.76.39,4.094,4.094,0,0,1,1.339,1.009L188.508,46.4a3.547,3.547,0,0,0-.886-.747,2.162,2.162,0,0,0-2.07.007,1.03,1.03,0,0,0-.169,1.447l.037.043a2.221,2.221,0,0,0,.683.446c.282.124.6.244.932.36s.683.244,1.021.39a3.7,3.7,0,0,1,.932.563,2.544,2.544,0,0,1,.683.886,3.071,3.071,0,0,1,.259,1.332,2.712,2.712,0,0,1-.987,2.218,4.15,4.15,0,0,1-2.7.807Zm1.025-9.462h-1.366V42.4h1.366Zm-1.369,8.568h1.366v2.188h-1.366Z" transform="translate(6.408 1.487)" fill="#fff"/>
        <path id="Path_909395" data-name="Path 909395" d="M190.791,52.81l3.817-3.992a9.3,9.3,0,0,0,.657-.769,2.717,2.717,0,0,0,.367-.649,1.854,1.854,0,0,0,.116-.627,1.255,1.255,0,0,0-.414-.995,1.544,1.544,0,0,0-1.059-.36,2.086,2.086,0,0,0-1.175.346,3.348,3.348,0,0,0-.957,1.1L190.8,45.721a4.2,4.2,0,0,1,1.5-1.546,4.027,4.027,0,0,1,2.064-.526,3.675,3.675,0,0,1,1.734.39,2.8,2.8,0,0,1,1.145,1.081,3.142,3.142,0,0,1,.4,1.614,3.881,3.881,0,0,1-.15,1.122,3.571,3.571,0,0,1-.5,1,9.225,9.225,0,0,1-.972,1.115l-2.777,2.837h-2.46Zm0,1.122V52.81l1.671-.574h5.412v1.7h-7.083Z" transform="translate(6.69 1.53)" fill="#fff"/>
        <path id="Path_909396" data-name="Path 909396" d="M198.441,43.805h3.772v1.7h-3.772Zm1.985,10.123V43.805h1.929V53.927Z" transform="translate(6.958 1.536)" fill="#fff"/>
        <path id="Path_909397" data-name="Path 909397" d="M207.988,54.079a3.779,3.779,0,0,1-2.158-.649A4.485,4.485,0,0,1,204.3,51.6a6.926,6.926,0,0,1-.007-5.486,4.48,4.48,0,0,1,1.521-1.812,3.736,3.736,0,0,1,2.139-.649,3.82,3.82,0,0,1,2.165.649,4.481,4.481,0,0,1,1.521,1.821,7,7,0,0,1,0,5.5,4.421,4.421,0,0,1-1.512,1.812,3.728,3.728,0,0,1-2.133.64m-.03-1.771a1.9,1.9,0,0,0,1.193-.39,2.5,2.5,0,0,0,.785-1.152,6.542,6.542,0,0,0,0-3.8,2.436,2.436,0,0,0-.792-1.145,1.955,1.955,0,0,0-1.2-.383,1.893,1.893,0,0,0-1.182.383,2.45,2.45,0,0,0-.785,1.139,5.464,5.464,0,0,0-.282,1.892,5.615,5.615,0,0,0,.282,1.914,2.5,2.5,0,0,0,.785,1.152,1.9,1.9,0,0,0,1.193.39Z" transform="translate(7.144 1.531)" fill="#fff"/>
        <path id="Path_909398" data-name="Path 909398" d="M217.169,54.079a3.779,3.779,0,0,1-2.158-.649,4.485,4.485,0,0,1-1.535-1.828,6.926,6.926,0,0,1-.007-5.486A4.48,4.48,0,0,1,214.99,44.3a3.736,3.736,0,0,1,2.139-.649,3.82,3.82,0,0,1,2.165.649,4.476,4.476,0,0,1,1.519,1.823,7,7,0,0,1,0,5.5,4.422,4.422,0,0,1-1.512,1.812,3.724,3.724,0,0,1-2.132.642Zm-.03-1.771a1.9,1.9,0,0,0,1.193-.39,2.5,2.5,0,0,0,.785-1.152,6.542,6.542,0,0,0,0-3.8,2.436,2.436,0,0,0-.792-1.145,1.955,1.955,0,0,0-1.2-.383,1.893,1.893,0,0,0-1.182.383,2.449,2.449,0,0,0-.785,1.139,5.464,5.464,0,0,0-.282,1.892,5.615,5.615,0,0,0,.282,1.914,2.5,2.5,0,0,0,.785,1.152,1.9,1.9,0,0,0,1.193.39Z" transform="translate(7.465 1.531)" fill="#fff"/>
        <rect id="Rectangle_409857" data-name="Rectangle 409857" width="4.942" height="18.391" transform="translate(185.118 73.254)" fill="#bac36a"/>
        <rect id="Rectangle_409858" data-name="Rectangle 409858" width="4.942" height="11.035" transform="translate(193.807 80.61)" fill="#bfc9ff"/>
        <rect id="Rectangle_409859" data-name="Rectangle 409859" width="4.942" height="14.712" transform="translate(202.499 76.932)" fill="#303030"/>
        <rect id="Rectangle_409860" data-name="Rectangle 409860" width="4.942" height="3.757" transform="translate(211.187 87.883)" fill="#bac36a"/>
        <rect id="Rectangle_409861" data-name="Rectangle 409861" width="4.942" height="7.356" transform="translate(219.88 84.288)" fill="#bfc9ff"/>
        <rect id="Rectangle_409862" data-name="Rectangle 409862" width="4.942" height="14.747" transform="translate(228.572 76.898)" fill="#303030"/>
        <path id="Path_909399" data-name="Path 909399" d="M227.525,115.769a13.8,13.8,0,0,1-9.477,13.1l-2.381-7.24a6.175,6.175,0,0,0,4.244-5.866,6.086,6.086,0,0,0-.7-2.856l6.756-3.519a13.711,13.711,0,0,1,1.565,6.38Z" transform="translate(7.562 3.836)" fill="#bac36a"/>
        <path id="Path_909400" data-name="Path 909400" d="M218.062,129.163a.278.278,0,0,1-.266-.2l-2.381-7.24a.28.28,0,0,1,.014-.214.275.275,0,0,1,.166-.139,5.884,5.884,0,0,0,4.049-5.6,5.807,5.807,0,0,0-.668-2.724.285.285,0,0,1-.019-.214.275.275,0,0,1,.139-.166l6.756-3.519a.28.28,0,0,1,.378.119h0a14.084,14.084,0,0,1-8.074,19.885.247.247,0,0,1-.086.016Zm-2.034-7.349,2.211,6.707a13.515,13.515,0,0,0,7.615-18.747l-6.26,3.266a6.459,6.459,0,0,1-3.116,8.587q-.219.1-.446.188Z" transform="translate(7.553 3.826)" fill="#303030"/>
        <path id="Path_909401" data-name="Path 909401" d="M225.882,109.509l-6.756,3.519a6.246,6.246,0,0,0-1.242-1.641l5.224-5.547a13.862,13.862,0,0,1,2.774,3.659Z" transform="translate(7.64 3.711)" fill="#fff"/>
        <path id="Path_909402" data-name="Path 909402" d="M219.137,113.325a.344.344,0,0,1-.086-.011.275.275,0,0,1-.166-.139,5.937,5.937,0,0,0-1.186-1.565.28.28,0,0,1-.013-.4l0,0,5.224-5.547a.286.286,0,0,1,.2-.09.266.266,0,0,1,.207.076,14.049,14.049,0,0,1,2.83,3.735.281.281,0,0,1-.119.379h0l-6.756,3.519a.276.276,0,0,1-.131.03Zm-.848-1.925a6.407,6.407,0,0,1,.961,1.269l6.26-3.266a13.5,13.5,0,0,0-2.381-3.141l-4.842,5.138Z" transform="translate(7.63 3.702)" fill="#303030"/>
        <path id="Path_909403" data-name="Path 909403" d="M223.4,105.977l-5.224,5.547a6.15,6.15,0,0,0-4.238-1.681,6.015,6.015,0,0,0-1.992.33l-2.458-7.213a13.812,13.812,0,0,1,13.913,3.017Z" transform="translate(7.346 3.584)" fill="#f6c3ff"/>
        <path id="Path_909404" data-name="Path 909404" d="M223.4,105.977l-5.224,5.547a6.15,6.15,0,0,0-4.238-1.681,6.015,6.015,0,0,0-1.992.33l-2.458-7.213a13.812,13.812,0,0,1,13.913,3.017Z" transform="translate(7.346 3.584)" fill="none" stroke="#9fabff" stroke-miterlimit="10" stroke-width="1"/>
        <path id="Path_909405" data-name="Path 909405" d="M218.187,111.815a.275.275,0,0,1-.2-.079,5.847,5.847,0,0,0-4.042-1.6,5.776,5.776,0,0,0-1.9.311.28.28,0,0,1-.214-.016.275.275,0,0,1-.143-.161l-2.458-7.213a.283.283,0,0,1,.176-.356A14.085,14.085,0,0,1,223.6,105.78a.28.28,0,0,1,.013.4l0,0-5.224,5.547a.286.286,0,0,1-.2.09h-.007Zm-4.233-2.244a6.427,6.427,0,0,1,4.222,1.569L223.018,106a13.542,13.542,0,0,0-13.155-2.856l2.277,6.684a6.385,6.385,0,0,1,1.817-.259Z" transform="translate(7.336 3.575)" fill="#303030"/>
        <path id="Path_909406" data-name="Path 909406" d="M208.087,116a6.212,6.212,0,0,0,.067.919l-7.532,1.139a13.8,13.8,0,0,1,9.187-15.112l2.458,7.213A6.184,6.184,0,0,0,208.087,116" transform="translate(7.029 3.61)" fill="#bfc9ff"/>
        <path id="Path_909407" data-name="Path 909407" d="M200.628,118.336a.282.282,0,0,1-.169-.056.279.279,0,0,1-.113-.184,13.909,13.909,0,0,1-.157-2.094,14.076,14.076,0,0,1,9.533-13.327.285.285,0,0,1,.214.016.289.289,0,0,1,.143.161l2.458,7.213a.283.283,0,0,1-.176.356A5.891,5.891,0,0,0,208.372,116a6.384,6.384,0,0,0,.064.878.28.28,0,0,1-.236.311l-7.532,1.139h-.041Zm9.015-15.035a13.515,13.515,0,0,0-8.887,12.7,13.826,13.826,0,0,0,.109,1.731l6.98-1.051c-.023-.233-.034-.457-.034-.679a6.454,6.454,0,0,1,4.106-6.017L209.64,103.3Z" transform="translate(7.02 3.6)" fill="#303030"/>
        <path id="Path_909408" data-name="Path 909408" d="M218.576,128.624a13.809,13.809,0,0,1-17.962-11.049l7.532-1.139a6.183,6.183,0,0,0,7.043,5.184,6.1,6.1,0,0,0,1-.237l2.381,7.24Z" transform="translate(7.034 4.083)" fill="#303030"/>
        <path id="Path_909409" data-name="Path 909409" d="M214.266,129.606a14.152,14.152,0,0,1-13.921-11.98.281.281,0,0,1,.236-.319l7.532-1.139a.279.279,0,0,1,.207.053.29.29,0,0,1,.113.184,5.929,5.929,0,0,0,5.828,5.014,5.86,5.86,0,0,0,1.847-.293.28.28,0,0,1,.214.014.3.3,0,0,1,.143.166l2.381,7.24a.28.28,0,0,1-.014.214.275.275,0,0,1-.166.139,14.1,14.1,0,0,1-4.406.706Zm-13.32-11.788a13.528,13.528,0,0,0,17.279,10.633l-2.211-6.707a6.352,6.352,0,0,1-1.752.24,6.5,6.5,0,0,1-6.339-5.217l-6.98,1.051Z" transform="translate(7.025 4.073)" fill="#303030"/>
        <path id="Path_909410" data-name="Path 909410" d="M87.979,116.441c1.8,2.733,3.6,5.464,7.21,5.464,7.21,0,7.21-18.064,14.284-18.064s7.079,21.415,14.153,21.415,7.079-14.277,14.153-14.277,7.079,7.142,14.153,7.142,7.082-14.281,14.157-14.281,7.079,18.064,14.153,18.064c3.539,0,5.318-3.64,7.026-7.281v13.559a1.379,1.379,0,0,1-1.378,1.378H89.357a1.379,1.379,0,0,1-1.378-1.378V116.441Z" transform="translate(3.085 3.641)" fill="#bac36a"/>
        <path id="Path_909411" data-name="Path 909411" d="M123.635,125.548c-3.742,0-5.574-5.544-7.349-10.9-1.708-5.168-3.476-10.516-6.809-10.516s-5.1,4.47-6.809,8.79c-1.8,4.56-3.667,9.274-7.48,9.274s-5.63-2.841-7.442-5.589a.282.282,0,0,1,.469-.311c1.809,2.744,3.519,5.337,6.973,5.337s5.224-4.534,6.955-8.917c1.779-4.5,3.623-9.147,7.33-9.147s5.574,5.544,7.349,10.9c1.708,5.168,3.476,10.516,6.809,10.516s5.044-3.393,6.823-6.98,3.614-7.3,7.33-7.3,5.494,1.858,7.278,3.652,3.457,3.487,6.876,3.487,5.044-3.393,6.823-6.98,3.614-7.3,7.33-7.3,5.566,4.684,7.338,9.212c1.7,4.353,3.467,8.854,6.816,8.854s5.205-3.783,6.77-7.12a.283.283,0,0,1,.51.24c-1.636,3.49-3.49,7.442-7.281,7.442s-5.566-4.684-7.338-9.212c-1.7-4.353-3.467-8.854-6.816-8.854s-5.044,3.393-6.823,6.98-3.614,7.3-7.33,7.3-5.5-1.858-7.278-3.652-3.457-3.487-6.876-3.487-5.044,3.393-6.823,6.98-3.614,7.3-7.33,7.3Z" transform="translate(3.075 3.632)" fill="#303030"/>
        <path id="Path_909412" data-name="Path 909412" d="M165.182,103.9a1.681,1.681,0,1,1-1.681-1.681,1.681,1.681,0,0,1,1.681,1.681" transform="translate(5.674 3.584)" fill="#bfc9ff"/>
        <path id="Path_909413" data-name="Path 909413" d="M163.51,105.871a1.967,1.967,0,1,1,1.967-1.967,1.967,1.967,0,0,1-1.967,1.967m0-3.363a1.4,1.4,0,1,0,1.4,1.4,1.4,1.4,0,0,0-1.4-1.4Z" transform="translate(5.664 3.574)" fill="#303030"/>
        <path id="Path_909414" data-name="Path 909414" d="M151.508,117.786a1.681,1.681,0,1,1-1.681-1.681,1.681,1.681,0,0,1,1.681,1.681" transform="translate(5.195 4.071)" fill="#bfc9ff"/>
        <path id="Path_909415" data-name="Path 909415" d="M149.836,119.759a1.967,1.967,0,1,1,1.967-1.967,1.967,1.967,0,0,1-1.967,1.967m0-3.363a1.4,1.4,0,1,0,1.4,1.4h0a1.4,1.4,0,0,0-1.4-1.4" transform="translate(5.185 4.061)" fill="#303030"/>
        <path id="Path_909416" data-name="Path 909416" d="M137.751,110.889a1.681,1.681,0,1,1-1.681-1.681,1.681,1.681,0,0,1,1.681,1.681" transform="translate(4.712 3.829)" fill="#bfc9ff"/>
        <path id="Path_909417" data-name="Path 909417" d="M136.079,112.862a1.967,1.967,0,1,1,1.967-1.967,1.967,1.967,0,0,1-1.967,1.967m0-3.363a1.4,1.4,0,1,0,1.4,1.4,1.4,1.4,0,0,0-1.4-1.4" transform="translate(4.703 3.82)" fill="#303030"/>
        <path id="Path_909418" data-name="Path 909418" d="M124.161,124.584a1.681,1.681,0,1,1-1.681-1.681,1.681,1.681,0,0,1,1.681,1.681" transform="translate(4.236 4.31)" fill="#bfc9ff"/>
        <path id="Path_909419" data-name="Path 909419" d="M122.485,126.561a1.967,1.967,0,1,1,1.967-1.967,1.967,1.967,0,0,1-1.967,1.967m0-3.363a1.4,1.4,0,1,0,1.4,1.4,1.4,1.4,0,0,0-1.4-1.4Z" transform="translate(4.226 4.3)" fill="#303030"/>
        <path id="Path_909420" data-name="Path 909420" d="M110.483,103.988a1.681,1.681,0,1,1-1.681-1.681,1.681,1.681,0,0,1,1.681,1.681" transform="translate(3.756 3.587)" fill="#bfc9ff"/>
        <path id="Path_909421" data-name="Path 909421" d="M108.811,105.965A1.967,1.967,0,1,1,110.777,104a1.967,1.967,0,0,1-1.967,1.967m0-3.363a1.4,1.4,0,1,0,1.4,1.4,1.4,1.4,0,0,0-1.4-1.4" transform="translate(3.746 3.578)" fill="#303030"/>
        <path id="Path_909422" data-name="Path 909422" d="M96.683,121.339A1.681,1.681,0,1,1,95,119.658a1.681,1.681,0,0,1,1.681,1.681" transform="translate(3.272 4.196)" fill="#bfc9ff"/>
        <path id="Path_909423" data-name="Path 909423" d="M95.011,123.312a1.967,1.967,0,1,1,1.967-1.967,1.967,1.967,0,0,1-1.967,1.967m0-3.367a1.4,1.4,0,1,0,1.4,1.4,1.4,1.4,0,0,0-1.4-1.4" transform="translate(3.263 4.186)" fill="#303030"/>
        <path id="Path_909424" data-name="Path 909424" d="M35.061,140.194c.326-1.209,3.2-19.01,4.5-28.727a208.065,208.065,0,0,0,1.321-40.9H19.377c-1.539,10.881-6.659,13.275,7.09,17.009,0,0,.57,16.529.646,20.7S25.375,114.134,25.627,125c.09,3.922.109,14.408.252,14.844-.18,6.327,7.811,5.4,9.18.349Z" transform="translate(0.602 2.474)" fill="#ad6163"/>
        <path id="Path_909425" data-name="Path 909425" d="M25.623,136.9c-1.021.184-1.051.57-.932,2.548a33.4,33.4,0,0,1-.589,6.5c-.24,1.261-.277,2.474,2.837,3.317s4.928.226,7.18.406c3.22.259,7.544,1.715,11.853,1.881s5.566-.769,6.186-1.449.12-3.116-1.553-3.982-5.641-2.162-7.776-3.6c-3.105-2.083-5.517-3.753-6.59-5.062s-3.588-.217-4.7,1.449-1.76,2-3.58,1.606-2.211-1.749-2.338-3.61Z" transform="translate(0.842 4.799)" fill="#303030"/>
        <path id="Path_909426" data-name="Path 909426" d="M33.3,141.9c1.092,1.209-2.32.293-5.254-1.415,1.644.311,2.293-.067,3.352-1.656-.2.846.815,1.863,1.9,3.071" transform="translate(0.984 4.868)" fill="#303030"/>
        <path id="Path_909427" data-name="Path 909427" d="M24.112,150.151c.792,1.055,2.541,1.4,4.293,1.561s3.726-.244,6.512.191c2.447.386,6.617,1.283,9.03,1.614,2.747.376,5.773.214,7.169-.582,1.309-.75,1.295-1.937,1.283-3.547l-.034-.011a.939.939,0,0,1-.191.387c-.621.683-1.872,1.614-6.186,1.449s-8.351-1.468-11.507-1.839c-3.13-.372-4.635.233-7.776-.5-2.691-.621-2.724-1.662-2.684-2.556,0,0-.7,2.777.094,3.83Z" transform="translate(0.832 5.131)" fill="#fff"/>
        <path id="Path_909428" data-name="Path 909428" d="M46.79,154a21.418,21.418,0,0,1-2.867-.2c-1.355-.184-3.254-.548-5.089-.9-1.475-.282-2.867-.548-3.949-.717a21.274,21.274,0,0,0-4.271-.176A18.947,18.947,0,0,1,28.392,152c-1.618-.146-3.592-.469-4.5-1.674-.848-1.129-.217-3.772-.143-4.072a.283.283,0,0,1,.556.079c-.034.788-.071,1.681,2.47,2.271a16.024,16.024,0,0,0,4.353.367,23.22,23.22,0,0,1,3.393.124c1.219.146,2.574.427,4.009.725a44.892,44.892,0,0,0,7.476,1.111c4.057.154,5.318-.646,5.967-1.359a.644.644,0,0,0,.127-.27.28.28,0,0,1,.341-.2l.008,0a.328.328,0,0,1,.24.277c.011,1.671.023,2.965-1.426,3.79a9.827,9.827,0,0,1-4.478.81Zm-14.72-2.578a18.354,18.354,0,0,1,2.9.214c1.089.173,2.484.439,3.963.725,1.828.349,3.719.709,5.059.893,2.867.39,5.743.166,6.989-.548a2.472,2.472,0,0,0,1.139-2.474c-.8.725-2.32,1.426-6.14,1.279a45.692,45.692,0,0,1-7.57-1.122c-1.419-.3-2.763-.578-3.956-.725a22.762,22.762,0,0,0-3.317-.12,16.589,16.589,0,0,1-4.492-.383A4.024,4.024,0,0,1,24.06,147.8a3.541,3.541,0,0,0,.282,2.2c.769,1.029,2.594,1.313,4.095,1.449a17.75,17.75,0,0,0,2.151.011c.466-.014.953-.03,1.475-.03Z" transform="translate(0.823 5.121)" fill="#303030"/>
        <path id="Path_909429" data-name="Path 909429" d="M35.958,70.565H13.243c-1.438,10.723-1.415,13.886-1.381,26.7a84.691,84.691,0,0,1-1.081,15.812c-1.475,8.2-2.484,10.092-2.548,18.064-.019,2.571-.274,13.616-.207,15.767,5.279,8.062,8.688.079,8.688.079s1.318-7.8,2.053-11.707c1.648-8.783,2.3-14.322,4.053-19.509C26.2,105.781,28.984,86.9,28.984,86.9s7.841-6.673,6.973-16.345Z" transform="translate(0.281 2.474)" fill="#ad6163"/>
        <path id="Path_909430" data-name="Path 909430" d="M18.632,149.876a29.734,29.734,0,0,1,1.2,4.485c.113,1.464.056,2.845-1.139,3.7a4.939,4.939,0,0,1-2.188.758,13.013,13.013,0,0,1-6.786-.7,5.049,5.049,0,0,1-1.929-1.471c-.848-1.043-.736-2.462-.713-3.8.023-1.216.266-2.744.353-3.952a50.151,50.151,0,0,1,.63-7.15c.154.533.136,1.618.828,2.019.386.221.638-1.179,1.4-1.925a4.639,4.639,0,0,1,2.691-1.2,4.926,4.926,0,0,1,3.859,1.047c.987.863.87,1.978.932,3.16a20.209,20.209,0,0,0,.856,5.032Z" transform="translate(0.248 4.929)" fill="#303030"/>
        <path id="Path_909431" data-name="Path 909431" d="M8.861,143.719c.1.056.187.007.282-.113-.3,1.089-.439,3.9-.777,3.558-.51-.51-.414-3.472-.337-5.468.154.533.136,1.618.828,2.019Z" transform="translate(0.279 4.968)" fill="#303030"/>
        <path id="Path_909432" data-name="Path 909432" d="M6.789,156.844c.019.739.672,2.751,4.672,3.573,3.179.649,5.9.166,7.338-.9.991-.736,1.193-2.668,1.1-4.748l-.023-.011a3.189,3.189,0,0,1-1.175,2.9,4.872,4.872,0,0,1-2.192.758,13.013,13.013,0,0,1-6.786-.7A5.049,5.049,0,0,1,7.8,156.243c-.848-1.043-.736-2.462-.709-3.8,0-.15.007-.3.019-.458a32.3,32.3,0,0,0-.311,4.857Z" transform="translate(0.238 5.329)" fill="#fff"/>
        <path id="Path_909433" data-name="Path 909433" d="M14.275,161a14.386,14.386,0,0,1-2.856-.3c-4.7-.961-4.894-3.55-4.9-3.843a32.115,32.115,0,0,1,.319-4.894.281.281,0,1,1,.559.053c-.011.15-.016.3-.016.443l-.007.33a4.88,4.88,0,0,0,.657,3.292,4.823,4.823,0,0,0,1.821,1.389,12.663,12.663,0,0,0,6.636.683,4.569,4.569,0,0,0,2.07-.709,2.866,2.866,0,0,0,1.056-2.658.282.282,0,0,1,.282-.285.275.275,0,0,1,.1.019.318.318,0,0,1,.2.259c.116,2.661-.282,4.29-1.216,4.984A8.078,8.078,0,0,1,14.278,161ZM7.08,156.845c.007.247.18,2.428,4.451,3.3,2.879.589,5.607.266,7.116-.848a3.015,3.015,0,0,0,.908-2.07,2.934,2.934,0,0,1-.676.668,5.164,5.164,0,0,1-2.315.807,13.189,13.189,0,0,1-6.935-.725,5.307,5.307,0,0,1-2.042-1.553,3.162,3.162,0,0,1-.5-.882c-.016.414-.016.837,0,1.3Z" transform="translate(0.229 5.32)" fill="#303030"/>
        <path id="Path_909434" data-name="Path 909434" d="M12.513,68.5c-.893,4.774-1.159,10.765-1.362,12.952-.372,4.076-.683,19.678-1.366,25.334s-1.223,6.654-1.76,13.53c-.244,3.134-.083,14.911-.083,14.911s1.914,2.07,6.189,2.361,4.785-.755,4.785-.755,1.955-10.419,2.92-14.412,3.527-12.524,4.951-19.066c.056,4.609.236,5.858-.548,8.636s-.818,6.314-.717,11.593.222,8.152.222,8.152a7.951,7.951,0,0,0,5.044,1.708,22,22,0,0,0,6.68-.9s1.888-12.742,2.976-17.6a99.844,99.844,0,0,0,1.648-16.788c.346-14,.229-22.17-.282-29.658H12.517Z" transform="translate(0.277 2.402)" fill="#bac36a"/>
        <path id="Path_909435" data-name="Path 909435" d="M25.916,104.755a.451.451,0,0,1-.053,0,.278.278,0,0,1-.226-.324v0l.4-2.181c.889-4.852,2.105-11.5,2.534-12.663a15.812,15.812,0,0,1,.9-1.907,13.944,13.944,0,0,0,.957-2.07,18.844,18.844,0,0,0,.916-5.881c.143-3.356.166-6.759.06-10.115a.282.282,0,0,1,.274-.289.274.274,0,0,1,.289.26V69.6c.1,3.37.086,6.789-.06,10.156a19.361,19.361,0,0,1-.942,6.035,14.444,14.444,0,0,1-.995,2.154,15.33,15.33,0,0,0-.875,1.839c-.414,1.119-1.671,8.009-2.507,12.57l-.4,2.181a.282.282,0,0,1-.277.229Z" transform="translate(0.899 2.431)" fill="#303030"/>
        <path id="Path_909436" data-name="Path 909436" d="M19.511,131.773l.282-1.434c.518.12.792,1.006.586,1.618a19.732,19.732,0,0,0-.608,1.948c-.071.286-.266,1.223-.337,1.509a1.95,1.95,0,0,1-1.066,1.3c-1.632.849-4.211.709-5.814.454a8.025,8.025,0,0,1-4.722-2.387,2.157,2.157,0,0,1-.427-.725,3.724,3.724,0,0,1,.06-1.715,5.762,5.762,0,0,0-.36-2.248,1.956,1.956,0,0,1,.1-1.163.907.907,0,0,1,.646-.492l.041,1.381s1.339,1.715,5.611,2.417a17.53,17.53,0,0,0,6-.454Z" transform="translate(0.248 4.504)" fill="#bac36a"/>
        <path id="Path_909437" data-name="Path 909437" d="M7.676,129.973a3.078,3.078,0,0,0,.57.518,8.476,8.476,0,0,0,1.959,1.092,13.083,13.083,0,0,0,7.213.828A18.2,18.2,0,0,0,19.566,132a.283.283,0,0,0-.15-.544,16.309,16.309,0,0,1-5.072.537,12.934,12.934,0,0,1-3.6-.81,8.393,8.393,0,0,1-2.019-1.047,3.139,3.139,0,0,1-.642-.574c-.226-.286-.621.116-.4.4Z" transform="translate(0.267 4.54)" fill="#303030"/>
        <path id="Path_909438" data-name="Path 909438" d="M37.179,129.218l.293-1.389c.518.12.78.972.574,1.584a19.731,19.731,0,0,0-.608,1.948c-.071.286-.266,1.223-.337,1.509a1.95,1.95,0,0,1-1.066,1.3c-1.632.849-5.412.709-7.01.454a6.367,6.367,0,0,1-4.211-2.045,2.157,2.157,0,0,1-.427-.725,3.724,3.724,0,0,1,.06-1.715,7.223,7.223,0,0,0-.282-2.444,1.956,1.956,0,0,1,.1-1.163,1.7,1.7,0,0,1,.788-.679l.041,1.521s.608,1.618,4.879,2.32c2.616.428,7.2-.462,7.2-.462Z" transform="translate(0.846 4.413)" fill="#bac36a"/>
        <path id="Path_909439" data-name="Path 909439" d="M24.8,127.39a2,2,0,0,0,.526.706,6.159,6.159,0,0,0,2.2,1.227,12.294,12.294,0,0,0,3.873.709,25.767,25.767,0,0,0,3.682-.252c.725-.094,1.441-.2,2.154-.334.356-.067.207-.612-.15-.544a30.134,30.134,0,0,1-5.025.563,12.408,12.408,0,0,1-3.709-.469,6.9,6.9,0,0,1-2.428-1.129,3.276,3.276,0,0,1-.311-.289l-.113-.124c-.06-.067.007.019-.049-.064-.034-.049-.064-.1-.094-.15s-.034-.079,0,0c-.127-.334-.672-.191-.544.15Z" transform="translate(0.869 4.455)" fill="#303030"/>
        <path id="Path_909440" data-name="Path 909440" d="M14.411,135.731h-.03a9.15,9.15,0,0,1-7.153-4.151.282.282,0,1,1,.484-.289,8.59,8.59,0,0,0,6.728,3.88.279.279,0,0,1,.247.308v0a.283.283,0,0,1-.277.252Z" transform="translate(0.252 4.599)" fill="#303030"/>
        <path id="Path_909441" data-name="Path 909441" d="M31.006,132.719a15.644,15.644,0,0,1-2.3-.161.281.281,0,0,1,.083-.556c2.89.443,6.935-.023,8.418-1.553a.282.282,0,0,1,.4.394c-1.339,1.374-4.17,1.872-6.609,1.872Z" transform="translate(0.998 4.571)" fill="#303030"/>
        <path id="Path_909442" data-name="Path 909442" d="M18.651,21.13c1.309,6.486,3.633,8.73,7.015,8.73,4.222,0,7.4-4.7,7.462-8.73,2.3-4.121.146-8.5-5.577-8.287-3.573.131-6.174.717-7.259,4.019-1.9.875-1.993,2.514-1.641,4.268" transform="translate(0.648 0.45)" fill="#303030"/>
        <path id="Path_909443" data-name="Path 909443" d="M21.2,28.294a3.338,3.338,0,0,0,.957,2.3l-.1,4.875-2.492,1.261A14.781,14.781,0,0,0,28.6,39.655c4.865-.383,3.317-3.43,3.317-3.43l-2.244-.908-.2-2.518a4.657,4.657,0,0,0,3.257-1.486c.953-1.3.859-2.338.762-4.233-.064-1.249-.116-2.315-.113-3.25.007-1.265-.03-1.656-.1-3.105a6.621,6.621,0,0,0-1.139-3.46c-1.035-1.193-3.83-1.76-6.159-.983a5.886,5.886,0,0,0-3,1.8V19a2.068,2.068,0,0,1-.593,1.449l-.473.48a5.175,5.175,0,0,1,.621,2.44c0,.695-.466,1.306-.893.792a3.286,3.286,0,0,0-2.338-1.231,2,2,0,0,0-2.117,1.539A1.9,1.9,0,0,0,18.5,26.549a2.989,2.989,0,0,0,2.654-.157l.049,1.9Z" transform="translate(0.602 0.558)" fill="#ad6163"/>
        <path id="Path_909444" data-name="Path 909444" d="M28.2,27.755a3.9,3.9,0,0,1-2.154-.608.282.282,0,0,1,.337-.45,3.326,3.326,0,0,0,2.714.337.283.283,0,0,1,.226.518,2.916,2.916,0,0,1-1.119.207Z" transform="translate(0.91 0.934)" fill="#303030"/>
        <path id="Path_909445" data-name="Path 909445" d="M29.243,32.271a12.042,12.042,0,0,1-5.311-1.059c.367.792,1.847,2.019,5.415,2.387Z" transform="translate(0.839 1.094)" fill="#303030"/>
        <path id="Path_909446" data-name="Path 909446" d="M24.226,22.788c.282-.458,2.381-1.283,2.657-.18-.135.78-1.831,1.159-2.657.18" transform="translate(0.849 0.773)" fill="#fff"/>
        <path id="Path_909447" data-name="Path 909447" d="M26.024,23.111a.694.694,0,0,1-.957.173.68.68,0,0,1-.217-.937l0-.005a.694.694,0,0,1,.957-.173.679.679,0,0,1,.218.935l0,.007" transform="translate(0.868 0.773)" fill="#303030"/>
        <path id="Path_909448" data-name="Path 909448" d="M24.811,22.31l.63.414-.773-.053Z" transform="translate(0.865 0.782)" fill="#fff"/>
        <path id="Path_909449" data-name="Path 909449" d="M24.235,23.084a.263.263,0,0,1-.109-.023.276.276,0,0,1-.148-.361l0-.006a1.967,1.967,0,0,1,1.6-1.025,1.736,1.736,0,0,1,1.656.709.281.281,0,0,1-.462.319,1.191,1.191,0,0,0-1.139-.473,1.413,1.413,0,0,0-1.139.687.285.285,0,0,1-.259.173Z" transform="translate(0.84 0.759)" fill="#303030"/>
        <path id="Path_909450" data-name="Path 909450" d="M29.436,22.521c.282-.457,2.381-1.283,2.657-.18-.135.778-1.831,1.159-2.657.18" transform="translate(1.032 0.764)" fill="#fff"/>
        <path id="Path_909451" data-name="Path 909451" d="M31.238,22.84a.691.691,0,0,1-.953.18.68.68,0,0,1-.224-.936l0,0a.691.691,0,0,1,.953-.18.68.68,0,0,1,.224.936Z" transform="translate(1.051 0.764)" fill="#303030"/>
        <path id="Path_909452" data-name="Path 909452" d="M30.017,22.046l.634.406-.773-.049Z" transform="translate(1.048 0.773)" fill="#fff"/>
        <path id="Path_909453" data-name="Path 909453" d="M29.447,22.814a.317.317,0,0,1-.15-.041.28.28,0,0,1-.09-.386,2.138,2.138,0,0,1,1.553-.942,1.984,1.984,0,0,1,1.656.63.282.282,0,0,1-.4.4l-.008-.009A1.4,1.4,0,0,0,30.82,22a1.58,1.58,0,0,0-1.139.683.28.28,0,0,1-.24.131Z" transform="translate(1.023 0.752)" fill="#303030"/>
        <path id="Path_909454" data-name="Path 909454" d="M23.756,21.46a.271.271,0,0,1-.2-.083.283.283,0,0,1,0-.4,3.711,3.711,0,0,1,3.164-.878.281.281,0,0,1-.1.552,3.165,3.165,0,0,0-2.664.725.281.281,0,0,1-.2.083Z" transform="translate(0.823 0.703)" fill="#303030"/>
        <path id="Path_909455" data-name="Path 909455" d="M32.213,20.613a.315.315,0,0,1-.127-.03,3.52,3.52,0,0,0-2.588-.049A.281.281,0,1,1,29.333,20l.016,0a4.035,4.035,0,0,1,3,.094.281.281,0,0,1-.131.529Z" transform="translate(1.022 0.693)" fill="#303030"/>
        <path id="Path_909456" data-name="Path 909456" d="M28.265,25.866a.283.283,0,0,1-.094-.548c.665-.229,1.059-.477,1.171-.736a.607.607,0,0,0-.053-.518c-.176-.4-.346-.743-.582-1.209-.207-.42-.466-.932-.81-1.662a.283.283,0,0,1,.495-.273.193.193,0,0,1,.016.033c.346.725.6,1.235.807,1.656.229.457.414.818.593,1.235a1.167,1.167,0,0,1,.053.976c-.184.42-.66.75-1.5,1.043a.266.266,0,0,1-.09.016Z" transform="translate(0.977 0.728)" fill="#303030"/>
        <path id="Path_909457" data-name="Path 909457" d="M20.822,25.288a.282.282,0,0,1-.266-.187,1.347,1.347,0,0,0-.957-.828,1.437,1.437,0,0,0-1.025.12.282.282,0,0,1-.342-.446,1.964,1.964,0,0,1,1.49-.222,1.914,1.914,0,0,1,1.362,1.193.284.284,0,0,1-.173.36.29.29,0,0,1-.094.016Z" transform="translate(0.636 0.83)" fill="#303030"/>
        <path id="Path_909458" data-name="Path 909458" d="M19.3,24.966a.277.277,0,0,1-.226-.113.282.282,0,0,1,.056-.394,1.526,1.526,0,0,1,1.535-.169.28.28,0,1,1-.228.512l-.02-.009a.992.992,0,0,0-.949.116.276.276,0,0,1-.169.057" transform="translate(0.667 0.847)" fill="#303030"/>
        <path id="Path_909459" data-name="Path 909459" d="M38.285,38.269c4.069,1.794,4.481,2.646,6.5,5.194s5.6,7.866,5.6,7.866-3.6,6.4-8.831,7.3l-3.277-4.436V38.273" transform="translate(1.342 1.342)" fill="#bfc9ff"/>
        <path id="Path_909460" data-name="Path 909460" d="M67.924,48.185a1.574,1.574,0,0,0,.286-1.351c-.12-.432-.233-.706-.57-.807a1.018,1.018,0,0,0,.15-1.078,1.287,1.287,0,0,0-1.231-.713,12.449,12.449,0,0,1,2.451-1.228c.406-.15,1.1-.5.995-1.043-.071-.364-.263-.653-1.119-.653a6.975,6.975,0,0,0-2.345.559,16.036,16.036,0,0,0-2.181,1.035c-.717.39-1.168.7-1.76.972-.57.259-.683-.071-.518-.589a8.068,8.068,0,0,0,.762-2.027,1.049,1.049,0,0,0-.1-.574.671.671,0,0,0-.608-.274c-.621.056-1.1.979-1.4,1.359a14.687,14.687,0,0,0-1.163,1.546,13.9,13.9,0,0,0-1.108,2.5,3.083,3.083,0,0,1-1.295,1.851l-.131.09c-.1.067-.222.139-.346.214-1.129.672-8.148,3.91-8.148,3.91-1.872.845-4.669,3.765-6.639,6.091,1.914,2.207,3.769,4.568,6.744,4.037a10.271,10.271,0,0,0,4.8-2.691c2.969-2.594,5.975-5.757,7.153-6.74.083-.071.166-.124.244-.18.889-.586,1.644-.229,3.1-.8a8.3,8.3,0,0,0,1.6-.961.581.581,0,0,0,.266.3.658.658,0,0,0,.586.293,1.3,1.3,0,0,0,.747-.326A3.384,3.384,0,0,0,68.1,49.7a1.784,1.784,0,0,0,.2-.987.614.614,0,0,0-.367-.529Z" transform="translate(1.469 1.417)" fill="#ad6163"/>
        <path id="Path_909461" data-name="Path 909461" d="M41.69,58.36l-.233-.161-.207-.187.207.187-.217-.176c.45-.57,4.451-5.544,8.737-7.649a.28.28,0,0,1,.247.5c-4.17,2.049-8.1,6.935-8.535,7.48Z" transform="translate(1.446 1.765)" fill="#303030"/>
        <path id="Path_909462" data-name="Path 909462" d="M63.912,48.264a1.274,1.274,0,0,1-1.085-.469,1.161,1.161,0,0,1,.311-1.521c.056-.049.109-.1.166-.146a3.156,3.156,0,0,1,.383-.311,3.88,3.88,0,0,0,.788-.725.279.279,0,0,1,.4-.027h0a.284.284,0,0,1,.026.4,4.53,4.53,0,0,1-.9.828,3.233,3.233,0,0,0-.319.263c-.06.053-.116.1-.18.157a.6.6,0,0,0-.207.777.892.892,0,0,0,.755.214,2.348,2.348,0,0,0,.995-.414A5.955,5.955,0,0,0,66.8,45.52a.283.283,0,1,1,.481.3l-.005.007a6.543,6.543,0,0,1-1.925,1.941,2.948,2.948,0,0,1-1.242.5,1.77,1.77,0,0,1-.2.011Z" transform="translate(2.197 1.578)" fill="#303030"/>
        <path id="Path_909463" data-name="Path 909463" d="M64.446,49.87a1.274,1.274,0,0,1-1.085-.469.956.956,0,0,1,.233-1.331l.06-.038c.06-.053.109-.1.154-.139a2.118,2.118,0,0,1,.3-.256.281.281,0,1,1,.361.432.272.272,0,0,1-.051.034,1.448,1.448,0,0,0-.229.191c-.053.053-.109.1-.18.166-.356.3-.289.473-.187.627a.9.9,0,0,0,.755.214,2.348,2.348,0,0,0,.995-.414,6.291,6.291,0,0,0,1.381-1.139.283.283,0,1,1,.454.336.264.264,0,0,1-.027.031,6.863,6.863,0,0,1-1.5,1.242,2.948,2.948,0,0,1-1.242.5,1.771,1.771,0,0,1-.2.011Z" transform="translate(2.216 1.668)" fill="#303030"/>
        <path id="Path_909464" data-name="Path 909464" d="M59.765,50h-.191a.281.281,0,0,1-.266-.293.276.276,0,0,1,.286-.266H59.6a3.785,3.785,0,0,0,2.924-1.228,1.274,1.274,0,0,0,.372-.69.282.282,0,0,1,.559.056,1.8,1.8,0,0,1-.51,1.006A4.3,4.3,0,0,1,59.765,50Z" transform="translate(2.08 1.658)" fill="#303030"/>
        <path id="Path_909465" data-name="Path 909465" d="M46.24,56.059a.21.21,0,0,1-.067-.007.284.284,0,0,1-.207-.342,7.3,7.3,0,0,1,3.83-5.325.283.283,0,0,1,.286.488,6.727,6.727,0,0,0-3.566,4.977.28.28,0,0,1-.274.214Z" transform="translate(1.611 1.765)" fill="#303030"/>
        <path id="Path_909466" data-name="Path 909466" d="M32.183,35.237s-.3,2.462-4.316,2.706a13.488,13.488,0,0,1-8.058-1.918L12.5,39.544s-3.76,2.965-1.231,11.215,2.747,10.055,2.747,10.055L12.644,67.9S12.3,74.528,31.86,72.966c9.067-.725,9.248-4.339,9.248-4.339s-.041-5.716,0-11.068.4-14.9-1.625-18.807l-7.3-3.519Z" transform="translate(0.365 1.235)" fill="#303030"/>
        <path id="Path_909467" data-name="Path 909467" d="M32.229,34.162,33.85,36.14s2.728,1.035,4.429,1.734c2.381.965,3.307,6.91,3.307,14.235,0,7.724-.03,11.049.544,24.854A9.442,9.442,0,0,1,36.6,78.922s-.083-11.9-.083-17.389-.2-14.394-1.734-19.73c-.965-3.34-3.739-5.558-5.528-7.075L29.092,32.6l3.137,1.553Z" transform="translate(1.02 1.143)" fill="#bfc9ff"/>
        <path id="Path_909468" data-name="Path 909468" d="M41.292,58.369a.282.282,0,0,1-.282-.282C41,56.485,41,54.879,41,53.054V51.939c0-8.074-1.139-13.166-3.13-13.973a.282.282,0,0,1,.214-.518c2.879,1.171,3.483,8.531,3.483,14.5v1.115c0,1.828,0,3.427.007,5.029a.282.282,0,0,1-.282.282Z" transform="translate(1.323 1.313)" fill="#303030"/>
        <path id="Path_909469" data-name="Path 909469" d="M35.665,38.693a.3.3,0,0,1-.113-.023l-2.7-1.179a.283.283,0,1,1,.2-.528l.023.01,1.621.706-2.691-3.257a.283.283,0,1,1,.436-.36l3.445,4.163a.282.282,0,0,1,.007.349.287.287,0,0,1-.226.113Z" transform="translate(1.12 1.191)" fill="#303030"/>
        <path id="Path_909470" data-name="Path 909470" d="M24.747,47.957a46.717,46.717,0,0,0-1.5-11.687l-.886-4.037-3.6,3.586.03.337s-.84.207-3.423,1.073c-2.484.837-3.58,1.3-3.58,1.3s-2.53,7.116-1.385,10.9c.646,2.139,2.853,11.019,2.853,11.019a106.959,106.959,0,0,0-2.451,16.379c2.574,2.109,8.958,2.931,13.935,2.826v-31.7Z" transform="translate(0.354 1.13)" fill="#bfc9ff"/>
        <path id="Path_909471" data-name="Path 909471" d="M19.77,40.481h-.046a.277.277,0,0,1-.226-.2L18.243,36.12a.281.281,0,0,1,.535-.17l0,.008,1.085,3.607,1.6-2.335a.281.281,0,1,1,.462.319l-1.932,2.828a.278.278,0,0,1-.233.124Z" transform="translate(0.639 1.254)" fill="#303030"/>
        <path id="Path_909472" data-name="Path 909472" d="M.411,64.669C-.674,62.437.46,59.167,3,52.632a68.248,68.248,0,0,1,4.526-9.9,11.33,11.33,0,0,1,4.233-3.753,26.692,26.692,0,0,1,2.325,14.15L8.266,63.263.411,64.673Z" transform="translate(0 1.367)" fill="#ad6163"/>
        <path id="Path_909473" data-name="Path 909473" d="M13.647,56.586l-1.932,4s-7.841-1.359-10.43-5.75C6.666,41.828,6.782,40.57,12.1,38.319c0,0,3.176,2.68,3.312,10.247a17.739,17.739,0,0,1-1.766,8.02" transform="translate(0.045 1.344)" fill="#bfc9ff"/>
        <path id="Path_909474" data-name="Path 909474" d="M11.374,60.627a.288.288,0,0,1-.124-.026.282.282,0,0,1-.131-.376l1.932-4c.113-.233.229-.469.353-.717,1.179-2.381,2.795-5.637,2.151-9.965a.281.281,0,1,1,.556-.083c.668,4.5-.991,7.852-2.2,10.3-.124.247-.24.484-.349.713l-1.936,4a.281.281,0,0,1-.256.157Z" transform="translate(0.389 1.586)" fill="#303030"/>
        <path id="Path_909475" data-name="Path 909475" d="M22.78,64.286l4.635-15.2a.58.58,0,0,1,.518-.414L51.581,46.4a.777.777,0,0,1,.6.214c.184.169.777.725.939.882a.758.758,0,0,1,.233.766l-4.635,15.2a.58.58,0,0,1-.518.414l-6.02.578L24.553,66.147a.787.787,0,0,1-.616-.226c-.18-.173-.758-.717-.919-.867a.756.756,0,0,1-.236-.766Z" transform="translate(0.798 1.627)" fill="#fff"/>
        <path id="Path_909476" data-name="Path 909476" d="M24.494,66.438a1.1,1.1,0,0,1-.743-.3c-.18-.173-.758-.717-.919-.867a1.043,1.043,0,0,1-.311-1.055l4.629-15.2a.869.869,0,0,1,.758-.612l23.649-2.271a1.074,1.074,0,0,1,.818.286c.146.136.552.518.792.743l.15.139a1.034,1.034,0,0,1,.311,1.051l-4.637,15.2a.869.869,0,0,1-.758.612L24.588,66.431h-.094ZM51.656,46.685h-.041L27.966,48.956a.3.3,0,0,0-.274.214l-4.635,15.2a.481.481,0,0,0,.161.48c.161.15.739.7.923.867a.517.517,0,0,0,.4.15L48.188,63.6a.3.3,0,0,0,.274-.214L53.1,48.179a.482.482,0,0,0-.157-.477l-.15-.139c-.24-.226-.638-.6-.785-.736a.532.532,0,0,0-.346-.143Z" transform="translate(0.788 1.617)" fill="#303030"/>
        <path id="Path_909477" data-name="Path 909477" d="M24.52,66.113l17.628-1.692,6.02-.578a.574.574,0,0,0,.518-.414l4.635-15.2a.812.812,0,0,0-.617-.97.8.8,0,0,0-.228-.018L28.827,49.509a.587.587,0,0,0-.518.427l-4.635,15.2a.808.808,0,0,0,.627.954.778.778,0,0,0,.225.014Z" transform="translate(0.83 1.656)" fill="#b0c0d2"/>
        <path id="Path_909478" data-name="Path 909478" d="M24.463,66.409a1.1,1.1,0,0,1-.845-.414,1.006,1.006,0,0,1-.207-.923l4.635-15.208a.871.871,0,0,1,.762-.627l23.649-2.271a1.077,1.077,0,0,1,.932.414,1.016,1.016,0,0,1,.207.942l-4.632,15.2a.869.869,0,0,1-.758.612L24.557,66.4h-.094ZM52.551,47.526H52.51L28.862,49.8a.311.311,0,0,0-.277.233l-4.635,15.2a.442.442,0,0,0,.1.4.527.527,0,0,0,.45.207l23.653-2.272a.3.3,0,0,0,.274-.214l4.635-15.2a.464.464,0,0,0-.1-.42A.546.546,0,0,0,52.551,47.526Z" transform="translate(0.82 1.647)" fill="#303030"/>
        <path id="Path_909479" data-name="Path 909479" d="M.029,62.389c-.1-1.6,3-4.568,5.355-5.408,4.049-1.441,13.823-.882,15.932-1.069,1.3-.116,1.752-.484,2.045-.87a5.45,5.45,0,0,1,3.386-2.3l-.621,2.053a7.088,7.088,0,0,0,5.011-.076,13.154,13.154,0,0,0,2.135-1.062,2.933,2.933,0,0,1,.642-.3,1.052,1.052,0,0,1,.695.019.444.444,0,0,1,.247.233.572.572,0,0,1-.109.48A5.06,5.06,0,0,1,33.426,55.4q-.862.647-1.771,1.223a7.039,7.039,0,0,0,1.869-.492c.217-.083.432-.169.649-.244a1.516,1.516,0,0,1,.621-.1.682.682,0,0,1,.615.743l0,.026a1.043,1.043,0,0,1-.293.593,1.45,1.45,0,0,1-.263,1.681,11.172,11.172,0,0,1-3.607,1.858,5.4,5.4,0,0,0,1.618-.067,2.942,2.942,0,0,1,1.385-.034c.537.2.379.743-.041.972a7.019,7.019,0,0,1-1.576.544c-2.83.627-4.766.191-8.328.3S10.7,67.658,3.552,66.169C.828,65.606.157,64.417.033,62.386Z" transform="translate(0.001 1.849)" fill="#ad6163"/>
        <path id="Path_909480" data-name="Path 909480" d="M1.671,60.243a.26.26,0,0,1-.146-.041.285.285,0,0,1-.1-.386,7.737,7.737,0,0,1,3.877-3.2,14.748,14.748,0,0,1,4.6-.828c1.847-.124,3.753-.187,3.772-.187a.282.282,0,1,1,.016.563c-.019,0-1.918.064-3.753.187a14.266,14.266,0,0,0-4.436.788A7.179,7.179,0,0,0,1.9,60.1a.281.281,0,0,1-.24.136Z" transform="translate(0.049 1.95)" fill="#303030"/>
        <path id="Path_909481" data-name="Path 909481" d="M28.7,59.013a.282.282,0,0,1-.023-.563,11.244,11.244,0,0,0,5.262-1.561.282.282,0,0,1,.383.1.278.278,0,0,1-.1.381l0,0a11.755,11.755,0,0,1-5.494,1.632H28.7Z" transform="translate(0.996 1.993)" fill="#303030"/>
        <path id="Path_909482" data-name="Path 909482" d="M28.931,57.288a.282.282,0,0,1-.277-.233.279.279,0,0,1,.226-.323h0a10.06,10.06,0,0,0,3.089-1.062.282.282,0,0,1,.383.1.279.279,0,0,1-.1.381l0,0a10.8,10.8,0,0,1-3.277,1.126h-.049Z" transform="translate(1.005 1.951)" fill="#303030"/>
        <path id="Path_909483" data-name="Path 909483" d="M29.029,60.75a.282.282,0,1,1,0-.563,12.115,12.115,0,0,0,2.795-.364.282.282,0,0,1,.146.544,12.852,12.852,0,0,1-2.939.383Z" transform="translate(1.008 2.097)" fill="#303030"/>
      </g>
    </g>
  </g>
</svg>
