<svg xmlns="http://www.w3.org/2000/svg" xmlns:xlink="http://www.w3.org/1999/xlink" width="295" height="209" viewBox="0 0 295 209">
  <defs>
    <clipPath id="clip-path">
      <rect id="Rectangle_409855" data-name="Rectangle 409855" width="237.056" height="204.909" fill="none"/>
    </clipPath>
    <clipPath id="clip-path-3">
      <rect id="Rectangle_409851" data-name="Rectangle 409851" width="72.925" height="17.98" transform="translate(103.235 75.095)" fill="none"/>
    </clipPath>
    <clipPath id="clip-path-4">
      <rect id="Rectangle_409852" data-name="Rectangle 409852" width="3.256" height="1.695" transform="translate(51.481 40.902)" fill="none"/>
    </clipPath>
    <clipPath id="clip-path-5">
      <rect id="Rectangle_409853" data-name="Rectangle 409853" width="3.256" height="1.695" transform="translate(59.756 40.547)" fill="none"/>
    </clipPath>
  </defs>
  <g id="Group_1120622" data-name="Group 1120622" transform="translate(-915.289 -1358)">
    <rect id="Rectangle_409117" data-name="Rectangle 409117" width="295" height="209" transform="translate(915.289 1358)" fill="none"/>
    <g id="Group_1121199" data-name="Group 1121199" transform="translate(939.289 1360.045)">
      <g id="Group_1121198" data-name="Group 1121198" clip-path="url(#clip-path)">
        <g id="Group_1121197" data-name="Group 1121197">
          <g id="Group_1121196" data-name="Group 1121196" clip-path="url(#clip-path)">
            <path id="Path_909089" data-name="Path 909089" d="M227.9,17.08C218.149,4.515,194.8.1,145.064,0S63.658,11.964,57.816,26.247s-4.576,114.539,6.3,129.44,61.762,22.475,98.039,20.387S220.232,162,228.206,147.019,243.445,37.131,227.89,17.08Z" fill="#d3cdac"/>
            <path id="Path_909090" data-name="Path 909090" d="M226.113,86.734c-1.557-.683-3.132-1.33-4.707-1.967-.73-.3-1.464-.577-2.2-.864a5.763,5.763,0,0,1-7.458,2.517,7.293,7.293,0,0,1-2.969-2.8,5.307,5.307,0,0,1-.743-3.533,5.4,5.4,0,0,1,1.9-3.159,8.213,8.213,0,0,1,4.738-1.921,4.882,4.882,0,0,1,1.6.18c.226-.48.471-.947.693-1.408q.775-1.635,1.616-3.228c.707-1.33,1.409-2.711,2.213-4.008a18.431,18.431,0,0,0-15.424-.231,16.06,16.06,0,0,0-6.8,6.562,17.67,17.67,0,0,0,2.06,20.087A16.1,16.1,0,0,0,210.8,98.355a19.913,19.913,0,0,0,15.045-4.442,16.847,16.847,0,0,0,4.2-5.4c-1.3-.6-2.609-1.191-3.92-1.769Z" fill="#fff"/>
            <path id="Path_909091" data-name="Path 909091" d="M230.068,75.121h.143c-.3.66.337.642.8.6a.967.967,0,0,0,.208-.6h.434a.8.8,0,0,0-1.589,0Z" fill="#fff"/>
            <path id="Path_909092" data-name="Path 909092" d="M230.483,70.877c-.863.633-.152,1.528.767,1.335.074-.115.152-.249.226-.374-.263-.314-.54-.619-.827-.914a1.708,1.708,0,0,0-.171-.046Z" fill="#fff"/>
            <path id="Path_909093" data-name="Path 909093" d="M229.315,73.948c.157-.12.3-.231.466-.356-.088-.148-.166-.286-.263-.448.088-.143.148-.24.208-.332-1.219-.933-1.833,1.27-.406,1.136Z" fill="#fff"/>
            <path id="Path_909094" data-name="Path 909094" d="M229.639,70.147a1.665,1.665,0,0,0,.009-.2c-.078-.069-.152-.139-.231-.208-.092.1-.185.189-.277.286-.111.115-.226.222-.337.337.249.162.5.185.831-.212Z" fill="#fff"/>
            <path id="Path_909095" data-name="Path 909095" d="M228.054,71.426a1.043,1.043,0,0,0-.134-.189c-.291.291-.582.586-.877.873a1.337,1.337,0,0,0,.462.139c.194-.3.374-.563.55-.827Z" fill="#fff"/>
            <path id="Path_909096" data-name="Path 909096" d="M231.929,72.934c.023.236.042.466.065.72a2.213,2.213,0,0,0,.85.042c-.212-.332-.429-.66-.665-.974-.084.071-.167.145-.25.212" fill="#fff"/>
            <path id="Path_909097" data-name="Path 909097" d="M226.309,73.167c-.06-.078-.106-.134-.148-.18-.272.268-.559.522-.836.785.351.134.762-.139.984-.605" fill="#fff"/>
            <path id="Path_909098" data-name="Path 909098" d="M223.4,75.6c.365.365,1.408.106,1.339-.476h-.286a.615.615,0,0,0,.06-.573c-.369.346-.734.7-1.108,1.048Z" fill="#fff"/>
            <path id="Path_909099" data-name="Path 909099" d="M228.05,75.121h-.143c.032-.235-.379-.3-.212-.614-.263-.522-1.034.129-.942.614h-.143a1.561,1.561,0,0,0,.429.776c.36-.2.683-.374,1.011-.559Z" fill="#fff"/>
            <path id="Path_909100" data-name="Path 909100" d="M233.864,75.573c-.092-.2-.194-.4-.3-.6a.694.694,0,0,0-.042.148.667.667,0,0,0,.332.453Z" fill="#fff"/>
            <path id="Path_909101" data-name="Path 909101" d="M235.129,80.089a.827.827,0,0,0,.046.4c-.014-.132-.032-.266-.046-.4" fill="#fff"/>
            <path id="Path_909102" data-name="Path 909102" d="M234.473,86.42c.065-.189.129-.379.185-.573.074-.254.129-.508.185-.762a.78.78,0,0,0-1.1-.013c-.018.018-.035.036-.051.055-.162.656.189,1.39.78,1.293Z" fill="#fff"/>
            <path id="Path_909103" data-name="Path 909103" d="M224.708,81.89a.849.849,0,0,0-1.119-.43c-.028.013-.054.027-.082.042a6.466,6.466,0,0,1-.194,1.113.887.887,0,0,0,1.235-.219.875.875,0,0,0,.16-.5Z" fill="#fff"/>
            <path id="Path_909104" data-name="Path 909104" d="M233.374,87.255c-.231-.988-1.418-.827-1.575.125.069.134.138.259.2.383.143.065.291.129.434.2.52.036.691-.121.941-.708" fill="#fff"/>
            <path id="Path_909105" data-name="Path 909105" d="M234.021,82.5c.032.129-.12.277.074.4a1.268,1.268,0,0,0,.984-.748c-.291-.628-.2-.6-.924-.873-.679.293-.854.872-.134,1.221" fill="#fff"/>
            <path id="Path_909106" data-name="Path 909106" d="M230.641,86.245c.545-.2,1.025-.406.868-1.09-.545-.365-.919-.734-1.33,0,.06.351-.092,1.187.457,1.094Z" fill="#fff"/>
            <path id="Path_909107" data-name="Path 909107" d="M234.691,79.272a1.137,1.137,0,0,0,.254-.4c-.061-.291-.125-.582-.2-.868a.7.7,0,0,0-.821.115c-.129.249-.237.457-.342.665.3.623.3.628,1.112.485Z" fill="#fff"/>
            <path id="Path_909108" data-name="Path 909108" d="M227.791,84.864a.991.991,0,0,0-.988.235,1.267,1.267,0,0,0-.028.393c.374.152.743.309,1.113.466.277-.254.291-.665-.1-1.094" fill="#fff"/>
            <path id="Path_909109" data-name="Path 909109" d="M230.538,81.318c-.462.716-.448,1.547.637,1.482.467-.762.467-1.635-.637-1.482" fill="#fff"/>
            <path id="Path_909110" data-name="Path 909110" d="M222.8,83.9a.061.061,0,0,1,.018.009v-.055c-.009.014-.014.032-.023.046Z" fill="#fff"/>
            <path id="Path_909111" data-name="Path 909111" d="M229.777,80.518c-.065-.739-1.025-1.284-1.4-.457a.742.742,0,0,0,1.4.457" fill="#fff"/>
            <path id="Path_909112" data-name="Path 909112" d="M229.237,77.6c.628-.6.434-1.722-.563-1.353-.679.416-.17,1.365.563,1.353" fill="#fff"/>
            <path id="Path_909113" data-name="Path 909113" d="M224.037,79.032c.125.088.208.148.3.208.8-1.912-2.2-1.528-.73.065.166-.032.272-.175.434-.272Z" fill="#fff"/>
            <path id="Path_909114" data-name="Path 909114" d="M224.919,76.607c.088.947,1.307,1.238,1.39.129a.743.743,0,0,0-1.39-.129" fill="#fff"/>
            <path id="Path_909115" data-name="Path 909115" d="M226.446,84.014c-.259-.656-.513-.794-1.339-.711-.6.882.939,1.56,1.339.711" fill="#fff"/>
            <path id="Path_909116" data-name="Path 909116" d="M225.136,80.842a1.139,1.139,0,0,0,1.021-.129c.037-.282.065-.536.1-.79-1.019-.873-1.144-.074-1.121.919" fill="#fff"/>
            <path id="Path_909117" data-name="Path 909117" d="M222.375,77.023c.06.088.111.185.166.277.231-.185.194-.379.009-.905h-.023c-.125.115-.249.226-.374.342.074.092.152.194.222.291Z" fill="#fff"/>
            <path id="Path_909118" data-name="Path 909118" d="M230.6,78.113c-.079.4-.513.656-.494,1.154.2.069.4.143.582.208.988-.5,1.108-1.1-.088-1.362" fill="#fff"/>
            <path id="Path_909119" data-name="Path 909119" d="M229.541,86.656h-.009a.017.017,0,0,1,.014,0v-.009Z" fill="#fff"/>
            <path id="Path_909120" data-name="Path 909120" d="M233.07,76.386c-.162-.074-.323-.148-.466-.208-.226.157-.416.286-.614.42-.074.291.1.526.175.836.439.046.813.1,1.108-.3a.64.64,0,0,1-.2-.748" fill="#fff"/>
            <path id="Path_909121" data-name="Path 909121" d="M227.883,78.265c-.619-.466-.665-.471-1.233-.074-.06.448-.046.623.411.725.753.485.9.1.817-.651Z" fill="#fff"/>
            <path id="Path_909122" data-name="Path 909122" d="M232.995,80.828c.014-.351.028-.67.046-1.011-.656-.693-1.408.2-.887.9.3.064.555.35.841.106" fill="#fff"/>
            <path id="Path_909123" data-name="Path 909123" d="M231.781,83.871c.351.466,1.1.67,1.408.055a1.568,1.568,0,0,0-.623-.9c-.162.4-.6.489-.785.845" fill="#fff"/>
            <path id="Path_909124" data-name="Path 909124" d="M229.9,83.737c-.231-.236-.4-.526-.762-.614-.222.231-.434.443-.628.646.332.785,1.1.743,1.4-.032Z" fill="#fff"/>
            <path id="Path_909125" data-name="Path 909125" d="M226.973,81.571c-.425,1.178,1.344,1.182.831-.018a1.941,1.941,0,0,1-.831.018" fill="#fff"/>
            <path id="Path_909126" data-name="Path 909126" d="M229.136,67.829c-.092.1-.185.189-.277.286q-2.881,2.951-5.911,5.731c-.356.328-.716.651-1.076.974a4.6,4.6,0,0,0-1.815-1.376,4.9,4.9,0,0,0-.471-.171c.226-.48.471-.947.693-1.408q.775-1.635,1.616-3.228c.707-1.33,1.408-2.711,2.212-4.008.143.065.277.129.416.194a20.534,20.534,0,0,1,4.618,3.006Z" fill="#d8f0d6"/>
            <path id="Path_909127" data-name="Path 909127" d="M228.867,67.566q-3.512,3.623-7.264,6.991h.531a5.241,5.241,0,0,0-2.452-1.644c.074.185.148.369.226.55a91.923,91.923,0,0,1,4.521-8.644c-.171.046-.342.088-.513.134a20.933,20.933,0,0,1,4.955,3.14c.365.314.9-.217.531-.531a21.634,21.634,0,0,0-5.107-3.26.385.385,0,0,0-.513.134,93.128,93.128,0,0,0-4.521,8.644.382.382,0,0,0,.152.518.4.4,0,0,0,.074.031,4.541,4.541,0,0,1,2.124,1.45.382.382,0,0,0,.531,0q3.747-3.374,7.264-6.991c.337-.346-.194-.877-.531-.531Z" fill="#fff"/>
            <path id="Path_909128" data-name="Path 909128" d="M198.7,31.783s5.62-8.349-2.115-11.918c0,0,5.015,1.427,7.338-1.976a17.333,17.333,0,0,0,2.7-7.231s1.893,6.215,6.022,6.677c5.675.637,7.915-1.547,7.915-1.547s-1.764,4.493-.573,7.887a6.19,6.19,0,0,0,4.775,3.865s-6.52-.4-8.875,3.348a15.1,15.1,0,0,0-2.175,7.869,10.339,10.339,0,0,0-7.846-7.208c-6.322-1.2-7.167.236-7.167.236Z" fill="#fff"/>
            <path id="Path_909129" data-name="Path 909129" d="M74.944,98.376a19.56,19.56,0,0,0-2.706.083l-.462-.586s1.381-2.332,1.044-2.775-2.766-1.866-3.168-1.69A10.517,10.517,0,0,0,68.031,95.3l-.85-.111s-.332-2.36-1.288-2.313a10.688,10.688,0,0,0-3.214.91c-.374.245.189,2.549.189,2.549l-.619.5-.268-.129s-1.842-1.15-2.369-.757a8.729,8.729,0,0,0-1.681,3.292,12.446,12.446,0,0,0,2.023,1.713l-.143.66s-2.17.66-2.272,1.284.3,3.191.956,3.26a19.7,19.7,0,0,0,2.7-.231l.494.559s-1.251,2.4-.887,2.831,2.863,1.713,3.26,1.515a10.537,10.537,0,0,0,1.515-1.976l.854.065s.462,2.337,1.413,2.24A10.538,10.538,0,0,0,71,110.073c.36-.263-.328-2.535-.328-2.535l.623-.559s1.842,1.117,2.535.66,1.81-2.632,1.644-2.96a16.4,16.4,0,0,0-1.842-1.713l.009-.175c.582-.162,1.981-.6,2.083-1.09.134-.619-.12-3.2-.771-3.306Zm-8.312,6.539a2.974,2.974,0,1,1,2.974-2.974,2.973,2.973,0,0,1-2.974,2.974h0Z" fill="#fff"/>
            <path id="Path_909130" data-name="Path 909130" d="M172.235,14.084a20.153,20.153,0,0,0-2.812.083l-.48-.61s1.436-2.42,1.085-2.881-2.872-1.939-3.292-1.755a10.905,10.905,0,0,0-1.681,1.963l-.882-.115s-.342-2.447-1.339-2.4a10.956,10.956,0,0,0-3.339.947c-.393.254.194,2.646.194,2.646l-.642.517-.277-.134s-1.912-1.2-2.461-.785a9,9,0,0,0-1.741,3.417,12.836,12.836,0,0,0,2.1,1.778l-.152.683s-2.253.683-2.36,1.335.309,3.316.993,3.385a20.05,20.05,0,0,0,2.8-.24l.513.582s-1.3,2.494-.924,2.937,2.974,1.778,3.385,1.57a10.975,10.975,0,0,0,1.57-2.05l.887.069s.48,2.424,1.468,2.323a10.955,10.955,0,0,0,3.279-1.127c.374-.272-.342-2.632-.342-2.632l.651-.582s1.912,1.164,2.632.683,1.879-2.734,1.709-3.075a16.839,16.839,0,0,0-1.912-1.778l.009-.18c.6-.171,2.055-.623,2.166-1.131.139-.642-.125-3.325-.8-3.431Zm-8.625,6.788a3.089,3.089,0,1,1,3.089-3.089,3.089,3.089,0,0,1-3.089,3.089" fill="#fff"/>
            <path id="Path_909131" data-name="Path 909131" d="M225.229,115.194a12.939,12.939,0,0,0-1.815.055l-.309-.393s.928-1.565.7-1.866a5.055,5.055,0,0,0-2.129-1.136,7.037,7.037,0,0,0-1.09,1.265l-.573-.074s-.222-1.584-.864-1.552a7.169,7.169,0,0,0-2.156.61c-.254.162.125,1.709.125,1.709l-.416.332-.18-.088s-1.238-.771-1.589-.508a5.867,5.867,0,0,0-1.127,2.207,8.244,8.244,0,0,0,1.358,1.15l-.1.443s-1.459.443-1.524.864.2,2.143.642,2.189a12.911,12.911,0,0,0,1.81-.152l.332.374s-.84,1.612-.6,1.9a5.033,5.033,0,0,0,2.189,1.016,7.216,7.216,0,0,0,1.016-1.325l.573.046s.309,1.57.951,1.5a7.054,7.054,0,0,0,2.12-.73c.245-.175-.222-1.7-.222-1.7l.42-.374s1.238.753,1.7.443a3.81,3.81,0,0,0,1.1-1.986,10.865,10.865,0,0,0-1.238-1.15v-.12c.4-.111,1.335-.4,1.4-.73.088-.416-.078-2.152-.517-2.217Zm-5.574,4.387a1.992,1.992,0,1,1,.006,0Z" fill="#fff"/>
            <path id="Path_909132" data-name="Path 909132" d="M108.788,53.459a12.939,12.939,0,0,0-1.815.055l-.309-.393s.928-1.565.7-1.866a5.055,5.055,0,0,0-2.129-1.136,7.037,7.037,0,0,0-1.09,1.265l-.573-.074s-.222-1.584-.864-1.552a7.169,7.169,0,0,0-2.156.61c-.254.162.125,1.709.125,1.709l-.416.332-.18-.088s-1.238-.771-1.589-.508a5.8,5.8,0,0,0-1.127,2.207,8.243,8.243,0,0,0,1.358,1.15l-.1.443s-1.459.443-1.524.864.2,2.143.642,2.189a12.911,12.911,0,0,0,1.81-.152l.332.374s-.84,1.612-.6,1.9a5.032,5.032,0,0,0,2.189,1.016,7.183,7.183,0,0,0,1.016-1.325l.573.046s.309,1.57.951,1.5a7.054,7.054,0,0,0,2.12-.73c.245-.175-.222-1.7-.222-1.7l.42-.374s1.238.753,1.7.443a3.81,3.81,0,0,0,1.1-1.986,11.225,11.225,0,0,0-1.238-1.15v-.12c.4-.111,1.335-.4,1.4-.73.088-.416-.078-2.152-.517-2.217Zm-5.578,4.387a1.992,1.992,0,1,1,.006,0h-.006Z" fill="#fff"/>
            <path id="Path_909133" data-name="Path 909133" d="M148.034,157.151a22.393,22.393,0,0,0-3.14.092l-.536-.679s1.6-2.7,1.21-3.219-3.2-2.166-3.676-1.963a12.228,12.228,0,0,0-1.879,2.189l-.988-.129s-.383-2.734-1.5-2.683a12.326,12.326,0,0,0-3.727,1.057c-.434.282.217,2.955.217,2.955l-.72.577-.309-.148s-2.138-1.335-2.748-.877a10.152,10.152,0,0,0-1.949,3.819,14.358,14.358,0,0,0,2.346,1.986l-.166.762s-2.521.762-2.632,1.487.342,3.7,1.108,3.777a22.335,22.335,0,0,0,3.131-.268l.573.651s-1.45,2.785-1.03,3.283,3.32,1.986,3.777,1.755a12.309,12.309,0,0,0,1.755-2.29l.993.079s.536,2.711,1.639,2.6a12.348,12.348,0,0,0,3.666-1.261c.42-.3-.383-2.937-.383-2.937l.725-.651s2.138,1.3,2.937.762,2.1-3.052,1.907-3.436a18.517,18.517,0,0,0-2.138-1.986l.009-.2c.679-.189,2.3-.7,2.415-1.261.152-.716-.139-3.717-.9-3.833Zm-9.637,7.582a3.449,3.449,0,1,1,3.449-3.452,3.449,3.449,0,0,1-3.449,3.452h0Z" fill="#fff"/>
            <path id="Path_909134" data-name="Path 909134" d="M110.833,21.509l10.782-.065c.665.009.97.393.956,1.1,0,8.035-7.167,13.442-15.46,11.868a13.148,13.148,0,0,1,2.512-26.053c2.138,0,6.566.693,6.119,2.346l-5.528,9.747a.7.7,0,0,0,.614,1.053Z" fill="#fff"/>
            <path id="Path_909135" data-name="Path 909135" d="M116,19.832a11.408,11.408,0,0,1-1.819-.1.344.344,0,0,1-.263-.212c-.194-.448.3-1.9,5.177-9.42.231-.356.383-.6.429-.67l.111-.185.194.088c.051.023,5.176,2.447,5.347,9.725v.222l-.217.018c-.286.028-5.763.531-8.963.531Zm-1.644-.554c1.949.3,9-.309,10.339-.429-.236-6.035-4-8.492-4.881-8.982-.079.12-.185.291-.319.494-4.363,6.724-5.125,8.493-5.139,8.917" fill="#fff"/>
            <path id="Path_909136" data-name="Path 909136" d="M11.385,16.849a12.309,12.309,0,0,0-8.377,3.92A11.113,11.113,0,0,0,.616,32.022a12.465,12.465,0,0,0,7.712,7.91A11.645,11.645,0,0,0,19.6,37.669s4.387,1.963,4.867,1.016c.36-.4-1.7-3.251-2.7-4.174l-.023.028a11.464,11.464,0,0,0-.028-12.232c-2.092-3.366-5.333-5.458-10.335-5.467Z" fill="#f0e7b4"/>
            <path id="Path_909137" data-name="Path 909137" d="M14.687,26.615s-.2,3.874.263,5.121c.314.831,3.583.54,3.616.226a52.956,52.956,0,0,0-.259-5.518c-.06-1.016-3.62-.928-3.62.171" fill="#43922c"/>
            <path id="Path_909138" data-name="Path 909138" d="M9.584,23.515s.157,7.181.623,8.427c.314.831,3.583.54,3.616.226.125-1.261-.208-7.786-.259-8.7-.06-1.016-3.98-1.057-3.976.042Z" fill="#43922c"/>
            <path id="Path_909139" data-name="Path 909139" d="M5.285,29.787a4.642,4.642,0,0,0,.24,2.355c.314.831,3.583.54,3.616.226a14.324,14.324,0,0,0,.125-2.618c-.06-1.016-3.98-1.057-3.976.042Z" fill="#43922c"/>
            <path id="Path_909140" data-name="Path 909140" d="M189.53,29.119c.171,2.29,1.547,121.022-2.277,125.723s-94.327,5.786-95.075-.974a12.937,12.937,0,0,1-.877-3.279c-.785-17.746-1.695-96.5.471-120.325.356-3.888,1.113-9.882,8.076-10.376,3.057-.217,66.9-2.073,84.98,2.286,4.036.974,4.613,5.726,4.7,6.94Z" fill="#14301d"/>
            <path id="Path_909141" data-name="Path 909141" d="M183.8,148.151c-3.482,4.285-87.52,5.227-88.2-.933-.5-4.535-2.175-65.041-1.381-97.942.1-4.124.245-7.813.429-10.9.088-1.4.175-2.683.282-3.819.323-3.546,1.021-9.009,7.361-9.457,2.794-.194,62.52-1.847,79,2.129,3.676.887,4.207,5.223,4.281,6.331.018.254.055,2.064.106,5.061.046,2.918.106,6.959.157,11.78.351,31.073.623,94.5-2.036,97.758Z" fill="#fff"/>
            <path id="Path_909142" data-name="Path 909142" d="M98.218,70.217s-1.242,24.285.993,25.407,80.1,1.681,81.028,0,2.7-24.645.536-25.767-81.6-1.445-82.557.36" fill="#f0e7b4"/>
            <g id="Group_1121189" data-name="Group 1121189" opacity="0.2" style="isolation: isolate">
              <g id="Group_1121188" data-name="Group 1121188">
                <g id="Group_1121187" data-name="Group 1121187" clip-path="url(#clip-path-3)">
                  <path id="Path_909143" data-name="Path 909143" d="M146.857,91.3c-.716-.009-.328-.808-.014-1.113.6-.642,1.746,1.132.014,1.113M115.636,86.1c-.286-.046-.586-.1-.887-.143q-.214.159-.416.3c-.049,1.284,1.77,1.067,1.3-.157Zm37.939,6.543c.217.051.383.088.563.125,2-.9-1.121-2.184-.562-.125Zm16.758-8.968c.231,1.108,1.265.808,1.27-.129-.138-.734-1.2-.563-1.269.13Zm-44.8-5.467.4.476a1.057,1.057,0,0,0,.494,0c-.291-.272-.573-.536-.85-.79-.014.106-.032.212-.046.314Zm-.868,14.717h.286c-.06-.028-.12-.06-.18-.088a.728.728,0,0,0-.111.088Zm51.5-12.565a.945.945,0,0,0-.249.2c-.259.254.106.54.249.767ZM117.547,92.779c.332.083.554-.12.85-.282.1-1.809-2.114-.72-.853.282Zm3.934-15.71c.323.3.965.674,1.1,0,.249-.453-.1-.864-.563-1.03-.236.314-.711.637-.54,1.034Zm31.493,15.867c-.12.023-.231.046-.337.074h.443C153.043,92.987,153.015,92.959,152.974,92.936Zm-14.361.032h.586a.563.563,0,0,0-.069-.069c-.217-.166-.356-.055-.513.069Zm29.914-3.108c.1-.24.189-.453.291-.7-1.227-1.7-1.9,1.153-.29.7Zm-15.285-4.221c1.025-1.644-2.41-.965-.665.166.228-.054.445-.109.662-.165Zm-2.951-2.9a1.127,1.127,0,0,1,.314-.586,2.385,2.385,0,0,0-.5-.513c-1.424.094-.533,2.158.183,1.105Zm16.425,10.094a.892.892,0,0,1-.7.189v.018H167.1a.8.8,0,0,0-.387-.2Zm-44-14.957c-.069.263.817,1.348,1.108,1.127.106-.434-.143-.836.143-1.228-.346-.337-.559-.319-1.256.1Zm-2.124,10.713c-.882.485-.6,1.713.42,1.187a.687.687,0,0,0-.425-1.18Zm54.231-9.6c-.554.323-.434,1.136.259,1.113.346.014.536-.1.614-.263-.217-.231-.494-.531-.817-.868l-.055.014ZM153.447,90.8c-.319-.545-1-1.265-1.284-.286.171.953.78,1.193,1.279.3ZM173.5,77.571c-.194.088-.374.319-.48.79.06.115.129.254.208.411.633-.014.919-.222,1-.466-.236-.24-.48-.485-.73-.73Zm-23,10.224c-.434-.7-.947-.753-1.242.111.035.916,1.485.662,1.241-.1Zm-34.231-6.022c-1.376.771.813,2.05.827.425a1.374,1.374,0,0,0-.829-.414Zm34.453,7.448a.662.662,0,0,0,.57.743.607.607,0,0,0,.113.005,2.308,2.308,0,0,0,.656-.808c-.425-.748-.914-.577-1.335.055Zm-7.7-3.4a1.132,1.132,0,0,0-.642.665,5.056,5.056,0,0,0,.272.559c.956.24,1.376-1.044.369-1.228ZM123.1,88.767c-.346.125-.12.517-.388.785.342.383.877.614,1.224.139.153-.723-.311-1.068-.835-.911Zm1.939-5.985c1.265-.6-.73-1.695-.914-.4.153.451.49.677.915.414ZM123.8,91.556c-.369-.148-.767.028-1.15-.06.01,1.316,1.8,1.722,1.151.072Zm42.008-10.367c.014-.3.148-.55.032-.808l-.379-.12c-.309.2-.688.222-.753.623,0,.72.67.924,1.1.3Zm-5.306,4.2c.259.531,1.09.6,1.09-.171-.143-1.074-1.242-.885-1.089.187Zm13.761,6.871c-.1-.337-.046-.767-.55-.817-1.55.473.038,2.112.551.833ZM121.02,83.32c-.485-.346-.891-.369-1.108.249.216,1.079,1.746.825,1.109-.233Zm44.57,1.007c1.2-1.076-.771-1.81-.947-.462.228.376.658.21.948.478Zm.642-7.088c.5.231,1.676-.314.979-.84a1.267,1.267,0,0,0-.115-.06c-.272.212-.559.434-.859.674v.226Zm-36.388,13.6c.028.231.046.282.226.319a.75.75,0,0,0,.987-.391.7.7,0,0,0,.038-.109c-.381-.728-1.476-.857-1.25.2Zm3.551.545c.411-.111.1-.66.356-.956-1.052-1.117-1.777,1.054-.354.971Zm13.807-2.8.5-.411c.037-.175.074-.342.115-.531-.932-.907-1.934.714-.613.958Zm-21.44,4.045c.767.259.859-.175,1.113-.79-.636-.607-1.966.137-1.112.806Zm20.161.143a1.051,1.051,0,0,0,.5-1.062,1.789,1.789,0,0,0-1.011-.125.888.888,0,0,1-.217.5,1.419,1.419,0,0,0,.734.683Zm-.716-6.211c-.129.4.522.582.827.623.254-.4.457-.771.111-1.224a.774.774,0,0,0-.935.569c0,.01-.005.021-.007.031Zm-9.817,4.4c.545.776.9.3,1.238-.286a.636.636,0,1,0-1.237.3Zm27.259-5.181c-.55.476-1.085.919-.249,1.367.351.2.531-.259.725-.48.291-.38-.24-.579-.475-.874Zm-34.221-4.748c-.074.379.513.457.9.434-.254-.245-.508-.494-.762-.739-.05.106-.1.212-.138.305m30.357,3.63c-1.487-.231-1.589,1.307.023.859.231-.287.314-.553-.023-.86ZM148.866,87.1c.831-.443-.06-1.556-.785-1.057a.49.49,0,0,1-.088.619C147.952,87.123,148.547,87.127,148.866,87.1Zm-5.92-4.068c-.988.134-.517,1.616.383,1.224.092-.175.2-.374.314-.6a4.016,4.016,0,0,0-.7-.628Zm-4.71,7.878c.286.61,1.136.6,1.113-.166.088-.989-1.5-.629-1.113.165Zm5.823-3.523c-.1.231-.346.4-.374.72a.735.735,0,0,0,1.371-.346c-.3-.232-.54-.532-1-.375Zm23.934-3.006c.767.065,1.164-1.081.254-1.113a.571.571,0,1,0-.309,1.1.364.364,0,0,0,.055.013Zm8.164-.231v-.817a.488.488,0,0,0-.137.676.521.521,0,0,0,.137.14Zm-4.267,8.917h.642a.8.8,0,0,0-.485-.231c-.051.077-.1.151-.157.232Zm-52.134-4.913v-.61a.7.7,0,0,0-1.228.448c.125.1.259.2.383.291-.009.106-.014.194-.028.323.411,0,.563-.365.868-.457Zm48.32-.919c1.561-.845-.369-2.281-.586-.434Zm-48.191-7.8c-.189-.933-1.515-.383-1.205.309.406.674,1.108.324,1.205-.31Zm19.981,12.2c-.494.18-.175.674-.171,1.1.656.152.84,0,1.025-.817-.2-.339-.492-.5-.854-.284Zm24.162-12.778-.263.18c-.092.079-.189.157-.282.236-.471,1.658,2.267.573.545-.411Zm-7.518,10.15c-.046.152-.092.314-.139.466,1.149,1.783,1.966-1.579.142-.466Zm-46.852-2.983c-.707-.323-1.45,1.108-.245,1.081.673-.052.738-.717.248-1.081Zm22.539,3.69c.3-.619,0-.683-.425-1.053a.945.945,0,0,0-.707.762c.425.522.508.545,1.127.291Zm-17.875-.633c-.106.716.9,1.325,1.2.462.318-.716-.794-.929-1.194-.462Zm55.062-6.234c.91.212.85-.84.18-1.205-.7.281-1.1.932-.177,1.205Zm-8.132,4.41a1.042,1.042,0,0,0-.707.665c.088.129.185.268.286.416l.591.148c.61-.36.4-.993-.175-1.233Zm-25.411,0c-1.247.974.877,1.939.817.286-.283-.106-.53-.194-.814-.291Zm6.386.619c-.222-.614-1.173-.91-1.224-.065-.056.766,1.292.78,1.225.057Zm29.216-.813c.157-.582-.1-1.316-.817-1.062-.1.222-.189.448-.277.66.06.157.111.3.166.429a2.612,2.612,0,0,0,.933-.023Zm-67.359,5.666c.914-.42.088-.919-.351-1.293-.208.175-.674.416-.429.762.217.24.383.808.78.531m20.531-1.538c.743.319.854-.54.568-1.03-.75-.328-1.5.813-.565,1.025Zm18.259-2.554a.643.643,0,0,0-.009,1.251.628.628,0,1,0,.012-1.255Zm-20.812-5.624c.466-.185.734-1.025.157-1.265a3.765,3.765,0,0,1-.637.162c-.3.656-.217.854.476,1.1Zm50.657-.208c.055-.236.111-.453.171-.688-1.462-1.293-1.5,1.528-.169.683Zm-25.351,1.662c-.148.346-.379.3-.582.226a1.029,1.029,0,0,0-.254.808c.773.629,1.789-.373.838-1.038Zm-28.4,8.432-.014.014h.388a.6.6,0,0,0-.376-.018Zm50.574-12.685a.842.842,0,0,0,.646-.725,1.334,1.334,0,0,0-.716-.476.775.775,0,0,0-.6.568c.143.291.277.568.665.637Zm-21.431,8.631c-.088.351.143.66.115,1a1.087,1.087,0,0,0,.665.014,1.066,1.066,0,0,1,.314-.688.637.637,0,0,0-1.1-.331ZM121.1,86.781c.439-.96-1.094-1.108-1.067-.111.187.614.76.7,1.064.106Zm27.129-2.489c2.018.282.06-2.23-.356-.526.118.175.224.332.353.521Zm14.347,0c1.441-.693-.466-1.926-.79-.416.3.153.553.282.788.407Zm-2.951,2.868c.674-.328.965-.919.212-1.339-.731.189-.98,1.057-.211,1.329Zm10.136.194a2.48,2.48,0,1,0,0-.01Zm-54.845,5.333c.226-.088.434-.166.651-.254v-.619c-.8-.822-1.729.4-.653.864Zm59.768-1.348c.323.222.429-.12.646-.157s.254-.263.351-.443c-.5-1.183-1.544-.389-1,.59Zm-14,1.7h.9c-.34-.338-.608-.213-.908-.006Zm3.4-1.759c1.275-.319-.665-2.11-.623-.7-.074.388.171.823.618.694Zm-34.522.517c-.319-.189-.716-.466-.9,0-.065.249-.434.212-.36.513.364.626,1.529.458,1.26-.519Zm28.03-5.084c-.18-1.145-1.316-.9-1.09.212.489.428.655.364,1.085-.218ZM121,75.878a1.119,1.119,0,0,0,.157-.6c-.212.139-.471.319-.762.531a.7.7,0,0,0,.6.069m42.229,6.456c.254.646.771.707,1.173.162.37-.892-1.024-1.012-1.176-.162Zm-39.98-6.483c-.143-.115-.282-.226-.406-.323a.576.576,0,0,0,.406.323M104.628,90.729a1.666,1.666,0,0,1,.383.582c.259.245.683-.078.67-.393.259-.97-.9-1.168-1.053-.189m65.244-5.066c.1-.189.208-.388.291-.55-.171-.471-.586-.439-.919-.554-.425,0-.115.614-.3.827.245.4.568.337.933.282Zm-11.831,7.361h.633a.525.525,0,0,0-.628,0Zm1.949-8.718c.143-.24.365-.388.383-.683-.485-.462-.67-.933-1.2-.166a.777.777,0,0,0,.707.843.808.808,0,0,0,.11,0Zm-34.836-4.327c.111-.162.2-.3.3-.439a1.151,1.151,0,0,0-.559-.7c-.577.1-.563.559-.7.919.291.323.637.24.956.222Zm29.692,6.714c-.111-.222-.2-.411-.3-.619-1.007-.411-1.321.836-.337,1.108.194-.143.388-.3.642-.485Zm-32.181,4.091a.656.656,0,0,0-1.094-.462c-.536.946.623,1.308,1.1.462Zm-10.5-2.161c-.891.222-.5,1.122.12,1.408l.5-.54c-.094-.41-.223-.743-.616-.868Zm25.4.125c-1.625.055-.4,1.958.485.748Zm-9.222.485c.051.319.268.462.462.646,1.6-.06.339-2.011-.455-.646Zm35.755-1.081c.951-.656-.8-1.261-.868-.282-.049.6,1.36,1.077.875.282Zm-10.685-.272c-.1-.18-.162-.411-.411-.5-.18.042-.365.078-.536.12-.134.175-.254.337-.374.494.115.175.208.319.309.476a.766.766,0,0,0,.979-.464.685.685,0,0,0,.032-.118ZM170.6,89.847c1.117.152,1.053-.614.328-1.187-.571.074-.815.938-.321,1.187Zm.185-12.385c-.282.143-.374.4-.522.628.3.254.42.882.91.711.482-.494.246-1.094-.382-1.339ZM127.715,80a.393.393,0,0,0,.065-.018c-.245-.236-.494-.471-.734-.7-.156.483.075.852.675.718Zm22.909,10.7c-.489-1.067-1.607-.448-1.081.61.445-.139.9-.1,1.085-.606Zm-3.98,2.29h.351c-.06-.009-.125-.023-.189-.037a.215.215,0,0,0-.157.042Zm-27.616-10c.448.166.573-.314.859-.545-.157-.489-.425-.619-1.1-.522-.055.12-.115.259-.171.379.138.236.267.448.412.688m55.787,10.09h.536c-.092-.046-.2-.092-.342-.152a2.229,2.229,0,0,0-.2.152Zm-57.565-6.4a.823.823,0,0,0,.577.406c.217-.092.416-.175.683-.291-.082-1.011-1.04-1.154-1.262-.111Zm42.6,4.733c-.185.328-.688.323-.683.831.152.249.3.545.739.5.6-.268.411-.97-.055-1.339Zm-8.7-4.35a.786.786,0,0,0,.85-.48c-.143-.24-.291-.485-.457-.767a1.865,1.865,0,0,0-.8.536,3.163,3.163,0,0,0,.4.716Zm-23.828,5.869h.406a1.793,1.793,0,0,0-.175-.125.9.9,0,0,0-.238.13Zm-10.074-9.489c-.028.185-.051.351-.074.513a1.057,1.057,0,0,0,1.044.194c.5-.877-.277-1.266-.97-.707m-1.676.259c-.092-.166-.189-.346-.277-.513-.651-.074-.831.2-.97.707.374.586,1.145.53,1.247-.195Zm-3.773-.379a.581.581,0,1,0,.819.824.571.571,0,0,0,.132-.2c.061-.646-.373-.979-.951-.623m21.043,4.045a.417.417,0,0,0-.032.757c.212.069.139.245.226.346.6.042.6.037.813-.711a1.388,1.388,0,0,0-1.007-.388Zm-10.021-6.409c.092.18.166.332.268.531,1.876.346.4-2.231-.267-.532Zm53.335,5.223a.608.608,0,0,0-.24.406c.088.125.166.24.24.351v-.757Zm-9.845-1.468c-.194.36-.042.619.129.988.536.12.984-.24.836-.8-.106-.282-.827-.5-.97-.185Zm-27.272,1c.143-.24.263-.434.4-.665a1.38,1.38,0,0,0-.4-.443c-.259.125-.508.249-.753.369-.05.324.142.712.753.735Zm36.623,2.512a2.944,2.944,0,0,1-.12-.85c-.743-.2-.974.323-1.011.96.448.089.8.306,1.132-.114Zm-62.33.245c1.094.332.96-1.385,0-1.085-.337.471-.591.587,0,1.081Zm4.826-9.868c.448-.337.194-.743-.152-.919-.245.2-.5.406-.762.623.013.352.66.476.914.292Zm-5.13,3.708c-.111.55.674.688,1.011.406-.065-.189.069-.319.125-.476,0-.651-1.15-.591-1.136.074Zm32.587.85c-.494-.023-.489.388-.369.7.6,1.235,1.838-.525.369-.705Zm-1.45,9.831h.517a1.062,1.062,0,0,0-.208-.157c-.1.051-.208.106-.314.157ZM120.393,77.615c-.864.674.115,1.418.767.767.078-.67-.032-.966-.767-.772Zm7.342,6.968c-.628.134-.651.332-.642.933a1.246,1.246,0,0,0,.919.139c.287-.541.379-.787-.277-1.077ZM163.255,93l.014.051h.85A2.483,2.483,0,0,0,163.26,93Zm9.037-1.579a1.171,1.171,0,0,0,.707-.582l-.42-.674c-.522-.106-.568.4-.937.619a6.07,6.07,0,0,1,.646.637ZM111.97,92.683c1.5-.212.637-1.773-.351-.845.166.239.065.6.351.84Zm50.754.111c.134-.194.268-.393.406-.591-.559-1.635-1.925.165-.4.586Zm7.476-1.958c-.088-.217-.175-.443-.263-.656-.379-.078-.688-.088-.854.282.037.217.074.42.115.66.536.272.6.254,1-.291Zm-2.641-12.523c.337.337.573.5.739.5.12-.088.254-.189.379-.282-.157-.272-.083-.5-.231-.776-.434-.536-.887.037-.882.559ZM133.97,92.051c.088.175.162.328.236.48.84.337.887-.148.827-.822a.793.793,0,0,0-.6-.263l-.462.6Zm41.8-9.725c-.185-.757-1.067-.517-1.238.12.184.715,1.408.511,1.242-.126Zm-65.242,8.809a.616.616,0,1,0-.247-.708.616.616,0,0,0,.247.708m-6.137-1.524h0l-.009.009h.009Zm19.4-3.643c-.637-.2-.845.291-.97.822.208.309,1.113.526.988-.074.177-.272.107-.457-.013-.748Zm41.68-7.287a.819.819,0,0,1,.522-.517c-.042-.406-.208-.577-.429-.6-.249.2-.5.406-.767.619.1.323.272.637.67.5Zm8.6,1.695a1.44,1.44,0,0,1-.794.162c-.055.18-.106.36-.148.5.406,1.03,1.875-.069.947-.665Zm-2.724.148c-.591-.462-.831.1-.984.633.465.978,1.241.17.987-.633Zm1.117,4.022c-.259.217-.66.171-.859.471.751,1.362,1.994.171.862-.471Zm-35.293,2.507c.152-.032.319-.065.476-.1a1.174,1.174,0,0,0,.245-.864c-.171-.083-.36-.171-.559-.263a.7.7,0,0,0-.162,1.224Zm21.38,3.085c-.337.115-.845.079-.859.55.1.152.194.3.291.443.189.042.374.079.549.115.429-.379.517-.73.018-1.108Zm-9.42,2.212c.051-.513-.563-1.076-1.016-.67-.57.661.488,1.256,1.019.67ZM110.1,92.027a1.658,1.658,0,0,0-.864-.471c-.985.854.659,1.727.867.471Zm3.616-7.532a.677.677,0,0,0-.67.411c.1.212.194.439.291.66h.78l.18-.457-.582-.619Zm13.987,4.11c.513-.18.5-.554.434-.97-.342-.185-.674-.369-1.085-.051.074.254.152.5.222.739.164.106.307.2.432.282Zm-5.943-4.059a1.776,1.776,0,0,0-.351.665c.822,1.367,1.922-.517.354-.665Zm33.71,8.469h.319a.737.737,0,0,0-.317,0Zm-45.919-3.062a1.483,1.483,0,0,0,.545-.8c-.1-.111-.212-.231-.314-.346h-.642c-.083.175-.166.356-.263.563.189.189.226.6.679.577Zm35.372-4.567c.028-.383.032-.72-.282-.914-.73.134-1.122.476-.5,1.067a1.231,1.231,0,0,0,.79-.152Zm-12.56,6.483a.648.648,0,0,0-1.145.092c.122,1.007,1.113.971,1.147-.093ZM149.7,93h.328a.469.469,0,0,0-.326,0Zm5.287-2.06c.042.66,1.021.175,1.127-.24-.252-.9-1.194-.71-1.125.241Zm-44.741-2.706c.12.129.249.268.365.388.231-.069.393-.12.563-.175.111-.175.226-.351.328-.508-.487-.761-1.06-.521-1.254.3Zm20.826-.171c-.06-.157-.115-.319-.18-.489-1.947-.738-.709,1.936.182.494Zm35.34.388c.157.028.337-.231.508,0,.2.06.282-.282.374-.4-.088-.166-.157-.3-.245-.48-.746-.37-1.316.3-.635.882Zm-15.8-3.242c-.286-.245-.291-.573-.6-.711a.646.646,0,0,0-.365,1.173c.323-.134.716-.125.96-.462Zm-24.714,1.736a1.384,1.384,0,0,0,.84-.152.748.748,0,0,0-.485-.845c-.974.371-.8.2-.355,1Zm43.439,6.109h.434a.4.4,0,0,0-.438,0Zm-31.558-.522c.379-.6.106-1.247-.637-.868-.42.12-.069.559-.2.836a.838.838,0,0,0,.837.035Zm12.874-.54a1.175,1.175,0,0,1,.259.582c.859.009.956.143.993-.79-.185-.115-.342-.217-.489-.314-.259.175-.494.337-.762.517ZM126.1,88.755c-.623.189-.554.919.055,1.1.828-.137.759-1.121-.054-1.1Zm28.108-.088a1.559,1.559,0,0,0-.67.757c.847,1.07,1.756-.076.671-.756Zm-22.558-4.239a1.169,1.169,0,0,0,.439-.245c-.254-.254-.517-.517-.794-.79-.018.212-.032.425-.055.67.125.113.264.238.411.367Zm-13.294-3.805c-.6-.54-.679-.1-1.15.194a1.023,1.023,0,0,0,.406.642c.6-.078.919-.171.743-.84ZM124.6,87.4c-.993.646.134,1.288.859.8-.013-.317-.5-.894-.858-.8Zm-5.361,3.976a1.186,1.186,0,0,0,.637-.48c-.226-.226-.277-.559-.633-.642-.767.185-.771.924-.009,1.122Zm8.612-8.469a.6.6,0,1,0-.688-.984c-.051.152-.1.282-.148.434a1.5,1.5,0,0,0,.836.545Zm40.49-1.436a5.637,5.637,0,0,1,.453-.4c-.282-.66-.6-.877-1.164-.508.245.591-.291.836.711.91Zm-26.238,3.985a.567.567,0,1,0-.752.218.566.566,0,0,0,.752-.218Zm-1.371-1.681c-.268.129-.531.259-.794.388.35.224.812.257.793-.392Zm-32.26,4.456c.448-.623-.429-1.03-.988-.859-.159.7.452,1.3.988.857Zm7.388-.328c.083.162.148.291.245.48,1.773.35.263-2.19-.245-.482Zm48.823,4.276c.2.425.868.707,1.191.309-.1-.189,0-.411.009-.586a.725.725,0,0,0-1.025-.01.714.714,0,0,0-.18.287ZM114.953,81.509c.18-.06.337-.111.48-.157.046-.263.083-.485.12-.693-.784-.763-1.616.257-.6.848Zm48.219-.531c-.259-.711-.891-.831-1.21-.014.171.222.319.42.466.614.249-.222.642-.231.743-.6Zm7.356,11.79.822-.259a.774.774,0,0,1,.208-.508c-.185-.171-.346-.323-.508-.471-.573.069-.854.406-.42.868-.024.16-.236.224-.1.37m-39.99-6.982.383-.466c-.1-.277-.032-.619-.416-.739-.12.037-.263.083-.42.134-.277.443-.231,1.251.453,1.076Zm2.156-.993c-.24.3.037.984.513.914a.47.47,0,0,0,.245-.157c-.224-.233-.48-.482-.757-.759Zm30.63.425c.111.162.217.314.314.453.614.046.619.037.845-.7-.337-.674-.974-.351-1.159.245Zm-44.7-.014c.166.873.984.443,1.358-.115-.48-.4-1.131-.649-1.354.113Zm-6.659,1.9c.586.125.767-.24.8-.771l-.429-.4c-.717.248-.758.645-.366,1.167Zm55.288-5.075c-.212-.1-.4-.194-.559-.268-.4.06-.522.332-.633.651.436.6,1.467.456,1.2-.387Zm-.54,9.254a1.306,1.306,0,0,0,.66-.319c-.379-.66-.166-1.076-1.094-.642.028.434-.12.84.439.96ZM121.565,79.72c-.069.249.263.291.434.4,1.173-.425.157-1.792-.573-.836.024.164.232.242.144.432Zm23.2,3.149c.24-.577.2-.72-.111-.97q-.374.172-.762.36a.6.6,0,0,0,.868.61Zm-14.4.032a.476.476,0,0,0,.3-.106l-.757-.743a1.072,1.072,0,0,0-.051.231c.192.213.344.4.52.614Zm-12.237,6.235c-.009-.079-.014-.152-.028-.249a3.669,3.669,0,0,1-.549-.115,1.488,1.488,0,0,0-.309.7c.291.651,1.007.453,1.228-.194-.113-.05-.229-.1-.342-.142m27.9-7.873c-.148.069-.3.139-.453.208a.5.5,0,0,0,.453-.208m-37.307,9.549c-.074-.319-.332-.462-.568-.679-1.452.535-.219,1.649.566.679Zm63.716-10.593c1.39-1.436-1.321-1.658-.411-.143.1.037.224.078.409.143Zm-47.092,4.65a.827.827,0,0,0-.79-.291c-.152.222-.208.476-.453.665.536.642,1.228.393,1.247-.374Zm-14.232.674a1.694,1.694,0,0,1,.3-.554c-.957-1.491-1.752,1.159-.3.554Zm14.777-2.327c-.055.152-.106.3-.185.508.723,1.718,1.8-1.164.183-.508Zm38.881,3.168c-.222.688.7.951,1.09.554.285-.7-.633-1.021-1.092-.554Zm-45.808-9.069c.3-.139.623-.212.827-.582a.984.984,0,0,0-.24-.282c-.259.2-.526.411-.817.642a1.509,1.509,0,0,0,.226.226ZM156.4,92.433c.379.171.725.272,1.081-.1-.212-.351.042-.8-.448-.84-.346.365-.951.24-.628.933Zm-4.382-8.741c-.513-.582-1.353-.462-1.085.439.4.387.889.216,1.083-.439ZM167.3,79.568c-.042-.831-1.348-.406-1.136.245.238.549,1.056.249,1.134-.245ZM144.548,90.124a1.166,1.166,0,0,0-.762.623,1.559,1.559,0,0,0,.817.536.636.636,0,0,0-.055-1.159m-3.56.48a.64.64,0,0,0,.72.633c1.007-.5-.106-1.625-.72-.633m-34.67-1.792a1.783,1.783,0,0,0,.028,1.1,3.7,3.7,0,0,0,.984-.554c-.426-.647-.481-.675-1.012-.545Zm61.268,3.606.476.249c.268-.129.591-.12.739-.42-.365-.821-1.427-.679-1.215.172ZM122.18,88.442c.406-.563.411-.591.194-.97h-.646c-.115.175-.212.319-.3.448a.65.65,0,0,0,.753.522Zm1.912-11.7c.106.148.2.286.309.439.166.014.3.028.42.028-.222-.2-.439-.393-.646-.573C124.147,76.673,124.12,76.705,124.092,76.742Zm52.065,15.95v-.824a1.16,1.16,0,0,0-.208.194l.129.568a.484.484,0,0,0,.079.055Zm-70-.462c.134,1.1,1.455.1.72-.61-.393-.208-.781.116-.721.61Zm7.665-.951c.129-.143.249-.282.369-.416-.088-.1-.148-.175-.208-.245.023-.092.042-.185.074-.319-.282-.046-.508-.083-.743-.125-.152.134-.332.245-.383.439A2.419,2.419,0,0,0,113.822,91.279Zm57.943-14.564c.189.411.688.905,1.071.369a.317.317,0,0,1-.046-.18c-.212-.2-.425-.393-.633-.582a.847.847,0,0,0-.392.392ZM164.885,88.9c-.028.2-.051.369-.079.563.194.115.291.346.568.434.222-.24.416-.457.637-.716a.831.831,0,0,0-1.126-.282ZM121.012,81.24c.06-.236.111-.434.18-.688C119.917,79.768,119.613,81.946,121.012,81.24Zm26.123,1.778c1.381-.7-.2-1.852-.55-.526a2.282,2.282,0,0,0,.549.525ZM161.57,91a1.214,1.214,0,0,0-.051-.67c-.189-.065-.4-.134-.642-.212-.679.767-.226,1.339.688.882Zm-.442-9.374c-.208.208-.388.388-.563.559.046.157.088.282.134.434.259.051.531.111.794.162.466-.586.065-.794-.365-1.159ZM123.318,83.1l-.513.471.337.6c.674.078.734-.079.767-.674-.162-.157-.3-.374-.586-.393Zm2.868-1.612a1.362,1.362,0,0,0,.688-.642c-.236-.462-.688-.471-1.154-.277.219.3-.031.781.464.919Zm33.391,8.437c.72-.231.951-.642.346-1.154-.457.055-.582.4-.8.748ZM145.2,89.515l.665.5c.425-.2.328-.582.476-.877a4.98,4.98,0,0,1-.591-.356c-.432.068-.363.479-.553.733Zm-1.667,2.766c-.2-.78-.979-1.141-1.131-.139.131.6.782.439,1.124.139Zm14.731-4.835c-1.265.406.383,1.755.711.4-.141-.285-.449-.266-.714-.4ZM170.2,76.9c-.323-.545-.416-.582-1.15-.429-.22.95.626,1.038,1.147.429Zm4.216,6.95c-.162-.226-.323-.453-.5-.707-.425.12-.573.457-.873.637a.827.827,0,0,0,1.371.069Zm-69.232,9.014h.1l-.046-.028a.22.22,0,0,0-.055.028Zm57.768-3.256c.037-.115.079-.24.12-.369l-.245-.466a.7.7,0,0,0-.739.175,1.07,1.07,0,0,0,.157.785c.282.106.476-.055.711-.125Zm5.666-14.4c-.236.166-.508.365-.808.591.379.288.92-.2.808-.59Zm4.585,13.9c.046.623.314.522.78.591.781-.779-.244-1.352-.78-.59ZM134.033,86.6a1.664,1.664,0,0,0,.794.494c.157-.194.3-.369.453-.559l-.042-.055c-.365.185-.573.3-.568.3s-.166-.166-.462-.466a.714.714,0,0,0-.174.287Zm42.123,2.84V88.9a.579.579,0,0,0,0,.537Zm-55.967,2.36c-.485.554.291.933.776.688.194-.683-.23-1.269-.775-.687Zm11.193-5.629c-.152.291.134.494.046.753,1.276.6,1.17-1.214-.045-.751Zm44.275-1.182c-.088-.286-.919-.67-.877-.2.12.282-.162.346-.2.6.873.356.85.559,1.081-.393ZM116.07,80.043c.6.115.646.088.887-.531-.291-.383-.513-.485-.73-.379-.074.06-.148.12-.222.185a1.692,1.692,0,0,0-.115.148,1.8,1.8,0,0,1,.175.573Zm-.134,4.858c.111.268.208.508.3.753.549.074.568.06.813-.485a.7.7,0,0,0-1.122-.263Zm23.892,1.224c-.018.217-.037.42-.055.633C141.27,87.524,141.028,85.539,139.828,86.125Zm8.8-4.627c.185-.259.6-.651.277-.947-.494-.309-.619.254-1.007.42C148.1,81.2,148.293,81.849,148.628,81.5Zm-8.982,7.859c-.2.762,1.1.439,1.113-.2-.879-.654-.551-.427-1.115.2Zm-3.722,3.6h.106a.208.208,0,0,0-.108,0Zm34.439-17.464c.194.226.4.5.72.406.069-.115.134-.226.194-.328-.226-.18-.439-.342-.637-.476-.195.073-.334.183-.278.4Zm-15.1,12.967c.693-.3.924-.083.693-.965-.079-.042-.166-.083-.3-.152-.129.088-.249.171-.351.249.185.369-.554.582-.046.864ZM128.3,90.695l-.623-.411c-.185.12-.342.222-.466.3-.014.208-.023.374-.032.563h.808c.1-.143.194-.282.319-.457Zm-11.507.448c.323-.485.185-.5-.1-.748-1.057-.58-.826,1.1.093.75Zm11.877-7.73c-.591.956.573.785.993.328-.118-.359-.234-.4-1-.326Zm43.088,4.521c.115.134.2.231.277.323.272-.009.54.1.716-.171-.1-.245-.2-.485-.3-.73-.443-.134-.637.208-.7.577Zm-36.5,1.4c-.152-.369-.462-.383-.743-.443-.457.563-.319.7.208.873a.866.866,0,0,0,.529-.429Zm38.988-2.743c-.134-.314-.425-.429-.67-.633-.74.527.406,1.585.664.634Zm-35.6,1.787c.78.139.707-.679.074-.864-.471.089-.618.837-.083.865Zm-10.071-2.12c-.291.591.383.651.836.688.489-.659-.406-.825-.845-.687Zm-4.558,1.025c-.069.028-.023.069,0,.115.07-.021.006-.063-.009-.114Zm-12.334,2.766.046.014v-.037Z" fill="#14301d"/>
                </g>
              </g>
            </g>
            <path id="Path_909144" data-name="Path 909144" d="M101.146,73.6v19.32a.3.3,0,0,0,.3.3l7.171.12q8.7.139,17.4.245,10.674.132,21.343.189c6.46.032,12.925.046,19.385-.032,2.327-.028,4.659-.069,6.987-.157,1.39-.051,2.8-.092,4.179-.282a5.212,5.212,0,0,0,.526-.092c.374-.088.217-.66-.157-.573a20.157,20.157,0,0,1-3.38.3c-2.147.1-4.294.148-6.442.18-6.225.1-12.449.092-18.67.069q-10.708-.042-21.412-.175-9.047-.1-18.092-.245l-5.929-.1c-.61-.009-1.224-.023-1.833-.032a4.684,4.684,0,0,0-.947-.018.482.482,0,0,1-.12,0l.3.3V73.6a.3.3,0,1,0-.6,0Z" fill="#43922c"/>
            <path id="Path_909145" data-name="Path 909145" d="M107.925,73.463V92.918a.3.3,0,1,0,.6,0V73.463a.3.3,0,0,0-.6,0" fill="#43922c"/>
            <path id="Path_909146" data-name="Path 909146" d="M114.662,73.463V92.918a.3.3,0,1,0,.6,0V73.463a.3.3,0,0,0-.6,0" fill="#43922c"/>
            <path id="Path_909147" data-name="Path 909147" d="M121.4,73.463V92.918a.3.3,0,1,0,.6,0V73.463a.3.3,0,0,0-.6,0" fill="#43922c"/>
            <path id="Path_909148" data-name="Path 909148" d="M128.137,73.463V92.918a.3.3,0,0,0,.6,0V73.463a.3.3,0,0,0-.6,0" fill="#43922c"/>
            <path id="Path_909149" data-name="Path 909149" d="M134.869,73.463V92.918a.3.3,0,1,0,.6,0V73.463a.3.3,0,1,0-.6,0" fill="#43922c"/>
            <path id="Path_909150" data-name="Path 909150" d="M141.607,73.463V92.918a.3.3,0,0,0,.6,0V73.463a.3.3,0,0,0-.6,0" fill="#43922c"/>
            <path id="Path_909151" data-name="Path 909151" d="M148.344,73.463V92.918a.3.3,0,1,0,.6,0V73.463a.3.3,0,0,0-.6,0" fill="#43922c"/>
            <path id="Path_909152" data-name="Path 909152" d="M155.081,73.463V92.918a.3.3,0,0,0,.6,0V73.463a.3.3,0,0,0-.6,0" fill="#43922c"/>
            <path id="Path_909153" data-name="Path 909153" d="M161.818,73.463V92.918a.3.3,0,0,0,.6,0V73.463a.3.3,0,0,0-.6,0" fill="#43922c"/>
            <path id="Path_909154" data-name="Path 909154" d="M168.556,73.463V92.918a.3.3,0,1,0,.6,0V73.463a.3.3,0,0,0-.6,0" fill="#43922c"/>
            <path id="Path_909155" data-name="Path 909155" d="M175.293,73.463V92.918a.3.3,0,0,0,.6,0V73.463a.3.3,0,0,0-.6,0" fill="#43922c"/>
            <path id="Path_909156" data-name="Path 909156" d="M101.446,87.164c10.062.148,20.124.2,30.191.245,10.145.042,20.29.06,30.436.134q8.423.056,16.836.175a.3.3,0,1,0,0-.6c-10.062-.148-20.124-.2-30.191-.245-10.145-.042-20.29-.06-30.436-.134q-8.422-.055-16.836-.175a.3.3,0,0,0,0,.6" fill="#43922c"/>
            <path id="Path_909157" data-name="Path 909157" d="M101.446,80.746c10.021.148,20.041.2,30.062.245,10.122.042,20.249.065,30.371.134q8.4.056,16.795.175a.3.3,0,0,0,0-.6c-10.021-.148-20.041-.2-30.062-.245-10.122-.042-20.249-.065-30.371-.134q-8.4-.056-16.795-.175a.3.3,0,0,0,0,.6" fill="#43922c"/>
            <path id="Path_909158" data-name="Path 909158" d="M101.446,75.048c10.053.148,20.11.162,30.163.148,10.233-.009,20.461-.046,30.694-.014q8.451.028,16.9.139a.3.3,0,1,0,0-.6c-10.053-.148-20.11-.162-30.163-.148-10.233.009-20.461.046-30.694.014q-8.45-.028-16.9-.139a.3.3,0,0,0,0,.6" fill="#43922c"/>
            <path id="Path_909159" data-name="Path 909159" d="M109.209,86.827a1.262,1.262,0,1,1,0-.006v.006" fill="#14301d"/>
            <path id="Path_909160" data-name="Path 909160" d="M115.978,80.367a1.262,1.262,0,1,1,0-.006v.006" fill="#14301d"/>
            <path id="Path_909161" data-name="Path 909161" d="M122.928,74.945a1.262,1.262,0,1,1,0-.006v.006" fill="#14301d"/>
            <path id="Path_909162" data-name="Path 909162" d="M136.4,86.827a1.262,1.262,0,1,1,0-.006v.006" fill="#14301d"/>
            <path id="Path_909163" data-name="Path 909163" d="M150.324,80.445a1.262,1.262,0,1,1,0-.006v.006" fill="#14301d"/>
            <path id="Path_909164" data-name="Path 909164" d="M155.381,85.562a1.265,1.265,0,1,1-1.233,1.265,1.249,1.249,0,0,1,1.233-1.265" fill="#14301d"/>
            <path id="Path_909165" data-name="Path 909165" d="M170.786,75.029a1.262,1.262,0,1,1,0-.006v.006" fill="#14301d"/>
            <path id="Path_909166" data-name="Path 909166" d="M177.385,80.445a1.262,1.262,0,1,1,0-.006v.006" fill="#14301d"/>
            <path id="Path_909167" data-name="Path 909167" d="M102.126,92.484q9.732-8.679,19.468-17.353c.286-.254-.134-.674-.42-.42q-9.732,8.679-19.468,17.354c-.286.254.134.674.42.42Z" fill="#14301d"/>
            <path id="Path_909168" data-name="Path 909168" d="M121.694,75.278a74.941,74.941,0,0,1,13.119,12.214c.249.291.665-.129.42-.42a75.351,75.351,0,0,0-13.239-12.306c-.309-.226-.61.291-.3.513Z" fill="#14301d"/>
            <path id="Path_909169" data-name="Path 909169" d="M135.437,87.408q6.7-3.6,13.719-6.548c.346-.148.194-.72-.157-.573q-7.086,2.971-13.862,6.608c-.337.18-.037.7.3.513" fill="#14301d"/>
            <path id="Path_909170" data-name="Path 909170" d="M148.859,80.75q3.263,3.088,6.52,6.179c.277.263.7-.157.42-.42q-3.263-3.089-6.52-6.179c-.277-.263-.7.157-.42.42" fill="#14301d"/>
            <path id="Path_909171" data-name="Path 909171" d="M155.423,87.289a176.14,176.14,0,0,0,14.546-12.722c.272-.268-.148-.688-.42-.42A176.142,176.142,0,0,1,155,86.869c-.3.236.125.656.42.42" fill="#14301d"/>
            <path id="Path_909172" data-name="Path 909172" d="M168.749,74.774q3.416,3.027,6.834,6.049c.286.254.707-.166.42-.42q-3.416-3.027-6.834-6.049c-.286-.254-.707.166-.42.42" fill="#14301d"/>
            <path id="Path_909173" data-name="Path 909173" d="M185.679,38.609c-6.077.379-83.175-.462-91.03-.245.088-1.4.175-2.683.282-3.819.323-3.546,1.021-9.009,7.361-9.457,2.794-.194,62.52-1.847,79,2.129,3.676.887,4.207,5.223,4.281,6.331.018.254.055,2.064.106,5.061" fill="#43922c"/>
            <path id="Path_909174" data-name="Path 909174" d="M171.982,31.553h6.964a.3.3,0,0,0,0-.6h-6.964a.3.3,0,0,0,0,.6" fill="#14301d"/>
            <path id="Path_909175" data-name="Path 909175" d="M171.982,33.187h6.964a.3.3,0,0,0,0-.6h-6.964a.3.3,0,0,0,0,.6" fill="#14301d"/>
            <path id="Path_909176" data-name="Path 909176" d="M171.982,34.827h6.964a.3.3,0,0,0,0-.6h-6.964a.3.3,0,0,0,0,.6" fill="#14301d"/>
            <path id="Path_909177" data-name="Path 909177" d="M113.272,53.1c-.217.217-.6,1.884.36,2.06s17.109.175,17.686-.023c.3-.106.259-1.9-.231-2.212s-17.325-.319-17.815.175" fill="#14301d"/>
            <path id="Path_909178" data-name="Path 909178" d="M143.5,109.477c8.46-.115,16.919.185,25.375.259,2.341.018,4.682.023,7.028-.009a.3.3,0,1,0,0-.6c-8.46.115-16.919-.185-25.375-.259-2.341-.018-4.682-.023-7.028.009a.3.3,0,1,0,0,.6Z" fill="#f0e7b4"/>
            <path id="Path_909179" data-name="Path 909179" d="M143.744,112.492c8.372-.115,16.739.18,25.107.249,2.318.018,4.641.018,6.959-.014a.3.3,0,1,0,0-.6c-8.372.115-16.739-.18-25.107-.249-2.318-.018-4.641-.018-6.959.014a.3.3,0,1,0,0,.6Z" fill="#f0e7b4"/>
            <path id="Path_909180" data-name="Path 909180" d="M144.054,115.5c8.247-.111,16.5.175,24.746.24,2.314.018,4.622.018,6.936-.014a.3.3,0,1,0,0-.6c-8.247.111-16.5-.175-24.746-.24-2.314-.018-4.622-.018-6.936.014a.3.3,0,1,0,0,.6Z" fill="#f0e7b4"/>
            <path id="Path_909181" data-name="Path 909181" d="M143.948,118.509c8.257-.111,16.513.175,24.77.24,2.314.018,4.627.018,6.94-.014a.3.3,0,0,0,0-.6c-8.257.111-16.513-.175-24.77-.24-2.314-.018-4.627-.018-6.94.014a.3.3,0,1,0,0,.6" fill="#f0e7b4"/>
            <path id="Path_909182" data-name="Path 909182" d="M144.123,121.515c8.169-.111,16.338.171,24.511.236,2.314.018,4.627.018,6.945-.014a.3.3,0,1,0,0-.6c-8.169.111-16.338-.171-24.511-.236-2.314-.018-4.632-.018-6.945.014a.3.3,0,1,0,0,.6" fill="#f0e7b4"/>
            <path id="Path_909183" data-name="Path 909183" d="M144.285,124.527c8.127-.111,16.25.166,24.372.231q3.422.028,6.839-.014a.3.3,0,0,0,0-.6c-8.127.111-16.25-.166-24.372-.231q-3.421-.029-6.839.014a.3.3,0,1,0,0,.6Z" fill="#f0e7b4"/>
            <path id="Path_909184" data-name="Path 909184" d="M144.5,127.537c8.012-.111,16.019.162,24.026.222q3.442.028,6.89-.014a.3.3,0,1,0,0-.6c-8.012.111-16.019-.162-24.026-.222q-3.442-.028-6.89.014a.3.3,0,1,0,0,.6Z" fill="#f0e7b4"/>
            <path id="Path_909185" data-name="Path 909185" d="M143.214,108.553c.2,5.093.429,10.191.748,15.28.088,1.395.18,2.785.3,4.179a8.654,8.654,0,0,0,.3,2.212c.171.457.72.4,1.145.453,1.011.139,2.027.231,3.043.3,2.494.166,4.992.194,7.49.185,6.363-.023,12.727-.323,19.09-.416a.3.3,0,1,0,0-.6c-5.537.079-11.073.314-16.615.393-2.577.037-5.153.042-7.725-.051-1.122-.042-2.24-.1-3.357-.2-.485-.042-.974-.092-1.455-.152q-.346-.042-.693-.1c-.083-.014-.166-.023-.245-.037-.323-.051-.134-.088-.092.069,0,.023-.023-.042-.042-.134-.023-.129-.051-.259-.074-.388-.06-.392-.1-.79-.139-1.182-.125-1.3-.212-2.6-.3-3.893-.212-3.26-.369-6.525-.522-9.785-.092-2.046-.185-4.1-.263-6.142-.014-.383-.61-.383-.6,0Z" fill="#f0e7b4"/>
            <path id="Path_909186" data-name="Path 909186" d="M158.337,115.646s.286,14.9.517,15.183c.332.406,3.588.67,3.666.088.115-.891-.291-14.786-.462-15.409-.185-.656-3.648-.683-3.722.143Z" fill="#43922c"/>
            <path id="Path_909187" data-name="Path 909187" d="M170.717,111.753s.171,19.122.406,19.395c.332.388,3.606.208,3.685-.351.115-.854-.194-18.582-.369-19.177-.185-.628-3.648-.656-3.722.133" fill="#43922c"/>
            <path id="Path_909188" data-name="Path 909188" d="M151.955,120.481s.42,9.9.656,10.187c.332.4,3.588.665,3.667.088.115-.887-.425-9.79-.6-10.413-.185-.651-3.648-.679-3.722.143Z" fill="#14301d"/>
            <path id="Path_909189" data-name="Path 909189" d="M165.042,122.822s-.083,7.37.148,7.684c.328.443,3.588.725,3.667.083a71.172,71.172,0,0,0-.092-7.933c-.18-.72-3.643-.739-3.722.166Z" fill="#14301d"/>
            <path id="Path_909190" data-name="Path 909190" d="M146.289,125.025a46.882,46.882,0,0,0,.337,5.44c.328.443,3.588.725,3.666.083a36.06,36.06,0,0,0-.282-5.689c-.18-.72-3.643-.739-3.722.166Z" fill="#43922c"/>
            <path id="Path_909191" data-name="Path 909191" d="M147.735,122.993a78.675,78.675,0,0,1,10.1-8.215c.623-.411,1.256-.8,1.912-1.159.365-.2.767.088,1.136.245q.63.27,1.233.6a18.276,18.276,0,0,1,4.862,3.962.3.3,0,0,0,.424,0,.288.288,0,0,0,.076-.128q.845-2.286,1.889-4.493a26.229,26.229,0,0,1,1.722-3.186c.379-.577.951-1.552,1.713-1.676.379-.065.217-.637-.157-.573a2.571,2.571,0,0,0-1.4,1.034,14.308,14.308,0,0,0-1.464,2.267,48.278,48.278,0,0,0-2.4,5.246c-.162.411-.323.817-.476,1.233.166-.042.332-.088.5-.129A19.7,19.7,0,0,0,163.5,114.6a15.5,15.5,0,0,0-2-1.094c-.434-.2-1.228-.7-1.7-.563a7.125,7.125,0,0,0-1.584.91c-.614.383-1.214.79-1.806,1.21-1.4.988-2.748,2.041-4.068,3.126-1.718,1.413-3.385,2.891-5.015,4.405-.282.263.139.683.42.42Z" fill="#14301d"/>
            <path id="Path_909192" data-name="Path 909192" d="M168.394,118.242a1.206,1.206,0,1,1-1.207-1.2h.034A1.189,1.189,0,0,1,168.394,118.242Z" fill="#43922c"/>
            <path id="Path_909193" data-name="Path 909193" d="M161.274,113.213a1.206,1.206,0,1,1-1.207-1.2h.034A1.189,1.189,0,0,1,161.274,113.213Z" fill="#43922c"/>
            <path id="Path_909194" data-name="Path 909194" d="M154.384,117.863a1.206,1.206,0,1,1-1.207-1.205h.034a1.192,1.192,0,0,1,1.173,1.205" fill="#43922c"/>
            <path id="Path_909195" data-name="Path 909195" d="M148.935,122.786a1.206,1.206,0,1,1-1.207-1.205h.034a1.192,1.192,0,0,1,1.173,1.205" fill="#43922c"/>
            <path id="Path_909196" data-name="Path 909196" d="M173.926,108.674a1.206,1.206,0,1,1-1.207-1.205h.034a1.192,1.192,0,0,1,1.173,1.205" fill="#43922c"/>
            <path id="Path_909197" data-name="Path 909197" d="M101.525,52.882s-.018,7.338.12,7.684,8.012.517,8.109,0-.028-8.2-.028-8.2-8.086-.619-8.206.513Z" fill="#43922c"/>
            <path id="Path_909198" data-name="Path 909198" d="M106.965,54.793a.374.374,0,0,1,.148.245.328.328,0,0,1-.051.175.387.387,0,0,1-.12.125.226.226,0,0,1-.134.046.242.242,0,0,1-.12-.032.476.476,0,0,1-.12-.078,1.169,1.169,0,0,0-.369-.24,1.449,1.449,0,0,0-.939-.019.648.648,0,0,0-.286.185.4.4,0,0,0-.1.277.45.45,0,0,0,.078.254.813.813,0,0,0,.277.231,3.811,3.811,0,0,0,.55.236,3.218,3.218,0,0,1,.785.369,1.452,1.452,0,0,1,.443.443,1.053,1.053,0,0,1,.143.536,1.07,1.07,0,0,1-.2.642,1.264,1.264,0,0,1-.554.434,2.08,2.08,0,0,1-.854.157,2.88,2.88,0,0,1-.54-.051,1.926,1.926,0,0,1-.462-.152,1.882,1.882,0,0,1-.365-.226.694.694,0,0,1-.129-.125.222.222,0,0,1-.055-.143.333.333,0,0,1,.051-.162.547.547,0,0,1,.12-.134.225.225,0,0,1,.143-.051.3.3,0,0,1,.143.037.868.868,0,0,1,.143.106,1.235,1.235,0,0,0,.249.125,2.256,2.256,0,0,0,.342.106,1.517,1.517,0,0,0,.342.042,1.381,1.381,0,0,0,.683-.143.444.444,0,0,0,.254-.416.542.542,0,0,0-.078-.286.894.894,0,0,0-.291-.249,3.557,3.557,0,0,0-.6-.263,3.658,3.658,0,0,1-.734-.342,1.289,1.289,0,0,1-.425-.406.94.94,0,0,1-.139-.508,1.046,1.046,0,0,1,.189-.6,1.32,1.32,0,0,1,.536-.443,1.845,1.845,0,0,1,.808-.166,1.926,1.926,0,0,1,.489.065,2,2,0,0,1,.434.171,1.506,1.506,0,0,1,.319.236Zm-1.455-.767a.453.453,0,0,1,.028-.175.167.167,0,0,1,.088-.1.349.349,0,0,1,.152-.032.284.284,0,0,1,.212.074.3.3,0,0,1,.069.231c0,.236-.018.522-.042.854s-.046.688-.079,1.071-.055.762-.088,1.15-.055.753-.074,1.1-.032.656-.037.924a.319.319,0,0,1-.069.222.258.258,0,0,1-.2.078.269.269,0,0,1-.208-.078.319.319,0,0,1-.069-.222c0-.268.018-.573.037-.924s.046-.716.074-1.1.055-.771.088-1.15.051-.739.074-1.071.037-.619.042-.854Z" fill="#fff"/>
            <path id="Path_909199" data-name="Path 909199" d="M106.037,111a7.314,7.314,0,1,0,10.1,2.221l0,0a7.312,7.312,0,0,0-10.1-2.217m6.543,10.219a4.734,4.734,0,1,1,1.436-6.539,4.734,4.734,0,0,1-1.436,6.539" fill="#f0e7b4"/>
            <path id="Path_909200" data-name="Path 909200" d="M106.037,111a7.314,7.314,0,1,0,7.887,12.32l-1.344-2.1a4.734,4.734,0,1,1-1.533-8.612l1.085-2.438a7.3,7.3,0,0,0-6.086.831Z" fill="#43922c"/>
            <path id="Path_909201" data-name="Path 909201" d="M121.519,120.662a7.312,7.312,0,1,0,3.727-9.646,7.313,7.313,0,0,0-3.727,9.646v0m11.1-4.913a4.736,4.736,0,1,1-6.251-2.412,4.737,4.737,0,0,1,6.251,2.412Z" fill="#f0e7b4"/>
            <path id="Path_909202" data-name="Path 909202" d="M121.408,120.616a7.4,7.4,0,1,0,13.535-5.989l-2.309,1.021a4.792,4.792,0,1,1-8.852.212l-2.267-1.459a7.4,7.4,0,0,0-.107,6.215" fill="#43922c"/>
            <path id="Path_909203" data-name="Path 909203" d="M104.2,127.039q5.771.437,11.554.342a.3.3,0,0,0,0-.6q-5.784.1-11.554-.342c-.383-.028-.379.568,0,.6" fill="#14301d"/>
            <path id="Path_909204" data-name="Path 909204" d="M104.2,129.024q5.771.437,11.554.342a.3.3,0,1,0,0-.6q-5.784.1-11.554-.342c-.383-.028-.379.568,0,.6" fill="#14301d"/>
            <path id="Path_909205" data-name="Path 909205" d="M122.414,127.039q5.771.437,11.554.342a.3.3,0,1,0,0-.6q-5.784.1-11.554-.342c-.383-.028-.379.568,0,.6" fill="#14301d"/>
            <path id="Path_909206" data-name="Path 909206" d="M122.414,129.024q5.771.437,11.554.342a.3.3,0,1,0,0-.6q-5.784.1-11.554-.342c-.383-.028-.379.568,0,.6" fill="#14301d"/>
            <path id="Path_909207" data-name="Path 909207" d="M146.7,133.055h2.849a.3.3,0,0,0,0-.6H146.7a.3.3,0,1,0,0,.6" fill="#14301d"/>
            <path id="Path_909208" data-name="Path 909208" d="M152.865,132.977h3.482a.3.3,0,1,0,0-.6h-3.482a.3.3,0,1,0,0,.6" fill="#14301d"/>
            <path id="Path_909209" data-name="Path 909209" d="M158.96,132.9h3.56a.3.3,0,1,0,0-.6h-3.56a.3.3,0,1,0,0,.6" fill="#14301d"/>
            <path id="Path_909210" data-name="Path 909210" d="M165.841,132.667h3.006a.3.3,0,0,0,0-.6h-3.006a.3.3,0,0,0,0,.6" fill="#14301d"/>
            <path id="Path_909211" data-name="Path 909211" d="M171.617,132.82h3.56a.3.3,0,0,0,0-.6h-3.56a.3.3,0,0,0,0,.6" fill="#14301d"/>
            <path id="Path_909212" data-name="Path 909212" d="M135.826,62.46a17.992,17.992,0,0,1,17.32-3.159c1.359.485,3.131,1.344,3.177,3.011a1.842,1.842,0,0,1-.683,1.575,1.548,1.548,0,0,1-2.1-.633l-.019-.037c-.984-1.51.236-3.172,1.358-4.188a9.887,9.887,0,0,1,4.562-2.457,5.586,5.586,0,0,1,4.965,1.27,3.832,3.832,0,0,1,.632,4.752c-.212.323.3.619.513.3a4.349,4.349,0,0,0-.088-4.682,5.551,5.551,0,0,0-4.442-2.35A8.7,8.7,0,0,0,155.6,57.7c-1.39,1-2.965,2.415-3.034,4.262-.051,1.441,1.3,3.1,2.849,2.678,1.381-.379,1.782-2.12,1.293-3.32-.66-1.621-2.563-2.346-4.1-2.817a17.956,17.956,0,0,0-5.6-.771,18.608,18.608,0,0,0-11.6,4.313c-.3.249.129.665.42.42Z" fill="#14301d"/>
            <path id="Path_909213" data-name="Path 909213" d="M164.021,61.106l.42,2.193a.3.3,0,0,0,.573-.157c-.139-.73-.282-1.464-.42-2.193a.3.3,0,0,0-.573.157" fill="#14301d"/>
            <path id="Path_909214" data-name="Path 909214" d="M164.848,63.572a19.436,19.436,0,0,1,2.646-.969.3.3,0,0,0-.157-.574,20.683,20.683,0,0,0-2.789,1.031.3.3,0,0,0,.3.512Z" fill="#14301d"/>
            <path id="Path_909215" data-name="Path 909215" d="M105.228,109.593a3.822,3.822,0,0,1,3.126,2.724,3.674,3.674,0,1,1-3.135-2.724c.383.037.379-.559,0-.6a4.226,4.226,0,1,0,.166.018c-.374-.055-.536.522-.157.573Z" fill="#14301d"/>
            <path id="Path_909216" data-name="Path 909216" d="M107.3,109.943a25.278,25.278,0,0,0,2.06-1.935.3.3,0,0,0-.42-.42,26.346,26.346,0,0,1-2.06,1.935.3.3,0,0,0,0,.42.306.306,0,0,0,.42,0" fill="#14301d"/>
            <path id="Path_909217" data-name="Path 909217" d="M107.6,108.166a7.275,7.275,0,0,0,1.953-.448l-.365-.365-.194,1.427a.3.3,0,0,0,.573.157l.194-1.427a.321.321,0,0,0-.079-.291.3.3,0,0,0-.291-.079,6.707,6.707,0,0,1-1.792.429.3.3,0,1,0,0,.6Z" fill="#14301d"/>
            <path id="Path_909218" data-name="Path 909218" d="M112.024,107.991a2.047,2.047,0,0,0,1.653-.716.96.96,0,0,0-.2-1.342c-.016-.012-.033-.023-.05-.034a1.016,1.016,0,0,0-1.371.4,1.33,1.33,0,0,0,.254,1.556,2.545,2.545,0,0,0,1.8.646,3.765,3.765,0,0,0,2.018-.434,1.007,1.007,0,0,0,.468-1.345.982.982,0,0,0-.08-.137.948.948,0,0,0-1.33-.028,1.2,1.2,0,0,0,.092,1.672,2.6,2.6,0,0,0,2.17.453c.379-.042.383-.637,0-.6-.6.065-1.87.185-1.963-.7-.028-.277.152-.559.457-.476.416.115.018.582-.194.693a3.408,3.408,0,0,1-2.406.194,1.165,1.165,0,0,1-.817-.7.548.548,0,0,1,.309-.711l.014-.005c.4-.083.5.323.309.6-.245.346-.753.383-1.136.42s-.383.633,0,.6Z" fill="#14301d"/>
            <path id="Path_909219" data-name="Path 909219" d="M165.462,75.768a8.263,8.263,0,0,1-2.858-1.556c-.069.171-.138.337-.212.508,1.224.032,2.443.06,3.667.092a.3.3,0,0,0,.259-.448,17.105,17.105,0,0,1-1.584-3.731c-.148.111-.291.226-.439.337l2.221,1.238c.383.212.762.448,1.154.642a.736.736,0,0,0,.619.092c.462-.166.623-.891.85-1.265a6.157,6.157,0,0,1,1.547-1.713l-.439-.18c.083.536.162,1.067.245,1.6a2.566,2.566,0,0,0,.272,1.182.672.672,0,0,0,.8.143c.5-.157.984-.393,1.468-.586.351-.139.2-.716-.157-.573l-1.007.4a1.93,1.93,0,0,1-.457.185c-.272.023-.2-.037-.245-.3q-.173-1.1-.337-2.2a.3.3,0,0,0-.369-.209.287.287,0,0,0-.07.029,6.825,6.825,0,0,0-2.106,2.586c-.194.416-.425.24-.753.055s-.651-.365-.979-.545l-1.953-1.09a.3.3,0,0,0-.439.337,18.078,18.078,0,0,0,1.644,3.87c.088-.148.171-.3.259-.448-1.224-.032-2.443-.06-3.666-.092a.3.3,0,0,0-.212.508,9,9,0,0,0,3.122,1.709c.365.115.522-.462.157-.573Z" fill="#14301d"/>
            <path id="Path_909220" data-name="Path 909220" d="M54.786,29.738a11.069,11.069,0,0,1,3.9-.393,3.748,3.748,0,0,1,3.066,2.161,10.3,10.3,0,0,0,.591,1.884c.6.974,1.953,1.154,2.8,1.926a3.262,3.262,0,0,1,.346,3.99c-.743,1.242-1.981,2.688-3.417,2.54-.3-.032-5.971.152-5.971.152l-2.959-10.26,1.653-2Z" fill="#14301d"/>
            <path id="Path_909221" data-name="Path 909221" d="M45.944,32.942c-1.612,1-3.325,2.406-3.537,4.456a20.783,20.783,0,0,1-.1,2.406c-.217.947-.9,1.685-1.178,2.614a3.156,3.156,0,0,0,1.441,3.653c.582.277,1.284.337,1.713.854a5.06,5.06,0,0,1,.573,1.251,3.394,3.394,0,0,0,2.54,1.935,5.7,5.7,0,0,0,3.145-.489l1.965-19.875a35.838,35.838,0,0,0-6.557,3.2Z" fill="#14301d"/>
            <path id="Path_909222" data-name="Path 909222" d="M48.63,35.68a8.245,8.245,0,0,1,14.052.628,15.431,15.431,0,0,1,1.432,7.07C64.262,51.967,57,52.249,57,52.249l-1.939,7.3-6.626-2.794L49.9,50.179c-1.279-1.344-3.528-7.458-2.18-12.015a8.889,8.889,0,0,1,.914-2.484Z" fill="#f7aa89"/>
            <path id="Path_909223" data-name="Path 909223" d="M54.362,31.413c-4.641-.051-9.332,4.087-9.679,6.922A12.288,12.288,0,0,0,49.9,50.184c-1.773-2.872-2.558-5-2.212-8.437,0,0,3.463,1.51,2.817-1.625a12.194,12.194,0,0,1-.379-3.865c.337-4.507,7.772-3.971,7.772-3.971s.009-.822-3.542-.864Z" fill="#14301d"/>
            <path id="Path_909224" data-name="Path 909224" d="M61.076,39.24a.516.516,0,1,1-.545-.54.549.549,0,0,1,.545.54" fill="#14301d"/>
            <path id="Path_909225" data-name="Path 909225" d="M55.47,39.536a.516.516,0,1,1-.545-.54.549.549,0,0,1,.545.54" fill="#14301d"/>
            <path id="Path_909226" data-name="Path 909226" d="M51.738,36.867a4.5,4.5,0,0,1,1.861-.619,9.481,9.481,0,0,1,1.658.1c.323.014.379-.457.125-.591-1.284-.674-2.831-.014-3.828.827-.166.139,0,.411.189.286Z" fill="#14301d"/>
            <g id="Group_1121192" data-name="Group 1121192" opacity="0.2">
              <g id="Group_1121191" data-name="Group 1121191">
                <g id="Group_1121190" data-name="Group 1121190" clip-path="url(#clip-path-4)">
                  <path id="Path_909227" data-name="Path 909227" d="M54.736,41.655c.028.466-.679.887-1.579.937s-1.653-.282-1.676-.748.683-.887,1.579-.937,1.658.282,1.676.748" fill="#14301d"/>
                </g>
              </g>
            </g>
            <g id="Group_1121195" data-name="Group 1121195" opacity="0.2">
              <g id="Group_1121194" data-name="Group 1121194">
                <g id="Group_1121193" data-name="Group 1121193" clip-path="url(#clip-path-5)">
                  <path id="Path_909228" data-name="Path 909228" d="M63.011,41.3c.028.466-.679.887-1.579.937s-1.653-.282-1.676-.748.679-.887,1.579-.937,1.653.286,1.676.748" fill="#14301d"/>
                </g>
              </g>
            </g>
            <path id="Path_909229" data-name="Path 909229" d="M47.684,41.679a1.829,1.829,0,0,0-2.17.129,2.393,2.393,0,0,0-.753,1.4,2.783,2.783,0,0,0,.707,2.484,2.054,2.054,0,0,0,2.466.319l-.249-4.327Z" fill="#f7aa89"/>
            <path id="Path_909230" data-name="Path 909230" d="M46.1,44.057a1.574,1.574,0,0,1,.66-.185.907.907,0,0,1,.679.291.285.285,0,0,0,.425-.369,1.161,1.161,0,0,0-1.048-.476,1.008,1.008,0,0,0-.545.2c-.175.143-.175.277-.249.471-.018.046.028.1.074.069Z" fill="#14301d"/>
            <path id="Path_909231" data-name="Path 909231" d="M60.762,35.43a2.053,2.053,0,0,0-3.32.526c-.9,1.782.083,4.53,1.21,5.994a.327.327,0,0,0,.545-.36,9.791,9.791,0,0,1-1.4-3.782c-.078-.96.1-2.1,1.21-2.374a2.907,2.907,0,0,1,1.6.208.131.131,0,0,0,.148-.212Z" fill="#14301d"/>
            <path id="Path_909232" data-name="Path 909232" d="M53.008,51.232a6.734,6.734,0,0,0,4.973,1.224.275.275,0,0,0-.032-.55,13.387,13.387,0,0,1-4.918-.72c-.023-.009-.042.028-.023.042Z" fill="#14301d"/>
            <path id="Path_909233" data-name="Path 909233" d="M50.505,40.113a13.184,13.184,0,0,1,.106,3.763,1.458,1.458,0,0,1-.4.914.666.666,0,0,1-.914.014c-.079-.088-.328-.309-.4-.406a10.923,10.923,0,0,1-1.5-3.228" fill="#14301d"/>
            <path id="Path_909234" data-name="Path 909234" d="M49.472,40.151a13.228,13.228,0,0,0,3.37-1.782,4.491,4.491,0,0,0,1.806-3.237c.023-.827-.263-1.635-.3-2.461s-.194-2.692.586-2.978c-1-1.076-4.382.877-5.735,1.45" fill="#14301d"/>
            <path id="Path_909235" data-name="Path 909235" d="M54.754,29.976a10.063,10.063,0,0,1,4.936-.559,2.341,2.341,0,0,1,1.829,1.413c.212.688-.092,1.427.185,2.115.513,1.27,2.18.743,3.223,1.011.753.194,1.635.725,1.685,1.593.051.85-.794,1.418-1.487,1.695-.351.139-.2.716.157.573,1.284-.513,2.507-1.787,1.616-3.209a2.957,2.957,0,0,0-1.819-1.224,6.311,6.311,0,0,0-1.247-.162c-.5-.018-1.2.129-1.515-.36-.286-.443-.129-1.034-.143-1.519a2.35,2.35,0,0,0-.24-1.048,2.915,2.915,0,0,0-1.6-1.316c-1.764-.646-4.013-.129-5.74.416-.365.115-.208.688.157.573Z" fill="#14301d"/>
            <path id="Path_909236" data-name="Path 909236" d="M55.714,43.5a2.658,2.658,0,0,0,2.863,1.1.3.3,0,0,0-.157-.573,2.053,2.053,0,0,1-2.193-.831.3.3,0,1,0-.512.3Z" fill="#14301d"/>
            <path id="Path_909237" data-name="Path 909237" d="M22.378,180.549a20,20,0,0,1-1.011,8.4c-1.371,3.449,7.222,4.493,7.222,4.493s1.556-9.4,2.313-12.242-8.524-.646-8.524-.646Z" fill="#14301d"/>
            <path id="Path_909238" data-name="Path 909238" d="M12.727,200.228a11.5,11.5,0,0,0,.249,2.092c.231.988,3.657,1.45,8.127,1.1a11.849,11.849,0,0,0,7.139-2.729,31.706,31.706,0,0,0,.5-3.643Z" fill="#fff"/>
            <path id="Path_909239" data-name="Path 909239" d="M21.857,188.677c-.162.134-4.355,6.5-5.749,7.49s-3.6,2.438-3.366,4.41,8.649,1.4,11.9.466,3.191-.522,3.717-1.685.522-5.865.522-6.5-2.263-8.187-7.024-4.179Z" fill="#43922c"/>
            <path id="Path_909240" data-name="Path 909240" d="M17.738,195.017a7.5,7.5,0,0,1,4.512.517c.286.106.434-.319.2-.471a6.017,6.017,0,0,0-4.835-.5.237.237,0,0,0,.125.457Z" fill="#fff"/>
            <path id="Path_909241" data-name="Path 909241" d="M18.971,192.893a12.4,12.4,0,0,1,3.962.827c.319.129.554-.42.236-.563a5.892,5.892,0,0,0-4.234-.531.137.137,0,0,0-.091.171.136.136,0,0,0,.128.1Z" fill="#fff"/>
            <path id="Path_909242" data-name="Path 909242" d="M20.365,191.6a8.3,8.3,0,0,1,4.5.356c.4.148.573-.494.175-.637a7.574,7.574,0,0,0-4.784-.111.2.2,0,1,0,.106.393Z" fill="#fff"/>
            <path id="Path_909243" data-name="Path 909243" d="M69.89,194.268a13.013,13.013,0,0,1-1.2-.707,14.864,14.864,0,0,1-4.054-5.569c-.956-2.443,1.7-11.965,1.93-12.2l-10.39,2.48c.97,8.506.97,8.552.679,11.3s-2.429,9.568-1.547,11.221,13.054,3.519,17.617,3.787c7.088.416,9.522-2.664,9.54-3.574.014-.623-10.533-5.338-12.579-6.723Z" fill="#14301d"/>
            <path id="Path_909244" data-name="Path 909244" d="M79.671,199.306l-9.78-5.038a11.872,11.872,0,0,1-3.048-2.757s-2.854,2.387-5.814,2.434a6.72,6.72,0,0,1-4.664-1.685c-.531,2.337-1.011,4.558-1.2,6.169a27.382,27.382,0,0,0,13.946,4.585c7.9.194,12.38-2.757,12.38-2.757l-1.829-.942Z" fill="#43922c"/>
            <path id="Path_909245" data-name="Path 909245" d="M82.331,200.784a7.045,7.045,0,0,0-.831-.536c-.148.1-4.6,2.854-12.362,2.664a27.835,27.835,0,0,1-13.964-4.493,4.847,4.847,0,0,0,.129,2.4.81.81,0,0,0,.115.152,1.771,1.771,0,0,0,.416.314c2.572,1.515,12.953,3.075,17.086,3.32,5.449.319,8.09-1.413,9.088-2.646.5-.651.554-1,.328-1.182Z" fill="#fff"/>
            <path id="Path_909246" data-name="Path 909246" d="M66.989,191.83s.526-2.674-.993-4.262c-1.4-1.459-6.469.854-6.243,2.688.2,1.625,2.738,3.422,1.279,3.685s-4.382-1.547-4.53-1.584V195.1l3.777,2.563h4.21l2.609-2.272,2.3-1.422a15.453,15.453,0,0,1-2.415-2.133Z" fill="#43922c"/>
            <path id="Path_909247" data-name="Path 909247" d="M65.259,195.026a3.8,3.8,0,0,1,2.974-1.362.289.289,0,0,0,0-.577,4.066,4.066,0,0,0-3.325,1.589c-.189.245.143.6.351.351Z" fill="#fff"/>
            <path id="Path_909248" data-name="Path 909248" d="M71.068,194.836a3.809,3.809,0,0,0-3.468,1.921c-.175.337.286.753.554.429a6.106,6.106,0,0,1,1.288-1.27,6.665,6.665,0,0,1,1.672-.716.187.187,0,0,0-.051-.365Z" fill="#fff"/>
            <path id="Path_909249" data-name="Path 909249" d="M73.507,196.175c-1.187-.166-2.526.85-3.223,1.718-.291.36.2.882.522.522a6.545,6.545,0,0,1,1.3-1.141c.457-.3,1.007-.434,1.445-.739.12-.083.139-.337-.046-.36Z" fill="#fff"/>
            <path id="Path_909250" data-name="Path 909250" d="M55.59,195.852s6.977,2.78,8.2,4.211a4.881,4.881,0,0,1,1.3,2.484l1.575.263a4.846,4.846,0,0,0-2.554-4.073c-2.706-1.75-8.22-4.327-8.22-4.327Z" fill="#fff"/>
            <path id="Path_909251" data-name="Path 909251" d="M66.88,191.8c-1.238.125-2.96.665-3.6,1.838a.249.249,0,0,0,.337.337c.577-.3,1.03-.817,1.575-1.168a13.285,13.285,0,0,1,1.7-.942.032.032,0,0,0,.008-.046.034.034,0,0,0-.026-.014Z" fill="#14301d"/>
            <path id="Path_909252" data-name="Path 909252" d="M56.129,192.481c-.346,1.589-.61,3.2-.831,4.807-.1.707-.189,1.413-.254,2.12a5.005,5.005,0,0,0-.037,1.339c.166.863,1.7,1.256,2.42,1.492a39.09,39.09,0,0,0,4.211,1.053,93.421,93.421,0,0,0,9.443,1.432c3.089.309,6.465.4,9.277-1.127a6.523,6.523,0,0,0,1.381-.979,2.5,2.5,0,0,0,.97-1.556c0-.554-.656-.716-1.067-.9-.633-.277-1.3-.517-1.9-.854a.262.262,0,0,0-.263.453,15.7,15.7,0,0,0,1.478.67c.245.106,1.173.36,1.224.642.074.4-.628,1.016-.919,1.27a6.294,6.294,0,0,1-1.21.822c-2.641,1.408-5.809,1.335-8.7,1.057s-5.791-.711-8.649-1.261c-1.376-.263-2.748-.554-4.1-.924a8.7,8.7,0,0,1-2.812-1.081c-.4-.291-.291-.711-.254-1.21.055-.734.143-1.464.245-2.189.226-1.653.494-3.306.85-4.936.074-.328-.434-.471-.508-.138Z" fill="#43922c"/>
            <path id="Path_909253" data-name="Path 909253" d="M12.758,200.664a1.588,1.588,0,0,0,.24,2.489c1.459,1.238,4.636.836,6.349.743,2.734-.152,9.416-.974,9.291-4.83a.293.293,0,0,0-.586,0c-.051,2.909-4.876,3.671-7.037,3.934-1.6.194-9.065,1.09-8.173-2.29a.051.051,0,0,0-.083-.051Z" fill="#43922c"/>
            <path id="Path_909254" data-name="Path 909254" d="M68.367,96.312,38.1,96.335c-.328,1.7-20.133,80.409-18.328,85.456.887,2.48,12.232,4.41,13.368,3.431L51.73,118.214s.143,62.681,2.253,65.373,15.4.185,15.4-.8c0-4.022,1.607-73.565-1.03-86.472Z" fill="#14301d"/>
            <path id="Path_909255" data-name="Path 909255" d="M51.715,119.525a66.308,66.308,0,0,1,6.608-7.384c.245-.236-.129-.6-.369-.369a67.718,67.718,0,0,0-6.691,7.49c-.208.268.249.531.453.263Z" fill="#43922c"/>
            <path id="Path_909256" data-name="Path 909256" d="M77.293,71.985c-.106,0,7.061,9.046,3.546,18.72-1.358,3.731-4.826,6.317-7.9,5.606s-4.244-4.391-4.244-4.391L62.068,57.273S67,55.6,70.4,59.545s2.664,10.893,2.664,10.893l4.221,1.542Z" fill="#43922c"/>
            <path id="Path_909257" data-name="Path 909257" d="M38.407,95.85s-1.667,1.838-1,2.974,8.03,3.4,15.188,3.14,15.816-2.147,15.991-3.93a11.529,11.529,0,0,0-.494-3.893L38.4,95.854Z" fill="#43922c"/>
            <path id="Path_909258" data-name="Path 909258" d="M37.695,97.941c-.2-1.62-1.247-36.793-1.2-38.686A14.594,14.594,0,0,1,41.053,57.1l7.111-1.847s4.807,4.959,6.072,5.421S57.4,55.894,57.4,55.894c1.764.3,8.871.831,9.656,1.736,1.048,1.2,3.376,30.666,1.912,36.083a4.577,4.577,0,0,1-1.371,2.96A33.324,33.324,0,0,1,52.767,101a37.353,37.353,0,0,1-15.072-3.063Z" fill="#43922c"/>
            <path id="Path_909259" data-name="Path 909259" d="M68.31,96.635A32.064,32.064,0,0,0,69.594,90.6a28.157,28.157,0,0,0-.2-6.48c-.619-4.566-1.325-9.1-1.667-13.7-.18-2.448-.291-4.9-.226-7.351a.3.3,0,0,0-.6,0,92.7,92.7,0,0,0,.8,13.289q.368,3.146.864,6.272a32.856,32.856,0,0,1,.513,6.866,29.461,29.461,0,0,1-1.344,6.978.3.3,0,0,0,.573.157Z" fill="#14301d"/>
            <path id="Path_909260" data-name="Path 909260" d="M38.466,58.16a12.506,12.506,0,0,0-6.248,6.317C30.089,69.215,22.3,87.016,23.938,94.5a5.887,5.887,0,0,0,5.417,4.793,11.817,11.817,0,0,0,9.416-3.745c2.821-3.057,7.014-12.251,6.151-14.181-.332-.743-4.609-3.085-6.608-2.812-.231.032,2.771-9.018,2.771-9.018L38.471,58.16Z" fill="#43922c"/>
            <path id="Path_909261" data-name="Path 909261" d="M47.933,56.189c.009-.161-.8-3.291.55-3.665s9.633.379,9.748,1.51a8.439,8.439,0,0,1-.328,2.64s-.688,4.208-3.653,4.42-6.317-4.905-6.317-4.905" fill="#43922c"/>
            <path id="Path_909262" data-name="Path 909262" d="M29.854,90.285a53.561,53.561,0,0,1,3.38-5.888c1.33-1.963,2.835-3.8,4.318-5.647.236-.3-.18-.72-.42-.42-1.482,1.847-2.988,3.69-4.327,5.647a52.732,52.732,0,0,0-3.459,6.008c-.171.342.342.642.513.3Z" fill="#14301d"/>
            <path id="Path_909263" data-name="Path 909263" d="M32.034,99.352c3.671-.416,6.747-3.075,8.829-5.98a26.341,26.341,0,0,0,2.724-5.19,14.966,14.966,0,0,0,1.3-5.832.3.3,0,0,0-.6,0,14.149,14.149,0,0,1-1.2,5.49,26.377,26.377,0,0,1-2.521,4.913c-1.949,2.845-4.973,5.6-8.538,6-.379.042-.379.637,0,.6Z" fill="#14301d"/>
            <path id="Path_909264" data-name="Path 909264" d="M29.674,85.515a10.516,10.516,0,0,1,2.461-.152.3.3,0,1,0,0-.6,11.089,11.089,0,0,0-2.623.175.3.3,0,0,0,.157.573Z" fill="#14301d"/>
            <path id="Path_909265" data-name="Path 909265" d="M49.739,57.864a13.263,13.263,0,0,0,7.725.028.3.3,0,0,0-.157-.573,12.733,12.733,0,0,1-7.407-.028c-.365-.115-.522.462-.157.573Z" fill="#14301d"/>
            <path id="Path_909266" data-name="Path 909266" d="M35.04,63.862a32.889,32.889,0,0,1,5.952,7.518.3.3,0,0,0,.513-.3,33.48,33.48,0,0,0-6.045-7.638C35.183,63.179,34.76,63.6,35.04,63.862Z" fill="#14301d"/>
            <path id="Path_909267" data-name="Path 909267" d="M71.206,79.221a38.268,38.268,0,0,0-.171,4.987,46.511,46.511,0,0,0,.637,4.918c.06.379.633.217.573-.157a44.59,44.59,0,0,1-.623-4.872,39.042,39.042,0,0,1,.175-4.872c.028-.383-.568-.379-.6,0Z" fill="#14301d"/>
            <path id="Path_909268" data-name="Path 909268" d="M38.85,97.642a45.821,45.821,0,0,0,26-.185c.365-.111.208-.688-.157-.573a45.255,45.255,0,0,1-25.679.185.3.3,0,0,0-.157.573Z" fill="#14301d"/>
            <path id="Path_909269" data-name="Path 909269" d="M42.918,63.681s7.679,4.71,8.049,5.287-.924,1.852-1.87,1.455S42,65.916,41.7,65.251s-.078-1.672,1.219-1.57Z" fill="#14301d"/>
            <path id="Path_909270" data-name="Path 909270" d="M39.529,79.147s5.8-9.406,7.956-10.935,4.1-2.54,5.491-2.434,2.083.6,1.713,1.459-1.3.642-2.42.877a12.441,12.441,0,0,0-2.7,1.117s2.808-.531,4.248.032,2.207.591,1.459,1.769c0,0,1.2,1.238-.231,2.06a1.163,1.163,0,0,1,.018,1.4c-.725.845-1.178.734-2.817,1.048s-2.785.48-3.657,2.5a5.233,5.233,0,0,1-4.258,3.066L42.95,84.551s-6.34.526-3.417-5.412Z" fill="#f7aa89"/>
            <path id="Path_909271" data-name="Path 909271" d="M54.928,73.354a8.042,8.042,0,0,0-5.7.73c-.3.157-.485-.323-.194-.48A8.441,8.441,0,0,1,55,72.842c.323.078.254.6-.069.513Z" fill="#14301d"/>
            <path id="Path_909272" data-name="Path 909272" d="M50.468,69.357a4.25,4.25,0,0,0-.96.2,4.784,4.784,0,0,0-.462.185c-.078.037-.152.074-.231.114a.5.5,0,0,0-.055.033c.032-.018-.009,0-.018.014a1.044,1.044,0,0,0-.12.074.267.267,0,0,1-.365-.055.263.263,0,0,1,.055-.365,4.891,4.891,0,0,1,2.1-.716.261.261,0,0,1,.065.517Z" fill="#14301d"/>
            <path id="Path_909273" data-name="Path 909273" d="M52.892,65.951s-.051.065-.028.023c0,0-.023.065-.018.042s0,.074,0,.037V66.1c0,.055-.014-.014.009.037.009.018.018.042.028.06s-.009-.009.014.023a.365.365,0,0,0,.046.065.962.962,0,0,0,.448.356s.079.028.046.018.037.009.042.009a.779.779,0,0,0,.152.018h.023a.353.353,0,0,0,.065,0,.371.371,0,0,0,.074-.014c-.042.009.028-.009.032-.014s.042-.014.06-.023.051-.028.023-.009a.642.642,0,0,0,.06-.042c.037-.028,0,0,.014-.014a.208.208,0,0,0,.037-.051c-.032.042,0-.014.009-.023.009-.028.009-.028,0-.009s0,.014,0-.014c0,.051-.009-.037,0,.014a.259.259,0,0,1,.48-.194.7.7,0,0,1-.406.808,1.155,1.155,0,0,1-.877.046,1.5,1.5,0,0,1-.748-.591.75.75,0,0,1-.009-.928.267.267,0,0,1,.365-.042.263.263,0,0,1,.042.365Z" fill="#14301d"/>
            <path id="Path_909274" data-name="Path 909274" d="M53.894,69.441a1.614,1.614,0,0,0-.023.208V69.7a.948.948,0,0,0,.009.106.838.838,0,0,0,.018.1c0,.031-.009-.023,0,0a.331.331,0,0,1,.014.051,1.741,1.741,0,0,0,.083.194c-.009-.023-.014-.023,0,0a.524.524,0,0,0,.037.055.651.651,0,0,0,.069.088.214.214,0,0,0,.028.032c.046.055-.037-.032.014.018.023.023.051.046.074.069s.06.046.088.069l.046.032c.06.037-.028-.014.009,0a1.535,1.535,0,0,0,.217.092.263.263,0,0,1,.139.342.268.268,0,0,1-.342.139,1.54,1.54,0,0,1-1-1.732.259.259,0,1,1,.513.069Z" fill="#14301d"/>
            <path id="Path_909275" data-name="Path 909275" d="M54.227,70.831a.654.654,0,0,0,0,.4.9.9,0,0,0,.24.383,1.443,1.443,0,0,0,1.094.291c.332-.028.4.489.065.517a1.929,1.929,0,0,1-1.524-.439,1.277,1.277,0,0,1-.346-1.349A.262.262,0,0,1,54.1,70.5a.268.268,0,0,1,.139.342Z" fill="#14301d"/>
            <path id="Path_909276" data-name="Path 909276" d="M53.635,73.116c-.042.018.032-.032-.014.009s.009-.023-.023.018l-.042.055c0,.009-.042.069-.018.023a1.354,1.354,0,0,0-.065.139.162.162,0,0,1-.014.046c0-.023.009-.028,0-.009l-.014.069V73.5a.3.3,0,0,0,0,.06c-.009-.055,0,0,.014.018,0-.009.023.042.028.046a.505.505,0,0,0,.111.115,1.3,1.3,0,0,0,.134.1,1.529,1.529,0,0,0,.776.259.639.639,0,0,0,.536-.268.262.262,0,0,1,.365-.042.267.267,0,0,1,.042.365,1.316,1.316,0,0,1-1.6.323c-.485-.2-1.053-.586-.9-1.182a.952.952,0,0,1,.485-.66.259.259,0,0,1,.194.48Z" fill="#14301d"/>
            <path id="Path_909277" data-name="Path 909277" d="M55.215,71.376a8.57,8.57,0,0,0-6.7.342c-.3.143-.494-.342-.194-.48a9.087,9.087,0,0,1,7.1-.332c.314.12.106.6-.2.476Z" fill="#14301d"/>
            <path id="Path_909278" data-name="Path 909278" d="M50.735,63.452c-.508,1.293-3.694,18.24-2.073,19.154,1.547.873,14.454.476,22.576-1.939,3.542-1.053,3.588-18.434,3.588-18.434-.535-2.679-23.652.11-24.091,1.219" fill="#14301d"/>
            <path id="Path_909279" data-name="Path 909279" d="M73.243,64.537a6.7,6.7,0,0,1,3.86,3.4c.633,1.432-.831,1.251-.831,1.251a1.518,1.518,0,0,1,.144,2.142,1.486,1.486,0,0,1-.3.264s.984,1.011-.48,2.009c0,0,.489,2.664-2.041,2.535l.194-.453s-2.106-.5-2-1.431a1.471,1.471,0,0,1,.891-1.2s-1.413-.466-1.376-1.205.24-1.547,1.376-1.45c0,0-1.519-.831-1.108-1.644s1.076-.9,2.147-.554,1.695.489,1.695.489-2.23-1.866-2.909-2.438a.958.958,0,0,1,.734-1.7Z" fill="#f7aa89"/>
            <path id="Path_909280" data-name="Path 909280" d="M72.375,73.426a4.184,4.184,0,0,1,1.533.065,4.343,4.343,0,0,1,.72.231c.115.051.231.106.337.166.046.023.088.06.134.083a.13.13,0,0,1,.037.037c-.009-.051-.009-.046-.014,0a.3.3,0,0,0,.6,0c.037-.346-.282-.554-.55-.693a4.694,4.694,0,0,0-.951-.369,4.96,4.96,0,0,0-2-.106.3.3,0,0,0,.157.573Z" fill="#14301d"/>
            <path id="Path_909281" data-name="Path 909281" d="M71.414,70.572c1.718-.092,3.768-.166,4.969,1.307.24.3.66-.125.42-.42-1.3-1.6-3.519-1.579-5.389-1.482-.383.018-.383.614,0,.6Z" fill="#14301d"/>
            <path id="Path_909282" data-name="Path 909282" d="M73.9,68.236a9.517,9.517,0,0,1,1.579.443,6.245,6.245,0,0,1,.693.3c.171.088.379.208.369.425-.014.383.582.383.6,0,.028-.7-.72-.984-1.251-1.2a9.6,9.6,0,0,0-1.824-.54.3.3,0,1,0-.157.573Z" fill="#14301d"/>
            <path id="Path_909283" data-name="Path 909283" d="M50.44,81.738a71.359,71.359,0,0,1,1.847-17.2l-.208.208A76.443,76.443,0,0,1,67.6,62.719,44.265,44.265,0,0,1,74.281,63c.379.046.374-.549,0-.6-6.848-.854-13.964.046-20.688,1.408-.559.115-1.117.231-1.676.36a.3.3,0,0,0-.208.208A72.261,72.261,0,0,0,49.843,81.73a.3.3,0,0,0,.6,0Z" fill="#43922c"/>
            <path id="Path_909284" data-name="Path 909284" d="M63.185,67.391a1.055,1.055,0,1,0,1.561-.7,1.243,1.243,0,0,0-1.561.7" fill="#fff"/>
          </g>
        </g>
      </g>
    </g>
  </g>
</svg>
