<svg xmlns="http://www.w3.org/2000/svg" width="295" height="214.904" viewBox="0 0 295 214.904">
  <g id="Group_1120632" data-name="Group 1120632" transform="translate(-973.289 -1352.096)">
    <rect id="Rectangle_409117" data-name="Rectangle 409117" width="295" height="209" transform="translate(973.289 1358)" fill="none"/>
    <g id="Character" transform="translate(1009.583 1352.091)">
      <g id="Group_1120833" data-name="Group 1120833" transform="translate(-0.005 0.005)">
        <g id="Floor" transform="translate(0 82.115)">
          <path id="Path_907501" data-name="Path 907501" d="M196.312,191.282c44.911,25.93,44.911,67.969,0,93.894s-117.722,25.93-162.633,0-44.911-67.969,0-93.894S151.4,165.353,196.312,191.282Z" transform="translate(0.005 -171.835)" fill="#b9bfe2"/>
        </g>
        <g id="Shadow" transform="translate(154.959 164.632)">
          <path id="Path_907502" data-name="Path 907502" d="M363.588,348.4c9,5.195,9,13.615,0,18.809s-23.583,5.195-32.582,0-9-13.615,0-18.809,23.583-5.195,32.582,0Z" transform="translate(-324.258 -344.508)" fill="#b9bfe2"/>
        </g>
        <g id="Shadow-2" data-name="Shadow" transform="translate(8.536 94.94)">
          <path id="Path_907503" data-name="Path 907503" d="M37.547,275.711,18.657,264.806a1.175,1.175,0,0,1,0-2.227l109.884-63.444a4.252,4.252,0,0,1,3.857,0l18.891,10.905a1.175,1.175,0,0,1,0,2.227L41.4,275.711A4.252,4.252,0,0,1,37.547,275.711Z" transform="translate(-17.858 -198.673)" fill="#b9bfe2"/>
        </g>
        <g id="Monitor" transform="translate(22.568)">
          <g id="Group_1120755" data-name="Group 1120755" transform="translate(45.485 105.065)">
            <path id="Path_907504" data-name="Path 907504" d="M170.48,267.333l16.238-9.39c1.673-.965,2.509-2.232,2.509-3.5s0-2.26,0-2.26l-16.85-9.5a3.569,3.569,0,0,1-1.615-2.8V219.86L142.4,236.251v20.023a3.569,3.569,0,0,0,1.615,2.8l14.332,8.258a13.413,13.413,0,0,0,12.124,0Z" transform="translate(-142.4 -219.86)" fill="#263238"/>
            <path id="Path_907505" data-name="Path 907505" d="M149.215,274.33v2.251l-5.2-3a3.567,3.567,0,0,1-1.615-2.8V250.766l5.4-3.116c.11,1.372.234,2.791.344,4.172l-3.79,2.193v15.641a3.542,3.542,0,0,0,1.615,2.8l3.24,1.878Z" transform="translate(-142.4 -234.37)"/>
            <path id="Path_907506" data-name="Path 907506" d="M146.5,258.692a3.569,3.569,0,0,0,1.615,2.8l12.377,7.13a13.4,13.4,0,0,0,12.124,0l16.248-9.39c3.35-1.931,3.35-5.066,0-7L176.482,245.1a3.569,3.569,0,0,1-1.615-2.8V226.65L146.5,243.041v15.646Z" transform="translate(-144.541 -223.405)" fill="#37474f"/>
            <path id="Path_907507" data-name="Path 907507" d="M179.775,247.008h0l-3.293-1.9a3.569,3.569,0,0,1-1.615-2.8V226.66L146.5,243.051V258.7a3.569,3.569,0,0,0,1.615,2.8l3.235,1.868,28.424-16.358Z" transform="translate(-144.541 -223.41)" fill="#263238"/>
            <path id="Path_907508" data-name="Path 907508" d="M213.589,287.5v2.26c0,1.271-.841,2.528-2.509,3.5l-16.243,9.386a12.179,12.179,0,0,1-5.787,1.438v-2.251a12.138,12.138,0,0,0,5.787-1.438L211.08,291C212.753,290.038,213.589,288.766,213.589,287.5Z" transform="translate(-166.757 -255.176)" fill="#455a64"/>
          </g>
          <path id="Path_907509" data-name="Path 907509" d="M49.122,159.8a4.343,4.343,0,0,0,3.919-.072c13.945-8.052,95.758-55.286,109.7-63.334a4.464,4.464,0,0,0,2.021-3.5V3.864a4.327,4.327,0,0,0-1.9-3.426,4.343,4.343,0,0,0-3.919.072L49.251,63.843a4.464,4.464,0,0,0-2.021,3.5v89.034A4.323,4.323,0,0,0,49.122,159.8Z" transform="translate(-47.225 -0.005)" fill="#455a64"/>
          <path id="Path_907510" data-name="Path 907510" d="M57.181,162.365l109.7-63.334a4.464,4.464,0,0,0,2.021-3.5V6.494c0-1.29-.9-1.811-2.021-1.166L57.181,68.661a4.464,4.464,0,0,0-2.021,3.5v89.034c0,1.29.9,1.811,2.021,1.166Z" transform="translate(-51.366 -2.639)" fill="#d4e157"/>
          <path id="Path_907511" data-name="Path 907511" d="M57.181,162.365l109.7-63.334a4.464,4.464,0,0,0,2.021-3.5V6.494c0-1.29-.9-1.811-2.021-1.166L57.181,68.661a4.464,4.464,0,0,0-2.021,3.5v89.034c0,1.29.9,1.811,2.021,1.166Z" transform="translate(-51.366 -2.639)" fill="#37474f"/>
          <path id="Path_907512" data-name="Path 907512" d="M52.745,326.393a4.343,4.343,0,0,1-3.622-.076,4.333,4.333,0,0,1-1.892-3.436V314.8l3.79,2.193v8.081c0,1.176.745,1.706,1.725,1.314Z" transform="translate(-47.225 -164.365)" fill="#263238"/>
          <path id="Path_907513" data-name="Path 907513" d="M55.15,247.635v8.076c0,1.29.908,1.811,2.026,1.166l109.7-63.334a4.464,4.464,0,0,0,2.021-3.5v-8.1Z" transform="translate(-51.36 -95.001)" fill="#37474f"/>
          <g id="Group_1120756" data-name="Group 1120756" transform="translate(3.794 86.953)" opacity="0.2">
            <path id="Path_907514" data-name="Path 907514" d="M55.16,247.626v8.1c0,1.29.9,1.811,2.021,1.166l109.7-63.334a4.464,4.464,0,0,0,2.021-3.5v-8.1Z" transform="translate(-55.16 -181.96)"/>
          </g>
          <path id="Path_907515" data-name="Path 907515" d="M63.09,151.926V80.215a2.671,2.671,0,0,1,1.214-2.1l103.734-59.9c.669-.387,1.214-.072,1.214.7V90.633a2.666,2.666,0,0,1-1.209,2.1L64.3,152.619c-.669.387-1.214.072-1.214-.7Z" transform="translate(-55.506 -9.428)" fill="#d4e157"/>
          <g id="Group_1120757" data-name="Group 1120757" transform="translate(7.584 8.625)" opacity="0.3">
            <path id="Path_907516" data-name="Path 907516" d="M63.09,151.926V80.215a2.671,2.671,0,0,1,1.214-2.1l103.734-59.9c.669-.387,1.214-.072,1.214.7V90.633a2.666,2.666,0,0,1-1.209,2.1L64.3,152.619c-.669.387-1.214.072-1.214-.7Z" transform="translate(-63.09 -18.053)"/>
          </g>
          <path id="Path_907517" data-name="Path 907517" d="M172.087,255.766a4.2,4.2,0,0,0-1.9,3.283c0,1.209.851,1.7,1.9,1.094a4.2,4.2,0,0,0,1.9-3.283C173.984,255.651,173.134,255.159,172.087,255.766Z" transform="translate(-111.425 -133.406)" fill="#455a64"/>
          <path id="Path_907518" data-name="Path 907518" d="M51.607,138.924a4.3,4.3,0,0,0-.6,2v83.113l-3.79-2.193v-83.1a4.193,4.193,0,0,1,.6-2Z" transform="translate(-47.22 -71.397)" fill="#263238"/>
        </g>
        <g id="Window" transform="translate(43.595 3.325)">
          <g id="Window-2" data-name="Window">
            <path id="Path_907519" data-name="Path 907519" d="M203.017,7.072a1,1,0,0,0-1.032.081L92.655,70.3a3.125,3.125,0,0,0-1.415,2.452v73.709a1.382,1.382,0,0,0,.6,1.233c.229.124,1.448.832,1.811,1.027a.814.814,0,0,0,.822-.048L203.8,85.5a3.123,3.123,0,0,0,1.419-2.452V9a.983.983,0,0,0-.44-.932c-.253-.134-1.5-.836-1.754-.994Z" transform="translate(-91.23 -6.963)" fill="#d4e157"/>
            <g id="Group_1120759" data-name="Group 1120759" transform="translate(0.005 1.022)">
              <g id="Group_1120758" data-name="Group 1120758" transform="translate(1.811)">
                <path id="Path_907520" data-name="Path 907520" d="M96.232,149.945c-.392,0-.712-.487-.712-1.08V75.156a2.913,2.913,0,0,1,1.3-2.246L206.15,9.762a1.059,1.059,0,0,1,.511-.162c.339,0,.545.287.545.774V84.427a2.9,2.9,0,0,1-1.3,2.241L96.581,149.835a.682.682,0,0,1-.349.105Z" transform="translate(-95.281 -9.361)" fill="#fafafa"/>
                <path id="Path_907521" data-name="Path 907521" d="M206.4,9.578h0c.268,0,.306.335.306.535V84.171a2.638,2.638,0,0,1-1.18,2.036L96.2,149.373a.485.485,0,0,1-.229.072c-.253,0-.473-.392-.473-.841V74.895a2.655,2.655,0,0,1,1.176-2.041L206.008,9.712a.826.826,0,0,1,.392-.129m0-.483a1.286,1.286,0,0,0-.631.191L96.435,72.439A3.125,3.125,0,0,0,95.02,74.89V148.6c0,.712.4,1.319.951,1.319a.921.921,0,0,0,.468-.139l109.33-63.166a3.123,3.123,0,0,0,1.419-2.452V10.113c0-.64-.32-1.013-.784-1.013h0Z" transform="translate(-95.02 -9.1)" fill="#e0e0e0"/>
              </g>
              <path id="Path_907522" data-name="Path 907522" d="M91.827,224.584c.153.081,1.252.707,1.735.984a1.441,1.441,0,0,1-.521-1.19V155.3L91.23,154.24v69.111a1.368,1.368,0,0,0,.6,1.228Z" transform="translate(-91.23 -84.88)" fill="#f0f0f0"/>
            </g>
            <g id="Group_1120762" data-name="Group 1120762">
              <path id="Path_907523" data-name="Path 907523" d="M207.184,10.107c0-.894-.636-1.257-1.415-.808L96.435,72.442a3.125,3.125,0,0,0-1.415,2.452v4.631L207.184,14.752V10.1Z" transform="translate(-93.204 -8.082)" fill="#d4e157"/>
              <g id="Group_1120760" data-name="Group 1120760" transform="translate(0.435)" opacity="0.4">
                <path id="Path_907524" data-name="Path 907524" d="M204.26,8.18,94.93,71.322a2.941,2.941,0,0,0-1,1.051l-1.8-1.042a2.81,2.81,0,0,1,.984-1.032L202.449,7.152a1,1,0,0,1,1.027-.086c.253.158,1.429.822,1.73.984a1.029,1.029,0,0,0-.951.124Z" transform="translate(-92.13 -6.962)" fill="#fff"/>
              </g>
              <g id="Group_1120761" data-name="Group 1120761" transform="translate(0 64.375)" opacity="0.15">
                <path id="Path_907525" data-name="Path 907525" d="M91.225,147.687v-4.6a2.91,2.91,0,0,1,.43-1.415l1.8,1.037a2.854,2.854,0,0,0-.425,1.4v4.631l-1.811-1.056Z" transform="translate(-91.22 -141.67)"/>
              </g>
            </g>
            <g id="Group_1120768" data-name="Group 1120768" transform="translate(0.005 6.67)">
              <path id="Path_907526" data-name="Path 907526" d="M95.02,85.7v8.339L207.184,29.278V20.92Z" transform="translate(-93.209 -20.92)" fill="#ebebeb"/>
              <g id="Group_1120767" data-name="Group 1120767" transform="translate(6.48 4.616)">
                <path id="Path_907527" data-name="Path 907527" d="M104.795,150.617l7.249-4.167v4.158L104.79,154.8Z" transform="translate(-104.79 -91.078)" fill="#e0e0e0"/>
                <g id="Group_1120763" data-name="Group 1120763" transform="translate(9.046 45.958)">
                  <path id="Path_907528" data-name="Path 907528" d="M123.72,141.958V143.6l3.622-2.088V139.87Z" transform="translate(-123.72 -133.6)" fill="#e0e0e0"/>
                  <path id="Path_907529" data-name="Path 907529" d="M123.72,147.268v1.644l3.622-2.088V145.18Z" transform="translate(-123.72 -136.373)" fill="#e0e0e0"/>
                  <path id="Path_907530" data-name="Path 907530" d="M135.08,135.4v1.644l3.618-2.088V133.31Z" transform="translate(-129.651 -130.175)" fill="#e0e0e0"/>
                  <path id="Path_907531" data-name="Path 907531" d="M135.08,140.708v1.644l3.618-2.088V138.62Z" transform="translate(-129.651 -132.948)" fill="#e0e0e0"/>
                  <path id="Path_907532" data-name="Path 907532" d="M146.44,128.843v1.639l3.618-2.088V126.75Z" transform="translate(-135.583 -126.75)" fill="#e0e0e0"/>
                  <path id="Path_907533" data-name="Path 907533" d="M146.44,134.153v1.639l3.618-2.088V132.06Z" transform="translate(-135.583 -129.522)" fill="#e0e0e0"/>
                </g>
                <g id="Group_1120764" data-name="Group 1120764" transform="translate(36.18 30.293)">
                  <path id="Path_907534" data-name="Path 907534" d="M180.5,109.178l0,1.644,3.618-2.088V107.09Z" transform="translate(-180.5 -100.82)" fill="#e0e0e0"/>
                  <path id="Path_907535" data-name="Path 907535" d="M180.5,114.488l0,1.644,3.618-2.088V112.4Z" transform="translate(-180.5 -103.593)" fill="#e0e0e0"/>
                  <path id="Path_907536" data-name="Path 907536" d="M191.86,102.618v1.644l3.618-2.088V100.53Z" transform="translate(-186.431 -97.395)" fill="#e0e0e0"/>
                  <path id="Path_907537" data-name="Path 907537" d="M191.86,107.928v1.644l3.618-2.088V105.84Z" transform="translate(-186.431 -100.168)" fill="#e0e0e0"/>
                  <path id="Path_907538" data-name="Path 907538" d="M203.22,96.058V97.7l3.618-2.088V93.97Z" transform="translate(-192.363 -93.97)" fill="#e0e0e0"/>
                  <path id="Path_907539" data-name="Path 907539" d="M203.22,101.368v1.644l3.618-2.088V99.28Z" transform="translate(-192.363 -96.742)" fill="#e0e0e0"/>
                </g>
                <path id="Path_907540" data-name="Path 907540" d="M157.79,118.863l9.046-5.223v4.181l-9.046,5.218Z" transform="translate(-132.462 -73.947)" fill="#e0e0e0"/>
                <path id="Path_907541" data-name="Path 907541" d="M214.58,87.237l7.254-4.167v4.158l-7.254,4.186Z" transform="translate(-162.113 -57.986)" fill="#e0e0e0"/>
                <g id="Group_1120765" data-name="Group 1120765" transform="translate(61.513 15.67)">
                  <path id="Path_907542" data-name="Path 907542" d="M233.51,78.578v1.644l3.618-2.088V76.49Z" transform="translate(-233.51 -70.22)" fill="#e0e0e0"/>
                  <path id="Path_907543" data-name="Path 907543" d="M233.51,83.888v1.644l3.618-2.088V81.8Z" transform="translate(-233.51 -72.993)" fill="#e0e0e0"/>
                  <path id="Path_907544" data-name="Path 907544" d="M244.87,72.018v1.644l3.618-2.088V69.93Z" transform="translate(-239.441 -66.795)" fill="#e0e0e0"/>
                  <path id="Path_907545" data-name="Path 907545" d="M244.87,77.328v1.644l3.618-2.088V75.24Z" transform="translate(-239.441 -69.568)" fill="#e0e0e0"/>
                  <path id="Path_907546" data-name="Path 907546" d="M256.22,65.458V67.1l3.622-2.088V63.37Z" transform="translate(-245.367 -63.37)" fill="#e0e0e0"/>
                  <path id="Path_907547" data-name="Path 907547" d="M256.22,70.768v1.644l3.622-2.088V68.68Z" transform="translate(-245.367 -66.142)" fill="#e0e0e0"/>
                </g>
                <g id="Group_1120766" data-name="Group 1120766" transform="translate(88.647)">
                  <path id="Path_907548" data-name="Path 907548" d="M290.29,45.788v1.644l3.622-2.088V43.7Z" transform="translate(-290.29 -37.43)" fill="#e0e0e0"/>
                  <path id="Path_907549" data-name="Path 907549" d="M290.29,51.1v1.644l3.622-2.088V49.01Z" transform="translate(-290.29 -40.203)" fill="#e0e0e0"/>
                  <path id="Path_907550" data-name="Path 907550" d="M301.65,39.228v1.644l3.618-2.088V37.14Z" transform="translate(-296.221 -34.005)" fill="#e0e0e0"/>
                  <path id="Path_907551" data-name="Path 907551" d="M301.65,44.538v1.644l3.618-2.088V42.45Z" transform="translate(-296.221 -36.778)" fill="#e0e0e0"/>
                  <path id="Path_907552" data-name="Path 907552" d="M313.01,32.668v1.644l3.618-2.088V30.58Z" transform="translate(-302.152 -30.58)" fill="#e0e0e0"/>
                  <path id="Path_907553" data-name="Path 907553" d="M313.01,37.978v1.644l3.618-2.088V35.89Z" transform="translate(-302.152 -33.352)" fill="#e0e0e0"/>
                </g>
                <path id="Path_907554" data-name="Path 907554" d="M267.58,55.483l9.046-5.223v4.177L267.58,59.66Z" transform="translate(-189.786 -40.855)" fill="#e0e0e0"/>
              </g>
              <path id="Path_907555" data-name="Path 907555" d="M93.041,155.311,91.23,154.25v8.358l1.811,1.042Z" transform="translate(-91.23 -90.534)" fill="#e0e0e0"/>
            </g>
            <g id="Group_1120769" data-name="Group 1120769" transform="translate(85.034 5.966)">
              <path id="Path_907556" data-name="Path 907556" d="M269.16,33.579v.306c0,.492.344.693.769.444l21.978-12.688a1.7,1.7,0,0,0,.769-1.338V20c0-.492-.344-.693-.769-.444L269.929,32.241A1.7,1.7,0,0,0,269.16,33.579Z" transform="translate(-269.16 -19.447)" fill="#f5f5f5"/>
              <path id="Path_907557" data-name="Path 907557" d="M314.418,20.314v-.306c0-.492-.344-.693-.769-.444L310.8,21.207h0V23.3h0l2.848-1.644A1.7,1.7,0,0,0,314.418,20.314Z" transform="translate(-290.901 -19.452)" fill="#455a64"/>
            </g>
          </g>
          <g id="Spreadsheets" transform="translate(3.403 17.776)">
            <path id="Path_907558" data-name="Path 907558" d="M98.81,107.64,207.356,44.98v4.167l-99.5,57.451,0,54.316-9.037,5.219Z" transform="translate(-98.585 -44.588)" fill="#f0f0f0"/>
            <path id="Path_907559" data-name="Path 907559" d="M117.73,168.218,126.767,163v4.167L117.73,172.4Z" transform="translate(-108.464 -106.208)" fill="#d4e157"/>
            <path id="Path_907560" data-name="Path 907560" d="M117.73,238.148l9.037-5.218V237.1l-9.037,5.223Z" transform="translate(-108.464 -142.72)" fill="#d4e157"/>
            <g id="Group_1120771" data-name="Group 1120771" transform="translate(9.266 94.391)">
              <path id="Path_907561" data-name="Path 907561" d="M117.73,246.9l9.037-5.218v4.167l-9.037,5.228Z" transform="translate(-117.73 -241.68)" fill="#d4e157"/>
              <g id="Group_1120770" data-name="Group 1120770" opacity="0.8">
                <path id="Path_907562" data-name="Path 907562" d="M117.73,246.9l9.037-5.218v4.167l-9.037,5.228Z" transform="translate(-117.73 -241.68)" fill="#fff"/>
              </g>
            </g>
            <g id="Group_1120773" data-name="Group 1120773" transform="translate(63.534 58.875)">
              <path id="Path_907563" data-name="Path 907563" d="M231.29,172.579l9.037-5.218v4.172l-9.037,5.223Z" transform="translate(-231.29 -167.36)" fill="#d4e157"/>
              <g id="Group_1120772" data-name="Group 1120772" opacity="0.3">
                <path id="Path_907564" data-name="Path 907564" d="M231.29,172.579l9.037-5.218v4.172l-9.037,5.223Z" transform="translate(-231.29 -167.36)"/>
              </g>
            </g>
            <g id="Group_1120775" data-name="Group 1120775" transform="translate(63.534 63.057)">
              <path id="Path_907565" data-name="Path 907565" d="M231.29,181.328l9.037-5.218v4.167l-9.037,5.228Z" transform="translate(-231.29 -176.11)" fill="#d4e157"/>
              <g id="Group_1120774" data-name="Group 1120774" opacity="0.4">
                <path id="Path_907566" data-name="Path 907566" d="M231.29,181.328l9.037-5.218v4.167l-9.037,5.228Z" transform="translate(-231.29 -176.11)"/>
              </g>
            </g>
            <g id="Group_1120777" data-name="Group 1120777" transform="translate(63.534 67.233)">
              <path id="Path_907567" data-name="Path 907567" d="M231.29,190.068l9.037-5.218v4.167l-9.037,5.228Z" transform="translate(-231.29 -184.85)" fill="#d4e157"/>
              <g id="Group_1120776" data-name="Group 1120776" opacity="0.5">
                <path id="Path_907568" data-name="Path 907568" d="M231.29,190.068l9.037-5.218v4.167l-9.037,5.228Z" transform="translate(-231.29 -184.85)"/>
              </g>
            </g>
            <g id="Group_1120779" data-name="Group 1120779" transform="translate(63.534 71.41)">
              <path id="Path_907569" data-name="Path 907569" d="M231.29,198.808l9.037-5.218v4.172l-9.037,5.223Z" transform="translate(-231.29 -193.59)" fill="#d4e157"/>
              <g id="Group_1120778" data-name="Group 1120778" opacity="0.3">
                <path id="Path_907570" data-name="Path 907570" d="M231.29,198.808l9.037-5.218v4.172l-9.037,5.223Z" transform="translate(-231.29 -193.59)"/>
              </g>
            </g>
            <path id="Path_907571" data-name="Path 907571" d="M212.37,113.568l9.042-5.218v20.888l-9.042,5.228Z" transform="translate(-157.877 -77.675)" fill="#d4e157"/>
            <path id="Path_907572" data-name="Path 907572" d="M212.37,166.028l9.042-5.218v29.246l-9.042,5.228Z" transform="translate(-157.877 -105.065)" fill="#d4e157"/>
            <g id="Group_1120781" data-name="Group 1120781" transform="translate(18.303 76.633)">
              <path id="Path_907573" data-name="Path 907573" d="M136.64,209.739l9.037-5.218v4.167l-9.037,5.228Z" transform="translate(-136.64 -204.52)" fill="#d4e157"/>
              <g id="Group_1120780" data-name="Group 1120780" opacity="0.3">
                <path id="Path_907574" data-name="Path 907574" d="M136.64,209.739l9.037-5.218v4.167l-9.037,5.228Z" transform="translate(-136.64 -204.52)"/>
              </g>
            </g>
            <g id="Group_1120783" data-name="Group 1120783" transform="translate(36.405 45.298)">
              <path id="Path_907575" data-name="Path 907575" d="M174.52,144.168l9.037-5.218v4.167l-9.037,5.228Z" transform="translate(-174.52 -138.95)" fill="#d4e157"/>
              <g id="Group_1120782" data-name="Group 1120782" opacity="0.6">
                <path id="Path_907576" data-name="Path 907576" d="M174.52,144.168l9.037-5.218v4.167l-9.037,5.228Z" transform="translate(-174.52 -138.95)" fill="#fff"/>
              </g>
            </g>
            <g id="Group_1120785" data-name="Group 1120785" transform="translate(81.637 44.257)">
              <path id="Path_907577" data-name="Path 907577" d="M269.17,141.984l9.037-5.214v4.167l-9.037,5.223Z" transform="translate(-269.17 -136.77)" fill="#d4e157"/>
              <g id="Group_1120784" data-name="Group 1120784" opacity="0.8">
                <path id="Path_907578" data-name="Path 907578" d="M269.17,141.984l9.037-5.214v4.167l-9.037,5.223Z" transform="translate(-269.17 -136.77)" fill="#fff"/>
              </g>
            </g>
            <path id="Path_907579" data-name="Path 907579" d="M269.17,159.479l9.037-5.218v4.167l-9.037,5.228Z" transform="translate(-187.533 -101.645)" fill="#d4e157"/>
            <path id="Path_907580" data-name="Path 907580" d="M98.45,107.021l-.11.062v59.009l108.881-62.865.11-.062v-59Zm108.436-8.277-8.6,4.965v-3.665l8.6-4.965Zm-108.1,12.779,8.6-4.965v3.665l-8.6,4.965Zm53.829-6.007v3.665l-8.6,4.965v-3.665Zm-8.6,4.454V106.3l8.6-4.965V105Zm9.042-4.712,8.6-4.965v3.665l-8.6,4.965Zm0-.511v-3.665l8.6-4.965v3.665Zm0-4.181V96.9l8.6-4.965V95.6Zm0-4.177V92.722l8.6-4.965v3.665Zm-.444.258-8.6,4.965V97.946l8.6-4.965Zm0,.511v3.665l-8.6,4.965v-3.665Zm-9.046,8.889-8.6,4.965v-3.665l8.6-4.965Zm0,.516v3.665l-8.6,4.965v-3.665Zm0,4.177V114.4l-8.6,4.965V115.7Zm0,4.181v3.665l-8.6,4.965v-3.665Zm.449-.258,8.6-4.965v3.665l-8.6,4.965Zm8.6-.789v3.665l-8.6,4.965v-3.665Zm.444-.258,8.6-4.965v3.665l-8.6,4.965Zm0-.511v-3.665l8.6-4.965v3.665Zm9.046-8.889,8.6-4.965v3.665l-8.6,4.965Zm0-.516v-3.665l8.6-4.965v3.665Zm0-4.177V95.857l8.6-4.965v3.665Zm0-4.177V91.681l8.6-4.965v3.665Zm0-4.181V87.5l8.6-4.965V86.2Zm0-4.181V83.318l8.6-4.965v3.665Zm-.444.258-8.6,4.965V88.541l8.6-4.965Zm-9.046,5.223-8.6,4.965V93.764l8.6-4.965Zm-9.046,5.223-8.6,4.965V98.987l8.6-4.965Zm0,.516v3.665l-8.6,4.965v-3.665Zm-9.046,8.884-8.6,4.965v-3.665l8.6-4.965Zm0,.516v3.665l-8.6,4.965v-3.665Zm0,4.181v3.665l-8.6,4.965V116.75Zm0,4.177v3.665l-8.6,4.965v-3.665Zm0,4.177V123.8l-8.6,4.965V125.1Zm0,4.181v3.665l-8.6,4.965v-3.665Zm.449-.258,8.6-4.965v3.665l-8.6,4.965Zm8.6-.784v3.665l-8.6,4.965v-3.665Zm.449-.258,8.6-4.965v3.665l-8.6,4.965Zm9.042-5.223,8.6-4.965V116.5l-8.6,4.965Zm9.046-5.223,8.6-4.965v3.665l-8.6,4.965Zm0-.511V108.4l8.6-4.965V107.1Zm9.046-8.889,8.6-4.965v3.665l-8.6,4.965Zm0-.516V98.992l8.6-4.965v3.665Zm0-4.177V94.816l8.6-4.965v3.665Zm0-4.181V90.634l8.6-4.965v3.665Zm0-4.177V86.457l8.6-4.965v3.665Zm0-4.181V82.276l8.6-4.965v3.665Zm0-4.177V78.1l8.6-4.965V76.8Zm0-4.181V73.918l8.6-4.965v3.665Zm-.444.258-8.6,4.965V79.141l8.6-4.965Zm-9.046,5.223-8.6,4.965V84.364l8.6-4.965Zm-9.046,5.223-8.6,4.965V89.588l8.6-4.965Zm-9.046,5.223-8.6,4.965V94.811l8.6-4.965Zm-9.046,5.218-8.6,4.965v-3.665l8.6-4.965Zm0,.516v3.665l-8.6,4.965v-3.665Zm-9.046,8.889-8.6,4.965v-3.665l8.6-4.965Zm0,.511v3.665l-8.6,4.965v-3.665Zm0,4.181v3.665l-8.6,4.965v-3.665Zm0,4.177v3.665l-8.6,4.965v-3.665Zm0,4.181v3.665l-8.6,4.965V126.15Zm0,4.177v3.665l-8.6,4.965v-3.665Zm0,4.181v3.665l-8.6,4.965v-3.665Zm0,4.177v3.665l-8.6,4.965v-3.665Zm.449-.253,8.6-4.965v3.665l-8.6,4.965Zm8.6-.789v3.665l-8.6,4.965v-3.665Zm.449-.258,8.6-4.965v3.665l-8.6,4.965Zm9.046-5.223,8.6-4.965V125.9l-8.6,4.965Zm9.042-5.223,8.6-4.965v3.665l-8.6,4.965Zm9.046-5.218,8.6-4.965v3.665l-8.6,4.965Zm9.046-5.223,8.6-4.965v3.665l-8.6,4.965Zm0-.516V107.35l8.6-4.965v3.665Zm9.046-8.889,8.6-4.965v3.665l-8.6,4.965Zm0-.511V97.95l8.6-4.965v3.665Zm0-4.181V93.769l8.6-4.965v3.665Zm0-4.177V89.592l8.6-4.965v3.665Zm0-4.181V85.411l8.6-4.965v3.665Zm0-4.177V81.234l8.6-4.965v3.665Zm0-4.181V77.053l8.6-4.965v3.665Zm0-4.177V72.876l8.6-4.965v3.665Zm0-4.181V68.695l8.6-4.965v3.665Zm0-4.177V64.518l8.6-4.965v3.665Zm-.444.258-8.6,4.965V69.741l8.6-4.965Zm-9.046,5.218-8.6,4.965V74.96l8.6-4.965Zm-9.046,5.223-8.6,4.965V80.183l8.6-4.965Zm-9.046,5.223-8.6,4.965V85.406l8.6-4.965Zm-9.046,5.223-8.6,4.965V90.629l8.6-4.965Zm-9.046,5.223-8.6,4.965V95.853l8.6-4.965Zm-9.046,5.223-8.6,4.965v-3.665l8.6-4.965Zm0,.511v3.665l-8.6,4.965v-3.665Zm-9.042,8.889-8.6,4.965v-3.665l8.6-4.965Zm0,.516v3.665l-8.6,4.965v-3.665Zm0,4.177v3.665l-8.6,4.965v-3.665Zm0,4.181v3.665l-8.6,4.965v-3.665Zm0,4.177v3.665l-8.6,4.965v-3.665Zm0,4.181v3.665l-8.6,4.965v-3.665Zm0,4.177v3.665l-8.6,4.965V135.55Zm0,4.181v3.665l-8.6,4.965v-3.665Zm0,4.177v3.665l-8.6,4.965v-3.665Zm0,4.181v3.665l-8.6,4.965V148.09l8.6-4.965Zm.444-.258,8.6-4.965v3.665l-8.6,4.965Zm8.6-.789v3.665l-8.6,4.965v-3.665l8.6-4.965Zm.449-.253,8.6-4.965v3.665l-8.6,4.965Zm9.046-5.223,8.6-4.965V135.3l-8.6,4.965Zm9.046-5.223,8.6-4.965v3.665l-8.6,4.965Zm9.042-5.223,8.6-4.965v3.665l-8.6,4.965Zm9.046-5.223,8.6-4.965v3.665l-8.6,4.965Zm9.046-5.223,8.6-4.965v3.665l-8.6,4.965Zm9.046-5.223,8.6-4.965v3.665l-8.6,4.965Zm0-.511v-3.665l8.6-4.965v3.665Zm9.046-8.889,8.6-4.965v3.665l-8.6,4.965Zm0-.516V96.9l8.6-4.965V95.6Zm0-4.177V92.727l8.6-4.965v3.665Zm0-4.181V88.546l8.6-4.965v3.665Zm0-4.177V84.369l8.6-4.965v3.665Zm0-4.181V80.188l8.6-4.965v3.665Zm0-4.177V76.011l8.6-4.965v3.665Zm0-4.181V71.829l8.6-4.965V70.53Zm0-4.177V67.653l8.6-4.965v3.665Zm0-4.181V63.471l8.6-4.965v3.665Zm0-4.177V59.295l8.6-4.965v3.665Zm0-4.181V55.118l8.6-4.965v3.661Zm-.444.258L180.2,64V60.341l8.6-4.965Zm-9.046,5.223-8.6,4.965V65.564l8.6-4.965Zm-9.046,5.223-8.6,4.965V70.788l8.6-4.965v3.661Zm-9.046,5.223-8.6,4.965V76.011l8.6-4.965Zm-9.046,5.223-8.6,4.965V81.234l8.6-4.965Zm-9.046,5.223-8.6,4.965V86.457l8.6-4.965Zm-9.046,5.218-8.6,4.965V91.676l8.6-4.965Zm-9.046,5.223-8.6,4.965V96.9l8.6-4.965Zm-9.042,5.223-8.6,4.965v-3.661l8.6-4.965Zm0,.516V105l-8.6,4.965V106.3ZM98.784,115.7l8.6-4.965V114.4l-8.6,4.965Zm0,4.181,8.6-4.965v3.665l-8.6,4.965Zm0,4.177,8.6-4.965v3.665l-8.6,4.965Zm0,4.181,8.6-4.965v3.665l-8.6,4.965Zm0,4.177,8.6-4.965v3.665l-8.6,4.965Zm0,4.181,8.6-4.965V135.3l-8.6,4.965V136.6Zm0,4.177,8.6-4.965v3.665l-8.6,4.965Zm0,4.181,8.6-4.965v3.665l-8.6,4.965Zm0,4.177,8.6-4.965v3.665l-8.6,4.965Zm0,4.181,8.6-4.965v3.665l-8.6,4.965Zm0,4.177,8.6-4.965v3.665l-8.6,4.965Zm9.046-5.223,8.6-4.965v3.665l-8.6,4.965Zm8.6-.784v3.651l-8.6,4.965v-3.651Zm.444-.258,8.6-4.965v3.651l-8.6,4.965ZM125.923,146l8.6-4.965v3.651l-8.6,4.965Zm9.046-5.223,8.6-4.965v3.651l-8.6,4.965Zm9.046-5.223,8.6-4.965v3.651l-8.6,4.965Zm9.042-5.223,8.6-4.965v3.651l-8.6,4.965Zm9.046-5.218,8.6-4.965V123.8l-8.6,4.965Zm9.046-5.223,8.6-4.965v3.651l-8.6,4.965Zm9.046-5.223,8.6-4.965v3.651l-8.6,4.965Zm9.046-5.223,8.6-4.965v3.651l-8.6,4.965Zm0-.516v-3.665l8.6-4.965v3.665Zm17.643-14.365-8.6,4.965V95.862l8.6-4.965Zm0-4.177-8.6,4.965V91.685l8.6-4.965Zm0-4.181-8.6,4.965V87.5l8.6-4.965Zm0-4.177-8.6,4.965V83.327l8.6-4.965v3.665Zm0-4.181-8.6,4.965V79.146l8.6-4.965Zm0-4.177-8.6,4.965V74.969l8.6-4.965Zm0-4.181-8.6,4.965V70.788l8.6-4.965Zm0-4.177-8.6,4.965V66.611l8.6-4.965Zm0-4.181-8.6,4.965V62.429l8.6-4.965Zm0-4.177-8.6,4.965V58.253l8.6-4.965Zm0-4.181-8.6,4.965V54.071l8.6-4.965Zm0-4.177-8.6,4.965V49.9l8.6-4.965V48.6Zm-99.5,53.786v3.661l-8.6,4.965v-3.661Zm-8.6,59.291,8.6-4.965v3.651l-8.6,4.965Zm99.5-53.8V104.22l8.6-4.965v3.651Z" transform="translate(-98.34 -44.16)" fill="#e0e0e0"/>
            <g id="Group_1120788" data-name="Group 1120788" transform="translate(72.332 4.148)">
              <g id="Group_1120786" data-name="Group 1120786">
                <path id="Path_907581" data-name="Path 907581" d="M250.2,74.589,286.4,53.71V74.6L250.2,95.482Z" transform="translate(-249.961 -53.294)" fill="#fafafa"/>
                <path id="Path_907582" data-name="Path 907582" d="M249.7,95.438V74l.119-.067L286.377,52.84V74.287Zm.478-21.165V94.612L285.9,74.01V53.667Z" transform="translate(-249.7 -52.84)" fill="#e0e0e0"/>
              </g>
              <g id="Group_1120787" data-name="Group 1120787" transform="translate(1.891 10.82)">
                <path id="Path_907583" data-name="Path 907583" d="M253.836,102.394a.191.191,0,0,1-.062-.01.181.181,0,0,1-.105-.229l4.893-13.362a.172.172,0,0,1,.11-.105.19.19,0,0,1,.153.014l5.29,3.164,5.338-5.438a.175.175,0,0,1,.225-.024l5.242,3.455,5.343-13.151a.181.181,0,0,1,.105-.1.167.167,0,0,1,.143.01l5.424,2.781a.177.177,0,0,1-.163.315l-5.252-2.69L275.168,90.2a.184.184,0,0,1-.268.086l-5.3-3.493-5.338,5.434a.181.181,0,0,1-.22.029l-5.223-3.125L254,102.284a.185.185,0,0,1-.167.119Z" transform="translate(-253.658 -76.063)" fill="#455a64"/>
                <path id="Path_907584" data-name="Path 907584" d="M263.675,100.847a1.2,1.2,0,0,0-.545.946c0,.349.244.492.545.315a1.211,1.211,0,0,0,.545-.946C264.22,100.814,263.976,100.67,263.675,100.847Z" transform="translate(-258.603 -88.686)" fill="#d4e157"/>
                <path id="Path_907585" data-name="Path 907585" d="M275.025,107.617a1.2,1.2,0,0,0-.545.946c0,.349.244.492.545.315a1.211,1.211,0,0,0,.545-.946C275.57,107.584,275.326,107.44,275.025,107.617Z" transform="translate(-264.529 -92.22)" fill="#d4e157"/>
                <path id="Path_907586" data-name="Path 907586" d="M286.375,96.027a1.2,1.2,0,0,0-.545.946c0,.349.244.492.545.315a1.211,1.211,0,0,0,.545-.946C286.92,95.994,286.676,95.85,286.375,96.027Z" transform="translate(-270.455 -86.169)" fill="#d4e157"/>
                <path id="Path_907587" data-name="Path 907587" d="M297.725,103.5a1.2,1.2,0,0,0-.545.946c0,.349.244.492.545.315a1.211,1.211,0,0,0,.545-.946C298.27,103.464,298.026,103.32,297.725,103.5Z" transform="translate(-276.381 -90.069)" fill="#d4e157"/>
                <path id="Path_907588" data-name="Path 907588" d="M309.075,75.557a1.2,1.2,0,0,0-.545.946c0,.349.244.492.545.315a1.211,1.211,0,0,0,.545-.946C309.62,75.524,309.376,75.38,309.075,75.557Z" transform="translate(-282.307 -75.481)" fill="#d4e157"/>
                <path id="Path_907589" data-name="Path 907589" d="M320.425,81.377a1.2,1.2,0,0,0-.545.946c0,.349.244.492.545.315a1.211,1.211,0,0,0,.545-.946C320.97,81.344,320.726,81.2,320.425,81.377Z" transform="translate(-288.233 -78.52)" fill="#d4e157"/>
              </g>
            </g>
          </g>
        </g>
        <g id="Charts" transform="translate(123.21 102.623)">
          <g id="Group_1120789" data-name="Group 1120789" transform="translate(37.992)">
            <path id="Path_907590" data-name="Path 907590" d="M346.945,214.75l-9.625,5.558,9.625,5.558,9.629-5.558Z" transform="translate(-337.32 -214.75)" fill="#455a64"/>
            <path id="Path_907591" data-name="Path 907591" d="M367.089,226.35v22.107l-9.625,5.558,0-22.093Z" transform="translate(-347.835 -220.807)" fill="#37474f"/>
            <path id="Path_907592" data-name="Path 907592" d="M346.945,231.927l0,22.093-9.629-5.558v-22.1Z" transform="translate(-337.32 -220.812)" fill="#263238"/>
          </g>
          <g id="Group_1120792" data-name="Group 1120792" transform="translate(25.328 16.898)">
            <path id="Path_907593" data-name="Path 907593" d="M320.445,250.11l-9.625,5.553,9.625,5.558,9.629-5.558Z" transform="translate(-310.82 -250.11)" fill="#d4e157"/>
            <g id="Group_1120790" data-name="Group 1120790" opacity="0.3">
              <path id="Path_907594" data-name="Path 907594" d="M320.445,250.11l-9.625,5.553,9.625,5.558,9.629-5.558Z" transform="translate(-310.82 -250.11)" fill="#fff"/>
            </g>
            <path id="Path_907595" data-name="Path 907595" d="M340.589,261.71V274.23l-9.625,5.558,0-12.506Z" transform="translate(-321.335 -256.167)" fill="#d4e157"/>
            <path id="Path_907596" data-name="Path 907596" d="M320.445,267.282l0,12.506-9.629-5.563V261.71Z" transform="translate(-310.82 -256.167)" fill="#d4e157"/>
            <g id="Group_1120791" data-name="Group 1120791" transform="translate(0 5.543)" opacity="0.1">
              <path id="Path_907597" data-name="Path 907597" d="M320.445,267.282l0,12.506-9.629-5.563V261.71Z" transform="translate(-310.82 -261.71)"/>
            </g>
          </g>
          <g id="Group_1120796" data-name="Group 1120796" transform="translate(12.664 19.01)">
            <path id="Path_907598" data-name="Path 907598" d="M293.945,254.53l-9.625,5.558,9.625,5.558,9.629-5.558Z" transform="translate(-284.32 -254.53)" fill="#d4e157"/>
            <g id="Group_1120793" data-name="Group 1120793" opacity="0.88">
              <path id="Path_907599" data-name="Path 907599" d="M293.945,254.53l-9.625,5.558,9.625,5.558,9.629-5.558Z" transform="translate(-284.32 -254.53)" fill="#fff"/>
            </g>
            <path id="Path_907600" data-name="Path 907600" d="M314.089,266.13v17.72l-9.625,5.558,0-17.706Z" transform="translate(-294.835 -260.587)" fill="#d4e157"/>
            <g id="Group_1120794" data-name="Group 1120794" transform="translate(9.625 5.543)" opacity="0.75">
              <path id="Path_907601" data-name="Path 907601" d="M314.089,266.13v17.72l-9.625,5.558,0-17.706Z" transform="translate(-304.46 -266.13)" fill="#fff"/>
            </g>
            <path id="Path_907602" data-name="Path 907602" d="M293.945,271.7l0,17.706-9.629-5.563V266.13Z" transform="translate(-284.32 -260.587)" fill="#d4e157"/>
            <g id="Group_1120795" data-name="Group 1120795" transform="translate(0 5.543)" opacity="0.6">
              <path id="Path_907603" data-name="Path 907603" d="M293.945,271.7l0,17.706-9.629-5.563V266.13Z" transform="translate(-284.32 -266.13)" fill="#fff"/>
            </g>
          </g>
          <g id="Group_1120800" data-name="Group 1120800" transform="translate(0 37.777)">
            <path id="Path_907604" data-name="Path 907604" d="M267.445,293.8l-9.625,5.558,9.629,5.558,9.625-5.558Z" transform="translate(-257.82 -293.8)" fill="#d4e157"/>
            <g id="Group_1120797" data-name="Group 1120797" opacity="0.3">
              <path id="Path_907605" data-name="Path 907605" d="M267.445,293.8l-9.625,5.558,9.629,5.558,9.625-5.558Z" transform="translate(-257.82 -293.8)"/>
            </g>
            <path id="Path_907606" data-name="Path 907606" d="M287.589,305.41v6.26l-9.625,5.553,0-6.246Z" transform="translate(-268.335 -299.862)" fill="#d4e157"/>
            <g id="Group_1120798" data-name="Group 1120798" transform="translate(9.625 5.548)" opacity="0.4">
              <path id="Path_907607" data-name="Path 907607" d="M287.589,305.41v6.26l-9.625,5.553,0-6.246Z" transform="translate(-277.96 -305.41)"/>
            </g>
            <path id="Path_907608" data-name="Path 907608" d="M267.445,310.977l0,6.246-9.629-5.558V305.41Z" transform="translate(-257.82 -299.862)" fill="#d4e157"/>
            <g id="Group_1120799" data-name="Group 1120799" transform="translate(0 5.548)" opacity="0.55">
              <path id="Path_907609" data-name="Path 907609" d="M267.445,310.977l0,6.246-9.629-5.558V305.41Z" transform="translate(-257.82 -305.41)"/>
            </g>
          </g>
        </g>
        <g id="Charts-2" data-name="Charts" transform="translate(61.295 157.568)">
          <g id="Group_1120809" data-name="Group 1120809" transform="translate(0 11.784)">
            <path id="Path_907610" data-name="Path 907610" d="M164.318,364.478v3.641l-3.6-9.782V354.7h0l3.594,9.777Z" transform="translate(-145.207 -354.549)" fill="#263238"/>
            <path id="Path_907611" data-name="Path 907611" d="M168.25,369.537v3.641l14.843-5.147V364.39Z" transform="translate(-149.139 -359.608)" fill="#37474f"/>
            <path id="Path_907612" data-name="Path 907612" d="M160.72,354.535l3.6,9.777,14.843-5.147C175.085,355.61,168,353.832,160.72,354.535Z" transform="translate(-145.207 -354.383)" fill="#455a64"/>
            <path id="Path_907613" data-name="Path 907613" d="M128.27,376.57v0Z" transform="translate(-128.265 -365.967)" fill="#d4e157"/>
            <path id="Path_907614" data-name="Path 907614" d="M145.894,380.619l-2.2,10.37c-9-.879-15.5-5.429-15.421-10.633V376.81c0,5.161,6.485,9.663,15.426,10.537l1.515-7.125.688.4Z" transform="translate(-128.264 -366.093)" fill="#d4e157"/>
            <g id="Group_1120801" data-name="Group 1120801" transform="translate(0.005 10.717)" opacity="0.4">
              <path id="Path_907615" data-name="Path 907615" d="M145.894,380.619l-2.2,10.37c-9-.879-15.5-5.429-15.421-10.633V376.81c0,5.161,6.485,9.663,15.426,10.537l1.515-7.125.688.4Z" transform="translate(-128.269 -376.81)"/>
            </g>
            <g id="Group_1120804" data-name="Group 1120804" transform="translate(6.036 2.799)">
              <path id="Path_907616" data-name="Path 907616" d="M164.065,385.885v3.641a28.725,28.725,0,0,0,10.953-1.5c4.244-1.472,7.24-3.809,8.435-6.58a6.583,6.583,0,0,0,.559-2.542v-3.761a3.868,3.868,0,0,1-2.232-1.367l-2.781.965-12.731,4.416-2.208,6.729Z" transform="translate(-152.987 -367.309)" fill="#d4e157"/>
              <g id="Group_1120802" data-name="Group 1120802" transform="translate(11.073 6.471)" opacity="0.6">
                <path id="Path_907617" data-name="Path 907617" d="M164.065,385.885v3.641a28.725,28.725,0,0,0,10.953-1.5c4.244-1.472,7.24-3.809,8.435-6.58a6.583,6.583,0,0,0,.559-2.542v-3.761a3.868,3.868,0,0,1-2.232-1.367l-2.781.965-12.731,4.416-2.208,6.729Z" transform="translate(-164.06 -373.78)" fill="#fff"/>
              </g>
              <path id="Path_907618" data-name="Path 907618" d="M140.89,363.882l11.063,6.384v-3.641L140.89,360.24Z" transform="translate(-140.89 -360.24)" fill="#d4e157"/>
              <g id="Group_1120803" data-name="Group 1120803" opacity="0.1">
                <path id="Path_907619" data-name="Path 907619" d="M140.89,363.882l11.063,6.384v-3.641L140.89,360.24Z" transform="translate(-140.89 -360.24)"/>
              </g>
            </g>
            <g id="Group_1120807" data-name="Group 1120807" transform="translate(0 0.352)">
              <path id="Path_907620" data-name="Path 907620" d="M128.4,367.607c-1.209,5.692,5.6,10.905,15.287,11.852l2.2-10.37-12.8-7.388c-2.671,1.673-4.21,3.608-4.7,5.907Z" transform="translate(-128.259 -358.556)" fill="#d4e157"/>
              <g id="Group_1120805" data-name="Group 1120805" transform="translate(0 3.144)" opacity="0.3">
                <path id="Path_907621" data-name="Path 907621" d="M128.4,367.607c-1.209,5.692,5.6,10.905,15.287,11.852l2.2-10.37-12.8-7.388c-2.671,1.673-4.21,3.608-4.7,5.907Z" transform="translate(-128.259 -361.7)"/>
              </g>
              <path id="Path_907622" data-name="Path 907622" d="M164.137,381.6l-.067.3a28.725,28.725,0,0,0,10.953-1.5c4.244-1.472,7.24-3.809,8.435-6.58,1.128-2.614.53-5.319-1.673-7.67l-2.781.965-12.731,4.416L164.132,381.6Z" transform="translate(-146.957 -360.879)" fill="#d4e157"/>
              <g id="Group_1120806" data-name="Group 1120806" transform="translate(17.113 5.271)" opacity="0.75">
                <path id="Path_907623" data-name="Path 907623" d="M164.137,381.6l-.067.3a28.725,28.725,0,0,0,10.953-1.5c4.244-1.472,7.24-3.809,8.435-6.58,1.128-2.614.53-5.319-1.673-7.67l-2.781.965-12.731,4.416L164.132,381.6Z" transform="translate(-164.07 -366.15)" fill="#fff"/>
              </g>
              <path id="Path_907624" data-name="Path 907624" d="M140.89,357.567l11.058,6.385-3.25-8.831a22.679,22.679,0,0,0-7.809,2.447Z" transform="translate(-134.854 -355.12)" fill="#d4e157"/>
            </g>
            <path id="Path_907625" data-name="Path 907625" d="M162.743,380.8V377.16l-2.2,10.37v3.641Z" transform="translate(-145.113 -366.276)" fill="#d4e157"/>
            <g id="Group_1120808" data-name="Group 1120808" transform="translate(15.427 10.885)" opacity="0.55">
              <path id="Path_907626" data-name="Path 907626" d="M162.743,380.8V377.16l-2.2,10.37v3.641Z" transform="translate(-160.54 -377.16)"/>
            </g>
          </g>
          <g id="Group_1120814" data-name="Group 1120814" transform="translate(29.328)">
            <g id="Group_1120813" data-name="Group 1120813" transform="translate(0 6.473)">
              <path id="Path_907627" data-name="Path 907627" d="M192.043,343.27l-2.413,1.391,2.413,1.391,2.409-1.391Z" transform="translate(-189.63 -343.27)" fill="#d4e157"/>
              <g id="Group_1120810" data-name="Group 1120810" opacity="0.3">
                <path id="Path_907628" data-name="Path 907628" d="M192.043,343.27l-2.413,1.391,2.413,1.391,2.409-1.391Z" transform="translate(-189.63 -343.27)"/>
              </g>
              <path id="Path_907629" data-name="Path 907629" d="M197.089,346.17v1.4l-2.409,1.391v-1.391Z" transform="translate(-192.267 -344.784)" fill="#d4e157"/>
              <g id="Group_1120811" data-name="Group 1120811" transform="translate(2.413 1.386)" opacity="0.4">
                <path id="Path_907630" data-name="Path 907630" d="M197.089,346.17v1.4l-2.409,1.391v-1.391Z" transform="translate(-194.68 -346.17)"/>
              </g>
              <path id="Path_907631" data-name="Path 907631" d="M192.043,347.565v1.391l-2.413-1.391v-1.4Z" transform="translate(-189.63 -344.784)" fill="#d4e157"/>
              <g id="Group_1120812" data-name="Group 1120812" transform="translate(0 1.386)" opacity="0.55">
                <path id="Path_907632" data-name="Path 907632" d="M192.043,347.565v1.391l-2.413-1.391v-1.4Z" transform="translate(-189.63 -346.17)"/>
              </g>
            </g>
            <path id="Path_907633" data-name="Path 907633" d="M201.917,335.118l8.927-5.152a2.062,2.062,0,0,1,1.869-.033c.5.292.473.769-.057,1.08l-8.927,5.152a2.062,2.062,0,0,1-1.869.033C201.363,335.907,201.387,335.429,201.917,335.118Z" transform="translate(-195.829 -329.725)" fill="#e0e0e0"/>
          </g>
          <g id="Group_1120819" data-name="Group 1120819" transform="translate(34.757 3.135)">
            <g id="Group_1120818" data-name="Group 1120818" transform="translate(0 6.468)">
              <path id="Path_907634" data-name="Path 907634" d="M203.4,349.82l-2.409,1.391L203.4,352.6l2.409-1.391Z" transform="translate(-200.99 -349.82)" fill="#d4e157"/>
              <g id="Group_1120815" data-name="Group 1120815" opacity="0.88">
                <path id="Path_907635" data-name="Path 907635" d="M203.4,349.82l-2.409,1.391L203.4,352.6l2.409-1.391Z" transform="translate(-200.99 -349.82)" fill="#fff"/>
              </g>
              <path id="Path_907636" data-name="Path 907636" d="M208.443,352.73l0,1.4-2.409,1.391v-1.391Z" transform="translate(-203.621 -351.339)" fill="#d4e157"/>
              <g id="Group_1120816" data-name="Group 1120816" transform="translate(2.409 1.391)" opacity="0.75">
                <path id="Path_907637" data-name="Path 907637" d="M208.443,352.73l0,1.4-2.409,1.391v-1.391Z" transform="translate(-206.03 -352.73)" fill="#fff"/>
              </g>
              <path id="Path_907638" data-name="Path 907638" d="M203.4,354.125v1.391l-2.409-1.391v-1.4Z" transform="translate(-200.99 -351.339)" fill="#d4e157"/>
              <g id="Group_1120817" data-name="Group 1120817" transform="translate(0 1.391)" opacity="0.6">
                <path id="Path_907639" data-name="Path 907639" d="M203.4,354.125v1.391l-2.409-1.391v-1.4Z" transform="translate(-200.99 -352.73)" fill="#fff"/>
              </g>
            </g>
            <path id="Path_907640" data-name="Path 907640" d="M213.277,341.678l8.927-5.152a2.062,2.062,0,0,1,1.869-.033c.5.291.473.769-.057,1.08l-8.927,5.152a2.063,2.063,0,0,1-1.869.033C212.723,342.467,212.747,341.989,213.277,341.678Z" transform="translate(-207.189 -336.285)" fill="#e0e0e0"/>
          </g>
          <g id="Group_1120823" data-name="Group 1120823" transform="translate(40.186 6.265)">
            <g id="Group_1120822" data-name="Group 1120822" transform="translate(0 6.473)">
              <path id="Path_907641" data-name="Path 907641" d="M214.759,356.38l-2.409,1.391,2.409,1.391,2.409-1.391Z" transform="translate(-212.35 -356.38)" fill="#d4e157"/>
              <g id="Group_1120820" data-name="Group 1120820" opacity="0.3">
                <path id="Path_907642" data-name="Path 907642" d="M214.759,356.38l-2.409,1.391,2.409,1.391,2.409-1.391Z" transform="translate(-212.35 -356.38)" fill="#fff"/>
              </g>
              <path id="Path_907643" data-name="Path 907643" d="M219.8,359.28v1.4l-2.409,1.391v-1.4Z" transform="translate(-214.981 -357.894)" fill="#d4e157"/>
              <path id="Path_907644" data-name="Path 907644" d="M214.759,360.681v1.4l-2.409-1.391v-1.4Z" transform="translate(-212.35 -357.899)" fill="#d4e157"/>
              <g id="Group_1120821" data-name="Group 1120821" transform="translate(0 1.391)" opacity="0.1">
                <path id="Path_907645" data-name="Path 907645" d="M214.759,360.681v1.4l-2.409-1.391v-1.4Z" transform="translate(-212.35 -359.29)"/>
              </g>
            </g>
            <path id="Path_907646" data-name="Path 907646" d="M224.635,348.228l8.927-5.152a2.062,2.062,0,0,1,1.868-.033c.5.287.473.769-.057,1.08l-8.927,5.152a2.062,2.062,0,0,1-1.868.033C224.076,349.021,224.1,348.539,224.635,348.228Z" transform="translate(-218.547 -342.835)" fill="#e0e0e0"/>
          </g>
          <g id="Group_1120825" data-name="Group 1120825" transform="translate(45.614 9.4)">
            <g id="Group_1120824" data-name="Group 1120824" transform="translate(0 6.473)">
              <path id="Path_907647" data-name="Path 907647" d="M226.119,362.94l-2.409,1.391,2.409,1.391,2.409-1.391Z" transform="translate(-223.71 -362.94)" fill="#455a64"/>
              <path id="Path_907648" data-name="Path 907648" d="M231.159,365.84v1.4l-2.409,1.391v-1.391Z" transform="translate(-226.341 -364.454)" fill="#37474f"/>
              <path id="Path_907649" data-name="Path 907649" d="M226.119,367.235v1.391l-2.409-1.391v-1.4Z" transform="translate(-223.71 -364.454)" fill="#263238"/>
            </g>
            <path id="Path_907650" data-name="Path 907650" d="M236,354.788l8.927-5.152a2.062,2.062,0,0,1,1.869-.033c.5.287.473.769-.057,1.08l-8.927,5.152a2.062,2.062,0,0,1-1.869.033c-.5-.292-.473-.769.057-1.08Z" transform="translate(-229.909 -349.395)" fill="#e0e0e0"/>
          </g>
        </g>
        <g id="Character-2" data-name="Character" transform="translate(149.783 80.736)">
          <g id="Group_1120832" data-name="Group 1120832">
            <path id="Path_907651" data-name="Path 907651" d="M386.825,205.03c3.312-.019,4.884.932,6.079,4.105s4.358,10.442,4.416,12.6c.062,2.241-7.154,9.037-6.9,8.917.081-.038-2.2-4.119-2.2-4.119l4.057-4.975-2.327-6.752-3.135-9.777Z" transform="translate(-351.746 -187.787)" fill="#ffa8a7"/>
            <g id="Group_1120827" data-name="Group 1120827" transform="translate(13.742 37.437)">
              <path id="Path_907652" data-name="Path 907652" d="M385.7,355.335c.2.191.239.382.234,1.09s.291,1.5-.072,2.155a2.246,2.246,0,0,1-2.356.468,7.348,7.348,0,0,1-1.625-1.458,11.654,11.654,0,0,0-1.419-1.372c-.6-.444-1.29-.741-1.912-1.147a3.824,3.824,0,0,1-1.735-2.863,1.866,1.866,0,0,1,.22-1.09,1.231,1.231,0,0,1,1.247-.406,17.351,17.351,0,0,1,3.484,1.749c.664.459,3.718,2.681,3.928,2.882Z" transform="translate(-360.259 -301.276)" fill="#263238"/>
              <path id="Path_907653" data-name="Path 907653" d="M384.635,353.655c-.024.507-2.16-.679-3.035-.564-.01,0-.014.01-.024.01-.812.392-.139,1.534.621,2.117s3.23,2.4,3.23,2.4l.507-2.929-1.3-1.032Z" transform="translate(-362.557 -302.526)" fill="#ffa8a7"/>
              <path id="Path_907654" data-name="Path 907654" d="M354.992,371.555c.4,0,.573,1.3.645,2.3a7.027,7.027,0,0,1,.077,2.6c-.272.569-1.319.922-2.929.894a9.43,9.43,0,0,0-3.8,1.271,5.793,5.793,0,0,1-3.618.454c-1.429-.186-2.906-1.037-3.13-1.634s.076-.879,3.474-2.275a19.405,19.405,0,0,0,5.242-3.345L355,371.55Z" transform="translate(-342.181 -312.167)" fill="#263238"/>
              <path id="Path_907655" data-name="Path 907655" d="M348.2,375.439c-.468.191-.875.363-1.233.516-.091.32.033.832,1.529,1.08,2.289.382,9.008-4.678,9.008-4.678s-.965.268-1.142-.287l-2.92.024a19.406,19.406,0,0,1-5.242,3.345Z" transform="translate(-344.667 -312.439)" fill="#ffa8a7"/>
              <path id="Path_907656" data-name="Path 907656" d="M378.059,284.722a29.215,29.215,0,0,0-.655-6.628s.4-8.535.444-13.9c.091-10.609-.11-12.167-2.456-16.74,0,0-13.7-1.6-14.279,5.075-.717,8.315-1.553,22.231-1.534,26.188.014,2.949.349,6.146.511,12.831.105,4.282.554,10.332-.057,15.4.774,1.3,2.872,1.276,4.067.263.344-4.96,2.805-14.461,3.188-17.777A28.034,28.034,0,0,0,367,282.27s1.816-14.164,2.131-16.32a40.068,40.068,0,0,1,.793,6.92c-.01.941.325,4.1.865,9.4.33,3.23,2.614,15.856,3.111,19.913,1.147,1.109,2.628.344,2.7-.139.382-4.951,1.467-14.236,1.467-17.328Z" transform="translate(-351.265 -247.288)" fill="#ffa8a7"/>
              <g id="Group_1120826" data-name="Group 1120826" transform="translate(17.863 8.961)" opacity="0.15">
                <path id="Path_907657" data-name="Path 907657" d="M379.56,275.746l1.209-6.877a9.409,9.409,0,0,0,5.4-2.829,5.766,5.766,0,0,1-4.287,3.684l-1.415,6.222-.239,5.672-.66-5.873Z" transform="translate(-379.56 -266.04)"/>
              </g>
            </g>
            <path id="Path_907658" data-name="Path 907658" d="M372.37,199.1l.573,6.236L378.42,205,378,198.09Z" transform="translate(-344.201 -184.164)" fill="#ffa8a7"/>
            <path id="Path_907659" data-name="Path 907659" d="M376.974,227.066a25.224,25.224,0,0,0-2.37-4.736c2.342-7.541,3.092-10.079,2.633-13.3-.292-2.05-1.9-4.1-3.9-4H371.8c-.091,1.429-4.062,1.5-5.567.516l-1.386.038c-.98.349-4.32,5.233-4.683,8.478a7.131,7.131,0,0,0,1.768,4.922,24.814,24.814,0,0,1-.2,3.34s.01,6.38,0,9.553c0,0,.774,2.447,8.807,1.682,7.149-.679,7.321-3.125,7.321-3.125a15.2,15.2,0,0,0-.9-3.374Z" transform="translate(-337.814 -187.788)" fill="#bfc9ff"/>
            <g id="Group_1120828" data-name="Group 1120828" transform="translate(23.051)">
              <path id="Path_907660" data-name="Path 907660" d="M368.015,169.633a5.081,5.081,0,0,0-4.4,1.6,3.556,3.556,0,0,0,.272,5.477l4.134-7.073" transform="translate(-362.065 -169.284)" fill="#263238"/>
              <path id="Path_907661" data-name="Path 907661" d="M362.735,185.87s-1.219,1.83-1.061,2.026a2.848,2.848,0,0,0,.927.4Z" transform="translate(-361.661 -177.784)" fill="#f28f8f"/>
              <path id="Path_907662" data-name="Path 907662" d="M367.411,173.223c-1.18.607-3.221,1.725-3.756,6.064-.55,4.454.44,6.007,1.046,6.595.411.4,2.523.545,3.632.205a11.5,11.5,0,0,0,5.787-4.191c1.658-2.7,2.007-6.308.105-7.727a7.109,7.109,0,0,0-6.815-.941Z" transform="translate(-362.618 -170.933)" fill="#ffa8a7"/>
              <path id="Path_907663" data-name="Path 907663" d="M368.371,176.361c-2.471-1.257-1.84-4.535-1.84-4.535s3.527-5.042,10.036-1.778a7.081,7.081,0,0,1,3.546,6.69h0a7.065,7.065,0,0,1-7.063,7.063h0a4.115,4.115,0,0,1-4.115-4.115v-.272l.21.067a2.09,2.09,0,0,0,1.921-.511c1.085-.932,1.214-2.762-.158-3.226s-2.088,1.128-2.088,1.128h0l-.53,1.458a1.037,1.037,0,0,1-.621-1.329,1.013,1.013,0,0,1,.7-.626Z" transform="translate(-364.166 -168.949)" fill="#263238"/>
            </g>
            <g id="Group_1120831" data-name="Group 1120831" transform="translate(0.581 8.421)">
              <path id="Path_907664" data-name="Path 907664" d="M326.386,186.57l-11.746,5.883,5.524,15.918,10.967-5.907Z" transform="translate(-314.64 -186.57)" fill="#d4e157"/>
              <path id="Path_907665" data-name="Path 907665" d="M327.279,189.79l-9.859,4.937,4.9,13.687,9.2-4.956Z" transform="translate(-316.091 -188.251)" fill="#f5f5f5"/>
              <g id="Group_1120829" data-name="Group 1120829" transform="translate(3.89 2.35)" opacity="0.15">
                <path id="Path_907666" data-name="Path 907666" d="M327.989,192.11s-.081-.22-.182-.487-.918-.124-1.821.325l-1.735.86c-.908.449-1.558,1.032-1.462,1.3l.182.487Z" transform="translate(-322.78 -191.488)"/>
              </g>
              <g id="Group_1120830" data-name="Group 1120830" transform="translate(2.916 0.841)">
                <path id="Path_907667" data-name="Path 907667" d="M326.767,188.521c-.062-.167-.416-.148-.793.048l-.679.354s-.4-1.051-1.959-.354-1.228,1.916-1.228,1.916l-.722.382c-.4.21-.683.521-.64.693l.081.311,6.05-3.03s-.053-.143-.115-.311Z" transform="translate(-320.741 -188.33)" fill="#37474f"/>
                <path id="Path_907668" data-name="Path 907668" d="M327.448,189.919c-.564.263-.784.392-.631.808.177.473.339.812.339.812l-2.676,1.343s-.21-.6-.306-.836-.287-.344-.712-.134l-.153-.167,4.22-2.064-.086.234Z" transform="translate(-322.082 -189.035)" fill="#263238"/>
                <path id="Path_907669" data-name="Path 907669" d="M328.233,192.16s-.081-.22-.182-.487-.918-.124-1.821.325l-1.735.86c-.908.449-1.558,1.032-1.458,1.3l.182.487,5.018-2.485Z" transform="translate(-321.935 -190.005)" fill="#37474f"/>
              </g>
            </g>
            <path id="Path_907670" data-name="Path 907670" d="M354.795,206.2c-1.849-.029-2.968.134-5.491,3.88s-7.206,10.647-7.751,11.541a4.787,4.787,0,0,0-.315,4.315c.583,1.085,1.6,1.462,4.511-1.625,2.155-2.289,6.681-8.368,6.681-8.368s3.522-6.566,2.37-9.739Z" transform="translate(-327.749 -188.396)" fill="#ffa8a7"/>
            <path id="Path_907671" data-name="Path 907671" d="M328.055,227.927c-1.524.473-7.116-6.189-8.674-8.191a22.961,22.961,0,0,0-4.368-4.43c-2.155-1.649-1.8-4.119-.808-6.37.344-.779,1.453-.249,1.453-.249l.378,1.085.65,1.878c.454.435.717.583.75.454.062-.239-.32-1.247-.292-2.294.033-1.257.9-.416,1.156.029a15.273,15.273,0,0,1,.894,2.093c.421,1.133.22,2.27.741,3.044s8.119,7.087,8.119,7.087v5.873Z" transform="translate(-313.425 -189.605)" fill="#ffa8a7"/>
          </g>
          <path id="Path_907672" data-name="Path 907672" d="M373.942,241.23s-5.362,3.164-12.865,0a111.6,111.6,0,0,0-1.362,11.894c-.268,5.075-.855,15.966-.855,15.966s2.217,2.585,10.122,2.06c7.594-.5,8.936-2.485,8.936-2.485s.019-9.782.057-14.059c.053-5.467-.717-8.459-4.033-13.376Z" transform="translate(-337.147 -206.688)" fill="#52a1aa"/>
          <path id="Path_907673" data-name="Path 907673" d="M394.455,179.2l1.252-1.147a1.095,1.095,0,0,0-1.854,1.061c-.158-.014-.311-.024-.473-.024v10.079a5.231,5.231,0,0,0,5.233,5.233V184.32a5.233,5.233,0,0,0-4.162-5.123Z" transform="translate(-355.171 -173.514)" fill="#263238"/>
        </g>
      </g>
    </g>
  </g>
</svg>
